solid GovernorG4
facet normal 5.12885515633872e-011 1.0 6.69620374162009e-010
  outer loop
    vertex 264.463098094198 -366.999419012388 3.99999977262341
    vertex 303.46309809425 -366.999419010879 1.85495514642753e-007
    vertex 267.463098094253 -366.999419012076 0.0
  endloop
endfacet
facet normal 5.12885515633872e-011 1.0 6.69620374162009e-010
  outer loop
    vertex 303.46309809425 -366.999419010879 1.85495514642753e-007
    vertex 264.463098094198 -366.999419012388 3.99999977262341
    vertex 273.463098100032 -366.999418912197 3.99999938853747
  endloop
endfacet
facet normal 5.12885515633872e-011 1.0 6.69620374162009e-010
  outer loop
    vertex 273.463098100032 -366.999418912197 3.99999938853747
    vertex 264.463098094198 -366.999419012388 3.99999977262341
    vertex 270.463098100029 -366.999418912197 7.99999990405897
  endloop
endfacet
facet normal 5.12885515633872e-011 1.0 6.69620374162009e-010
  outer loop
    vertex 270.463098100029 -366.999418912197 7.99999990405897
    vertex 264.463098094198 -366.999419012388 3.99999977262341
    vertex 241.463098082663 -366.999419010961 4.00000003142479
  endloop
endfacet
facet normal 5.12885515633872e-011 1.0 6.69620374162009e-010
  outer loop
    vertex 270.463098100029 -366.999418912197 7.99999990405897
    vertex 241.463098082663 -366.999419010961 4.00000003142479
    vertex 246.463098066692 -366.999418993117 7.99999993200622
  endloop
endfacet
facet normal 5.12885515633872e-011 1.0 6.69620374162009e-010
  outer loop
    vertex 246.463098066692 -366.999418993117 7.99999993200622
    vertex 241.463098082663 -366.999419010961 4.00000003142479
    vertex 241.463098066796 -366.999418978973 33.0000000914346
  endloop
endfacet
facet normal 5.12885515633872e-011 1.0 6.69620374162009e-010
  outer loop
    vertex 246.463098066692 -366.999418993117 7.99999993200622
    vertex 241.463098066796 -366.999418978973 33.0000000914346
    vertex 246.463098066796 -366.999418978973 33.0000000912893
  endloop
endfacet
facet normal 5.12885515633872e-011 1.0 6.69620374162009e-010
  outer loop
    vertex 246.463098066796 -366.999418978973 33.0000000912893
    vertex 241.463098066796 -366.999418978973 33.0000000914346
    vertex 253.463098073057 -366.999418988416 33.0000001209095
  endloop
endfacet
facet normal 5.12885515633872e-011 1.0 6.69620374162009e-010
  outer loop
    vertex 253.463098073057 -366.999418988416 33.0000001209095
    vertex 241.463098066796 -366.999418978973 33.0000000914346
    vertex 250.463098055402 -366.999419085338 47.0000000968644
  endloop
endfacet
facet normal 5.12885515633872e-011 1.0 6.69620374162009e-010
  outer loop
    vertex 253.463098073057 -366.999418988416 33.0000001209095
    vertex 250.463098055402 -366.999419085338 47.0000000968644
    vertex 261.463098073057 -366.999419029547 43.0000000623783
  endloop
endfacet
facet normal 5.12885515633872e-011 1.0 6.69620374162009e-010
  outer loop
    vertex 261.463098073057 -366.999419029547 43.0000000623783
    vertex 250.463098055402 -366.999419085338 47.0000000968644
    vertex 309.463098073057 -366.999419029547 43.000000133615
  endloop
endfacet
facet normal 5.12885515633872e-011 1.0 6.69620374162009e-010
  outer loop
    vertex 309.463098073057 -366.999419029547 43.000000133615
    vertex 250.463098055402 -366.999419085338 47.0000000968644
    vertex 333.463098067797 -366.999419059357 47.0000000926415
  endloop
endfacet
facet normal 5.12885515633872e-011 1.0 6.69620374162009e-010
  outer loop
    vertex 303.46309809425 -366.999419010879 1.85495514642753e-007
    vertex 297.463098100032 -366.999418912197 3.99999938866163
    vertex 306.463098092825 -366.999419011745 3.99999977372428
  endloop
endfacet
facet normal 5.12885515633872e-011 1.0 6.69620374162009e-010
  outer loop
    vertex 297.463098100032 -366.999418912197 3.99999938866163
    vertex 303.46309809425 -366.999419010879 1.85495514642753e-007
    vertex 273.463098100032 -366.999418912197 3.99999938853747
  endloop
endfacet
facet normal 5.12885515633872e-011 1.0 6.69620374162009e-010
  outer loop
    vertex 306.463098092825 -366.999419011745 3.99999977372428
    vertex 297.463098100032 -366.999418912197 3.99999938866163
    vertex 300.463098100029 -366.999418912197 7.99999989507132
  endloop
endfacet
facet normal 5.12885515633872e-011 1.0 6.69620374162009e-010
  outer loop
    vertex 306.463098092825 -366.999419011745 3.99999977372428
    vertex 300.463098100029 -366.999418912197 7.99999989507132
    vertex 343.463098067 -366.999419004083 3.9999999254637
  endloop
endfacet
facet normal 5.12885515633872e-011 1.0 6.69620374162009e-010
  outer loop
    vertex 343.463098067 -366.999419004083 3.9999999254637
    vertex 300.463098100029 -366.999418912197 7.99999989507132
    vertex 329.463098065418 -366.999418995262 8.00000002740187
  endloop
endfacet
facet normal 5.12885515633872e-011 1.0 6.69620374162009e-010
  outer loop
    vertex 343.463098067 -366.999419004083 3.9999999254637
    vertex 329.463098065418 -366.999418995262 8.00000002740187
    vertex 343.46309806734 -366.999418987676 33.0000000459171
  endloop
endfacet
facet normal 5.12885515633872e-011 1.0 6.69620374162009e-010
  outer loop
    vertex 343.46309806734 -366.999418987676 33.0000000459171
    vertex 329.463098065418 -366.999418995262 8.00000002740187
    vertex 329.463098063303 -366.999418939439 32.9999999531916
  endloop
endfacet
facet normal 5.12885515633872e-011 1.0 6.69620374162009e-010
  outer loop
    vertex 343.46309806734 -366.999418987676 33.0000000459171
    vertex 329.463098063303 -366.999418939439 32.9999999531916
    vertex 317.463098073057 -366.999418933162 32.9999999595711
  endloop
endfacet
facet normal 5.12885515633872e-011 1.0 6.69620374162009e-010
  outer loop
    vertex 343.46309806734 -366.999418987676 33.0000000459171
    vertex 317.463098073057 -366.999418933162 32.9999999595711
    vertex 309.463098073057 -366.999419029547 43.000000133615
  endloop
endfacet
facet normal 5.12885515633872e-011 1.0 6.69620374162009e-010
  outer loop
    vertex 343.46309806734 -366.999418987676 33.0000000459171
    vertex 309.463098073057 -366.999419029547 43.000000133615
    vertex 333.463098067797 -366.999419059357 47.0000000926415
  endloop
endfacet
facet normal -0.79999998362357 4.42803079529313e-010 -0.60000002183524
  outer loop
    vertex 264.463098094198 -366.999419012388 3.99999977262341
    vertex 267.463098094099 -369.999419012076 -2.00886112248603e-009
    vertex 264.463098094044 -369.999419012388 3.99999977061454
  endloop
endfacet
facet normal -0.79999998362357 4.42803079529313e-010 -0.60000002183524
  outer loop
    vertex 267.463098094099 -369.999419012076 -2.00886112248603e-009
    vertex 264.463098094198 -366.999419012388 3.99999977262341
    vertex 267.463098094253 -366.999419012076 0.0
  endloop
endfacet
facet normal -0.841178475783361 -3.18959474573322e-010 0.540757590680688
  outer loop
    vertex 250.463098055402 -366.999419085338 47.0000000968644
    vertex 241.463098066642 -369.999418978973 33.0000000894257
    vertex 250.463098055248 -369.999419085338 47.0000000948555
  endloop
endfacet
facet normal -0.841178475783361 -3.18959474573322e-010 0.540757590680688
  outer loop
    vertex 241.463098066642 -369.999418978973 33.0000000894257
    vertex 250.463098055402 -366.999419085338 47.0000000968644
    vertex 241.463098066796 -366.999418978973 33.0000000914346
  endloop
endfacet
facet normal 5.08779512686449e-011 -6.69620374164619e-010 1.0
  outer loop
    vertex 333.463098067643 -369.999419059357 47.0000000906327
    vertex 250.463098055402 -366.999419085338 47.0000000968644
    vertex 250.463098055248 -369.999419085338 47.0000000948555
  endloop
endfacet
facet normal 5.08779512686449e-011 -6.69620374164619e-010 1.0
  outer loop
    vertex 250.463098055402 -366.999419085338 47.0000000968644
    vertex 333.463098067643 -369.999419059357 47.0000000906327
    vertex 333.463098067797 -366.999419059357 47.0000000926415
  endloop
endfacet
facet normal -5.12885515633872e-011 -1.0 -6.69620374162009e-010
  outer loop
    vertex 303.463098094096 -369.999419010879 1.83486653520267e-007
    vertex 297.463098099878 -369.999418912197 3.99999938665277
    vertex 273.463098099878 -369.999418912197 3.99999938652861
  endloop
endfacet
facet normal -5.12885515633872e-011 -1.0 -6.69620374162009e-010
  outer loop
    vertex 297.463098099878 -369.999418912197 3.99999938665277
    vertex 303.463098094096 -369.999419010879 1.83486653520267e-007
    vertex 306.463098092671 -369.999419011745 3.99999977171542
  endloop
endfacet
facet normal -5.12885515633872e-011 -1.0 -6.69620374162009e-010
  outer loop
    vertex 297.463098099878 -369.999418912197 3.99999938665277
    vertex 306.463098092671 -369.999419011745 3.99999977171542
    vertex 300.463098099875 -369.999418912197 7.99999989306245
  endloop
endfacet
facet normal -5.12885515633872e-011 -1.0 -6.69620374162009e-010
  outer loop
    vertex 300.463098099875 -369.999418912197 7.99999989306245
    vertex 306.463098092671 -369.999419011745 3.99999977171542
    vertex 343.463098066846 -369.999419004083 3.99999992345484
  endloop
endfacet
facet normal -5.12885515633872e-011 -1.0 -6.69620374162009e-010
  outer loop
    vertex 300.463098099875 -369.999418912197 7.99999989306245
    vertex 343.463098066846 -369.999419004083 3.99999992345484
    vertex 329.463098065264 -369.999418995262 8.00000002539301
  endloop
endfacet
facet normal -5.12885515633872e-011 -1.0 -6.69620374162009e-010
  outer loop
    vertex 329.463098065264 -369.999418995262 8.00000002539301
    vertex 343.463098066846 -369.999419004083 3.99999992345484
    vertex 343.463098067186 -369.999418987676 33.0000000439083
  endloop
endfacet
facet normal -5.12885515633872e-011 -1.0 -6.69620374162009e-010
  outer loop
    vertex 329.463098065264 -369.999418995262 8.00000002539301
    vertex 343.463098067186 -369.999418987676 33.0000000439083
    vertex 329.463098063149 -369.999418939439 32.9999999511827
  endloop
endfacet
facet normal -5.12885515633872e-011 -1.0 -6.69620374162009e-010
  outer loop
    vertex 329.463098063149 -369.999418939439 32.9999999511827
    vertex 343.463098067186 -369.999418987676 33.0000000439083
    vertex 317.463098072903 -369.999418933162 32.9999999575623
  endloop
endfacet
facet normal -5.12885515633872e-011 -1.0 -6.69620374162009e-010
  outer loop
    vertex 317.463098072903 -369.999418933162 32.9999999575623
    vertex 343.463098067186 -369.999418987676 33.0000000439083
    vertex 309.463098072903 -369.999419029547 43.0000001316061
  endloop
endfacet
facet normal -5.12885515633872e-011 -1.0 -6.69620374162009e-010
  outer loop
    vertex 309.463098072903 -369.999419029547 43.0000001316061
    vertex 343.463098067186 -369.999418987676 33.0000000439083
    vertex 333.463098067643 -369.999419059357 47.0000000906327
  endloop
endfacet
facet normal -5.12885515633872e-011 -1.0 -6.69620374162009e-010
  outer loop
    vertex 303.463098094096 -369.999419010879 1.83486653520267e-007
    vertex 264.463098094044 -369.999419012388 3.99999977061454
    vertex 267.463098094099 -369.999419012076 -2.00886112248603e-009
  endloop
endfacet
facet normal -5.12885515633872e-011 -1.0 -6.69620374162009e-010
  outer loop
    vertex 264.463098094044 -369.999419012388 3.99999977061454
    vertex 303.463098094096 -369.999419010879 1.83486653520267e-007
    vertex 273.463098099878 -369.999418912197 3.99999938652861
  endloop
endfacet
facet normal -5.12885515633872e-011 -1.0 -6.69620374162009e-010
  outer loop
    vertex 264.463098094044 -369.999419012388 3.99999977061454
    vertex 273.463098099878 -369.999418912197 3.99999938652861
    vertex 270.463098099875 -369.999418912197 7.99999990205011
  endloop
endfacet
facet normal -5.12885515633872e-011 -1.0 -6.69620374162009e-010
  outer loop
    vertex 264.463098094044 -369.999419012388 3.99999977061454
    vertex 270.463098099875 -369.999418912197 7.99999990205011
    vertex 241.463098082509 -369.999419010961 4.00000002941593
  endloop
endfacet
facet normal -5.12885515633872e-011 -1.0 -6.69620374162009e-010
  outer loop
    vertex 241.463098082509 -369.999419010961 4.00000002941593
    vertex 270.463098099875 -369.999418912197 7.99999990205011
    vertex 246.463098066538 -369.999418993117 7.99999992999736
  endloop
endfacet
facet normal -5.12885515633872e-011 -1.0 -6.69620374162009e-010
  outer loop
    vertex 241.463098082509 -369.999419010961 4.00000002941593
    vertex 246.463098066538 -369.999418993117 7.99999992999736
    vertex 241.463098066642 -369.999418978973 33.0000000894257
  endloop
endfacet
facet normal -5.12885515633872e-011 -1.0 -6.69620374162009e-010
  outer loop
    vertex 241.463098066642 -369.999418978973 33.0000000894257
    vertex 246.463098066538 -369.999418993117 7.99999992999736
    vertex 246.463098066642 -369.999418978973 33.0000000892804
  endloop
endfacet
facet normal -5.12885515633872e-011 -1.0 -6.69620374162009e-010
  outer loop
    vertex 241.463098066642 -369.999418978973 33.0000000894257
    vertex 246.463098066642 -369.999418978973 33.0000000892804
    vertex 253.463098072903 -369.999418988416 33.0000001189006
  endloop
endfacet
facet normal -5.12885515633872e-011 -1.0 -6.69620374162009e-010
  outer loop
    vertex 241.463098066642 -369.999418978973 33.0000000894257
    vertex 253.463098072903 -369.999418988416 33.0000001189006
    vertex 250.463098055248 -369.999419085338 47.0000000948555
  endloop
endfacet
facet normal -5.12885515633872e-011 -1.0 -6.69620374162009e-010
  outer loop
    vertex 250.463098055248 -369.999419085338 47.0000000948555
    vertex 253.463098072903 -369.999418988416 33.0000001189006
    vertex 261.463098072903 -369.999419029547 43.0000000603695
  endloop
endfacet
facet normal -5.12885515633872e-011 -1.0 -6.69620374162009e-010
  outer loop
    vertex 250.463098055248 -369.999419085338 47.0000000948555
    vertex 261.463098072903 -369.999419029547 43.0000000603695
    vertex 309.463098072903 -369.999419029547 43.0000001316061
  endloop
endfacet
facet normal -5.12885515633872e-011 -1.0 -6.69620374162009e-010
  outer loop
    vertex 250.463098055248 -369.999419085338 47.0000000948555
    vertex 309.463098072903 -369.999419029547 43.0000001316061
    vertex 333.463098067643 -369.999419059357 47.0000000906327
  endloop
endfacet
facet normal -1.12522339174632e-008 6.6962037473912e-010 -1.0
  outer loop
    vertex 241.463098082663 -366.999419010961 4.00000003142479
    vertex 264.463098094044 -369.999419012388 3.99999977061454
    vertex 241.463098082509 -369.999419010961 4.00000002941593
  endloop
endfacet
facet normal -1.12522339174632e-008 6.6962037473912e-010 -1.0
  outer loop
    vertex 264.463098094044 -369.999419012388 3.99999977061454
    vertex 241.463098082663 -366.999419010961 4.00000003142479
    vertex 264.463098094198 -366.999419012388 3.99999977262341
  endloop
endfacet
facet normal -1.0 5.12885519297723e-011 -5.47153491791973e-010
  outer loop
    vertex 241.463098066642 -369.999418978973 33.0000000894257
    vertex 241.463098082663 -366.999419010961 4.00000003142479
    vertex 241.463098082509 -369.999419010961 4.00000002941593
  endloop
endfacet
facet normal -1.0 5.12885519297723e-011 -5.47153491791973e-010
  outer loop
    vertex 241.463098082663 -366.999419010961 4.00000003142479
    vertex 241.463098066642 -369.999418978973 33.0000000894257
    vertex 241.463098066796 -366.999418978973 33.0000000914346
  endloop
endfacet
facet normal 0.799999970489211 3.60741411108094e-010 -0.600000039347717
  outer loop
    vertex 303.463098094096 -369.999419010879 1.83486653520267e-007
    vertex 306.463098092825 -366.999419011745 3.99999977372428
    vertex 306.463098092671 -369.999419011745 3.99999977171542
  endloop
endfacet
facet normal 0.799999970489211 3.60741411108094e-010 -0.600000039347717
  outer loop
    vertex 306.463098092825 -366.999419011745 3.99999977372428
    vertex 303.463098094096 -369.999419010879 1.83486653520267e-007
    vertex 303.46309809425 -366.999419010879 1.85495514642753e-007
  endloop
endfacet
facet normal 1.0 -5.12885515605928e-011 -4.17299446677294e-012
  outer loop
    vertex 246.463098066692 -366.999418993117 7.99999993200622
    vertex 246.463098066642 -369.999418978973 33.0000000892804
    vertex 246.463098066538 -369.999418993117 7.99999992999736
  endloop
endfacet
facet normal 1.0 -5.12885515605928e-011 -4.17299446677294e-012
  outer loop
    vertex 246.463098066642 -369.999418978973 33.0000000892804
    vertex 246.463098066692 -366.999418993117 7.99999993200622
    vertex 246.463098066796 -366.999418978973 33.0000000912893
  endloop
endfacet
facet normal 5.15265318449914e-009 6.69620373897737e-010 -1.0
  outer loop
    vertex 267.463098094253 -366.999419012076 0.0
    vertex 303.463098094096 -369.999419010879 1.83486653520267e-007
    vertex 267.463098094099 -369.999419012076 -2.00886112248603e-009
  endloop
endfacet
facet normal 5.15265318449914e-009 6.69620373897737e-010 -1.0
  outer loop
    vertex 303.463098094096 -369.999419010879 1.83486653520267e-007
    vertex 267.463098094253 -366.999419012076 0.0
    vertex 303.46309809425 -366.999419010879 1.85495514642753e-007
  endloop
endfacet
facet normal 0.800000037117258 -4.42803034512307e-010 0.599999950510319
  outer loop
    vertex 273.463098100032 -366.999418912197 3.99999938853747
    vertex 270.463098099875 -369.999418912197 7.99999990205011
    vertex 273.463098099878 -369.999418912197 3.99999938652861
  endloop
endfacet
facet normal 0.800000037117258 -4.42803034512307e-010 0.599999950510319
  outer loop
    vertex 270.463098099875 -369.999418912197 7.99999990205011
    vertex 273.463098100032 -366.999418912197 3.99999938853747
    vertex 270.463098100029 -366.999418912197 7.99999990405897
  endloop
endfacet
facet normal 0.813733472136813 -4.30944147028056e-010 0.581238192416987
  outer loop
    vertex 343.463098067186 -369.999418987676 33.0000000439083
    vertex 333.463098067797 -366.999419059357 47.0000000926415
    vertex 333.463098067643 -369.999419059357 47.0000000906327
  endloop
endfacet
facet normal 0.813733472136813 -4.30944147028056e-010 0.581238192416987
  outer loop
    vertex 333.463098067797 -366.999419059357 47.0000000926415
    vertex 343.463098067186 -369.999418987676 33.0000000439083
    vertex 343.46309806734 -366.999418987676 33.0000000459171
  endloop
endfacet
facet normal 1.16446886851971e-009 -6.69620374221733e-010 1.0
  outer loop
    vertex 270.463098099875 -369.999418912197 7.99999990205011
    vertex 246.463098066692 -366.999418993117 7.99999993200622
    vertex 246.463098066538 -369.999418993117 7.99999992999736
  endloop
endfacet
facet normal 1.16446886851971e-009 -6.69620374221733e-010 1.0
  outer loop
    vertex 246.463098066692 -366.999418993117 7.99999993200622
    vertex 270.463098099875 -369.999418912197 7.99999990205011
    vertex 270.463098100029 -366.999418912197 7.99999990405897
  endloop
endfacet
facet normal -5.17309691379829e-012 -6.69620374161744e-010 1.0
  outer loop
    vertex 297.463098099878 -369.999418912197 3.99999938665277
    vertex 273.463098100032 -366.999418912197 3.99999938853747
    vertex 273.463098099878 -369.999418912197 3.99999938652861
  endloop
endfacet
facet normal -5.17309691379829e-012 -6.69620374161744e-010 1.0
  outer loop
    vertex 273.463098100032 -366.999418912197 3.99999938853747
    vertex 297.463098099878 -369.999418912197 3.99999938665277
    vertex 297.463098100032 -366.999418912197 3.99999938866163
  endloop
endfacet
facet normal 1.0 -5.1288551555546e-011 -1.1709901017103e-011
  outer loop
    vertex 343.463098067 -366.999419004083 3.9999999254637
    vertex 343.463098067186 -369.999418987676 33.0000000439083
    vertex 343.463098066846 -369.999419004083 3.99999992345484
  endloop
endfacet
facet normal 1.0 -5.1288551555546e-011 -1.1709901017103e-011
  outer loop
    vertex 343.463098067186 -369.999418987676 33.0000000439083
    vertex 343.463098067 -366.999419004083 3.9999999254637
    vertex 343.46309806734 -366.999418987676 33.0000000459171
  endloop
endfacet
facet normal 4.10106553454931e-009 6.69620373951672e-010 -1.0
  outer loop
    vertex 306.463098092825 -366.999419011745 3.99999977372428
    vertex 343.463098066846 -369.999419004083 3.99999992345484
    vertex 306.463098092671 -369.999419011745 3.99999977171542
  endloop
endfacet
facet normal 4.10106553454931e-009 6.69620373951672e-010 -1.0
  outer loop
    vertex 343.463098066846 -369.999419004083 3.99999992345484
    vertex 306.463098092825 -366.999419011745 3.99999977372428
    vertex 343.463098067 -366.999419004083 3.9999999254637
  endloop
endfacet
facet normal -5.31629045105228e-010 6.69620374189276e-010 -1.0
  outer loop
    vertex 317.463098073057 -366.999418933162 32.9999999595711
    vertex 329.463098063149 -369.999418939439 32.9999999511827
    vertex 317.463098072903 -369.999418933162 32.9999999575623
  endloop
endfacet
facet normal -5.31629045105228e-010 6.69620374189276e-010 -1.0
  outer loop
    vertex 329.463098063149 -369.999418939439 32.9999999511827
    vertex 317.463098073057 -366.999418933162 32.9999999595711
    vertex 329.463098063303 -366.999418939439 32.9999999531916
  endloop
endfacet
facet normal 1.48409731461166e-009 6.69620374085892e-010 -1.0
  outer loop
    vertex 261.463098073057 -366.999419029547 43.0000000623783
    vertex 309.463098072903 -369.999419029547 43.0000001316061
    vertex 261.463098072903 -369.999419029547 43.0000000603695
  endloop
endfacet
facet normal 1.48409731461166e-009 6.69620374085892e-010 -1.0
  outer loop
    vertex 309.463098072903 -369.999419029547 43.0000001316061
    vertex 261.463098073057 -366.999419029547 43.0000000623783
    vertex 309.463098073057 -366.999419029547 43.000000133615
  endloop
endfacet
facet normal -1.0 5.12885516200508e-011 -8.4620493364221e-011
  outer loop
    vertex 329.463098063149 -369.999418939439 32.9999999511827
    vertex 329.463098065418 -366.999418995262 8.00000002740187
    vertex 329.463098065264 -369.999418995262 8.00000002539301
  endloop
endfacet
facet normal -1.0 5.12885516200508e-011 -8.4620493364221e-011
  outer loop
    vertex 329.463098065418 -366.999418995262 8.00000002740187
    vertex 329.463098063149 -369.999418939439 32.9999999511827
    vertex 329.463098063303 -366.999418939439 32.9999999531916
  endloop
endfacet
facet normal 0.78086880765942 3.78258902867594e-010 -0.624695049783937
  outer loop
    vertex 253.463098072903 -369.999418988416 33.0000001189006
    vertex 261.463098073057 -366.999419029547 43.0000000623783
    vertex 261.463098072903 -369.999419029547 43.0000000603695
  endloop
endfacet
facet normal 0.78086880765942 3.78258902867594e-010 -0.624695049783937
  outer loop
    vertex 261.463098073057 -366.999419029547 43.0000000623783
    vertex 253.463098072903 -369.999418988416 33.0000001189006
    vertex 253.463098073057 -366.999418988416 33.0000001209095
  endloop
endfacet
facet normal -4.56312253061027e-009 -6.69620373927973e-010 1.0
  outer loop
    vertex 329.463098065264 -369.999418995262 8.00000002539301
    vertex 300.463098100029 -366.999418912197 7.99999989507132
    vertex 300.463098099875 -369.999418912197 7.99999989306245
  endloop
endfacet
facet normal -4.56312253061027e-009 -6.69620373927973e-010 1.0
  outer loop
    vertex 300.463098100029 -366.999418912197 7.99999989507132
    vertex 329.463098065264 -369.999418995262 8.00000002539301
    vertex 329.463098065418 -366.999418995262 8.00000002740187
  endloop
endfacet
facet normal 4.23145201860441e-009 6.69620373944984e-010 -1.0
  outer loop
    vertex 246.463098066796 -366.999418978973 33.0000000912893
    vertex 253.463098072903 -369.999418988416 33.0000001189006
    vertex 246.463098066642 -369.999418978973 33.0000000892804
  endloop
endfacet
facet normal 4.23145201860441e-009 6.69620373944984e-010 -1.0
  outer loop
    vertex 253.463098072903 -369.999418988416 33.0000001189006
    vertex 246.463098066796 -366.999418978973 33.0000000912893
    vertex 253.463098073057 -366.999418988416 33.0000001209095
  endloop
endfacet
facet normal -0.780868814746654 4.58358157510654e-010 -0.624695040924894
  outer loop
    vertex 309.463098073057 -366.999419029547 43.000000133615
    vertex 317.463098072903 -369.999418933162 32.9999999575623
    vertex 309.463098072903 -369.999419029547 43.0000001316061
  endloop
endfacet
facet normal -0.780868814746654 4.58358157510654e-010 -0.624695040924894
  outer loop
    vertex 317.463098072903 -369.999418933162 32.9999999575623
    vertex 309.463098073057 -366.999419029547 43.000000133615
    vertex 317.463098073057 -366.999418933162 32.9999999595711
  endloop
endfacet
facet normal -0.800000036461776 -3.60741348822358e-010 0.599999951384296
  outer loop
    vertex 300.463098100029 -366.999418912197 7.99999989507132
    vertex 297.463098099878 -369.999418912197 3.99999938665277
    vertex 300.463098099875 -369.999418912197 7.99999989306245
  endloop
endfacet
facet normal -0.800000036461776 -3.60741348822358e-010 0.599999951384296
  outer loop
    vertex 297.463098099878 -369.999418912197 3.99999938665277
    vertex 300.463098100029 -366.999418912197 7.99999989507132
    vertex 297.463098100032 -366.999418912197 3.99999938866163
  endloop
endfacet
endsolid GovernorG4
