M48
; DRILL file {KiCad 7.0.8} date Sat Nov  4 22:50:30 2023
; FORMAT={-:-/ absolute / inch / decimal}
; #@! TF.CreationDate,2023-11-04T22:50:30-04:00
; #@! TF.GenerationSoftware,Kicad,Pcbnew,7.0.8
; #@! TF.FileFunction,Plated,1,2,PTH
FMAT,2
INCH
; #@! TA.AperFunction,Plated,PTH,ViaDrill
T1C0.0157
; #@! TA.AperFunction,Plated,PTH,ComponentDrill
T2C0.0295
; #@! TA.AperFunction,Plated,PTH,ComponentDrill
T3C0.0300
; #@! TA.AperFunction,Plated,PTH,ComponentDrill
T4C0.0315
; #@! TA.AperFunction,Plated,PTH,ComponentDrill
T5C0.0394
; #@! TA.AperFunction,Plated,PTH,ComponentDrill
T6C0.0402
; #@! TA.AperFunction,Plated,PTH,ComponentDrill
T7C0.0433
; #@! TA.AperFunction,Plated,PTH,ComponentDrill
T8C0.0512
; #@! TA.AperFunction,Plated,PTH,ComponentDrill
T9C0.0591
%
G90
G05
T1
X3.0992Y-3.925
T2
X4.38Y-5.2832
X4.43Y-5.2832
X4.48Y-5.2832
T3
X2.875Y-4.79
X2.875Y-5.15
X3.475Y-4.79
X3.475Y-5.15
T4
X2.525Y-5.35
X2.525Y-5.65
X2.575Y-4.125
X2.625Y-5.25
X2.625Y-5.55
X2.675Y-4.0
X2.875Y-4.125
X2.975Y-4.0
X3.375Y-5.325
X3.375Y-5.625
X3.5Y-5.325
X3.5Y-5.625
X3.78Y-4.969
X3.78Y-5.094
X3.93Y-5.244
X4.08Y-4.969
X4.08Y-5.094
X4.205Y-4.969
X4.205Y-5.094
X4.23Y-5.244
X4.505Y-4.969
X4.505Y-5.094
T5
X2.4244Y-4.55
X2.4244Y-4.65
X2.4244Y-4.95
X2.425Y-3.975
X2.425Y-4.075
X2.425Y-4.175
X2.425Y-4.275
X2.425Y-4.375
X2.425Y-4.75
X2.425Y-4.85
X2.425Y-5.05
X2.425Y-5.15
X2.425Y-5.25
X2.425Y-5.35
X2.425Y-5.45
X2.425Y-5.55
X2.5244Y-4.55
X2.5244Y-4.65
X2.5244Y-4.95
X2.525Y-4.75
X2.525Y-4.85
X2.525Y-5.05
X2.525Y-5.15
X2.6244Y-4.55
X2.6244Y-4.65
X2.6244Y-4.95
X2.625Y-4.75
X2.625Y-4.85
X2.625Y-5.05
X2.625Y-5.15
X2.675Y-5.925
X2.775Y-5.925
X2.875Y-5.925
X2.975Y-5.925
X3.0493Y-4.3752
X3.075Y-5.925
X3.175Y-5.925
X3.275Y-5.925
X3.3262Y-5.7507
X3.3485Y-4.3752
X3.4256Y-5.925
X3.4262Y-5.7507
X3.5256Y-5.925
X3.5262Y-5.7507
X3.6256Y-5.925
X3.93Y-5.4154
X3.93Y-5.6123
X3.975Y-3.075
X3.975Y-3.175
X3.975Y-3.275
X3.975Y-3.375
X3.975Y-3.475
X3.975Y-3.575
X3.975Y-3.675
X4.2016Y-3.0994
X4.2016Y-3.6703
X4.3Y-3.6703
X4.355Y-5.519
X4.355Y-5.7159
X4.3984Y-3.0994
X4.3984Y-3.6703
X4.7037Y-5.7504
X4.8037Y-5.7504
X4.9037Y-5.7504
T6
X2.7243Y-4.25
X2.7243Y-4.35
X2.7243Y-4.45
X2.7243Y-4.55
X2.7243Y-4.65
X2.7243Y-4.75
X2.7243Y-4.85
X2.7243Y-4.95
X2.7243Y-5.05
X2.7243Y-5.15
X2.7243Y-5.25
X2.7243Y-5.35
X2.7243Y-5.45
X3.6243Y-4.25
X3.6243Y-4.35
X3.6243Y-4.45
X3.6243Y-4.55
X3.6243Y-4.65
X3.6243Y-4.75
X3.6243Y-4.85
X3.6243Y-4.95
X3.6243Y-5.05
X3.6243Y-5.15
X3.6243Y-5.25
X3.6243Y-5.35
X3.6243Y-5.45
T7
X2.8743Y-4.3752
X2.8743Y-4.6752
X3.78Y-4.019
X3.78Y-4.169
X3.83Y-4.7824
X3.93Y-4.7824
X4.03Y-4.7824
X4.08Y-4.019
X4.08Y-4.169
X4.255Y-4.3807
X4.355Y-4.3807
X4.455Y-4.3807
X4.647Y-3.2864
X4.647Y-3.4636
X4.647Y-2.9114
X4.647Y-3.0886
X4.647Y-3.6614
X4.647Y-3.8386
X4.9029Y-3.2864
X4.9029Y-3.4636
X4.903Y-2.9114
X4.903Y-3.0886
X4.903Y-3.6614
X4.903Y-3.8386
T8
X4.28Y-4.1057
X4.4769Y-4.1057
X4.8034Y-4.4503
X4.8034Y-4.6472
X4.8034Y-4.844
X4.8034Y-5.1286
X4.8034Y-5.3254
X4.8034Y-5.5223
T9
G00X4.0795Y-3.4006
M15
G01X4.0795Y-3.3494
M16
G05
G00X4.5205Y-3.4006
M15
G01X4.5205Y-3.3494
M16
G05
T0
M30
