solid GovernorG4
facet normal 0.382683432365102 -0.923879532511282 2.57618575444968e-014
  outer loop
    vertex 495.8553268645 -616.629507812324 14.0749465249645
    vertex 496.337688774295 -616.429706967315 19.6749465249632
    vertex 495.8553268645 -616.629507812324 19.6749465249633
  endloop
endfacet
facet normal 0.382683432365102 -0.923879532511282 2.57618575444968e-014
  outer loop
    vertex 496.337688774295 -616.429706967315 19.6749465249632
    vertex 495.8553268645 -616.629507812324 14.0749465249645
    vertex 496.337688774295 -616.429706967315 14.0749465249645
  endloop
endfacet
facet normal 0.130526192220041 -0.991444861373812 8.86197720958892e-015
  outer loop
    vertex 496.337688774295 -616.429706967315 14.0749465249645
    vertex 496.8553268645 -616.361558619893 19.6749465249633
    vertex 496.337688774295 -616.429706967315 19.6749465249632
  endloop
endfacet
facet normal 0.130526192220041 -0.991444861373812 8.86197720958892e-015
  outer loop
    vertex 496.8553268645 -616.361558619893 19.6749465249633
    vertex 496.337688774295 -616.429706967315 14.0749465249645
    vertex 496.8553268645 -616.361558619893 14.0749465249647
  endloop
endfacet
facet normal 0.793353340291175 -0.608761429008799 5.3262678391455e-014
  outer loop
    vertex 495.123276056931 -617.361558619893 19.6749465249632
    vertex 495.441113302127 -616.94734505752 14.0749465249645
    vertex 495.441113302127 -616.94734505752 19.6749465249633
  endloop
endfacet
facet normal 0.793353340291175 -0.608761429008799 5.3262678391455e-014
  outer loop
    vertex 495.441113302127 -616.94734505752 14.0749465249645
    vertex 495.123276056931 -617.361558619893 19.6749465249632
    vertex 495.123276056931 -617.361558619893 14.0749465249646
  endloop
endfacet
facet normal 0.923879532511312 -0.382683432365029 6.19894834100522e-014
  outer loop
    vertex 494.923475211922 -617.843920529688 14.0749465249646
    vertex 495.123276056931 -617.361558619893 19.6749465249632
    vertex 494.923475211922 -617.843920529688 19.6749465249632
  endloop
endfacet
facet normal 0.923879532511312 -0.382683432365029 6.19894834100522e-014
  outer loop
    vertex 495.123276056931 -617.361558619893 19.6749465249632
    vertex 494.923475211922 -617.843920529688 14.0749465249646
    vertex 495.123276056931 -617.361558619893 14.0749465249646
  endloop
endfacet
facet normal 0.99144486137381 0.130526192220052 6.64628249399281e-014
  outer loop
    vertex 494.923475211922 -618.879196710098 14.0749465249646
    vertex 494.8553268645 -618.361558619893 19.6749465249632
    vertex 494.923475211922 -618.879196710098 19.6749465249632
  endloop
endfacet
facet normal 0.99144486137381 0.130526192220052 6.64628249399281e-014
  outer loop
    vertex 494.8553268645 -618.361558619893 19.6749465249632
    vertex 494.923475211922 -618.879196710098 14.0749465249646
    vertex 494.8553268645 -618.361558619893 14.0749465249646
  endloop
endfacet
facet normal 0.79335334029118 0.608761429008793 5.31275062004572e-014
  outer loop
    vertex 495.441113302127 -619.775772182266 14.0749465249645
    vertex 495.123276056931 -619.361558619893 19.6749465249632
    vertex 495.441113302127 -619.775772182266 19.6749465249633
  endloop
endfacet
facet normal 0.79335334029118 0.608761429008793 5.31275062004572e-014
  outer loop
    vertex 495.123276056931 -619.361558619893 19.6749465249632
    vertex 495.441113302127 -619.775772182266 14.0749465249645
    vertex 495.123276056931 -619.361558619893 14.0749465249646
  endloop
endfacet
facet normal 0.608761429008744 0.793353340291218 4.07299500322176e-014
  outer loop
    vertex 495.8553268645 -620.093609427462 19.6749465249633
    vertex 495.441113302127 -619.775772182266 14.0749465249645
    vertex 495.441113302127 -619.775772182266 19.6749465249633
  endloop
endfacet
facet normal 0.608761429008744 0.793353340291218 4.07299500322176e-014
  outer loop
    vertex 495.441113302127 -619.775772182266 14.0749465249645
    vertex 495.8553268645 -620.093609427462 19.6749465249633
    vertex 495.8553268645 -620.093609427462 14.0749465249645
  endloop
endfacet
facet normal -0.130526192220041 0.991444861373812 -8.86197720958892e-015
  outer loop
    vertex 497.372964954705 -620.293410272471 19.6749465249634
    vertex 496.8553268645 -620.361558619893 14.0749465249647
    vertex 496.8553268645 -620.361558619893 19.6749465249633
  endloop
endfacet
facet normal -0.130526192220041 0.991444861373812 -8.86197720958892e-015
  outer loop
    vertex 496.8553268645 -620.361558619893 14.0749465249647
    vertex 497.372964954705 -620.293410272471 19.6749465249634
    vertex 497.372964954705 -620.293410272471 14.0749465249647
  endloop
endfacet
facet normal 0.991444861373809 -0.13052619222006 6.6491807576712e-014
  outer loop
    vertex 494.8553268645 -618.361558619893 14.0749465249646
    vertex 494.923475211922 -617.843920529688 19.6749465249632
    vertex 494.8553268645 -618.361558619893 19.6749465249632
  endloop
endfacet
facet normal 0.991444861373809 -0.13052619222006 6.6491807576712e-014
  outer loop
    vertex 494.923475211922 -617.843920529688 19.6749465249632
    vertex 494.8553268645 -618.361558619893 14.0749465249646
    vertex 494.923475211922 -617.843920529688 14.0749465249646
  endloop
endfacet
facet normal 0.382683432365109 0.923879532511279 2.5556715078702e-014
  outer loop
    vertex 496.337688774295 -620.293410272471 19.6749465249632
    vertex 495.8553268645 -620.093609427462 14.0749465249645
    vertex 495.8553268645 -620.093609427462 19.6749465249633
  endloop
endfacet
facet normal 0.382683432365109 0.923879532511279 2.5556715078702e-014
  outer loop
    vertex 495.8553268645 -620.093609427462 14.0749465249645
    vertex 496.337688774295 -620.293410272471 19.6749465249632
    vertex 496.337688774295 -620.293410272471 14.0749465249645
  endloop
endfacet
facet normal 0.608761429008737 -0.793353340291222 4.09061098612285e-014
  outer loop
    vertex 495.441113302127 -616.94734505752 14.0749465249645
    vertex 495.8553268645 -616.629507812324 19.6749465249633
    vertex 495.441113302127 -616.94734505752 19.6749465249633
  endloop
endfacet
facet normal 0.608761429008737 -0.793353340291222 4.09061098612285e-014
  outer loop
    vertex 495.8553268645 -616.629507812324 19.6749465249633
    vertex 495.441113302127 -616.94734505752 14.0749465249645
    vertex 495.8553268645 -616.629507812324 14.0749465249645
  endloop
endfacet
facet normal 0.923879532511315 0.382683432365022 6.19045106185013e-014
  outer loop
    vertex 495.123276056931 -619.361558619893 14.0749465249646
    vertex 494.923475211922 -618.879196710098 19.6749465249632
    vertex 495.123276056931 -619.361558619893 19.6749465249632
  endloop
endfacet
facet normal 0.923879532511315 0.382683432365022 6.19045106185013e-014
  outer loop
    vertex 494.923475211922 -618.879196710098 19.6749465249632
    vertex 495.123276056931 -619.361558619893 14.0749465249646
    vertex 494.923475211922 -618.879196710098 14.0749465249646
  endloop
endfacet
facet normal 0.130526192220049 0.991444861373811 8.64183222704022e-015
  outer loop
    vertex 496.8553268645 -620.361558619893 19.6749465249633
    vertex 496.337688774295 -620.293410272471 14.0749465249645
    vertex 496.337688774295 -620.293410272471 19.6749465249632
  endloop
endfacet
facet normal 0.130526192220049 0.991444861373811 8.64183222704022e-015
  outer loop
    vertex 496.337688774295 -620.293410272471 14.0749465249645
    vertex 496.8553268645 -620.361558619893 19.6749465249633
    vertex 496.8553268645 -620.361558619893 14.0749465249647
  endloop
endfacet
facet normal -0.130526192220049 -0.991444861373811 -8.64183222704022e-015
  outer loop
    vertex 496.8553268645 -616.361558619893 14.0749465249647
    vertex 497.372964954705 -616.429706967315 19.6749465249634
    vertex 496.8553268645 -616.361558619893 19.6749465249633
  endloop
endfacet
facet normal -0.130526192220049 -0.991444861373811 -8.64183222704022e-015
  outer loop
    vertex 497.372964954705 -616.429706967315 19.6749465249634
    vertex 496.8553268645 -616.361558619893 14.0749465249647
    vertex 497.372964954705 -616.429706967315 14.0749465249647
  endloop
endfacet
facet normal -0.382683432365102 0.923879532511282 -2.57618575444968e-014
  outer loop
    vertex 497.8553268645 -620.093609427462 19.6749465249634
    vertex 497.372964954705 -620.293410272471 14.0749465249647
    vertex 497.372964954705 -620.293410272471 19.6749465249634
  endloop
endfacet
facet normal -0.382683432365102 0.923879532511282 -2.57618575444968e-014
  outer loop
    vertex 497.372964954705 -620.293410272471 14.0749465249647
    vertex 497.8553268645 -620.093609427462 19.6749465249634
    vertex 497.8553268645 -620.093609427462 14.0749465249647
  endloop
endfacet
facet normal -0.923879532511315 -0.382683432365022 -6.19045106185013e-014
  outer loop
    vertex 498.587377672069 -617.361558619893 14.0749465249648
    vertex 498.787178517078 -617.843920529688 19.6749465249635
    vertex 498.587377672069 -617.361558619893 19.6749465249635
  endloop
endfacet
facet normal -0.923879532511315 -0.382683432365022 -6.19045106185013e-014
  outer loop
    vertex 498.787178517078 -617.843920529688 19.6749465249635
    vertex 498.587377672069 -617.361558619893 14.0749465249648
    vertex 498.787178517078 -617.843920529688 14.0749465249648
  endloop
endfacet
facet normal -0.991444861373809 0.13052619222006 -6.6491807576712e-014
  outer loop
    vertex 498.8553268645 -618.361558619893 14.0749465249648
    vertex 498.787178517078 -618.879196710098 19.6749465249635
    vertex 498.8553268645 -618.361558619893 19.6749465249635
  endloop
endfacet
facet normal -0.991444861373809 0.13052619222006 -6.6491807576712e-014
  outer loop
    vertex 498.787178517078 -618.879196710098 19.6749465249635
    vertex 498.8553268645 -618.361558619893 14.0749465249648
    vertex 498.787178517078 -618.879196710098 14.0749465249648
  endloop
endfacet
facet normal -0.99144486137381 -0.130526192220052 -6.64628249399281e-014
  outer loop
    vertex 498.787178517078 -617.843920529688 14.0749465249648
    vertex 498.8553268645 -618.361558619893 19.6749465249635
    vertex 498.787178517078 -617.843920529688 19.6749465249635
  endloop
endfacet
facet normal -0.99144486137381 -0.130526192220052 -6.64628249399281e-014
  outer loop
    vertex 498.8553268645 -618.361558619893 19.6749465249635
    vertex 498.787178517078 -617.843920529688 14.0749465249648
    vertex 498.8553268645 -618.361558619893 14.0749465249648
  endloop
endfacet
facet normal -0.608761429008744 -0.793353340291218 -4.07299500322176e-014
  outer loop
    vertex 497.8553268645 -616.629507812324 14.0749465249647
    vertex 498.269540426873 -616.94734505752 19.6749465249634
    vertex 497.8553268645 -616.629507812324 19.6749465249634
  endloop
endfacet
facet normal -0.608761429008744 -0.793353340291218 -4.07299500322176e-014
  outer loop
    vertex 498.269540426873 -616.94734505752 19.6749465249634
    vertex 497.8553268645 -616.629507812324 14.0749465249647
    vertex 498.269540426873 -616.94734505752 14.0749465249647
  endloop
endfacet
facet normal -0.382683432365109 -0.923879532511279 -2.5556715078702e-014
  outer loop
    vertex 497.372964954705 -616.429706967315 14.0749465249647
    vertex 497.8553268645 -616.629507812324 19.6749465249634
    vertex 497.372964954705 -616.429706967315 19.6749465249634
  endloop
endfacet
facet normal -0.382683432365109 -0.923879532511279 -2.5556715078702e-014
  outer loop
    vertex 497.8553268645 -616.629507812324 19.6749465249634
    vertex 497.372964954705 -616.429706967315 14.0749465249647
    vertex 497.8553268645 -616.629507812324 14.0749465249647
  endloop
endfacet
facet normal -0.923879532511312 0.382683432365029 -6.19894834100522e-014
  outer loop
    vertex 498.787178517078 -618.879196710098 14.0749465249648
    vertex 498.587377672069 -619.361558619893 19.6749465249635
    vertex 498.787178517078 -618.879196710098 19.6749465249635
  endloop
endfacet
facet normal -0.923879532511312 0.382683432365029 -6.19894834100522e-014
  outer loop
    vertex 498.587377672069 -619.361558619893 19.6749465249635
    vertex 498.787178517078 -618.879196710098 14.0749465249648
    vertex 498.587377672069 -619.361558619893 14.0749465249648
  endloop
endfacet
facet normal -0.793353340291175 0.608761429008799 -5.3262678391455e-014
  outer loop
    vertex 498.587377672069 -619.361558619893 14.0749465249648
    vertex 498.269540426873 -619.775772182266 19.6749465249634
    vertex 498.587377672069 -619.361558619893 19.6749465249635
  endloop
endfacet
facet normal -0.793353340291175 0.608761429008799 -5.3262678391455e-014
  outer loop
    vertex 498.269540426873 -619.775772182266 19.6749465249634
    vertex 498.587377672069 -619.361558619893 14.0749465249648
    vertex 498.269540426873 -619.775772182266 14.0749465249647
  endloop
endfacet
facet normal -0.79335334029118 -0.608761429008793 -5.31275062004572e-014
  outer loop
    vertex 498.269540426873 -616.94734505752 19.6749465249634
    vertex 498.587377672069 -617.361558619893 14.0749465249648
    vertex 498.587377672069 -617.361558619893 19.6749465249635
  endloop
endfacet
facet normal -0.79335334029118 -0.608761429008793 -5.31275062004572e-014
  outer loop
    vertex 498.587377672069 -617.361558619893 14.0749465249648
    vertex 498.269540426873 -616.94734505752 19.6749465249634
    vertex 498.269540426873 -616.94734505752 14.0749465249647
  endloop
endfacet
facet normal -0.608761429008737 0.793353340291222 -4.09061098612285e-014
  outer loop
    vertex 498.269540426873 -619.775772182266 19.6749465249634
    vertex 497.8553268645 -620.093609427462 14.0749465249647
    vertex 497.8553268645 -620.093609427462 19.6749465249634
  endloop
endfacet
facet normal -0.608761429008737 0.793353340291222 -4.09061098612285e-014
  outer loop
    vertex 497.8553268645 -620.093609427462 14.0749465249647
    vertex 498.269540426873 -619.775772182266 19.6749465249634
    vertex 498.269540426873 -619.775772182266 14.0749465249647
  endloop
endfacet
facet normal -0.923879532511251 0.382683432365176 1.68422993524624e-013
  outer loop
    vertex 498.304215603933 -626.742914050185 18.1749465249583
    vertex 498.154364970176 -627.104685482533 19.6749465249583
    vertex 498.304215603933 -626.742914050186 19.6749465249584
  endloop
endfacet
facet normal -0.923879532511251 0.382683432365176 1.68422993524624e-013
  outer loop
    vertex 498.154364970176 -627.104685482533 19.6749465249583
    vertex 498.304215603933 -626.742914050185 18.1749465249583
    vertex 498.154364970176 -627.104685482531 18.1749465249582
  endloop
endfacet
facet normal -0.130526192220123 -0.991444861373801 -4.45050333300876e-013
  outer loop
    vertex 497.243555432153 -624.905796743098 18.1749465249592
    vertex 496.855326864499 -624.854685482532 19.6749465249594
    vertex 496.855326864499 -624.854685482531 18.1749465249594
  endloop
endfacet
facet normal -0.130526192220123 -0.991444861373801 -4.45050333300876e-013
  outer loop
    vertex 496.855326864499 -624.854685482532 19.6749465249594
    vertex 497.243555432153 -624.905796743098 18.1749465249592
    vertex 497.243555432153 -624.905796743099 19.6749465249592
  endloop
endfacet
facet normal 0.991444861373834 0.130526192219872 6.1951442433595e-014
  outer loop
    vertex 495.406438125066 -626.742914050186 19.6749465249585
    vertex 495.355326864499 -626.354685482531 18.1749465249586
    vertex 495.355326864499 -626.354685482532 19.6749465249587
  endloop
endfacet
facet normal 0.991444861373834 0.130526192219872 6.1951442433595e-014
  outer loop
    vertex 495.355326864499 -626.354685482531 18.1749465249586
    vertex 495.406438125066 -626.742914050186 19.6749465249585
    vertex 495.406438125066 -626.742914050185 18.1749465249584
  endloop
endfacet
facet normal -0.130526192220019 0.991444861373815 4.44149148759402e-013
  outer loop
    vertex 497.243555432153 -627.803574221966 19.674946524958
    vertex 496.855326864499 -627.854685482531 18.1749465249578
    vertex 496.855326864499 -627.854685482533 19.6749465249579
  endloop
endfacet
facet normal -0.130526192220019 0.991444861373815 4.44149148759402e-013
  outer loop
    vertex 496.855326864499 -627.854685482531 18.1749465249578
    vertex 497.243555432153 -627.803574221966 19.674946524958
    vertex 497.243555432153 -627.803574221965 18.1749465249579
  endloop
endfacet
facet normal -0.991444861373834 -0.130526192219872 -6.19514424335931e-014
  outer loop
    vertex 498.304215603933 -625.966456914877 18.1749465249587
    vertex 498.355326864499 -626.354685482533 19.6749465249586
    vertex 498.304215603933 -625.966456914879 19.6749465249588
  endloop
endfacet
facet normal -0.991444861373834 -0.130526192219872 -6.19514424335931e-014
  outer loop
    vertex 498.355326864499 -626.354685482533 19.6749465249586
    vertex 498.304215603933 -625.966456914877 18.1749465249587
    vertex 498.355326864499 -626.354685482531 18.1749465249585
  endloop
endfacet
facet normal 0.382683432365166 0.923879532511255 4.15622599485166e-013
  outer loop
    vertex 496.467098296845 -627.803574221966 19.674946524958
    vertex 496.105326864499 -627.653723588208 18.174946524958
    vertex 496.105326864499 -627.653723588209 19.6749465249581
  endloop
endfacet
facet normal 0.382683432365166 0.923879532511255 4.15622599485166e-013
  outer loop
    vertex 496.105326864499 -627.653723588208 18.174946524958
    vertex 496.467098296845 -627.803574221966 19.674946524958
    vertex 496.467098296845 -627.803574221965 18.1749465249579
  endloop
endfacet
facet normal 0.991444861373802 -0.130526192220114 -5.51131163351487e-014
  outer loop
    vertex 495.355326864499 -626.354685482532 19.6749465249587
    vertex 495.406438125066 -625.966456914877 18.1749465249588
    vertex 495.406438125066 -625.966456914878 19.6749465249588
  endloop
endfacet
facet normal 0.991444861373802 -0.130526192220114 -5.51131163351487e-014
  outer loop
    vertex 495.406438125066 -625.966456914877 18.1749465249588
    vertex 495.355326864499 -626.354685482532 19.6749465249587
    vertex 495.355326864499 -626.354685482531 18.1749465249586
  endloop
endfacet
facet normal 0.130526192219996 -0.991444861373818 -4.4415071542404e-013
  outer loop
    vertex 496.855326864499 -624.854685482531 18.1749465249594
    vertex 496.467098296846 -624.905796743099 19.6749465249593
    vertex 496.467098296846 -624.905796743097 18.1749465249592
  endloop
endfacet
facet normal 0.130526192219996 -0.991444861373818 -4.4415071542404e-013
  outer loop
    vertex 496.467098296846 -624.905796743099 19.6749465249593
    vertex 496.855326864499 -624.854685482531 18.1749465249594
    vertex 496.855326864499 -624.854685482532 19.6749465249594
  endloop
endfacet
facet normal 0.608761429008707 0.793353340291246 3.57868033386286e-013
  outer loop
    vertex 496.105326864499 -627.653723588209 19.6749465249581
    vertex 495.794666692719 -627.415345654311 18.1749465249581
    vertex 495.794666692719 -627.415345654312 19.6749465249582
  endloop
endfacet
facet normal 0.608761429008707 0.793353340291246 3.57868033386286e-013
  outer loop
    vertex 495.794666692719 -627.415345654311 18.1749465249581
    vertex 496.105326864499 -627.653723588209 19.6749465249581
    vertex 496.105326864499 -627.653723588208 18.174946524958
  endloop
endfacet
facet normal -0.793353340291173 0.608761429008802 2.70253896815004e-013
  outer loop
    vertex 498.154364970176 -627.104685482531 18.1749465249582
    vertex 497.915987036279 -627.415345654312 19.6749465249581
    vertex 498.154364970176 -627.104685482533 19.6749465249583
  endloop
endfacet
facet normal -0.793353340291173 0.608761429008802 2.70253896815004e-013
  outer loop
    vertex 497.915987036279 -627.415345654312 19.6749465249581
    vertex 498.154364970176 -627.104685482531 18.1749465249582
    vertex 497.915987036279 -627.415345654311 18.1749465249581
  endloop
endfacet
facet normal 0.130526192220085 0.991444861373806 4.45049803493985e-013
  outer loop
    vertex 496.855326864499 -627.854685482533 19.6749465249579
    vertex 496.467098296845 -627.803574221965 18.1749465249579
    vertex 496.467098296845 -627.803574221966 19.674946524958
  endloop
endfacet
facet normal 0.130526192220085 0.991444861373806 4.45049803493985e-013
  outer loop
    vertex 496.467098296845 -627.803574221965 18.1749465249579
    vertex 496.855326864499 -627.854685482533 19.6749465249579
    vertex 496.855326864499 -627.854685482531 18.1749465249578
  endloop
endfacet
facet normal -0.923879532511261 -0.382683432365152 -1.747968102847e-013
  outer loop
    vertex 498.154364970176 -625.604685482531 18.1749465249589
    vertex 498.304215603933 -625.966456914879 19.6749465249588
    vertex 498.154364970176 -625.604685482532 19.6749465249589
  endloop
endfacet
facet normal -0.923879532511261 -0.382683432365152 -1.747968102847e-013
  outer loop
    vertex 498.304215603933 -625.966456914879 19.6749465249588
    vertex 498.154364970176 -625.604685482531 18.1749465249589
    vertex 498.304215603933 -625.966456914877 18.1749465249587
  endloop
endfacet
facet normal -0.382683432364981 0.923879532511332 4.12985699231951e-013
  outer loop
    vertex 497.605326864499 -627.653723588209 19.674946524958
    vertex 497.243555432153 -627.803574221965 18.1749465249579
    vertex 497.243555432153 -627.803574221966 19.674946524958
  endloop
endfacet
facet normal -0.382683432364981 0.923879532511332 4.12985699231951e-013
  outer loop
    vertex 497.243555432153 -627.803574221965 18.1749465249579
    vertex 497.605326864499 -627.653723588209 19.674946524958
    vertex 497.605326864499 -627.653723588208 18.174946524958
  endloop
endfacet
facet normal -0.608761429008705 -0.793353340291248 -3.578705139606e-013
  outer loop
    vertex 497.915987036279 -625.294025310751 18.174946524959
    vertex 497.605326864499 -625.055647376856 19.6749465249591
    vertex 497.605326864499 -625.055647376854 18.1749465249591
  endloop
endfacet
facet normal -0.608761429008705 -0.793353340291248 -3.578705139606e-013
  outer loop
    vertex 497.605326864499 -625.055647376856 19.6749465249591
    vertex 497.915987036279 -625.294025310751 18.174946524959
    vertex 497.915987036279 -625.294025310753 19.674946524959
  endloop
endfacet
facet normal 0.793353340291319 0.608761429008612 2.75727752650416e-013
  outer loop
    vertex 495.794666692719 -627.415345654312 19.6749465249582
    vertex 495.556288758822 -627.104685482531 18.1749465249582
    vertex 495.556288758822 -627.104685482532 19.6749465249583
  endloop
endfacet
facet normal 0.793353340291319 0.608761429008612 2.75727752650416e-013
  outer loop
    vertex 495.556288758822 -627.104685482531 18.1749465249582
    vertex 495.794666692719 -627.415345654312 19.6749465249582
    vertex 495.794666692719 -627.415345654311 18.1749465249581
  endloop
endfacet
facet normal 0.923879532511261 0.382683432365152 1.747968102847e-013
  outer loop
    vertex 495.556288758822 -627.104685482532 19.6749465249583
    vertex 495.406438125066 -626.742914050185 18.1749465249584
    vertex 495.406438125066 -626.742914050186 19.6749465249585
  endloop
endfacet
facet normal 0.923879532511261 0.382683432365152 1.747968102847e-013
  outer loop
    vertex 495.406438125066 -626.742914050185 18.1749465249584
    vertex 495.556288758822 -627.104685482532 19.6749465249583
    vertex 495.556288758822 -627.104685482531 18.1749465249582
  endloop
endfacet
facet normal 0.923879532511251 -0.382683432365176 -1.68423316477454e-013
  outer loop
    vertex 495.406438125066 -625.966456914878 19.6749465249588
    vertex 495.556288758823 -625.604685482531 18.1749465249589
    vertex 495.556288758823 -625.604685482532 19.6749465249589
  endloop
endfacet
facet normal 0.923879532511251 -0.382683432365176 -1.68423316477454e-013
  outer loop
    vertex 495.556288758823 -625.604685482531 18.1749465249589
    vertex 495.406438125066 -625.966456914878 19.6749465249588
    vertex 495.406438125066 -625.966456914877 18.1749465249588
  endloop
endfacet
facet normal 0.793353340291173 -0.608761429008802 -2.70253896815004e-013
  outer loop
    vertex 495.556288758823 -625.604685482532 19.6749465249589
    vertex 495.794666692719 -625.294025310751 18.174946524959
    vertex 495.794666692719 -625.294025310753 19.6749465249591
  endloop
endfacet
facet normal 0.793353340291173 -0.608761429008802 -2.70253896815004e-013
  outer loop
    vertex 495.794666692719 -625.294025310751 18.174946524959
    vertex 495.556288758823 -625.604685482532 19.6749465249589
    vertex 495.556288758823 -625.604685482531 18.1749465249589
  endloop
endfacet
facet normal -0.793353340291319 -0.608761429008612 -2.75727752650416e-013
  outer loop
    vertex 497.915987036279 -625.294025310751 18.174946524959
    vertex 498.154364970176 -625.604685482532 19.6749465249589
    vertex 497.915987036279 -625.294025310753 19.674946524959
  endloop
endfacet
facet normal -0.793353340291319 -0.608761429008612 -2.75727752650416e-013
  outer loop
    vertex 498.154364970176 -625.604685482532 19.6749465249589
    vertex 497.915987036279 -625.294025310751 18.174946524959
    vertex 498.154364970176 -625.604685482531 18.1749465249589
  endloop
endfacet
facet normal -6.31269676497618e-014 -1.84949859035705e-014 1.0
  outer loop
    vertex 499.855326864499 -632.361558619893 19.6749465249631
    vertex 497.915987036279 -627.415345654312 19.6749465249581
    vertex 493.855326864499 -632.361558619893 19.6749465249632
  endloop
endfacet
facet normal -6.31269676497618e-014 -1.84949859035705e-014 1.0
  outer loop
    vertex 497.915987036279 -627.415345654312 19.6749465249581
    vertex 499.855326864499 -632.361558619893 19.6749465249631
    vertex 498.154364970176 -627.104685482533 19.6749465249583
  endloop
endfacet
facet normal -6.31269676497618e-014 -1.84949859035705e-014 1.0
  outer loop
    vertex 498.154364970176 -627.104685482533 19.6749465249583
    vertex 499.855326864499 -632.361558619893 19.6749465249631
    vertex 498.304215603933 -626.742914050186 19.6749465249584
  endloop
endfacet
facet normal -6.31269676497618e-014 -1.84949859035705e-014 1.0
  outer loop
    vertex 498.304215603933 -626.742914050186 19.6749465249584
    vertex 499.855326864499 -632.361558619893 19.6749465249631
    vertex 498.355326864499 -626.354685482533 19.6749465249586
  endloop
endfacet
facet normal -6.31269676497618e-014 -1.84949859035705e-014 1.0
  outer loop
    vertex 498.355326864499 -626.354685482533 19.6749465249586
    vertex 499.855326864499 -632.361558619893 19.6749465249631
    vertex 499.8553268645 -612.361558619893 19.6749465249632
  endloop
endfacet
facet normal -6.31269676497618e-014 -1.84949859035705e-014 1.0
  outer loop
    vertex 493.855326864499 -632.361558619893 19.6749465249632
    vertex 497.915987036279 -627.415345654312 19.6749465249581
    vertex 497.605326864499 -627.653723588209 19.674946524958
  endloop
endfacet
facet normal -6.31269676497618e-014 -1.84949859035705e-014 1.0
  outer loop
    vertex 493.855326864499 -632.361558619893 19.6749465249632
    vertex 497.605326864499 -627.653723588209 19.674946524958
    vertex 497.243555432153 -627.803574221966 19.674946524958
  endloop
endfacet
facet normal -6.31269676497618e-014 -1.84949859035705e-014 1.0
  outer loop
    vertex 493.855326864499 -632.361558619893 19.6749465249632
    vertex 497.243555432153 -627.803574221966 19.674946524958
    vertex 496.855326864499 -627.854685482533 19.6749465249579
  endloop
endfacet
facet normal -6.31269676497618e-014 -1.84949859035705e-014 1.0
  outer loop
    vertex 498.355326864499 -626.354685482533 19.6749465249586
    vertex 499.8553268645 -612.361558619893 19.6749465249632
    vertex 498.304215603933 -625.966456914879 19.6749465249588
  endloop
endfacet
facet normal -6.31269676497618e-014 -1.84949859035705e-014 1.0
  outer loop
    vertex 498.304215603933 -625.966456914879 19.6749465249588
    vertex 499.8553268645 -612.361558619893 19.6749465249632
    vertex 498.154364970176 -625.604685482532 19.6749465249589
  endloop
endfacet
facet normal -6.31269676497618e-014 -1.84949859035705e-014 1.0
  outer loop
    vertex 498.154364970176 -625.604685482532 19.6749465249589
    vertex 499.8553268645 -612.361558619893 19.6749465249632
    vertex 497.915987036279 -625.294025310753 19.674946524959
  endloop
endfacet
facet normal -6.31269676497618e-014 -1.84949859035705e-014 1.0
  outer loop
    vertex 497.915987036279 -625.294025310753 19.674946524959
    vertex 499.8553268645 -612.361558619893 19.6749465249632
    vertex 498.787178517078 -618.879196710098 19.6749465249635
  endloop
endfacet
facet normal -6.31269676497618e-014 -1.84949859035705e-014 1.0
  outer loop
    vertex 497.915987036279 -625.294025310753 19.674946524959
    vertex 498.787178517078 -618.879196710098 19.6749465249635
    vertex 497.605326864499 -625.055647376856 19.6749465249591
  endloop
endfacet
facet normal -6.31269676497618e-014 -1.84949859035705e-014 1.0
  outer loop
    vertex 497.605326864499 -625.055647376856 19.6749465249591
    vertex 498.787178517078 -618.879196710098 19.6749465249635
    vertex 497.243555432153 -624.905796743099 19.6749465249592
  endloop
endfacet
facet normal -6.31269676497618e-014 -1.84949859035705e-014 1.0
  outer loop
    vertex 497.243555432153 -624.905796743099 19.6749465249592
    vertex 498.787178517078 -618.879196710098 19.6749465249635
    vertex 496.855326864499 -624.854685482532 19.6749465249594
  endloop
endfacet
facet normal -6.31269676497618e-014 -1.84949859035705e-014 1.0
  outer loop
    vertex 496.855326864499 -624.854685482532 19.6749465249594
    vertex 498.787178517078 -618.879196710098 19.6749465249635
    vertex 498.587377672069 -619.361558619893 19.6749465249635
  endloop
endfacet
facet normal -6.31269676497618e-014 -1.84949859035705e-014 1.0
  outer loop
    vertex 496.855326864499 -624.854685482532 19.6749465249594
    vertex 498.587377672069 -619.361558619893 19.6749465249635
    vertex 498.269540426873 -619.775772182266 19.6749465249634
  endloop
endfacet
facet normal -6.31269676497618e-014 -1.84949859035705e-014 1.0
  outer loop
    vertex 496.855326864499 -624.854685482532 19.6749465249594
    vertex 498.269540426873 -619.775772182266 19.6749465249634
    vertex 497.8553268645 -620.093609427462 19.6749465249634
  endloop
endfacet
facet normal -6.31269676497618e-014 -1.84949859035705e-014 1.0
  outer loop
    vertex 496.855326864499 -624.854685482532 19.6749465249594
    vertex 497.8553268645 -620.093609427462 19.6749465249634
    vertex 497.372964954705 -620.293410272471 19.6749465249634
  endloop
endfacet
facet normal -6.31269676497618e-014 -1.84949859035705e-014 1.0
  outer loop
    vertex 496.855326864499 -624.854685482532 19.6749465249594
    vertex 497.372964954705 -620.293410272471 19.6749465249634
    vertex 496.8553268645 -620.361558619893 19.6749465249633
  endloop
endfacet
facet normal -6.31269676497618e-014 -1.84949859035705e-014 1.0
  outer loop
    vertex 498.787178517078 -618.879196710098 19.6749465249635
    vertex 499.8553268645 -612.361558619893 19.6749465249632
    vertex 498.8553268645 -618.361558619893 19.6749465249635
  endloop
endfacet
facet normal -6.31269676497618e-014 -1.84949859035705e-014 1.0
  outer loop
    vertex 498.8553268645 -618.361558619893 19.6749465249635
    vertex 499.8553268645 -612.361558619893 19.6749465249632
    vertex 498.787178517078 -617.843920529688 19.6749465249635
  endloop
endfacet
facet normal -6.31269676497618e-014 -1.84949859035705e-014 1.0
  outer loop
    vertex 498.787178517078 -617.843920529688 19.6749465249635
    vertex 499.8553268645 -612.361558619893 19.6749465249632
    vertex 498.587377672069 -617.361558619893 19.6749465249635
  endloop
endfacet
facet normal -6.31269676497618e-014 -1.84949859035705e-014 1.0
  outer loop
    vertex 498.587377672069 -617.361558619893 19.6749465249635
    vertex 499.8553268645 -612.361558619893 19.6749465249632
    vertex 498.269540426873 -616.94734505752 19.6749465249634
  endloop
endfacet
facet normal -6.31269676497618e-014 -1.84949859035705e-014 1.0
  outer loop
    vertex 498.269540426873 -616.94734505752 19.6749465249634
    vertex 499.8553268645 -612.361558619893 19.6749465249632
    vertex 497.8553268645 -616.629507812324 19.6749465249634
  endloop
endfacet
facet normal -6.31269676497618e-014 -1.84949859035705e-014 1.0
  outer loop
    vertex 497.8553268645 -616.629507812324 19.6749465249634
    vertex 499.8553268645 -612.361558619893 19.6749465249632
    vertex 497.372964954705 -616.429706967315 19.6749465249634
  endloop
endfacet
facet normal -6.31269676497618e-014 -1.84949859035705e-014 1.0
  outer loop
    vertex 497.372964954705 -616.429706967315 19.6749465249634
    vertex 499.8553268645 -612.361558619893 19.6749465249632
    vertex 496.8553268645 -616.361558619893 19.6749465249633
  endloop
endfacet
facet normal -6.31269676497618e-014 -1.84949859035705e-014 1.0
  outer loop
    vertex 493.855326864499 -632.361558619893 19.6749465249632
    vertex 495.355326864499 -626.354685482532 19.6749465249587
    vertex 493.8553268645 -612.361558619893 19.6749465249634
  endloop
endfacet
facet normal -6.31269676497618e-014 -1.84949859035705e-014 1.0
  outer loop
    vertex 495.355326864499 -626.354685482532 19.6749465249587
    vertex 493.855326864499 -632.361558619893 19.6749465249632
    vertex 495.406438125066 -626.742914050186 19.6749465249585
  endloop
endfacet
facet normal -6.31269676497618e-014 -1.84949859035705e-014 1.0
  outer loop
    vertex 495.406438125066 -626.742914050186 19.6749465249585
    vertex 493.855326864499 -632.361558619893 19.6749465249632
    vertex 495.556288758822 -627.104685482532 19.6749465249583
  endloop
endfacet
facet normal -6.31269676497618e-014 -1.84949859035705e-014 1.0
  outer loop
    vertex 495.556288758822 -627.104685482532 19.6749465249583
    vertex 493.855326864499 -632.361558619893 19.6749465249632
    vertex 495.794666692719 -627.415345654312 19.6749465249582
  endloop
endfacet
facet normal -6.31269676497618e-014 -1.84949859035705e-014 1.0
  outer loop
    vertex 495.794666692719 -627.415345654312 19.6749465249582
    vertex 493.855326864499 -632.361558619893 19.6749465249632
    vertex 496.105326864499 -627.653723588209 19.6749465249581
  endloop
endfacet
facet normal -6.31269676497618e-014 -1.84949859035705e-014 1.0
  outer loop
    vertex 496.105326864499 -627.653723588209 19.6749465249581
    vertex 493.855326864499 -632.361558619893 19.6749465249632
    vertex 496.467098296845 -627.803574221966 19.674946524958
  endloop
endfacet
facet normal -6.31269676497618e-014 -1.84949859035705e-014 1.0
  outer loop
    vertex 496.467098296845 -627.803574221966 19.674946524958
    vertex 493.855326864499 -632.361558619893 19.6749465249632
    vertex 496.855326864499 -627.854685482533 19.6749465249579
  endloop
endfacet
facet normal -6.31269676497618e-014 -1.84949859035705e-014 1.0
  outer loop
    vertex 493.8553268645 -612.361558619893 19.6749465249634
    vertex 495.355326864499 -626.354685482532 19.6749465249587
    vertex 495.406438125066 -625.966456914878 19.6749465249588
  endloop
endfacet
facet normal -6.31269676497618e-014 -1.84949859035705e-014 1.0
  outer loop
    vertex 493.8553268645 -612.361558619893 19.6749465249634
    vertex 495.406438125066 -625.966456914878 19.6749465249588
    vertex 495.556288758823 -625.604685482532 19.6749465249589
  endloop
endfacet
facet normal -6.31269676497618e-014 -1.84949859035705e-014 1.0
  outer loop
    vertex 493.8553268645 -612.361558619893 19.6749465249634
    vertex 495.556288758823 -625.604685482532 19.6749465249589
    vertex 495.794666692719 -625.294025310753 19.6749465249591
  endloop
endfacet
facet normal -6.31269676497618e-014 -1.84949859035705e-014 1.0
  outer loop
    vertex 493.8553268645 -612.361558619893 19.6749465249634
    vertex 495.794666692719 -625.294025310753 19.6749465249591
    vertex 494.923475211922 -618.879196710098 19.6749465249632
  endloop
endfacet
facet normal -6.31269676497618e-014 -1.84949859035705e-014 1.0
  outer loop
    vertex 494.923475211922 -618.879196710098 19.6749465249632
    vertex 495.794666692719 -625.294025310753 19.6749465249591
    vertex 496.105326864499 -625.055647376856 19.6749465249592
  endloop
endfacet
facet normal -6.31269676497618e-014 -1.84949859035705e-014 1.0
  outer loop
    vertex 494.923475211922 -618.879196710098 19.6749465249632
    vertex 496.105326864499 -625.055647376856 19.6749465249592
    vertex 496.467098296846 -624.905796743099 19.6749465249593
  endloop
endfacet
facet normal -6.31269676497618e-014 -1.84949859035705e-014 1.0
  outer loop
    vertex 494.923475211922 -618.879196710098 19.6749465249632
    vertex 496.467098296846 -624.905796743099 19.6749465249593
    vertex 496.855326864499 -624.854685482532 19.6749465249594
  endloop
endfacet
facet normal -6.31269676497618e-014 -1.84949859035705e-014 1.0
  outer loop
    vertex 494.923475211922 -618.879196710098 19.6749465249632
    vertex 496.855326864499 -624.854685482532 19.6749465249594
    vertex 495.123276056931 -619.361558619893 19.6749465249632
  endloop
endfacet
facet normal -6.31269676497618e-014 -1.84949859035705e-014 1.0
  outer loop
    vertex 495.123276056931 -619.361558619893 19.6749465249632
    vertex 496.855326864499 -624.854685482532 19.6749465249594
    vertex 495.441113302127 -619.775772182266 19.6749465249633
  endloop
endfacet
facet normal -6.31269676497618e-014 -1.84949859035705e-014 1.0
  outer loop
    vertex 495.441113302127 -619.775772182266 19.6749465249633
    vertex 496.855326864499 -624.854685482532 19.6749465249594
    vertex 495.8553268645 -620.093609427462 19.6749465249633
  endloop
endfacet
facet normal -6.31269676497618e-014 -1.84949859035705e-014 1.0
  outer loop
    vertex 495.8553268645 -620.093609427462 19.6749465249633
    vertex 496.855326864499 -624.854685482532 19.6749465249594
    vertex 496.337688774295 -620.293410272471 19.6749465249632
  endloop
endfacet
facet normal -6.31269676497618e-014 -1.84949859035705e-014 1.0
  outer loop
    vertex 496.337688774295 -620.293410272471 19.6749465249632
    vertex 496.855326864499 -624.854685482532 19.6749465249594
    vertex 496.8553268645 -620.361558619893 19.6749465249633
  endloop
endfacet
facet normal -6.31269676497618e-014 -1.84949859035705e-014 1.0
  outer loop
    vertex 493.8553268645 -612.361558619893 19.6749465249634
    vertex 494.923475211922 -618.879196710098 19.6749465249632
    vertex 494.8553268645 -618.361558619893 19.6749465249632
  endloop
endfacet
facet normal -6.31269676497618e-014 -1.84949859035705e-014 1.0
  outer loop
    vertex 493.8553268645 -612.361558619893 19.6749465249634
    vertex 494.8553268645 -618.361558619893 19.6749465249632
    vertex 494.923475211922 -617.843920529688 19.6749465249632
  endloop
endfacet
facet normal -6.31269676497618e-014 -1.84949859035705e-014 1.0
  outer loop
    vertex 493.8553268645 -612.361558619893 19.6749465249634
    vertex 494.923475211922 -617.843920529688 19.6749465249632
    vertex 495.123276056931 -617.361558619893 19.6749465249632
  endloop
endfacet
facet normal -6.31269676497618e-014 -1.84949859035705e-014 1.0
  outer loop
    vertex 493.8553268645 -612.361558619893 19.6749465249634
    vertex 495.123276056931 -617.361558619893 19.6749465249632
    vertex 495.441113302127 -616.94734505752 19.6749465249633
  endloop
endfacet
facet normal -6.31269676497618e-014 -1.84949859035705e-014 1.0
  outer loop
    vertex 493.8553268645 -612.361558619893 19.6749465249634
    vertex 495.441113302127 -616.94734505752 19.6749465249633
    vertex 495.8553268645 -616.629507812324 19.6749465249633
  endloop
endfacet
facet normal -6.31269676497618e-014 -1.84949859035705e-014 1.0
  outer loop
    vertex 493.8553268645 -612.361558619893 19.6749465249634
    vertex 495.8553268645 -616.629507812324 19.6749465249633
    vertex 496.337688774295 -616.429706967315 19.6749465249632
  endloop
endfacet
facet normal -6.31269676497618e-014 -1.84949859035705e-014 1.0
  outer loop
    vertex 493.8553268645 -612.361558619893 19.6749465249634
    vertex 496.337688774295 -616.429706967315 19.6749465249632
    vertex 496.8553268645 -616.361558619893 19.6749465249633
  endloop
endfacet
facet normal -6.31269676497618e-014 -1.84949859035705e-014 1.0
  outer loop
    vertex 493.8553268645 -612.361558619893 19.6749465249634
    vertex 496.8553268645 -616.361558619893 19.6749465249633
    vertex 499.8553268645 -612.361558619893 19.6749465249632
  endloop
endfacet
facet normal -0.608761429008752 0.793353340291211 3.53664861634329e-013
  outer loop
    vertex 497.915987036279 -627.415345654312 19.6749465249581
    vertex 497.605326864499 -627.653723588208 18.174946524958
    vertex 497.605326864499 -627.653723588209 19.674946524958
  endloop
endfacet
facet normal -0.608761429008752 0.793353340291211 3.53664861634329e-013
  outer loop
    vertex 497.605326864499 -627.653723588208 18.174946524958
    vertex 497.915987036279 -627.415345654312 19.6749465249581
    vertex 497.915987036279 -627.415345654311 18.1749465249581
  endloop
endfacet
facet normal -0.991444861373802 0.130526192220114 5.51141263172761e-014
  outer loop
    vertex 498.355326864499 -626.354685482531 18.1749465249585
    vertex 498.304215603933 -626.742914050186 19.6749465249584
    vertex 498.355326864499 -626.354685482533 19.6749465249586
  endloop
endfacet
facet normal -0.991444861373802 0.130526192220114 5.51141263172761e-014
  outer loop
    vertex 498.304215603933 -626.742914050186 19.6749465249584
    vertex 498.355326864499 -626.354685482531 18.1749465249585
    vertex 498.304215603933 -626.742914050185 18.1749465249583
  endloop
endfacet
facet normal -0.382683432365169 -0.923879532511254 -4.15621040130964e-013
  outer loop
    vertex 497.605326864499 -625.055647376854 18.1749465249591
    vertex 497.243555432153 -624.905796743099 19.6749465249592
    vertex 497.243555432153 -624.905796743098 18.1749465249592
  endloop
endfacet
facet normal -0.382683432365169 -0.923879532511254 -4.15621040130964e-013
  outer loop
    vertex 497.243555432153 -624.905796743099 19.6749465249592
    vertex 497.605326864499 -625.055647376854 18.1749465249591
    vertex 497.605326864499 -625.055647376856 19.6749465249591
  endloop
endfacet
facet normal 0.608761429008752 -0.793353340291211 -3.53669822782959e-013
  outer loop
    vertex 496.105326864499 -625.055647376854 18.1749465249591
    vertex 495.794666692719 -625.294025310753 19.6749465249591
    vertex 495.794666692719 -625.294025310751 18.174946524959
  endloop
endfacet
facet normal 0.608761429008752 -0.793353340291211 -3.53669822782959e-013
  outer loop
    vertex 495.794666692719 -625.294025310753 19.6749465249591
    vertex 496.105326864499 -625.055647376854 18.1749465249591
    vertex 496.105326864499 -625.055647376856 19.6749465249592
  endloop
endfacet
facet normal 0.382683432364981 -0.923879532511332 -4.12980375263682e-013
  outer loop
    vertex 496.467098296846 -624.905796743097 18.1749465249592
    vertex 496.105326864499 -625.055647376856 19.6749465249592
    vertex 496.105326864499 -625.055647376854 18.1749465249591
  endloop
endfacet
facet normal 0.382683432364981 -0.923879532511332 -4.12980375263682e-013
  outer loop
    vertex 496.105326864499 -625.055647376856 19.6749465249592
    vertex 496.467098296846 -624.905796743097 18.1749465249592
    vertex 496.467098296846 -624.905796743099 19.6749465249593
  endloop
endfacet
facet normal -0.500000000000148 -0.866025403784353 -2.90547658259879e-013
  outer loop
    vertex 499.540005616231 -624.80468548253 15.5749465249638
    vertex 496.8553268645 -623.25468548253 18.1749465249617
    vertex 496.855326864499 -623.25468548253 15.5749465249649
  endloop
endfacet
facet normal -0.500000000000148 -0.866025403784353 -2.90547658259879e-013
  outer loop
    vertex 496.8553268645 -623.25468548253 18.1749465249617
    vertex 499.540005616231 -624.80468548253 15.5749465249638
    vertex 499.540005616231 -624.804685482531 18.174946524961
  endloop
endfacet
facet normal -0.500000000000148 -0.866025403784353 -2.90547658259879e-013
  outer loop
    vertex 499.540005616231 -624.804685482531 18.174946524961
    vertex 499.540005616231 -624.80468548253 15.5749465249638
    vertex 499.855326864499 -624.9867362901 18.1749465249636
  endloop
endfacet
facet normal -0.500000000000148 -0.866025403784353 -2.90547658259879e-013
  outer loop
    vertex 499.855326864499 -624.9867362901 18.1749465249636
    vertex 499.540005616231 -624.80468548253 15.5749465249638
    vertex 499.855326864501 -624.986736290099 15.5749465249664
  endloop
endfacet
facet normal -0.49999999999969 0.866025403784618 3.94239374325211e-014
  outer loop
    vertex 499.540005616231 -627.904685482531 18.1749465249594
    vertex 496.855326864499 -629.45468548253 15.5749465249618
    vertex 496.855326864499 -629.454685482529 18.1749465249584
  endloop
endfacet
facet normal -0.49999999999969 0.866025403784618 3.94239374325211e-014
  outer loop
    vertex 496.855326864499 -629.45468548253 15.5749465249618
    vertex 499.540005616231 -627.904685482531 18.1749465249594
    vertex 499.540005616231 -627.90468548253 15.5749465249623
  endloop
endfacet
facet normal -0.49999999999969 0.866025403784618 3.94239374325211e-014
  outer loop
    vertex 499.540005616231 -627.90468548253 15.5749465249623
    vertex 499.540005616231 -627.904685482531 18.1749465249594
    vertex 499.855326864499 -627.722634674962 18.1749465249629
  endloop
endfacet
facet normal -0.49999999999969 0.866025403784618 3.94239374325211e-014
  outer loop
    vertex 499.540005616231 -627.90468548253 15.5749465249623
    vertex 499.855326864499 -627.722634674962 18.1749465249629
    vertex 499.855326864501 -627.722634674961 15.5749465249658
  endloop
endfacet
facet normal -3.14499254310312e-013 1.0 8.50745252026357e-014
  outer loop
    vertex 496.855326864499 -629.454685482529 18.1749465249584
    vertex 493.855326864499 -629.45468548253 15.5749465249619
    vertex 493.855326864499 -629.454685482531 18.1749465249618
  endloop
endfacet
facet normal -3.14499254310312e-013 1.0 8.50745252026357e-014
  outer loop
    vertex 493.855326864499 -629.45468548253 15.5749465249619
    vertex 496.855326864499 -629.454685482529 18.1749465249584
    vertex 496.855326864499 -629.45468548253 15.5749465249618
  endloop
endfacet
facet normal -1.44884898858137e-013 4.60708336943617e-013 -1.0
  outer loop
    vertex 493.855326864499 -629.454685482531 18.1749465249618
    vertex 495.556288758822 -627.104685482531 18.1749465249582
    vertex 496.855326864499 -629.454685482529 18.1749465249584
  endloop
endfacet
facet normal -1.44884898858137e-013 4.60708336943617e-013 -1.0
  outer loop
    vertex 495.556288758822 -627.104685482531 18.1749465249582
    vertex 493.855326864499 -629.454685482531 18.1749465249618
    vertex 493.855326864499 -623.254685482531 18.1749465249644
  endloop
endfacet
facet normal -1.44884898858137e-013 4.60708336943617e-013 -1.0
  outer loop
    vertex 496.855326864499 -629.454685482529 18.1749465249584
    vertex 495.556288758822 -627.104685482531 18.1749465249582
    vertex 495.794666692719 -627.415345654311 18.1749465249581
  endloop
endfacet
facet normal -1.44884898858137e-013 4.60708336943617e-013 -1.0
  outer loop
    vertex 496.855326864499 -629.454685482529 18.1749465249584
    vertex 495.794666692719 -627.415345654311 18.1749465249581
    vertex 496.105326864499 -627.653723588208 18.174946524958
  endloop
endfacet
facet normal -1.44884898858137e-013 4.60708336943617e-013 -1.0
  outer loop
    vertex 496.855326864499 -629.454685482529 18.1749465249584
    vertex 496.105326864499 -627.653723588208 18.174946524958
    vertex 496.467098296845 -627.803574221965 18.1749465249579
  endloop
endfacet
facet normal -1.44884898858137e-013 4.60708336943617e-013 -1.0
  outer loop
    vertex 496.855326864499 -629.454685482529 18.1749465249584
    vertex 496.467098296845 -627.803574221965 18.1749465249579
    vertex 496.855326864499 -627.854685482531 18.1749465249578
  endloop
endfacet
facet normal -1.44884898858137e-013 4.60708336943617e-013 -1.0
  outer loop
    vertex 496.855326864499 -629.454685482529 18.1749465249584
    vertex 496.855326864499 -627.854685482531 18.1749465249578
    vertex 499.540005616231 -627.904685482531 18.1749465249594
  endloop
endfacet
facet normal -1.44884898858137e-013 4.60708336943617e-013 -1.0
  outer loop
    vertex 495.556288758822 -627.104685482531 18.1749465249582
    vertex 493.855326864499 -623.254685482531 18.1749465249644
    vertex 495.406438125066 -626.742914050185 18.1749465249584
  endloop
endfacet
facet normal -1.44884898858137e-013 4.60708336943617e-013 -1.0
  outer loop
    vertex 495.406438125066 -626.742914050185 18.1749465249584
    vertex 493.855326864499 -623.254685482531 18.1749465249644
    vertex 495.355326864499 -626.354685482531 18.1749465249586
  endloop
endfacet
facet normal -1.44884898858137e-013 4.60708336943617e-013 -1.0
  outer loop
    vertex 495.355326864499 -626.354685482531 18.1749465249586
    vertex 493.855326864499 -623.254685482531 18.1749465249644
    vertex 495.406438125066 -625.966456914877 18.1749465249588
  endloop
endfacet
facet normal -1.44884898858137e-013 4.60708336943617e-013 -1.0
  outer loop
    vertex 495.406438125066 -625.966456914877 18.1749465249588
    vertex 493.855326864499 -623.254685482531 18.1749465249644
    vertex 495.556288758823 -625.604685482531 18.1749465249589
  endloop
endfacet
facet normal -1.44884898858137e-013 4.60708336943617e-013 -1.0
  outer loop
    vertex 495.556288758823 -625.604685482531 18.1749465249589
    vertex 493.855326864499 -623.254685482531 18.1749465249644
    vertex 495.794666692719 -625.294025310751 18.174946524959
  endloop
endfacet
facet normal -1.44884898858137e-013 4.60708336943617e-013 -1.0
  outer loop
    vertex 495.794666692719 -625.294025310751 18.174946524959
    vertex 493.855326864499 -623.254685482531 18.1749465249644
    vertex 496.105326864499 -625.055647376854 18.1749465249591
  endloop
endfacet
facet normal -1.44884898858137e-013 4.60708336943617e-013 -1.0
  outer loop
    vertex 496.105326864499 -625.055647376854 18.1749465249591
    vertex 493.855326864499 -623.254685482531 18.1749465249644
    vertex 496.467098296846 -624.905796743097 18.1749465249592
  endloop
endfacet
facet normal -1.44884898858137e-013 4.60708336943617e-013 -1.0
  outer loop
    vertex 496.467098296846 -624.905796743097 18.1749465249592
    vertex 493.855326864499 -623.254685482531 18.1749465249644
    vertex 496.855326864499 -624.854685482531 18.1749465249594
  endloop
endfacet
facet normal -1.44884898858137e-013 4.60708336943617e-013 -1.0
  outer loop
    vertex 496.855326864499 -624.854685482531 18.1749465249594
    vertex 493.855326864499 -623.254685482531 18.1749465249644
    vertex 499.540005616231 -624.804685482531 18.174946524961
  endloop
endfacet
facet normal -1.44884898858137e-013 4.60708336943617e-013 -1.0
  outer loop
    vertex 499.540005616231 -624.804685482531 18.174946524961
    vertex 493.855326864499 -623.254685482531 18.1749465249644
    vertex 496.8553268645 -623.25468548253 18.1749465249617
  endloop
endfacet
facet normal -1.44884898858137e-013 4.60708336943617e-013 -1.0
  outer loop
    vertex 496.855326864499 -627.854685482531 18.1749465249578
    vertex 499.855326864499 -627.722634674962 18.1749465249629
    vertex 499.540005616231 -627.904685482531 18.1749465249594
  endloop
endfacet
facet normal -1.44884898858137e-013 4.60708336943617e-013 -1.0
  outer loop
    vertex 499.855326864499 -627.722634674962 18.1749465249629
    vertex 496.855326864499 -627.854685482531 18.1749465249578
    vertex 497.243555432153 -627.803574221965 18.1749465249579
  endloop
endfacet
facet normal -1.44884898858137e-013 4.60708336943617e-013 -1.0
  outer loop
    vertex 499.855326864499 -627.722634674962 18.1749465249629
    vertex 497.243555432153 -627.803574221965 18.1749465249579
    vertex 497.605326864499 -627.653723588208 18.174946524958
  endloop
endfacet
facet normal -1.44884898858137e-013 4.60708336943617e-013 -1.0
  outer loop
    vertex 499.855326864499 -627.722634674962 18.1749465249629
    vertex 497.605326864499 -627.653723588208 18.174946524958
    vertex 497.915987036279 -627.415345654311 18.1749465249581
  endloop
endfacet
facet normal -1.44884898858137e-013 4.60708336943617e-013 -1.0
  outer loop
    vertex 499.855326864499 -627.722634674962 18.1749465249629
    vertex 497.915987036279 -627.415345654311 18.1749465249581
    vertex 499.855326864499 -624.9867362901 18.1749465249636
  endloop
endfacet
facet normal -1.44884898858137e-013 4.60708336943617e-013 -1.0
  outer loop
    vertex 499.855326864499 -624.9867362901 18.1749465249636
    vertex 497.915987036279 -627.415345654311 18.1749465249581
    vertex 498.154364970176 -627.104685482531 18.1749465249582
  endloop
endfacet
facet normal -1.44884898858137e-013 4.60708336943617e-013 -1.0
  outer loop
    vertex 499.855326864499 -624.9867362901 18.1749465249636
    vertex 498.154364970176 -627.104685482531 18.1749465249582
    vertex 498.304215603933 -626.742914050185 18.1749465249583
  endloop
endfacet
facet normal -1.44884898858137e-013 4.60708336943617e-013 -1.0
  outer loop
    vertex 499.855326864499 -624.9867362901 18.1749465249636
    vertex 498.304215603933 -626.742914050185 18.1749465249583
    vertex 498.355326864499 -626.354685482531 18.1749465249585
  endloop
endfacet
facet normal -1.44884898858137e-013 4.60708336943617e-013 -1.0
  outer loop
    vertex 499.855326864499 -624.9867362901 18.1749465249636
    vertex 498.355326864499 -626.354685482531 18.1749465249585
    vertex 498.304215603933 -625.966456914877 18.1749465249587
  endloop
endfacet
facet normal -1.44884898858137e-013 4.60708336943617e-013 -1.0
  outer loop
    vertex 499.855326864499 -624.9867362901 18.1749465249636
    vertex 498.304215603933 -625.966456914877 18.1749465249587
    vertex 498.154364970176 -625.604685482531 18.1749465249589
  endloop
endfacet
facet normal -1.44884898858137e-013 4.60708336943617e-013 -1.0
  outer loop
    vertex 499.855326864499 -624.9867362901 18.1749465249636
    vertex 498.154364970176 -625.604685482531 18.1749465249589
    vertex 497.915987036279 -625.294025310751 18.174946524959
  endloop
endfacet
facet normal -1.44884898858137e-013 4.60708336943617e-013 -1.0
  outer loop
    vertex 499.855326864499 -624.9867362901 18.1749465249636
    vertex 497.915987036279 -625.294025310751 18.174946524959
    vertex 497.605326864499 -625.055647376854 18.1749465249591
  endloop
endfacet
facet normal -1.44884898858137e-013 4.60708336943617e-013 -1.0
  outer loop
    vertex 499.855326864499 -624.9867362901 18.1749465249636
    vertex 497.605326864499 -625.055647376854 18.1749465249591
    vertex 497.243555432153 -624.905796743098 18.1749465249592
  endloop
endfacet
facet normal -1.44884898858137e-013 4.60708336943617e-013 -1.0
  outer loop
    vertex 499.855326864499 -624.9867362901 18.1749465249636
    vertex 497.243555432153 -624.905796743098 18.1749465249592
    vertex 499.540005616231 -624.804685482531 18.174946524961
  endloop
endfacet
facet normal -1.44884898858137e-013 4.60708336943617e-013 -1.0
  outer loop
    vertex 499.540005616231 -624.804685482531 18.174946524961
    vertex 497.243555432153 -624.905796743098 18.1749465249592
    vertex 496.855326864499 -624.854685482531 18.1749465249594
  endloop
endfacet
facet normal 2.50249137971927e-013 -1.0 -1.61597135673071e-013
  outer loop
    vertex 493.855326864499 -623.25468548253 15.5749465249645
    vertex 496.8553268645 -623.25468548253 18.1749465249617
    vertex 493.855326864499 -623.254685482531 18.1749465249644
  endloop
endfacet
facet normal 2.50249137971927e-013 -1.0 -1.61597135673071e-013
  outer loop
    vertex 496.8553268645 -623.25468548253 18.1749465249617
    vertex 493.855326864499 -623.25468548253 15.5749465249645
    vertex 496.855326864499 -623.25468548253 15.5749465249649
  endloop
endfacet
facet normal -2.76676146913252e-013 -4.48515561222182e-013 1.0
  outer loop
    vertex 499.855326864501 -627.722634674961 15.5749465249658
    vertex 496.855326864499 -627.85468548253 15.5749465249626
    vertex 499.540005616231 -627.90468548253 15.5749465249623
  endloop
endfacet
facet normal -2.76676146913252e-013 -4.48515561222182e-013 1.0
  outer loop
    vertex 496.855326864499 -627.85468548253 15.5749465249626
    vertex 499.855326864501 -627.722634674961 15.5749465249658
    vertex 497.243555432153 -627.803574221964 15.5749465249627
  endloop
endfacet
facet normal -2.76676146913252e-013 -4.48515561222182e-013 1.0
  outer loop
    vertex 497.243555432153 -627.803574221964 15.5749465249627
    vertex 499.855326864501 -627.722634674961 15.5749465249658
    vertex 497.605326864499 -627.653723588207 15.5749465249628
  endloop
endfacet
facet normal -2.76676146913252e-013 -4.48515561222182e-013 1.0
  outer loop
    vertex 497.605326864499 -627.653723588207 15.5749465249628
    vertex 499.855326864501 -627.722634674961 15.5749465249658
    vertex 497.915987036279 -627.41534565431 15.5749465249629
  endloop
endfacet
facet normal -2.76676146913252e-013 -4.48515561222182e-013 1.0
  outer loop
    vertex 497.915987036279 -627.41534565431 15.5749465249629
    vertex 499.855326864501 -627.722634674961 15.5749465249658
    vertex 499.855326864501 -624.986736290099 15.5749465249664
  endloop
endfacet
facet normal -2.76676146913252e-013 -4.48515561222182e-013 1.0
  outer loop
    vertex 497.915987036279 -627.41534565431 15.5749465249629
    vertex 499.855326864501 -624.986736290099 15.5749465249664
    vertex 498.154364970176 -627.10468548253 15.574946524963
  endloop
endfacet
facet normal -2.76676146913252e-013 -4.48515561222182e-013 1.0
  outer loop
    vertex 498.154364970176 -627.10468548253 15.574946524963
    vertex 499.855326864501 -624.986736290099 15.5749465249664
    vertex 498.304215603933 -626.742914050184 15.5749465249631
  endloop
endfacet
facet normal -2.76676146913252e-013 -4.48515561222182e-013 1.0
  outer loop
    vertex 498.304215603933 -626.742914050184 15.5749465249631
    vertex 499.855326864501 -624.986736290099 15.5749465249664
    vertex 498.355326864499 -626.35468548253 15.5749465249633
  endloop
endfacet
facet normal -2.76676146913252e-013 -4.48515561222182e-013 1.0
  outer loop
    vertex 498.355326864499 -626.35468548253 15.5749465249633
    vertex 499.855326864501 -624.986736290099 15.5749465249664
    vertex 498.304215603933 -625.966456914876 15.5749465249635
  endloop
endfacet
facet normal -2.76676146913252e-013 -4.48515561222182e-013 1.0
  outer loop
    vertex 498.304215603933 -625.966456914876 15.5749465249635
    vertex 499.855326864501 -624.986736290099 15.5749465249664
    vertex 498.154364970176 -625.60468548253 15.5749465249637
  endloop
endfacet
facet normal -2.76676146913252e-013 -4.48515561222182e-013 1.0
  outer loop
    vertex 498.154364970176 -625.60468548253 15.5749465249637
    vertex 499.855326864501 -624.986736290099 15.5749465249664
    vertex 497.915987036279 -625.29402531075 15.5749465249638
  endloop
endfacet
facet normal -2.76676146913252e-013 -4.48515561222182e-013 1.0
  outer loop
    vertex 497.915987036279 -625.29402531075 15.5749465249638
    vertex 499.855326864501 -624.986736290099 15.5749465249664
    vertex 497.605326864499 -625.055647376853 15.5749465249639
  endloop
endfacet
facet normal -2.76676146913252e-013 -4.48515561222182e-013 1.0
  outer loop
    vertex 497.605326864499 -625.055647376853 15.5749465249639
    vertex 499.855326864501 -624.986736290099 15.5749465249664
    vertex 497.243555432153 -624.905796743096 15.574946524964
  endloop
endfacet
facet normal -2.76676146913252e-013 -4.48515561222182e-013 1.0
  outer loop
    vertex 497.243555432153 -624.905796743096 15.574946524964
    vertex 499.855326864501 -624.986736290099 15.5749465249664
    vertex 499.540005616231 -624.80468548253 15.5749465249638
  endloop
endfacet
facet normal -2.76676146913252e-013 -4.48515561222182e-013 1.0
  outer loop
    vertex 497.243555432153 -624.905796743096 15.574946524964
    vertex 499.540005616231 -624.80468548253 15.5749465249638
    vertex 496.855326864499 -624.85468548253 15.5749465249642
  endloop
endfacet
facet normal -2.76676146913252e-013 -4.48515561222182e-013 1.0
  outer loop
    vertex 499.540005616231 -627.90468548253 15.5749465249623
    vertex 493.855326864499 -629.45468548253 15.5749465249619
    vertex 496.855326864499 -629.45468548253 15.5749465249618
  endloop
endfacet
facet normal -2.76676146913252e-013 -4.48515561222182e-013 1.0
  outer loop
    vertex 493.855326864499 -629.45468548253 15.5749465249619
    vertex 499.540005616231 -627.90468548253 15.5749465249623
    vertex 496.855326864499 -627.85468548253 15.5749465249626
  endloop
endfacet
facet normal -2.76676146913252e-013 -4.48515561222182e-013 1.0
  outer loop
    vertex 493.855326864499 -629.45468548253 15.5749465249619
    vertex 496.855326864499 -627.85468548253 15.5749465249626
    vertex 496.467098296845 -627.803574221964 15.5749465249627
  endloop
endfacet
facet normal -2.76676146913252e-013 -4.48515561222182e-013 1.0
  outer loop
    vertex 493.855326864499 -629.45468548253 15.5749465249619
    vertex 496.467098296845 -627.803574221964 15.5749465249627
    vertex 496.105326864499 -627.653723588207 15.5749465249628
  endloop
endfacet
facet normal -2.76676146913252e-013 -4.48515561222182e-013 1.0
  outer loop
    vertex 493.855326864499 -629.45468548253 15.5749465249619
    vertex 496.105326864499 -627.653723588207 15.5749465249628
    vertex 495.794666692719 -627.41534565431 15.5749465249629
  endloop
endfacet
facet normal -2.76676146913252e-013 -4.48515561222182e-013 1.0
  outer loop
    vertex 493.855326864499 -629.45468548253 15.5749465249619
    vertex 495.794666692719 -627.41534565431 15.5749465249629
    vertex 495.556288758822 -627.10468548253 15.574946524963
  endloop
endfacet
facet normal -2.76676146913252e-013 -4.48515561222182e-013 1.0
  outer loop
    vertex 493.855326864499 -629.45468548253 15.5749465249619
    vertex 495.556288758822 -627.10468548253 15.574946524963
    vertex 493.855326864499 -623.25468548253 15.5749465249645
  endloop
endfacet
facet normal -2.76676146913252e-013 -4.48515561222182e-013 1.0
  outer loop
    vertex 493.855326864499 -623.25468548253 15.5749465249645
    vertex 495.556288758822 -627.10468548253 15.574946524963
    vertex 495.406438125066 -626.742914050184 15.5749465249632
  endloop
endfacet
facet normal -2.76676146913252e-013 -4.48515561222182e-013 1.0
  outer loop
    vertex 493.855326864499 -623.25468548253 15.5749465249645
    vertex 495.406438125066 -626.742914050184 15.5749465249632
    vertex 495.355326864499 -626.35468548253 15.5749465249634
  endloop
endfacet
facet normal -2.76676146913252e-013 -4.48515561222182e-013 1.0
  outer loop
    vertex 493.855326864499 -623.25468548253 15.5749465249645
    vertex 495.355326864499 -626.35468548253 15.5749465249634
    vertex 495.406438125066 -625.966456914876 15.5749465249636
  endloop
endfacet
facet normal -2.76676146913252e-013 -4.48515561222182e-013 1.0
  outer loop
    vertex 493.855326864499 -623.25468548253 15.5749465249645
    vertex 495.406438125066 -625.966456914876 15.5749465249636
    vertex 495.556288758823 -625.60468548253 15.5749465249637
  endloop
endfacet
facet normal -2.76676146913252e-013 -4.48515561222182e-013 1.0
  outer loop
    vertex 493.855326864499 -623.25468548253 15.5749465249645
    vertex 495.556288758823 -625.60468548253 15.5749465249637
    vertex 495.794666692719 -625.29402531075 15.5749465249638
  endloop
endfacet
facet normal -2.76676146913252e-013 -4.48515561222182e-013 1.0
  outer loop
    vertex 493.855326864499 -623.25468548253 15.5749465249645
    vertex 495.794666692719 -625.29402531075 15.5749465249638
    vertex 496.105326864499 -625.055647376853 15.5749465249639
  endloop
endfacet
facet normal -2.76676146913252e-013 -4.48515561222182e-013 1.0
  outer loop
    vertex 493.855326864499 -623.25468548253 15.5749465249645
    vertex 496.105326864499 -625.055647376853 15.5749465249639
    vertex 496.467098296846 -624.905796743096 15.574946524964
  endloop
endfacet
facet normal -2.76676146913252e-013 -4.48515561222182e-013 1.0
  outer loop
    vertex 493.855326864499 -623.25468548253 15.5749465249645
    vertex 496.467098296846 -624.905796743096 15.574946524964
    vertex 496.855326864499 -624.85468548253 15.5749465249642
  endloop
endfacet
facet normal -2.76676146913252e-013 -4.48515561222182e-013 1.0
  outer loop
    vertex 493.855326864499 -623.25468548253 15.5749465249645
    vertex 496.855326864499 -624.85468548253 15.5749465249642
    vertex 499.540005616231 -624.80468548253 15.5749465249638
  endloop
endfacet
facet normal -2.76676146913252e-013 -4.48515561222182e-013 1.0
  outer loop
    vertex 493.855326864499 -623.25468548253 15.5749465249645
    vertex 499.540005616231 -624.80468548253 15.5749465249638
    vertex 496.855326864499 -623.25468548253 15.5749465249649
  endloop
endfacet
facet normal -2.73531717815473e-014 -1.1102230246241e-016 -1.0
  outer loop
    vertex 493.855326864499 -632.361558619893 14.0749465249642
    vertex 495.794666692719 -627.415345654304 14.0749465249615
    vertex 499.855326864499 -632.361558619893 14.0749465249641
  endloop
endfacet
facet normal -2.73531717815473e-014 -1.1102230246241e-016 -1.0
  outer loop
    vertex 495.794666692719 -627.415345654304 14.0749465249615
    vertex 493.855326864499 -632.361558619893 14.0749465249642
    vertex 495.556288758822 -627.104685482524 14.0749465249616
  endloop
endfacet
facet normal -2.73531717815473e-014 -1.1102230246241e-016 -1.0
  outer loop
    vertex 495.556288758822 -627.104685482524 14.0749465249616
    vertex 493.855326864499 -632.361558619893 14.0749465249642
    vertex 495.406438125065 -626.742914050178 14.0749465249618
  endloop
endfacet
facet normal -2.73531717815473e-014 -1.1102230246241e-016 -1.0
  outer loop
    vertex 495.406438125065 -626.742914050178 14.0749465249618
    vertex 493.855326864499 -632.361558619893 14.0749465249642
    vertex 495.355326864499 -626.354685482524 14.074946524962
  endloop
endfacet
facet normal -2.73531717815473e-014 -1.1102230246241e-016 -1.0
  outer loop
    vertex 495.355326864499 -626.354685482524 14.074946524962
    vertex 493.855326864499 -632.361558619893 14.0749465249642
    vertex 493.855326864499 -612.361558619893 14.0749465249642
  endloop
endfacet
facet normal -2.73531717815473e-014 -1.1102230246241e-016 -1.0
  outer loop
    vertex 499.855326864499 -632.361558619893 14.0749465249641
    vertex 495.794666692719 -627.415345654304 14.0749465249615
    vertex 496.105326864499 -627.6537235882 14.0749465249614
  endloop
endfacet
facet normal -2.73531717815473e-014 -1.1102230246241e-016 -1.0
  outer loop
    vertex 499.855326864499 -632.361558619893 14.0749465249641
    vertex 496.105326864499 -627.6537235882 14.0749465249614
    vertex 496.467098296845 -627.803574221958 14.0749465249613
  endloop
endfacet
facet normal -2.73531717815473e-014 -1.1102230246241e-016 -1.0
  outer loop
    vertex 499.855326864499 -632.361558619893 14.0749465249641
    vertex 496.467098296845 -627.803574221958 14.0749465249613
    vertex 496.855326864499 -627.854685482524 14.0749465249612
  endloop
endfacet
facet normal -2.73531717815473e-014 -1.1102230246241e-016 -1.0
  outer loop
    vertex 495.355326864499 -626.354685482524 14.074946524962
    vertex 493.855326864499 -612.361558619893 14.0749465249642
    vertex 495.406438125066 -625.96645691487 14.0749465249621
  endloop
endfacet
facet normal -2.73531717815473e-014 -1.1102230246241e-016 -1.0
  outer loop
    vertex 495.406438125066 -625.96645691487 14.0749465249621
    vertex 493.855326864499 -612.361558619893 14.0749465249642
    vertex 495.556288758822 -625.604685482524 14.0749465249622
  endloop
endfacet
facet normal -2.73531717815473e-014 -1.1102230246241e-016 -1.0
  outer loop
    vertex 495.556288758822 -625.604685482524 14.0749465249622
    vertex 493.855326864499 -612.361558619893 14.0749465249642
    vertex 495.794666692719 -625.294025310744 14.0749465249624
  endloop
endfacet
facet normal -2.73531717815473e-014 -1.1102230246241e-016 -1.0
  outer loop
    vertex 495.794666692719 -625.294025310744 14.0749465249624
    vertex 493.855326864499 -612.361558619893 14.0749465249642
    vertex 494.923475211922 -618.879196710098 14.0749465249646
  endloop
endfacet
facet normal -2.73531717815473e-014 -1.1102230246241e-016 -1.0
  outer loop
    vertex 495.794666692719 -625.294025310744 14.0749465249624
    vertex 494.923475211922 -618.879196710098 14.0749465249646
    vertex 496.105326864499 -625.055647376847 14.0749465249625
  endloop
endfacet
facet normal -2.73531717815473e-014 -1.1102230246241e-016 -1.0
  outer loop
    vertex 496.105326864499 -625.055647376847 14.0749465249625
    vertex 494.923475211922 -618.879196710098 14.0749465249646
    vertex 496.467098296845 -624.90579674309 14.0749465249626
  endloop
endfacet
facet normal -2.73531717815473e-014 -1.1102230246241e-016 -1.0
  outer loop
    vertex 496.467098296845 -624.90579674309 14.0749465249626
    vertex 494.923475211922 -618.879196710098 14.0749465249646
    vertex 496.855326864499 -624.854685482524 14.0749465249627
  endloop
endfacet
facet normal -2.73531717815473e-014 -1.1102230246241e-016 -1.0
  outer loop
    vertex 496.855326864499 -624.854685482524 14.0749465249627
    vertex 494.923475211922 -618.879196710098 14.0749465249646
    vertex 495.123276056931 -619.361558619893 14.0749465249646
  endloop
endfacet
facet normal -2.73531717815473e-014 -1.1102230246241e-016 -1.0
  outer loop
    vertex 496.855326864499 -624.854685482524 14.0749465249627
    vertex 495.123276056931 -619.361558619893 14.0749465249646
    vertex 495.441113302127 -619.775772182266 14.0749465249645
  endloop
endfacet
facet normal -2.73531717815473e-014 -1.1102230246241e-016 -1.0
  outer loop
    vertex 496.855326864499 -624.854685482524 14.0749465249627
    vertex 495.441113302127 -619.775772182266 14.0749465249645
    vertex 495.8553268645 -620.093609427462 14.0749465249645
  endloop
endfacet
facet normal -2.73531717815473e-014 -1.1102230246241e-016 -1.0
  outer loop
    vertex 496.855326864499 -624.854685482524 14.0749465249627
    vertex 495.8553268645 -620.093609427462 14.0749465249645
    vertex 496.337688774295 -620.293410272471 14.0749465249645
  endloop
endfacet
facet normal -2.73531717815473e-014 -1.1102230246241e-016 -1.0
  outer loop
    vertex 496.855326864499 -624.854685482524 14.0749465249627
    vertex 496.337688774295 -620.293410272471 14.0749465249645
    vertex 496.8553268645 -620.361558619893 14.0749465249647
  endloop
endfacet
facet normal -2.73531717815473e-014 -1.1102230246241e-016 -1.0
  outer loop
    vertex 494.923475211922 -618.879196710098 14.0749465249646
    vertex 493.855326864499 -612.361558619893 14.0749465249642
    vertex 494.8553268645 -618.361558619893 14.0749465249646
  endloop
endfacet
facet normal -2.73531717815473e-014 -1.1102230246241e-016 -1.0
  outer loop
    vertex 494.8553268645 -618.361558619893 14.0749465249646
    vertex 493.855326864499 -612.361558619893 14.0749465249642
    vertex 494.923475211922 -617.843920529688 14.0749465249646
  endloop
endfacet
facet normal -2.73531717815473e-014 -1.1102230246241e-016 -1.0
  outer loop
    vertex 494.923475211922 -617.843920529688 14.0749465249646
    vertex 493.855326864499 -612.361558619893 14.0749465249642
    vertex 495.123276056931 -617.361558619893 14.0749465249646
  endloop
endfacet
facet normal -2.73531717815473e-014 -1.1102230246241e-016 -1.0
  outer loop
    vertex 495.123276056931 -617.361558619893 14.0749465249646
    vertex 493.855326864499 -612.361558619893 14.0749465249642
    vertex 495.441113302127 -616.94734505752 14.0749465249645
  endloop
endfacet
facet normal -2.73531717815473e-014 -1.1102230246241e-016 -1.0
  outer loop
    vertex 495.441113302127 -616.94734505752 14.0749465249645
    vertex 493.855326864499 -612.361558619893 14.0749465249642
    vertex 495.8553268645 -616.629507812324 14.0749465249645
  endloop
endfacet
facet normal -2.73531717815473e-014 -1.1102230246241e-016 -1.0
  outer loop
    vertex 495.8553268645 -616.629507812324 14.0749465249645
    vertex 493.855326864499 -612.361558619893 14.0749465249642
    vertex 496.337688774295 -616.429706967315 14.0749465249645
  endloop
endfacet
facet normal -2.73531717815473e-014 -1.1102230246241e-016 -1.0
  outer loop
    vertex 496.337688774295 -616.429706967315 14.0749465249645
    vertex 493.855326864499 -612.361558619893 14.0749465249642
    vertex 496.8553268645 -616.361558619893 14.0749465249647
  endloop
endfacet
facet normal -2.73531717815473e-014 -1.1102230246241e-016 -1.0
  outer loop
    vertex 499.855326864499 -632.361558619893 14.0749465249641
    vertex 498.355326864499 -626.354685482524 14.0749465249619
    vertex 499.855326864499 -612.361558619893 14.0749465249641
  endloop
endfacet
facet normal -2.73531717815473e-014 -1.1102230246241e-016 -1.0
  outer loop
    vertex 498.355326864499 -626.354685482524 14.0749465249619
    vertex 499.855326864499 -632.361558619893 14.0749465249641
    vertex 498.304215603933 -626.742914050178 14.0749465249617
  endloop
endfacet
facet normal -2.73531717815473e-014 -1.1102230246241e-016 -1.0
  outer loop
    vertex 498.304215603933 -626.742914050178 14.0749465249617
    vertex 499.855326864499 -632.361558619893 14.0749465249641
    vertex 498.154364970176 -627.104685482524 14.0749465249616
  endloop
endfacet
facet normal -2.73531717815473e-014 -1.1102230246241e-016 -1.0
  outer loop
    vertex 498.154364970176 -627.104685482524 14.0749465249616
    vertex 499.855326864499 -632.361558619893 14.0749465249641
    vertex 497.915987036279 -627.415345654304 14.0749465249614
  endloop
endfacet
facet normal -2.73531717815473e-014 -1.1102230246241e-016 -1.0
  outer loop
    vertex 497.915987036279 -627.415345654304 14.0749465249614
    vertex 499.855326864499 -632.361558619893 14.0749465249641
    vertex 497.605326864499 -627.653723588201 14.0749465249613
  endloop
endfacet
facet normal -2.73531717815473e-014 -1.1102230246241e-016 -1.0
  outer loop
    vertex 497.605326864499 -627.653723588201 14.0749465249613
    vertex 499.855326864499 -632.361558619893 14.0749465249641
    vertex 497.243555432153 -627.803574221958 14.0749465249613
  endloop
endfacet
facet normal -2.73531717815473e-014 -1.1102230246241e-016 -1.0
  outer loop
    vertex 497.243555432153 -627.803574221958 14.0749465249613
    vertex 499.855326864499 -632.361558619893 14.0749465249641
    vertex 496.855326864499 -627.854685482524 14.0749465249612
  endloop
endfacet
facet normal -2.73531717815473e-014 -1.1102230246241e-016 -1.0
  outer loop
    vertex 499.855326864499 -612.361558619893 14.0749465249641
    vertex 498.355326864499 -626.354685482524 14.0749465249619
    vertex 498.304215603933 -625.96645691487 14.0749465249621
  endloop
endfacet
facet normal -2.73531717815473e-014 -1.1102230246241e-016 -1.0
  outer loop
    vertex 499.855326864499 -612.361558619893 14.0749465249641
    vertex 498.304215603933 -625.96645691487 14.0749465249621
    vertex 498.154364970176 -625.604685482524 14.0749465249623
  endloop
endfacet
facet normal -2.73531717815473e-014 -1.1102230246241e-016 -1.0
  outer loop
    vertex 499.855326864499 -612.361558619893 14.0749465249641
    vertex 498.154364970176 -625.604685482524 14.0749465249623
    vertex 497.915987036279 -625.294025310744 14.0749465249623
  endloop
endfacet
facet normal -2.73531717815473e-014 -1.1102230246241e-016 -1.0
  outer loop
    vertex 499.855326864499 -612.361558619893 14.0749465249641
    vertex 497.915987036279 -625.294025310744 14.0749465249623
    vertex 498.787178517078 -618.879196710098 14.0749465249648
  endloop
endfacet
facet normal -2.73531717815473e-014 -1.1102230246241e-016 -1.0
  outer loop
    vertex 498.787178517078 -618.879196710098 14.0749465249648
    vertex 497.915987036279 -625.294025310744 14.0749465249623
    vertex 497.605326864499 -625.055647376847 14.0749465249624
  endloop
endfacet
facet normal -2.73531717815473e-014 -1.1102230246241e-016 -1.0
  outer loop
    vertex 498.787178517078 -618.879196710098 14.0749465249648
    vertex 497.605326864499 -625.055647376847 14.0749465249624
    vertex 497.243555432153 -624.90579674309 14.0749465249626
  endloop
endfacet
facet normal -2.73531717815473e-014 -1.1102230246241e-016 -1.0
  outer loop
    vertex 498.787178517078 -618.879196710098 14.0749465249648
    vertex 497.243555432153 -624.90579674309 14.0749465249626
    vertex 496.855326864499 -624.854685482524 14.0749465249627
  endloop
endfacet
facet normal -2.73531717815473e-014 -1.1102230246241e-016 -1.0
  outer loop
    vertex 498.787178517078 -618.879196710098 14.0749465249648
    vertex 496.855326864499 -624.854685482524 14.0749465249627
    vertex 498.587377672069 -619.361558619893 14.0749465249648
  endloop
endfacet
facet normal -2.73531717815473e-014 -1.1102230246241e-016 -1.0
  outer loop
    vertex 498.587377672069 -619.361558619893 14.0749465249648
    vertex 496.855326864499 -624.854685482524 14.0749465249627
    vertex 498.269540426873 -619.775772182266 14.0749465249647
  endloop
endfacet
facet normal -2.73531717815473e-014 -1.1102230246241e-016 -1.0
  outer loop
    vertex 498.269540426873 -619.775772182266 14.0749465249647
    vertex 496.855326864499 -624.854685482524 14.0749465249627
    vertex 497.8553268645 -620.093609427462 14.0749465249647
  endloop
endfacet
facet normal -2.73531717815473e-014 -1.1102230246241e-016 -1.0
  outer loop
    vertex 497.8553268645 -620.093609427462 14.0749465249647
    vertex 496.855326864499 -624.854685482524 14.0749465249627
    vertex 497.372964954705 -620.293410272471 14.0749465249647
  endloop
endfacet
facet normal -2.73531717815473e-014 -1.1102230246241e-016 -1.0
  outer loop
    vertex 497.372964954705 -620.293410272471 14.0749465249647
    vertex 496.855326864499 -624.854685482524 14.0749465249627
    vertex 496.8553268645 -620.361558619893 14.0749465249647
  endloop
endfacet
facet normal -2.73531717815473e-014 -1.1102230246241e-016 -1.0
  outer loop
    vertex 499.855326864499 -612.361558619893 14.0749465249641
    vertex 498.787178517078 -618.879196710098 14.0749465249648
    vertex 498.8553268645 -618.361558619893 14.0749465249648
  endloop
endfacet
facet normal -2.73531717815473e-014 -1.1102230246241e-016 -1.0
  outer loop
    vertex 499.855326864499 -612.361558619893 14.0749465249641
    vertex 498.8553268645 -618.361558619893 14.0749465249648
    vertex 498.787178517078 -617.843920529688 14.0749465249648
  endloop
endfacet
facet normal -2.73531717815473e-014 -1.1102230246241e-016 -1.0
  outer loop
    vertex 499.855326864499 -612.361558619893 14.0749465249641
    vertex 498.787178517078 -617.843920529688 14.0749465249648
    vertex 498.587377672069 -617.361558619893 14.0749465249648
  endloop
endfacet
facet normal -2.73531717815473e-014 -1.1102230246241e-016 -1.0
  outer loop
    vertex 499.855326864499 -612.361558619893 14.0749465249641
    vertex 498.587377672069 -617.361558619893 14.0749465249648
    vertex 498.269540426873 -616.94734505752 14.0749465249647
  endloop
endfacet
facet normal -2.73531717815473e-014 -1.1102230246241e-016 -1.0
  outer loop
    vertex 499.855326864499 -612.361558619893 14.0749465249641
    vertex 498.269540426873 -616.94734505752 14.0749465249647
    vertex 497.8553268645 -616.629507812324 14.0749465249647
  endloop
endfacet
facet normal -2.73531717815473e-014 -1.1102230246241e-016 -1.0
  outer loop
    vertex 499.855326864499 -612.361558619893 14.0749465249641
    vertex 497.8553268645 -616.629507812324 14.0749465249647
    vertex 497.372964954705 -616.429706967315 14.0749465249647
  endloop
endfacet
facet normal -2.73531717815473e-014 -1.1102230246241e-016 -1.0
  outer loop
    vertex 499.855326864499 -612.361558619893 14.0749465249641
    vertex 497.372964954705 -616.429706967315 14.0749465249647
    vertex 496.8553268645 -616.361558619893 14.0749465249647
  endloop
endfacet
facet normal -2.73531717815473e-014 -1.1102230246241e-016 -1.0
  outer loop
    vertex 499.855326864499 -612.361558619893 14.0749465249641
    vertex 496.8553268645 -616.361558619893 14.0749465249647
    vertex 493.855326864499 -612.361558619893 14.0749465249642
  endloop
endfacet
facet normal 0.793353340291172 -0.608761429008802 -2.89725703966974e-013
  outer loop
    vertex 495.556288758823 -625.60468548253 15.5749465249637
    vertex 495.794666692719 -625.294025310744 14.0749465249624
    vertex 495.794666692719 -625.29402531075 15.5749465249638
  endloop
endfacet
facet normal 0.793353340291172 -0.608761429008802 -2.89725703966974e-013
  outer loop
    vertex 495.794666692719 -625.294025310744 14.0749465249624
    vertex 495.556288758823 -625.60468548253 15.5749465249637
    vertex 495.556288758822 -625.604685482524 14.0749465249622
  endloop
endfacet
facet normal -0.923879532511261 -0.382683432365152 -1.55865777881362e-013
  outer loop
    vertex 498.154364970176 -625.604685482524 14.0749465249623
    vertex 498.304215603933 -625.966456914876 15.5749465249635
    vertex 498.154364970176 -625.60468548253 15.5749465249637
  endloop
endfacet
facet normal -0.923879532511261 -0.382683432365152 -1.55865777881362e-013
  outer loop
    vertex 498.304215603933 -625.966456914876 15.5749465249635
    vertex 498.154364970176 -625.604685482524 14.0749465249623
    vertex 498.304215603933 -625.96645691487 14.0749465249621
  endloop
endfacet
facet normal 0.923879532511261 0.382683432365152 1.55865777881362e-013
  outer loop
    vertex 495.556288758822 -627.10468548253 15.574946524963
    vertex 495.406438125065 -626.742914050178 14.0749465249618
    vertex 495.406438125066 -626.742914050184 15.5749465249632
  endloop
endfacet
facet normal 0.923879532511261 0.382683432365152 1.55865777881362e-013
  outer loop
    vertex 495.406438125065 -626.742914050178 14.0749465249618
    vertex 495.556288758822 -627.10468548253 15.574946524963
    vertex 495.556288758822 -627.104685482524 14.0749465249616
  endloop
endfacet
facet normal -0.991444861373834 -0.130526192219872 -4.06768881125407e-014
  outer loop
    vertex 498.304215603933 -625.96645691487 14.0749465249621
    vertex 498.355326864499 -626.35468548253 15.5749465249633
    vertex 498.304215603933 -625.966456914876 15.5749465249635
  endloop
endfacet
facet normal -0.991444861373834 -0.130526192219872 -4.06768881125407e-014
  outer loop
    vertex 498.355326864499 -626.35468548253 15.5749465249633
    vertex 498.304215603933 -625.96645691487 14.0749465249621
    vertex 498.355326864499 -626.354685482524 14.0749465249619
  endloop
endfacet
facet normal -0.382683432365169 -0.923879532511254 -4.10405732552549e-013
  outer loop
    vertex 497.605326864499 -625.055647376847 14.0749465249624
    vertex 497.243555432153 -624.905796743096 15.574946524964
    vertex 497.243555432153 -624.90579674309 14.0749465249626
  endloop
endfacet
facet normal -0.382683432365169 -0.923879532511254 -4.10405732552549e-013
  outer loop
    vertex 497.243555432153 -624.905796743096 15.574946524964
    vertex 497.605326864499 -625.055647376847 14.0749465249624
    vertex 497.605326864499 -625.055647376853 15.5749465249639
  endloop
endfacet
facet normal -0.382683432364981 0.923879532511332 4.24535575170188e-013
  outer loop
    vertex 497.243555432153 -627.803574221964 15.5749465249627
    vertex 497.605326864499 -627.653723588201 14.0749465249613
    vertex 497.243555432153 -627.803574221958 14.0749465249613
  endloop
endfacet
facet normal -0.382683432364981 0.923879532511332 4.24535575170188e-013
  outer loop
    vertex 497.605326864499 -627.653723588201 14.0749465249613
    vertex 497.243555432153 -627.803574221964 15.5749465249627
    vertex 497.605326864499 -627.653723588207 15.5749465249628
  endloop
endfacet
facet normal -0.923879532511251 0.382683432365176 1.8997823556299e-013
  outer loop
    vertex 498.304215603933 -626.742914050178 14.0749465249617
    vertex 498.154364970176 -627.10468548253 15.574946524963
    vertex 498.304215603933 -626.742914050184 15.5749465249631
  endloop
endfacet
facet normal -0.923879532511251 0.382683432365176 1.8997823556299e-013
  outer loop
    vertex 498.154364970176 -627.10468548253 15.574946524963
    vertex 498.304215603933 -626.742914050178 14.0749465249617
    vertex 498.154364970176 -627.104685482524 14.0749465249616
  endloop
endfacet
facet normal -0.608761429008752 0.793353340291211 3.69728844439932e-013
  outer loop
    vertex 497.605326864499 -627.653723588207 15.5749465249628
    vertex 497.915987036279 -627.415345654304 14.0749465249614
    vertex 497.605326864499 -627.653723588201 14.0749465249613
  endloop
endfacet
facet normal -0.608761429008752 0.793353340291211 3.69728844439932e-013
  outer loop
    vertex 497.915987036279 -627.415345654304 14.0749465249614
    vertex 497.605326864499 -627.653723588207 15.5749465249628
    vertex 497.915987036279 -627.41534565431 15.5749465249629
  endloop
endfacet
facet normal 0.608761429008752 -0.793353340291211 -3.69728844439932e-013
  outer loop
    vertex 496.105326864499 -625.055647376847 14.0749465249625
    vertex 495.794666692719 -625.29402531075 15.5749465249638
    vertex 495.794666692719 -625.294025310744 14.0749465249624
  endloop
endfacet
facet normal 0.608761429008752 -0.793353340291211 -3.69728844439932e-013
  outer loop
    vertex 495.794666692719 -625.29402531075 15.5749465249638
    vertex 496.105326864499 -625.055647376847 14.0749465249625
    vertex 496.105326864499 -625.055647376853 15.5749465249639
  endloop
endfacet
facet normal 0.991444861373802 -0.130526192220114 -7.72840643592556e-014
  outer loop
    vertex 495.355326864499 -626.35468548253 15.5749465249634
    vertex 495.406438125066 -625.96645691487 14.0749465249621
    vertex 495.406438125066 -625.966456914876 15.5749465249636
  endloop
endfacet
facet normal 0.991444861373802 -0.130526192220114 -7.72840643592556e-014
  outer loop
    vertex 495.406438125066 -625.96645691487 14.0749465249621
    vertex 495.355326864499 -626.35468548253 15.5749465249634
    vertex 495.355326864499 -626.354685482524 14.074946524962
  endloop
endfacet
facet normal 0.793353340291319 0.608761429008612 2.60432672467757e-013
  outer loop
    vertex 495.794666692719 -627.41534565431 15.5749465249629
    vertex 495.556288758822 -627.104685482524 14.0749465249616
    vertex 495.556288758822 -627.10468548253 15.574946524963
  endloop
endfacet
facet normal 0.793353340291319 0.608761429008612 2.60432672467757e-013
  outer loop
    vertex 495.556288758822 -627.104685482524 14.0749465249616
    vertex 495.794666692719 -627.41534565431 15.5749465249629
    vertex 495.794666692719 -627.415345654304 14.0749465249615
  endloop
endfacet
facet normal -0.793353340291172 0.608761429008802 2.89725703966974e-013
  outer loop
    vertex 498.154364970176 -627.104685482524 14.0749465249616
    vertex 497.915987036279 -627.41534565431 15.5749465249629
    vertex 498.154364970176 -627.10468548253 15.574946524963
  endloop
endfacet
facet normal -0.793353340291172 0.608761429008802 2.89725703966974e-013
  outer loop
    vertex 497.915987036279 -627.41534565431 15.5749465249629
    vertex 498.154364970176 -627.104685482524 14.0749465249616
    vertex 497.915987036279 -627.415345654304 14.0749465249614
  endloop
endfacet
facet normal 0.991444861373834 0.130526192219872 4.06768881125407e-014
  outer loop
    vertex 495.406438125066 -626.742914050184 15.5749465249632
    vertex 495.355326864499 -626.354685482524 14.074946524962
    vertex 495.355326864499 -626.35468548253 15.5749465249634
  endloop
endfacet
facet normal 0.991444861373834 0.130526192219872 4.06768881125407e-014
  outer loop
    vertex 495.355326864499 -626.354685482524 14.074946524962
    vertex 495.406438125066 -626.742914050184 15.5749465249632
    vertex 495.406438125065 -626.742914050178 14.0749465249618
  endloop
endfacet
facet normal -0.991444861373802 0.130526192220114 7.72840643592556e-014
  outer loop
    vertex 498.355326864499 -626.354685482524 14.0749465249619
    vertex 498.304215603933 -626.742914050184 15.5749465249631
    vertex 498.355326864499 -626.35468548253 15.5749465249633
  endloop
endfacet
facet normal -0.991444861373802 0.130526192220114 7.72840643592556e-014
  outer loop
    vertex 498.304215603933 -626.742914050184 15.5749465249631
    vertex 498.355326864499 -626.354685482524 14.0749465249619
    vertex 498.304215603933 -626.742914050178 14.0749465249617
  endloop
endfacet
facet normal -0.608761429008705 -0.793353340291248 -3.47251510810948e-013
  outer loop
    vertex 497.915987036279 -625.294025310744 14.0749465249623
    vertex 497.605326864499 -625.055647376853 15.5749465249639
    vertex 497.605326864499 -625.055647376847 14.0749465249624
  endloop
endfacet
facet normal -0.608761429008705 -0.793353340291248 -3.47251510810948e-013
  outer loop
    vertex 497.605326864499 -625.055647376853 15.5749465249639
    vertex 497.915987036279 -625.294025310744 14.0749465249623
    vertex 497.915987036279 -625.29402531075 15.5749465249638
  endloop
endfacet
facet normal -0.130526192220019 0.991444861373815 4.5041090803076e-013
  outer loop
    vertex 496.855326864499 -627.85468548253 15.5749465249626
    vertex 497.243555432153 -627.803574221958 14.0749465249613
    vertex 496.855326864499 -627.854685482524 14.0749465249612
  endloop
endfacet
facet normal -0.130526192220019 0.991444861373815 4.5041090803076e-013
  outer loop
    vertex 497.243555432153 -627.803574221958 14.0749465249613
    vertex 496.855326864499 -627.85468548253 15.5749465249626
    vertex 497.243555432153 -627.803574221964 15.5749465249627
  endloop
endfacet
facet normal 0.130526192219996 -0.991444861373818 -4.50410908030761e-013
  outer loop
    vertex 496.855326864499 -624.854685482524 14.0749465249627
    vertex 496.467098296846 -624.905796743096 15.574946524964
    vertex 496.467098296845 -624.90579674309 14.0749465249626
  endloop
endfacet
facet normal 0.130526192219996 -0.991444861373818 -4.50410908030761e-013
  outer loop
    vertex 496.467098296846 -624.905796743096 15.574946524964
    vertex 496.855326864499 -624.854685482524 14.0749465249627
    vertex 496.855326864499 -624.85468548253 15.5749465249642
  endloop
endfacet
facet normal 0.382683432364981 -0.923879532511332 -4.24535575170188e-013
  outer loop
    vertex 496.467098296845 -624.90579674309 14.0749465249626
    vertex 496.105326864499 -625.055647376853 15.5749465249639
    vertex 496.105326864499 -625.055647376847 14.0749465249625
  endloop
endfacet
facet normal 0.382683432364981 -0.923879532511332 -4.24535575170188e-013
  outer loop
    vertex 496.105326864499 -625.055647376853 15.5749465249639
    vertex 496.467098296845 -624.90579674309 14.0749465249626
    vertex 496.467098296846 -624.905796743096 15.574946524964
  endloop
endfacet
facet normal -0.793353340291319 -0.608761429008612 -2.60432672467757e-013
  outer loop
    vertex 497.915987036279 -625.294025310744 14.0749465249623
    vertex 498.154364970176 -625.60468548253 15.5749465249637
    vertex 497.915987036279 -625.29402531075 15.5749465249638
  endloop
endfacet
facet normal -0.793353340291319 -0.608761429008612 -2.60432672467757e-013
  outer loop
    vertex 498.154364970176 -625.60468548253 15.5749465249637
    vertex 497.915987036279 -625.294025310744 14.0749465249623
    vertex 498.154364970176 -625.604685482524 14.0749465249623
  endloop
endfacet
facet normal 0.130526192220085 0.991444861373806 4.45591481848269e-013
  outer loop
    vertex 496.467098296845 -627.803574221964 15.5749465249627
    vertex 496.855326864499 -627.854685482524 14.0749465249612
    vertex 496.467098296845 -627.803574221958 14.0749465249613
  endloop
endfacet
facet normal 0.130526192220085 0.991444861373806 4.45591481848269e-013
  outer loop
    vertex 496.855326864499 -627.854685482524 14.0749465249612
    vertex 496.467098296845 -627.803574221964 15.5749465249627
    vertex 496.855326864499 -627.85468548253 15.5749465249626
  endloop
endfacet
facet normal 0.923879532511251 -0.382683432365176 -1.8997823556299e-013
  outer loop
    vertex 495.406438125066 -625.966456914876 15.5749465249636
    vertex 495.556288758822 -625.604685482524 14.0749465249622
    vertex 495.556288758823 -625.60468548253 15.5749465249637
  endloop
endfacet
facet normal 0.923879532511251 -0.382683432365176 -1.8997823556299e-013
  outer loop
    vertex 495.556288758822 -625.604685482524 14.0749465249622
    vertex 495.406438125066 -625.966456914876 15.5749465249636
    vertex 495.406438125066 -625.96645691487 14.0749465249621
  endloop
endfacet
facet normal -0.130526192220123 -0.991444861373801 -4.45591481848266e-013
  outer loop
    vertex 497.243555432153 -624.90579674309 14.0749465249626
    vertex 496.855326864499 -624.85468548253 15.5749465249642
    vertex 496.855326864499 -624.854685482524 14.0749465249627
  endloop
endfacet
facet normal -0.130526192220123 -0.991444861373801 -4.45591481848266e-013
  outer loop
    vertex 496.855326864499 -624.85468548253 15.5749465249642
    vertex 497.243555432153 -624.90579674309 14.0749465249626
    vertex 497.243555432153 -624.905796743096 15.574946524964
  endloop
endfacet
facet normal 1.0 -1.62425252364975e-014 4.11687082426829e-014
  outer loop
    vertex 499.855326864499 -632.361558619893 19.6749465249631
    vertex 499.855326864499 -627.722634674962 18.1749465249629
    vertex 499.855326864499 -624.9867362901 18.1749465249636
  endloop
endfacet
facet normal 1.0 -1.62425252364975e-014 4.11687082426829e-014
  outer loop
    vertex 499.855326864499 -627.722634674962 18.1749465249629
    vertex 499.855326864499 -632.361558619893 19.6749465249631
    vertex 499.855326864499 -632.361558619893 14.0749465249641
  endloop
endfacet
facet normal 1.0 -1.62425252364975e-014 4.11687082426829e-014
  outer loop
    vertex 499.855326864499 -627.722634674962 18.1749465249629
    vertex 499.855326864499 -632.361558619893 14.0749465249641
    vertex 499.855326864501 -627.722634674961 15.5749465249658
  endloop
endfacet
facet normal 1.0 -1.62425252364975e-014 4.11687082426829e-014
  outer loop
    vertex 499.8553268645 -612.361558619893 19.6749465249632
    vertex 499.855326864499 -624.9867362901 18.1749465249636
    vertex 499.855326864499 -612.361558619893 14.0749465249641
  endloop
endfacet
facet normal 1.0 -1.62425252364975e-014 4.11687082426829e-014
  outer loop
    vertex 499.855326864499 -624.9867362901 18.1749465249636
    vertex 499.8553268645 -612.361558619893 19.6749465249632
    vertex 499.855326864499 -632.361558619893 19.6749465249631
  endloop
endfacet
facet normal 1.0 -1.62425252364975e-014 4.11687082426829e-014
  outer loop
    vertex 499.855326864499 -612.361558619893 14.0749465249641
    vertex 499.855326864499 -624.9867362901 18.1749465249636
    vertex 499.855326864501 -624.986736290099 15.5749465249664
  endloop
endfacet
facet normal 1.0 -1.62425252364975e-014 4.11687082426829e-014
  outer loop
    vertex 499.855326864499 -612.361558619893 14.0749465249641
    vertex 499.855326864501 -624.986736290099 15.5749465249664
    vertex 499.855326864501 -627.722634674961 15.5749465249658
  endloop
endfacet
facet normal 1.0 -1.62425252364975e-014 4.11687082426829e-014
  outer loop
    vertex 499.855326864499 -612.361558619893 14.0749465249641
    vertex 499.855326864501 -627.722634674961 15.5749465249658
    vertex 499.855326864499 -632.361558619893 14.0749465249641
  endloop
endfacet
facet normal -3.86368170338476e-015 -1.0 1.11022302462516e-016
  outer loop
    vertex 493.855326864499 -632.361558619893 14.0749465249642
    vertex 499.855326864499 -632.361558619893 19.6749465249631
    vertex 493.855326864499 -632.361558619893 19.6749465249632
  endloop
endfacet
facet normal -3.86368170338476e-015 -1.0 1.11022302462516e-016
  outer loop
    vertex 499.855326864499 -632.361558619893 19.6749465249631
    vertex 493.855326864499 -632.361558619893 14.0749465249642
    vertex 499.855326864499 -632.361558619893 14.0749465249641
  endloop
endfacet
facet normal -1.0 1.5608426742466e-014 1.17447450390812e-014
  outer loop
    vertex 493.8553268645 -612.361558619893 19.6749465249634
    vertex 493.855326864499 -623.254685482531 18.1749465249644
    vertex 493.855326864499 -632.361558619893 19.6749465249632
  endloop
endfacet
facet normal -1.0 1.5608426742466e-014 1.17447450390812e-014
  outer loop
    vertex 493.855326864499 -623.254685482531 18.1749465249644
    vertex 493.8553268645 -612.361558619893 19.6749465249634
    vertex 493.855326864499 -612.361558619893 14.0749465249642
  endloop
endfacet
facet normal -1.0 1.5608426742466e-014 1.17447450390812e-014
  outer loop
    vertex 493.855326864499 -623.254685482531 18.1749465249644
    vertex 493.855326864499 -612.361558619893 14.0749465249642
    vertex 493.855326864499 -623.25468548253 15.5749465249645
  endloop
endfacet
facet normal -1.0 1.5608426742466e-014 1.17447450390812e-014
  outer loop
    vertex 493.855326864499 -623.25468548253 15.5749465249645
    vertex 493.855326864499 -612.361558619893 14.0749465249642
    vertex 493.855326864499 -629.45468548253 15.5749465249619
  endloop
endfacet
facet normal -1.0 1.5608426742466e-014 1.17447450390812e-014
  outer loop
    vertex 493.855326864499 -632.361558619893 19.6749465249632
    vertex 493.855326864499 -629.454685482531 18.1749465249618
    vertex 493.855326864499 -632.361558619893 14.0749465249642
  endloop
endfacet
facet normal -1.0 1.5608426742466e-014 1.17447450390812e-014
  outer loop
    vertex 493.855326864499 -629.454685482531 18.1749465249618
    vertex 493.855326864499 -632.361558619893 19.6749465249632
    vertex 493.855326864499 -623.254685482531 18.1749465249644
  endloop
endfacet
facet normal -1.0 1.5608426742466e-014 1.17447450390812e-014
  outer loop
    vertex 493.855326864499 -632.361558619893 14.0749465249642
    vertex 493.855326864499 -629.454685482531 18.1749465249618
    vertex 493.855326864499 -629.45468548253 15.5749465249619
  endloop
endfacet
facet normal -1.0 1.5608426742466e-014 1.17447450390812e-014
  outer loop
    vertex 493.855326864499 -632.361558619893 14.0749465249642
    vertex 493.855326864499 -629.45468548253 15.5749465249619
    vertex 493.855326864499 -612.361558619893 14.0749465249642
  endloop
endfacet
facet normal 3.86368170338476e-015 1.0 -1.11022302462516e-016
  outer loop
    vertex 493.8553268645 -612.361558619893 19.6749465249634
    vertex 499.855326864499 -612.361558619893 14.0749465249641
    vertex 493.855326864499 -612.361558619893 14.0749465249642
  endloop
endfacet
facet normal 3.86368170338476e-015 1.0 -1.11022302462516e-016
  outer loop
    vertex 499.855326864499 -612.361558619893 14.0749465249641
    vertex 493.8553268645 -612.361558619893 19.6749465249634
    vertex 499.8553268645 -612.361558619893 19.6749465249632
  endloop
endfacet
facet normal 0.608761429008707 0.793353340291246 3.47251510810947e-013
  outer loop
    vertex 495.794666692719 -627.41534565431 15.5749465249629
    vertex 496.105326864499 -627.6537235882 14.0749465249614
    vertex 495.794666692719 -627.415345654304 14.0749465249615
  endloop
endfacet
facet normal 0.608761429008707 0.793353340291246 3.47251510810947e-013
  outer loop
    vertex 496.105326864499 -627.6537235882 14.0749465249614
    vertex 495.794666692719 -627.41534565431 15.5749465249629
    vertex 496.105326864499 -627.653723588207 15.5749465249628
  endloop
endfacet
facet normal 0.382683432365166 0.923879532511255 4.10405732552549e-013
  outer loop
    vertex 496.105326864499 -627.653723588207 15.5749465249628
    vertex 496.467098296845 -627.803574221958 14.0749465249613
    vertex 496.105326864499 -627.6537235882 14.0749465249614
  endloop
endfacet
facet normal 0.382683432365166 0.923879532511255 4.10405732552549e-013
  outer loop
    vertex 496.467098296845 -627.803574221958 14.0749465249613
    vertex 496.105326864499 -627.653723588207 15.5749465249628
    vertex 496.467098296845 -627.803574221964 15.5749465249627
  endloop
endfacet
endsolid GovernorG4
