solid GovernorG4
facet normal 0.0 -1.0 0.0
  outer loop
    vertex 505.467267310072 -462.386817234811 3.00000000200503
    vertex 501.467267310072 -462.386817234811 8.00000000200498
    vertex 501.467267310072 -462.386817234811 3.00000000200498
  endloop
endfacet
facet normal 0.0 -1.0 0.0
  outer loop
    vertex 501.467267310072 -462.386817234811 8.00000000200498
    vertex 505.467267310072 -462.386817234811 3.00000000200503
    vertex 505.467267310072 -462.386817234811 12.8851921617746
  endloop
endfacet
facet normal 0.0 -1.0 0.0
  outer loop
    vertex 501.467267310072 -462.386817234811 8.00000000200498
    vertex 505.467267310072 -462.386817234811 12.8851921617746
    vertex 500.467267310072 -462.386817234811 9.00000000200495
  endloop
endfacet
facet normal 0.0 -1.0 0.0
  outer loop
    vertex 500.467267310072 -462.386817234811 9.00000000200495
    vertex 505.467267310072 -462.386817234811 12.8851921617746
    vertex 486.467267310072 -462.386817234811 12.8851921617742
  endloop
endfacet
facet normal 0.0 -1.0 0.0
  outer loop
    vertex 486.467267310072 -462.386817234811 12.8851921617742
    vertex 486.467267310072 -462.386817234811 9.00000000200458
    vertex 500.467267310072 -462.386817234811 9.00000000200495
  endloop
endfacet
facet normal -1.07811814010497e-014 0.523428137196105 0.852069824129111
  outer loop
    vertex 421.967267310081 -456.156320312657 15.5563992683597
    vertex 501.467267310072 -455.286378672063 15.0219924398234
    vertex 421.96726731008 -455.286378672063 15.0219924398225
  endloop
endfacet
facet normal -1.07811814010497e-014 0.523428137196105 0.852069824129111
  outer loop
    vertex 501.467267310072 -455.286378672063 15.0219924398234
    vertex 421.967267310081 -456.156320312657 15.5563992683597
    vertex 501.467267310072 -456.156320312657 15.5563992683606
  endloop
endfacet
facet normal -4.42811099591747e-015 0.936289431316304 0.351229413354566
  outer loop
    vertex 421.967267310081 -453.995413541623 13.4559277216387
    vertex 501.467267310072 -453.886817234811 13.1664372334238
    vertex 421.967267310081 -453.886817234811 13.1664372334229
  endloop
endfacet
facet normal -4.42811099591747e-015 0.936289431316304 0.351229413354566
  outer loop
    vertex 501.467267310072 -453.886817234811 13.1664372334238
    vertex 421.967267310081 -453.995413541623 13.4559277216387
    vertex 501.467267310072 -453.995413541623 13.4559277216396
  endloop
endfacet
facet normal -3.84175854700406e-015 -0.93628943131621 0.351229413354816
  outer loop
    vertex 505.467267310072 -462.386817234811 13.1664372334242
    vertex 421.967267310081 -462.278220928 13.4559277216387
    vertex 421.967267310081 -462.386817234811 13.1664372334229
  endloop
endfacet
facet normal -3.84175854700406e-015 -0.93628943131621 0.351229413354816
  outer loop
    vertex 421.967267310081 -462.278220928 13.4559277216387
    vertex 505.467267310072 -462.386817234811 13.1664372334242
    vertex 505.467267310072 -462.278220928 13.45592772164
  endloop
endfacet
facet normal -1.03624631886049e-014 -0.32453642524659 0.945873199053745
  outer loop
    vertex 505.467267310072 -460.117314156966 15.556399268361
    vertex 421.967267310081 -459.15160165398 15.8877427125427
    vertex 421.967267310081 -460.117314156966 15.5563992683597
  endloop
endfacet
facet normal -1.03624631886049e-014 -0.32453642524659 0.945873199053745
  outer loop
    vertex 421.967267310081 -459.15160165398 15.8877427125427
    vertex 505.467267310072 -460.117314156966 15.556399268361
    vertex 505.467267310072 -459.15160165398 15.8877427125439
  endloop
endfacet
facet normal 2.15909206839999e-011 1.0 -4.79793420059295e-010
  outer loop
    vertex 421.967267310081 -453.886817234811 13.1664372334229
    vertex 500.467267310072 -453.886817238277 9.00000000200495
    vertex 421.967267310081 -453.886817234811 9.000000002004
  endloop
endfacet
facet normal 2.15909206839999e-011 1.0 -4.79793420059295e-010
  outer loop
    vertex 500.467267310072 -453.886817238277 9.00000000200495
    vertex 501.467267310072 -453.886817234811 13.1664372334238
    vertex 501.467267310072 -453.886817238277 8.00000000200498
  endloop
endfacet
facet normal 2.15909206839999e-011 1.0 -4.79793420059295e-010
  outer loop
    vertex 501.467267310072 -453.886817234811 13.1664372334238
    vertex 500.467267310072 -453.886817238277 9.00000000200495
    vertex 421.967267310081 -453.886817234811 13.1664372334229
  endloop
endfacet
facet normal -1.19681115481129e-014 0.324536425246494 0.945873199053778
  outer loop
    vertex 501.467267310072 -457.122032815642 15.8877427125435
    vertex 421.967267310081 -456.156320312657 15.5563992683597
    vertex 421.967267310081 -457.122032815642 15.8877427125426
  endloop
endfacet
facet normal -1.19681115481129e-014 0.324536425246494 0.945873199053778
  outer loop
    vertex 421.967267310081 -456.156320312657 15.5563992683597
    vertex 501.467267310072 -457.122032815642 15.8877427125435
    vertex 501.467267310072 -456.156320312657 15.5563992683606
  endloop
endfacet
facet normal -9.33501908854456e-015 -0.523428137196065 0.852069824129136
  outer loop
    vertex 505.467267310072 -460.987255797559 15.0219924398238
    vertex 421.967267310081 -460.117314156966 15.5563992683597
    vertex 421.96726731008 -460.987255797559 15.0219924398225
  endloop
endfacet
facet normal -9.33501908854456e-015 -0.523428137196065 0.852069824129136
  outer loop
    vertex 421.967267310081 -460.117314156966 15.5563992683597
    vertex 505.467267310072 -460.987255797559 15.0219924398238
    vertex 505.467267310072 -460.117314156966 15.556399268361
  endloop
endfacet
facet normal -7.85586806885033e-015 -0.69700844192305 0.717062920452594
  outer loop
    vertex 505.467267310072 -461.719358819826 14.3103645305809
    vertex 421.96726731008 -460.987255797559 15.0219924398225
    vertex 421.96726731008 -461.719358819826 14.3103645305797
  endloop
endfacet
facet normal -7.85586806885033e-015 -0.69700844192305 0.717062920452594
  outer loop
    vertex 421.96726731008 -460.987255797559 15.0219924398225
    vertex 505.467267310072 -461.719358819826 14.3103645305809
    vertex 505.467267310072 -460.987255797559 15.0219924398238
  endloop
endfacet
facet normal -1.32222621944266e-014 -0.109951109850508 0.993936996716916
  outer loop
    vertex 421.967267310081 -459.15160165398 15.8877427125427
    vertex 501.467267310072 -458.136817234811 16.0000000020048
    vertex 421.96726731008 -458.136817234811 16.000000002004
  endloop
endfacet
facet normal -1.32222621944266e-014 -0.109951109850508 0.993936996716916
  outer loop
    vertex 501.467267310072 -458.136817234811 16.0000000020048
    vertex 421.967267310081 -459.15160165398 15.8877427125427
    vertex 505.467267310072 -459.15160165398 15.8877427125439
  endloop
endfacet
facet normal -1.32222621944266e-014 -0.109951109850508 0.993936996716916
  outer loop
    vertex 501.467267310072 -458.136817234811 16.0000000020048
    vertex 505.467267310072 -459.15160165398 15.8877427125439
    vertex 505.467267310072 -458.136817234811 16.0000000020052
  endloop
endfacet
facet normal -9.0727270820848e-015 0.697008441923027 0.717062920452615
  outer loop
    vertex 501.467267310072 -455.286378672063 15.0219924398234
    vertex 421.96726731008 -454.554275649797 14.3103645305797
    vertex 421.96726731008 -455.286378672063 15.0219924398225
  endloop
endfacet
facet normal -9.0727270820848e-015 0.697008441923027 0.717062920452615
  outer loop
    vertex 421.96726731008 -454.554275649797 14.3103645305797
    vertex 501.467267310072 -455.286378672063 15.0219924398234
    vertex 501.467267310072 -454.554275649797 14.3103645305805
  endloop
endfacet
facet normal -6.91742609414556e-015 0.836883519022179 0.547381015006051
  outer loop
    vertex 421.96726731008 -454.554275649797 14.3103645305797
    vertex 501.467267310072 -453.995413541623 13.4559277216396
    vertex 421.967267310081 -453.995413541623 13.4559277216387
  endloop
endfacet
facet normal -6.91742609414556e-015 0.836883519022179 0.547381015006051
  outer loop
    vertex 501.467267310072 -453.995413541623 13.4559277216396
    vertex 421.96726731008 -454.554275649797 14.3103645305797
    vertex 501.467267310072 -454.554275649797 14.3103645305805
  endloop
endfacet
facet normal -5.99694893825346e-015 -0.836883519022227 0.547381015005976
  outer loop
    vertex 505.467267310072 -462.278220928 13.45592772164
    vertex 421.96726731008 -461.719358819826 14.3103645305797
    vertex 421.967267310081 -462.278220928 13.4559277216387
  endloop
endfacet
facet normal -5.99694893825346e-015 -0.836883519022227 0.547381015005976
  outer loop
    vertex 421.96726731008 -461.719358819826 14.3103645305797
    vertex 505.467267310072 -462.278220928 13.45592772164
    vertex 505.467267310072 -461.719358819826 14.3103645305809
  endloop
endfacet
facet normal -1.25762484096042e-014 0.109951109850648 0.9939369967169
  outer loop
    vertex 501.467267310072 -458.136817234811 16.0000000020048
    vertex 421.967267310081 -457.122032815642 15.8877427125426
    vertex 421.96726731008 -458.136817234811 16.000000002004
  endloop
endfacet
facet normal -1.25762484096042e-014 0.109951109850648 0.9939369967169
  outer loop
    vertex 421.967267310081 -457.122032815642 15.8877427125426
    vertex 501.467267310072 -458.136817234811 16.0000000020048
    vertex 501.467267310072 -457.122032815642 15.8877427125435
  endloop
endfacet
facet normal 1.18483939477348e-014 8.60637159678188e-015 -1.0
  outer loop
    vertex 500.467267310072 -453.886817238277 9.00000000200495
    vertex 421.967267310081 -462.386817234811 9.00000000200398
    vertex 421.967267310081 -453.886817234811 9.000000002004
  endloop
endfacet
facet normal 1.18483939477348e-014 8.60637159678188e-015 -1.0
  outer loop
    vertex 421.967267310081 -462.386817234811 9.00000000200398
    vertex 500.467267310072 -453.886817238277 9.00000000200495
    vertex 486.467267310072 -462.386817234811 9.00000000200458
  endloop
endfacet
facet normal 1.18483939477348e-014 8.60637159678188e-015 -1.0
  outer loop
    vertex 486.467267310072 -462.386817234811 9.00000000200458
    vertex 500.467267310072 -453.886817238277 9.00000000200495
    vertex 500.467267310072 -462.386817234811 9.00000000200495
  endloop
endfacet
facet normal 0.0 -1.0 0.0
  outer loop
    vertex 486.467267310072 -462.386817234811 9.00000000200458
    vertex 421.967267310081 -462.386817234811 13.1664372334229
    vertex 421.967267310081 -462.386817234811 9.00000000200398
  endloop
endfacet
facet normal 0.0 -1.0 0.0
  outer loop
    vertex 421.967267310081 -462.386817234811 13.1664372334229
    vertex 486.467267310072 -462.386817234811 9.00000000200458
    vertex 486.467267310072 -462.386817234811 12.8851921617742
  endloop
endfacet
facet normal 0.0 -1.0 0.0
  outer loop
    vertex 421.967267310081 -462.386817234811 13.1664372334229
    vertex 486.467267310072 -462.386817234811 12.8851921617742
    vertex 505.467267310072 -462.386817234811 12.8851921617746
  endloop
endfacet
facet normal 0.0 -1.0 0.0
  outer loop
    vertex 421.967267310081 -462.386817234811 13.1664372334229
    vertex 505.467267310072 -462.386817234811 12.8851921617746
    vertex 505.467267310072 -462.386817234811 13.1664372334242
  endloop
endfacet
facet normal -1.0 -2.79213350154929e-029 -9.41402983444263e-015
  outer loop
    vertex 421.967267310081 -462.278220928 13.4559277216387
    vertex 421.967267310081 -462.386817234811 9.00000000200398
    vertex 421.967267310081 -462.386817234811 13.1664372334229
  endloop
endfacet
facet normal -1.0 -2.79213350154929e-029 -9.41402983444263e-015
  outer loop
    vertex 421.967267310081 -462.386817234811 9.00000000200398
    vertex 421.967267310081 -462.278220928 13.4559277216387
    vertex 421.967267310081 -453.886817234811 9.000000002004
  endloop
endfacet
facet normal -1.0 -2.79213350154929e-029 -9.41402983444263e-015
  outer loop
    vertex 421.967267310081 -453.886817234811 9.000000002004
    vertex 421.967267310081 -462.278220928 13.4559277216387
    vertex 421.96726731008 -461.719358819826 14.3103645305797
  endloop
endfacet
facet normal -1.0 -2.79213350154929e-029 -9.41402983444263e-015
  outer loop
    vertex 421.967267310081 -453.886817234811 9.000000002004
    vertex 421.96726731008 -461.719358819826 14.3103645305797
    vertex 421.96726731008 -460.987255797559 15.0219924398225
  endloop
endfacet
facet normal -1.0 -2.79213350154929e-029 -9.41402983444263e-015
  outer loop
    vertex 421.967267310081 -453.886817234811 9.000000002004
    vertex 421.96726731008 -460.987255797559 15.0219924398225
    vertex 421.967267310081 -460.117314156966 15.5563992683597
  endloop
endfacet
facet normal -1.0 -2.79213350154929e-029 -9.41402983444263e-015
  outer loop
    vertex 421.967267310081 -453.886817234811 9.000000002004
    vertex 421.967267310081 -460.117314156966 15.5563992683597
    vertex 421.967267310081 -459.15160165398 15.8877427125427
  endloop
endfacet
facet normal -1.0 -2.79213350154929e-029 -9.41402983444263e-015
  outer loop
    vertex 421.967267310081 -453.886817234811 9.000000002004
    vertex 421.967267310081 -459.15160165398 15.8877427125427
    vertex 421.96726731008 -458.136817234811 16.000000002004
  endloop
endfacet
facet normal -1.0 -2.79213350154929e-029 -9.41402983444263e-015
  outer loop
    vertex 421.967267310081 -453.886817234811 9.000000002004
    vertex 421.96726731008 -458.136817234811 16.000000002004
    vertex 421.967267310081 -457.122032815642 15.8877427125426
  endloop
endfacet
facet normal -1.0 -2.79213350154929e-029 -9.41402983444263e-015
  outer loop
    vertex 421.967267310081 -453.886817234811 9.000000002004
    vertex 421.967267310081 -457.122032815642 15.8877427125426
    vertex 421.967267310081 -456.156320312657 15.5563992683597
  endloop
endfacet
facet normal -1.0 -2.79213350154929e-029 -9.41402983444263e-015
  outer loop
    vertex 421.967267310081 -453.886817234811 9.000000002004
    vertex 421.967267310081 -456.156320312657 15.5563992683597
    vertex 421.96726731008 -455.286378672063 15.0219924398225
  endloop
endfacet
facet normal -1.0 -2.79213350154929e-029 -9.41402983444263e-015
  outer loop
    vertex 421.967267310081 -453.886817234811 9.000000002004
    vertex 421.96726731008 -455.286378672063 15.0219924398225
    vertex 421.96726731008 -454.554275649797 14.3103645305797
  endloop
endfacet
facet normal -1.0 -2.79213350154929e-029 -9.41402983444263e-015
  outer loop
    vertex 421.967267310081 -453.886817234811 9.000000002004
    vertex 421.96726731008 -454.554275649797 14.3103645305797
    vertex 421.967267310081 -453.995413541623 13.4559277216387
  endloop
endfacet
facet normal -1.0 -2.79213350154929e-029 -9.41402983444263e-015
  outer loop
    vertex 421.967267310081 -453.886817234811 9.000000002004
    vertex 421.967267310081 -453.995413541623 13.4559277216387
    vertex 421.967267310081 -453.886817234811 13.1664372334229
  endloop
endfacet
facet normal 1.0 -2.39526069196521e-015 2.83599519955088e-014
  outer loop
    vertex 505.467267310072 -449.886817241873 -1.99999999355344
    vertex 505.467267310072 -446.430891079302 3.38530477432593
    vertex 505.467267310072 -446.511817241866 4.00000000644435
  endloop
endfacet
facet normal 1.0 -2.39526069196521e-015 2.83599519955088e-014
  outer loop
    vertex 505.467267310072 -446.430891079302 3.38530477432593
    vertex 505.467267310072 -449.886817241873 -1.99999999355344
    vertex 505.467267310072 -446.193627575853 2.81250000644465
  endloop
endfacet
facet normal 1.0 -2.39526069196521e-015 2.83599519955088e-014
  outer loop
    vertex 505.467267310072 -446.193627575853 2.81250000644465
    vertex 505.467267310072 -449.886817241873 -1.99999999355344
    vertex 505.467267310072 -445.816195847183 2.32062140112695
  endloop
endfacet
facet normal 1.0 -2.39526069196521e-015 2.83599519955088e-014
  outer loop
    vertex 505.467267310072 -445.816195847183 2.32062140112695
    vertex 505.467267310072 -449.886817241873 -1.99999999355344
    vertex 505.467267310072 -445.324317241864 1.94318967245741
  endloop
endfacet
facet normal 1.0 -2.39526069196521e-015 2.83599519955088e-014
  outer loop
    vertex 505.467267310072 -445.324317241864 1.94318967245741
    vertex 505.467267310072 -449.886817241873 -1.99999999355344
    vertex 505.467267310072 -438.136817241866 -1.99999999355344
  endloop
endfacet
facet normal 1.0 -2.39526069196521e-015 2.83599519955088e-014
  outer loop
    vertex 505.467267310072 -445.324317241864 1.94318967245741
    vertex 505.467267310072 -438.136817241866 -1.99999999355344
    vertex 505.467267310072 -444.751512473983 1.70592616900945
  endloop
endfacet
facet normal 1.0 -2.39526069196521e-015 2.83599519955088e-014
  outer loop
    vertex 505.467267310072 -444.751512473983 1.70592616900945
    vertex 505.467267310072 -438.136817241866 -1.99999999355344
    vertex 505.467267310072 -444.136817241864 1.62500000644657
  endloop
endfacet
facet normal 1.0 -2.39526069196521e-015 2.83599519955088e-014
  outer loop
    vertex 505.467267310072 -444.136817241864 1.62500000644657
    vertex 505.467267310072 -438.136817241866 -1.99999999355344
    vertex 505.467267310072 -443.522122009746 1.7059261690106
  endloop
endfacet
facet normal 1.0 -2.39526069196521e-015 2.83599519955088e-014
  outer loop
    vertex 505.467267310072 -443.522122009746 1.7059261690106
    vertex 505.467267310072 -438.136817241866 -1.99999999355344
    vertex 505.467267310072 -442.949317241864 1.94318967245963
  endloop
endfacet
facet normal 1.0 -2.39526069196521e-015 2.83599519955088e-014
  outer loop
    vertex 505.467267310072 -442.949317241864 1.94318967245963
    vertex 505.467267310072 -438.136817241866 -1.99999999355344
    vertex 505.467267310072 -442.457438636547 2.32062140113008
  endloop
endfacet
facet normal 1.0 -2.39526069196521e-015 2.83599519955088e-014
  outer loop
    vertex 505.467267310072 -442.457438636547 2.32062140113008
    vertex 505.467267310072 -438.136817241866 -1.99999999355344
    vertex 505.467267310072 -442.080006907877 2.81250000644848
  endloop
endfacet
facet normal 1.0 -2.39526069196521e-015 2.83599519955088e-014
  outer loop
    vertex 505.467267310072 -442.080006907877 2.81250000644848
    vertex 505.467267310072 -438.136817241866 -1.99999999355344
    vertex 505.467267310072 -441.842743404429 3.38530477433022
  endloop
endfacet
facet normal 1.0 -2.39526069196521e-015 2.83599519955088e-014
  outer loop
    vertex 505.467267310072 -441.842743404429 3.38530477433022
    vertex 505.467267310072 -438.136817241866 -1.99999999355344
    vertex 505.467267310072 -441.761817241866 4.00000000644878
  endloop
endfacet
facet normal 1.0 -2.39526069196521e-015 2.83599519955088e-014
  outer loop
    vertex 505.467267310072 -453.886817234811 3.00000000200506
    vertex 505.467267310072 -462.386817234811 12.8851921617746
    vertex 505.467267310072 -462.386817234811 3.00000000200503
  endloop
endfacet
facet normal 1.0 -2.39526069196521e-015 2.83599519955088e-014
  outer loop
    vertex 505.467267310072 -462.386817234811 12.8851921617746
    vertex 505.467267310072 -453.886817234811 3.00000000200506
    vertex 505.467267310072 -462.386817234811 13.1664372334242
  endloop
endfacet
facet normal 1.0 -2.39526069196521e-015 2.83599519955088e-014
  outer loop
    vertex 505.467267310072 -462.386817234811 13.1664372334242
    vertex 505.467267310072 -453.886817234811 3.00000000200506
    vertex 505.467267310072 -462.278220928 13.45592772164
  endloop
endfacet
facet normal 1.0 -2.39526069196521e-015 2.83599519955088e-014
  outer loop
    vertex 505.467267310072 -462.278220928 13.45592772164
    vertex 505.467267310072 -453.886817234811 3.00000000200506
    vertex 505.467267310072 -461.719358819826 14.3103645305809
  endloop
endfacet
facet normal 1.0 -2.39526069196521e-015 2.83599519955088e-014
  outer loop
    vertex 505.467267310072 -461.719358819826 14.3103645305809
    vertex 505.467267310072 -453.886817234811 3.00000000200506
    vertex 505.467267310072 -460.987255797559 15.0219924398238
  endloop
endfacet
facet normal 1.0 -2.39526069196521e-015 2.83599519955088e-014
  outer loop
    vertex 505.467267310072 -460.987255797559 15.0219924398238
    vertex 505.467267310072 -453.886817234811 3.00000000200506
    vertex 505.467267310072 -460.117314156966 15.556399268361
  endloop
endfacet
facet normal 1.0 -2.39526069196521e-015 2.83599519955088e-014
  outer loop
    vertex 505.467267310072 -460.117314156966 15.556399268361
    vertex 505.467267310072 -453.886817234811 3.00000000200506
    vertex 505.467267310072 -459.15160165398 15.8877427125439
  endloop
endfacet
facet normal 1.0 -2.39526069196521e-015 2.83599519955088e-014
  outer loop
    vertex 505.467267310072 -459.15160165398 15.8877427125439
    vertex 505.467267310072 -453.886817234811 3.00000000200506
    vertex 505.467267310072 -458.136817234811 16.0000000020052
  endloop
endfacet
facet normal 1.0 -2.39526069196521e-015 2.83599519955088e-014
  outer loop
    vertex 505.467267310072 -458.136817234811 16.0000000020052
    vertex 505.467267310072 -453.886817234811 3.00000000200506
    vertex 505.467267310072 -450.136817234811 16.0000000020052
  endloop
endfacet
facet normal 1.0 -2.39526069196521e-015 2.83599519955088e-014
  outer loop
    vertex 505.467267310072 -450.136817234811 16.0000000020052
    vertex 505.467267310072 -453.886817234811 3.00000000200506
    vertex 505.467267310072 -449.886817241873 -1.99999999355344
  endloop
endfacet
facet normal 1.0 -2.39526069196521e-015 2.83599519955088e-014
  outer loop
    vertex 505.467267310072 -450.136817234811 16.0000000020052
    vertex 505.467267310072 -449.886817241873 -1.99999999355344
    vertex 505.467267310072 -446.136817234811 10.0000000064466
  endloop
endfacet
facet normal 1.0 -2.39526069196521e-015 2.83599519955088e-014
  outer loop
    vertex 505.467267310072 -446.136817234811 10.0000000064466
    vertex 505.467267310072 -449.886817241873 -1.99999999355344
    vertex 505.467267310072 -446.511817241866 4.00000000644435
  endloop
endfacet
facet normal 1.0 -2.39526069196521e-015 2.83599519955088e-014
  outer loop
    vertex 505.467267310072 -446.136817234811 10.0000000064466
    vertex 505.467267310072 -446.511817241866 4.00000000644435
    vertex 505.467267310072 -446.430891079304 4.61469523856291
  endloop
endfacet
facet normal 1.0 -2.39526069196521e-015 2.83599519955088e-014
  outer loop
    vertex 505.467267310072 -446.136817234811 10.0000000064466
    vertex 505.467267310072 -446.430891079304 4.61469523856291
    vertex 505.467267310072 -446.193627575856 5.18750000644464
  endloop
endfacet
facet normal 1.0 -2.39526069196521e-015 2.83599519955088e-014
  outer loop
    vertex 505.467267310072 -446.136817234811 10.0000000064466
    vertex 505.467267310072 -446.193627575856 5.18750000644464
    vertex 505.467267310072 -445.816195847186 5.67937861176305
  endloop
endfacet
facet normal 1.0 -2.39526069196521e-015 2.83599519955088e-014
  outer loop
    vertex 505.467267310072 -446.136817234811 10.0000000064466
    vertex 505.467267310072 -445.816195847186 5.67937861176305
    vertex 505.467267310072 -445.324317241868 6.0568103404335
  endloop
endfacet
facet normal 1.0 -2.39526069196521e-015 2.83599519955088e-014
  outer loop
    vertex 505.467267310072 -446.136817234811 10.0000000064466
    vertex 505.467267310072 -445.324317241868 6.0568103404335
    vertex 505.467267310072 -438.136817241866 10.0000000064466
  endloop
endfacet
facet normal 1.0 -2.39526069196521e-015 2.83599519955088e-014
  outer loop
    vertex 505.467267310072 -438.136817241866 10.0000000064466
    vertex 505.467267310072 -445.324317241868 6.0568103404335
    vertex 505.467267310072 -444.751512473987 6.29407384388253
  endloop
endfacet
facet normal 1.0 -2.39526069196521e-015 2.83599519955088e-014
  outer loop
    vertex 505.467267310072 -438.136817241866 10.0000000064466
    vertex 505.467267310072 -444.751512473987 6.29407384388253
    vertex 505.467267310072 -444.136817241869 6.37500000644657
  endloop
endfacet
facet normal 1.0 -2.39526069196521e-015 2.83599519955088e-014
  outer loop
    vertex 505.467267310072 -438.136817241866 10.0000000064466
    vertex 505.467267310072 -444.136817241869 6.37500000644657
    vertex 505.467267310072 -443.52212200975 6.29407384388368
  endloop
endfacet
facet normal 1.0 -2.39526069196521e-015 2.83599519955088e-014
  outer loop
    vertex 505.467267310072 -438.136817241866 10.0000000064466
    vertex 505.467267310072 -443.52212200975 6.29407384388368
    vertex 505.467267310072 -442.949317241868 6.05681034043571
  endloop
endfacet
facet normal 1.0 -2.39526069196521e-015 2.83599519955088e-014
  outer loop
    vertex 505.467267310072 -438.136817241866 10.0000000064466
    vertex 505.467267310072 -442.949317241868 6.05681034043571
    vertex 505.467267310072 -442.45743863655 5.67937861176619
  endloop
endfacet
facet normal 1.0 -2.39526069196521e-015 2.83599519955088e-014
  outer loop
    vertex 505.467267310072 -438.136817241866 10.0000000064466
    vertex 505.467267310072 -442.45743863655 5.67937861176619
    vertex 505.467267310072 -442.08000690788 5.18750000644848
  endloop
endfacet
facet normal 1.0 -2.39526069196521e-015 2.83599519955088e-014
  outer loop
    vertex 505.467267310072 -438.136817241866 10.0000000064466
    vertex 505.467267310072 -442.08000690788 5.18750000644848
    vertex 505.467267310072 -441.842743404431 4.61469523856719
  endloop
endfacet
facet normal 1.0 -2.39526069196521e-015 2.83599519955088e-014
  outer loop
    vertex 505.467267310072 -438.136817241866 10.0000000064466
    vertex 505.467267310072 -441.842743404431 4.61469523856719
    vertex 505.467267310072 -441.761817241866 4.00000000644878
  endloop
endfacet
facet normal 1.0 -2.39526069196521e-015 2.83599519955088e-014
  outer loop
    vertex 505.467267310072 -438.136817241866 10.0000000064466
    vertex 505.467267310072 -441.761817241866 4.00000000644878
    vertex 505.467267310072 -438.136817241866 -1.99999999355344
  endloop
endfacet
facet normal 8.66293703438711e-016 -1.47270927704839e-032 -1.0
  outer loop
    vertex 505.467267310072 -438.136817241866 -1.99999999355344
    vertex 501.467267310072 -449.886817241873 -1.99999999355341
    vertex 501.467267310072 -438.136817241866 -1.99999999355341
  endloop
endfacet
facet normal 8.66293703438711e-016 -1.47270927704839e-032 -1.0
  outer loop
    vertex 501.467267310072 -449.886817241873 -1.99999999355341
    vertex 505.467267310072 -438.136817241866 -1.99999999355344
    vertex 505.467267310072 -449.886817241873 -1.99999999355344
  endloop
endfacet
facet normal -3.69618646800517e-014 -2.27402097353205e-014 1.0
  outer loop
    vertex 501.467267310073 -446.136817234811 10.0000000064462
    vertex 505.467267310072 -438.136817241866 10.0000000064466
    vertex 501.467267310072 -438.136817241866 10.0000000064466
  endloop
endfacet
facet normal -3.69618646800517e-014 -2.27402097353205e-014 1.0
  outer loop
    vertex 505.467267310072 -438.136817241866 10.0000000064466
    vertex 501.467267310073 -446.136817234811 10.0000000064462
    vertex 505.467267310072 -446.136817234811 10.0000000064466
  endloop
endfacet
facet normal 0.0 1.0 0.0
  outer loop
    vertex 501.467267310072 -438.136817241866 -1.99999999355341
    vertex 505.467267310072 -438.136817241866 10.0000000064466
    vertex 505.467267310072 -438.136817241866 -1.99999999355344
  endloop
endfacet
facet normal 0.0 1.0 0.0
  outer loop
    vertex 505.467267310072 -438.136817241866 10.0000000064466
    vertex 501.467267310072 -438.136817241866 -1.99999999355341
    vertex 501.467267310072 -438.136817241866 10.0000000064466
  endloop
endfacet
facet normal 8.59535191369677e-016 0.130526192220972 -0.991444861373689
  outer loop
    vertex 505.467267310072 -444.136817241869 6.37500000644657
    vertex 501.467267310072 -444.751512473987 6.29407384388255
    vertex 501.467267310072 -444.136817241869 6.37500000644659
  endloop
endfacet
facet normal 8.59535191369677e-016 0.130526192220972 -0.991444861373689
  outer loop
    vertex 501.467267310072 -444.751512473987 6.29407384388255
    vertex 505.467267310072 -444.136817241869 6.37500000644657
    vertex 505.467267310072 -444.751512473987 6.29407384388253
  endloop
endfacet
facet normal 7.99604027463145e-016 0.382683432365961 -0.923879532510926
  outer loop
    vertex 505.467267310072 -444.751512473987 6.29407384388253
    vertex 501.467267310072 -445.324317241868 6.05681034043352
    vertex 501.467267310072 -444.751512473987 6.29407384388255
  endloop
endfacet
facet normal 7.99604027463145e-016 0.382683432365961 -0.923879532510926
  outer loop
    vertex 501.467267310072 -445.324317241868 6.05681034043352
    vertex 505.467267310072 -444.751512473987 6.29407384388253
    vertex 505.467267310072 -445.324317241868 6.0568103404335
  endloop
endfacet
facet normal 6.91347946475668e-016 0.608761429009478 -0.793353340290654
  outer loop
    vertex 501.467267310072 -445.324317241868 6.05681034043352
    vertex 505.467267310072 -445.816195847186 5.67937861176305
    vertex 501.467267310072 -445.816195847186 5.67937861176307
  endloop
endfacet
facet normal 6.91347946475668e-016 0.608761429009478 -0.793353340290654
  outer loop
    vertex 505.467267310072 -445.816195847186 5.67937861176305
    vertex 501.467267310072 -445.324317241868 6.05681034043352
    vertex 505.467267310072 -445.324317241868 6.0568103404335
  endloop
endfacet
facet normal 5.26873984399036e-016 0.793353340291803 -0.608761429007981
  outer loop
    vertex 501.467267310072 -446.193627575856 5.18750000644467
    vertex 505.467267310072 -445.816195847186 5.67937861176305
    vertex 505.467267310072 -446.193627575856 5.18750000644464
  endloop
endfacet
facet normal 5.26873984399036e-016 0.793353340291803 -0.608761429007981
  outer loop
    vertex 505.467267310072 -445.816195847186 5.67937861176305
    vertex 501.467267310072 -446.193627575856 5.18750000644467
    vertex 501.467267310072 -445.816195847186 5.67937861176307
  endloop
endfacet
facet normal 3.32329567728903e-016 0.923879532511632 -0.382683432364257
  outer loop
    vertex 501.467267310072 -446.430891079304 4.61469523856294
    vertex 505.467267310072 -446.193627575856 5.18750000644464
    vertex 505.467267310072 -446.430891079304 4.61469523856291
  endloop
endfacet
facet normal 3.32329567728903e-016 0.923879532511632 -0.382683432364257
  outer loop
    vertex 505.467267310072 -446.193627575856 5.18750000644464
    vertex 501.467267310072 -446.430891079304 4.61469523856294
    vertex 501.467267310072 -446.193627575856 5.18750000644467
  endloop
endfacet
facet normal 1.13351426712177e-016 0.991444861373936 -0.130526192219096
  outer loop
    vertex 501.467267310072 -446.511817241866 4.00000000644437
    vertex 505.467267310072 -446.430891079304 4.61469523856291
    vertex 505.467267310072 -446.511817241866 4.00000000644435
  endloop
endfacet
facet normal 1.13351426712177e-016 0.991444861373936 -0.130526192219096
  outer loop
    vertex 505.467267310072 -446.430891079304 4.61469523856291
    vertex 501.467267310072 -446.511817241866 4.00000000644437
    vertex 501.467267310072 -446.430891079304 4.61469523856294
  endloop
endfacet
facet normal -1.12585538695186e-016 0.991444861373681 0.130526192221033
  outer loop
    vertex 501.467267310072 -446.430891079302 3.38530477432596
    vertex 505.467267310072 -446.511817241866 4.00000000644435
    vertex 505.467267310072 -446.430891079302 3.38530477432593
  endloop
endfacet
facet normal -1.12585538695186e-016 0.991444861373681 0.130526192221033
  outer loop
    vertex 505.467267310072 -446.511817241866 4.00000000644435
    vertex 501.467267310072 -446.430891079302 3.38530477432596
    vertex 501.467267310072 -446.511817241866 4.00000000644437
  endloop
endfacet
facet normal -3.30084097678422e-016 0.923879532510947 0.38268343236591
  outer loop
    vertex 501.467267310072 -446.193627575853 2.81250000644467
    vertex 505.467267310072 -446.430891079302 3.38530477432593
    vertex 505.467267310072 -446.193627575853 2.81250000644465
  endloop
endfacet
facet normal -3.30084097678422e-016 0.923879532510947 0.38268343236591
  outer loop
    vertex 505.467267310072 -446.430891079302 3.38530477432593
    vertex 501.467267310072 -446.193627575853 2.81250000644467
    vertex 501.467267310072 -446.430891079302 3.38530477432596
  endloop
endfacet
facet normal -5.26873984400324e-016 0.793353340290662 0.608761429009468
  outer loop
    vertex 501.467267310072 -445.816195847183 2.32062140112697
    vertex 505.467267310072 -446.193627575853 2.81250000644465
    vertex 505.467267310072 -445.816195847183 2.32062140112695
  endloop
endfacet
facet normal -5.26873984400324e-016 0.793353340290662 0.608761429009468
  outer loop
    vertex 505.467267310072 -446.193627575853 2.81250000644465
    vertex 501.467267310072 -445.816195847183 2.32062140112697
    vertex 501.467267310072 -446.193627575853 2.81250000644467
  endloop
endfacet
facet normal -6.88364312781992e-016 0.608761429007976 0.793353340291806
  outer loop
    vertex 505.467267310072 -445.816195847183 2.32062140112695
    vertex 501.467267310072 -445.324317241864 1.94318967245744
    vertex 501.467267310072 -445.816195847183 2.32062140112697
  endloop
endfacet
facet normal -6.88364312781992e-016 0.608761429007976 0.793353340291806
  outer loop
    vertex 501.467267310072 -445.324317241864 1.94318967245744
    vertex 505.467267310072 -445.816195847183 2.32062140112695
    vertex 505.467267310072 -445.324317241864 1.94318967245741
  endloop
endfacet
facet normal -7.99604027463901e-016 0.382683432364219 0.923879532511648
  outer loop
    vertex 505.467267310072 -445.324317241864 1.94318967245741
    vertex 501.467267310072 -444.751512473983 1.70592616900948
    vertex 501.467267310072 -445.324317241864 1.94318967245744
  endloop
endfacet
facet normal -7.99604027463901e-016 0.382683432364219 0.923879532511648
  outer loop
    vertex 501.467267310072 -444.751512473983 1.70592616900948
    vertex 505.467267310072 -445.324317241864 1.94318967245741
    vertex 505.467267310072 -444.751512473983 1.70592616900945
  endloop
endfacet
facet normal -8.58080817103566e-016 0.130526192219131 0.991444861373932
  outer loop
    vertex 505.467267310072 -444.751512473983 1.70592616900945
    vertex 501.467267310072 -444.136817241864 1.62500000644659
    vertex 501.467267310072 -444.751512473983 1.70592616900948
  endloop
endfacet
facet normal -8.58080817103566e-016 0.130526192219131 0.991444861373932
  outer loop
    vertex 501.467267310072 -444.136817241864 1.62500000644659
    vertex 505.467267310072 -444.751512473983 1.70592616900945
    vertex 505.467267310072 -444.136817241864 1.62500000644657
  endloop
endfacet
facet normal -8.59535191369588e-016 -0.130526192220972 0.991444861373689
  outer loop
    vertex 505.467267310072 -444.136817241864 1.62500000644657
    vertex 501.467267310072 -443.522122009746 1.70592616901063
    vertex 501.467267310072 -444.136817241864 1.62500000644659
  endloop
endfacet
facet normal -8.59535191369588e-016 -0.130526192220972 0.991444861373689
  outer loop
    vertex 501.467267310072 -443.522122009746 1.70592616901063
    vertex 505.467267310072 -444.136817241864 1.62500000644657
    vertex 505.467267310072 -443.522122009746 1.7059261690106
  endloop
endfacet
facet normal -7.99604027463148e-016 -0.382683432365953 0.923879532510929
  outer loop
    vertex 505.467267310072 -443.522122009746 1.7059261690106
    vertex 501.467267310072 -442.949317241864 1.94318967245965
    vertex 501.467267310072 -443.522122009746 1.70592616901063
  endloop
endfacet
facet normal -7.99604027463148e-016 -0.382683432365953 0.923879532510929
  outer loop
    vertex 501.467267310072 -442.949317241864 1.94318967245965
    vertex 505.467267310072 -443.522122009746 1.7059261690106
    vertex 505.467267310072 -442.949317241864 1.94318967245963
  endloop
endfacet
facet normal -6.86692790239989e-016 -0.608761429009484 0.793353340290649
  outer loop
    vertex 505.467267310072 -442.949317241864 1.94318967245963
    vertex 501.467267310072 -442.457438636547 2.32062140113011
    vertex 501.467267310072 -442.949317241864 1.94318967245965
  endloop
endfacet
facet normal -6.86692790239989e-016 -0.608761429009484 0.793353340290649
  outer loop
    vertex 501.467267310072 -442.457438636547 2.32062140113011
    vertex 505.467267310072 -442.949317241864 1.94318967245963
    vertex 505.467267310072 -442.457438636547 2.32062140113008
  endloop
endfacet
facet normal -5.28659997906021e-016 -0.7933533402918 0.608761429007985
  outer loop
    vertex 505.467267310072 -442.080006907877 2.81250000644848
    vertex 501.467267310072 -442.457438636547 2.32062140113011
    vertex 505.467267310072 -442.457438636547 2.32062140113008
  endloop
endfacet
facet normal -5.28659997906021e-016 -0.7933533402918 0.608761429007985
  outer loop
    vertex 501.467267310072 -442.457438636547 2.32062140113011
    vertex 505.467267310072 -442.080006907877 2.81250000644848
    vertex 501.467267310072 -442.080006907877 2.81250000644851
  endloop
endfacet
facet normal -3.30084097676678e-016 -0.923879532511633 0.382683432364254
  outer loop
    vertex 505.467267310072 -441.842743404429 3.38530477433022
    vertex 501.467267310072 -442.080006907877 2.81250000644851
    vertex 505.467267310072 -442.080006907877 2.81250000644848
  endloop
endfacet
facet normal -3.30084097676678e-016 -0.923879532511633 0.382683432364254
  outer loop
    vertex 501.467267310072 -442.080006907877 2.81250000644851
    vertex 505.467267310072 -441.842743404429 3.38530477433022
    vertex 501.467267310072 -441.842743404429 3.38530477433024
  endloop
endfacet
facet normal -1.12585538693178e-016 -0.991444861373936 0.130526192219097
  outer loop
    vertex 505.467267310072 -441.761817241866 4.00000000644878
    vertex 501.467267310072 -441.842743404429 3.38530477433024
    vertex 505.467267310072 -441.842743404429 3.38530477433022
  endloop
endfacet
facet normal -1.12585538693178e-016 -0.991444861373936 0.130526192219097
  outer loop
    vertex 501.467267310072 -441.842743404429 3.38530477433024
    vertex 505.467267310072 -441.761817241866 4.00000000644878
    vertex 501.467267310072 -441.761817241866 4.0000000064488
  endloop
endfacet
facet normal 1.12585538695186e-016 -0.991444861373681 -0.130526192221033
  outer loop
    vertex 505.467267310072 -441.842743404431 4.61469523856719
    vertex 501.467267310072 -441.761817241866 4.0000000064488
    vertex 505.467267310072 -441.761817241866 4.00000000644878
  endloop
endfacet
facet normal 1.12585538695186e-016 -0.991444861373681 -0.130526192221033
  outer loop
    vertex 501.467267310072 -441.761817241866 4.0000000064488
    vertex 505.467267310072 -441.842743404431 4.61469523856719
    vertex 501.467267310072 -441.842743404431 4.61469523856722
  endloop
endfacet
facet normal 3.32329567730021e-016 -0.923879532510948 -0.382683432365907
  outer loop
    vertex 505.467267310072 -442.08000690788 5.18750000644848
    vertex 501.467267310072 -441.842743404431 4.61469523856722
    vertex 505.467267310072 -441.842743404431 4.61469523856719
  endloop
endfacet
facet normal 3.32329567730021e-016 -0.923879532510948 -0.382683432365907
  outer loop
    vertex 501.467267310072 -441.842743404431 4.61469523856722
    vertex 505.467267310072 -442.08000690788 5.18750000644848
    vertex 501.467267310072 -442.08000690788 5.18750000644851
  endloop
endfacet
facet normal 5.26873984400865e-016 -0.793353340290662 -0.608761429009468
  outer loop
    vertex 505.467267310072 -442.45743863655 5.67937861176619
    vertex 501.467267310072 -442.08000690788 5.18750000644851
    vertex 505.467267310072 -442.08000690788 5.18750000644848
  endloop
endfacet
facet normal 5.26873984400865e-016 -0.793353340290662 -0.608761429009468
  outer loop
    vertex 501.467267310072 -442.08000690788 5.18750000644851
    vertex 505.467267310072 -442.45743863655 5.67937861176619
    vertex 501.467267310072 -442.45743863655 5.67937861176621
  endloop
endfacet
facet normal 6.83709156546315e-016 -0.60876142900797 -0.793353340291811
  outer loop
    vertex 501.467267310072 -442.45743863655 5.67937861176621
    vertex 505.467267310072 -442.949317241868 6.05681034043571
    vertex 501.467267310072 -442.949317241868 6.05681034043574
  endloop
endfacet
facet normal 6.83709156546315e-016 -0.60876142900797 -0.793353340291811
  outer loop
    vertex 505.467267310072 -442.949317241868 6.05681034043571
    vertex 501.467267310072 -442.45743863655 5.67937861176621
    vertex 505.467267310072 -442.45743863655 5.67937861176619
  endloop
endfacet
facet normal 7.99604027463636e-016 -0.382683432364227 -0.923879532511644
  outer loop
    vertex 505.467267310072 -442.949317241868 6.05681034043571
    vertex 501.467267310072 -443.52212200975 6.2940738438837
    vertex 501.467267310072 -442.949317241868 6.05681034043574
  endloop
endfacet
facet normal 7.99604027463636e-016 -0.382683432364227 -0.923879532511644
  outer loop
    vertex 501.467267310072 -443.52212200975 6.2940738438837
    vertex 505.467267310072 -442.949317241868 6.05681034043571
    vertex 505.467267310072 -443.52212200975 6.29407384388368
  endloop
endfacet
facet normal 8.58080817103566e-016 -0.130526192219131 -0.991444861373932
  outer loop
    vertex 505.467267310072 -443.52212200975 6.29407384388368
    vertex 501.467267310072 -444.136817241869 6.37500000644659
    vertex 501.467267310072 -443.52212200975 6.2940738438837
  endloop
endfacet
facet normal 8.58080817103566e-016 -0.130526192219131 -0.991444861373932
  outer loop
    vertex 501.467267310072 -444.136817241869 6.37500000644659
    vertex 505.467267310072 -443.52212200975 6.29407384388368
    vertex 505.467267310072 -444.136817241869 6.37500000644657
  endloop
endfacet
facet normal 2.75733574378684e-010 -0.780868809575828 -0.624695047388427
  outer loop
    vertex 505.467267310072 -453.886817234811 3.00000000200506
    vertex 501.467267310072 -449.886817241873 -1.99999999355341
    vertex 505.467267310072 -449.886817241873 -1.99999999355344
  endloop
endfacet
facet normal 2.75733574378684e-010 -0.780868809575828 -0.624695047388427
  outer loop
    vertex 501.467267310072 -449.886817241873 -1.99999999355341
    vertex 505.467267310072 -453.886817234811 3.00000000200506
    vertex 501.467267310072 -453.886817238342 3.00000000200502
  endloop
endfacet
facet normal -4.11798830948296e-014 0.832050294148333 0.554700196509495
  outer loop
    vertex 501.467267310072 -450.136817234811 16.0000000020048
    vertex 505.467267310072 -446.136817234811 10.0000000064466
    vertex 501.467267310073 -446.136817234811 10.0000000064462
  endloop
endfacet
facet normal -4.11798830948296e-014 0.832050294148333 0.554700196509495
  outer loop
    vertex 505.467267310072 -446.136817234811 10.0000000064466
    vertex 501.467267310072 -450.136817234811 16.0000000020048
    vertex 505.467267310072 -450.136817234811 16.0000000020052
  endloop
endfacet
facet normal -7.50787876313619e-014 0.0 1.0
  outer loop
    vertex 505.467267310072 -458.136817234811 16.0000000020052
    vertex 501.467267310072 -450.136817234811 16.0000000020048
    vertex 501.467267310072 -458.136817234811 16.0000000020048
  endloop
endfacet
facet normal -7.50787876313619e-014 0.0 1.0
  outer loop
    vertex 501.467267310072 -450.136817234811 16.0000000020048
    vertex 505.467267310072 -458.136817234811 16.0000000020052
    vertex 505.467267310072 -450.136817234811 16.0000000020052
  endloop
endfacet
facet normal 1.4149463821513e-014 3.73695323108438e-015 -1.0
  outer loop
    vertex 505.467267310072 -453.886817234811 3.00000000200506
    vertex 501.467267310072 -462.386817234811 3.00000000200498
    vertex 501.467267310072 -453.886817238342 3.00000000200502
  endloop
endfacet
facet normal 1.4149463821513e-014 3.73695323108438e-015 -1.0
  outer loop
    vertex 501.467267310072 -462.386817234811 3.00000000200498
    vertex 505.467267310072 -453.886817234811 3.00000000200506
    vertex 505.467267310072 -462.386817234811 3.00000000200503
  endloop
endfacet
facet normal -1.0 1.93126351826949e-015 -1.40218393262356e-015
  outer loop
    vertex 501.467267310072 -453.886817238277 8.00000000200498
    vertex 501.467267310072 -462.386817234811 3.00000000200498
    vertex 501.467267310072 -462.386817234811 8.00000000200498
  endloop
endfacet
facet normal -1.0 1.93126351826949e-015 -1.40218393262356e-015
  outer loop
    vertex 501.467267310072 -462.386817234811 3.00000000200498
    vertex 501.467267310072 -453.886817238277 8.00000000200498
    vertex 501.467267310072 -453.886817238342 3.00000000200502
  endloop
endfacet
facet normal -1.0 1.93126351826949e-015 -1.40218393262356e-015
  outer loop
    vertex 501.467267310072 -453.886817238342 3.00000000200502
    vertex 501.467267310072 -453.886817238277 8.00000000200498
    vertex 501.467267310072 -449.886817241873 -1.99999999355341
  endloop
endfacet
facet normal -1.0 1.93126351826949e-015 -1.40218393262356e-015
  outer loop
    vertex 501.467267310072 -449.886817241873 -1.99999999355341
    vertex 501.467267310072 -453.886817238277 8.00000000200498
    vertex 501.467267310072 -453.886817234811 13.1664372334238
  endloop
endfacet
facet normal -1.0 1.93126351826949e-015 -1.40218393262356e-015
  outer loop
    vertex 501.467267310072 -449.886817241873 -1.99999999355341
    vertex 501.467267310072 -453.886817234811 13.1664372334238
    vertex 501.467267310072 -450.136817234811 16.0000000020048
  endloop
endfacet
facet normal -1.0 1.93126351826949e-015 -1.40218393262356e-015
  outer loop
    vertex 501.467267310072 -449.886817241873 -1.99999999355341
    vertex 501.467267310072 -450.136817234811 16.0000000020048
    vertex 501.467267310073 -446.136817234811 10.0000000064462
  endloop
endfacet
facet normal -1.0 1.93126351826949e-015 -1.40218393262356e-015
  outer loop
    vertex 501.467267310072 -449.886817241873 -1.99999999355341
    vertex 501.467267310073 -446.136817234811 10.0000000064462
    vertex 501.467267310072 -446.511817241866 4.00000000644437
  endloop
endfacet
facet normal -1.0 1.93126351826949e-015 -1.40218393262356e-015
  outer loop
    vertex 501.467267310072 -446.511817241866 4.00000000644437
    vertex 501.467267310073 -446.136817234811 10.0000000064462
    vertex 501.467267310072 -446.430891079304 4.61469523856294
  endloop
endfacet
facet normal -1.0 1.93126351826949e-015 -1.40218393262356e-015
  outer loop
    vertex 501.467267310072 -446.430891079304 4.61469523856294
    vertex 501.467267310073 -446.136817234811 10.0000000064462
    vertex 501.467267310072 -446.193627575856 5.18750000644467
  endloop
endfacet
facet normal -1.0 1.93126351826949e-015 -1.40218393262356e-015
  outer loop
    vertex 501.467267310072 -446.193627575856 5.18750000644467
    vertex 501.467267310073 -446.136817234811 10.0000000064462
    vertex 501.467267310072 -445.816195847186 5.67937861176307
  endloop
endfacet
facet normal -1.0 1.93126351826949e-015 -1.40218393262356e-015
  outer loop
    vertex 501.467267310072 -445.816195847186 5.67937861176307
    vertex 501.467267310073 -446.136817234811 10.0000000064462
    vertex 501.467267310072 -445.324317241868 6.05681034043352
  endloop
endfacet
facet normal -1.0 1.93126351826949e-015 -1.40218393262356e-015
  outer loop
    vertex 501.467267310072 -445.324317241868 6.05681034043352
    vertex 501.467267310073 -446.136817234811 10.0000000064462
    vertex 501.467267310072 -438.136817241866 10.0000000064466
  endloop
endfacet
facet normal -1.0 1.93126351826949e-015 -1.40218393262356e-015
  outer loop
    vertex 501.467267310072 -445.324317241868 6.05681034043352
    vertex 501.467267310072 -438.136817241866 10.0000000064466
    vertex 501.467267310072 -444.751512473987 6.29407384388255
  endloop
endfacet
facet normal -1.0 1.93126351826949e-015 -1.40218393262356e-015
  outer loop
    vertex 501.467267310072 -444.751512473987 6.29407384388255
    vertex 501.467267310072 -438.136817241866 10.0000000064466
    vertex 501.467267310072 -444.136817241869 6.37500000644659
  endloop
endfacet
facet normal -1.0 1.93126351826949e-015 -1.40218393262356e-015
  outer loop
    vertex 501.467267310072 -444.136817241869 6.37500000644659
    vertex 501.467267310072 -438.136817241866 10.0000000064466
    vertex 501.467267310072 -443.52212200975 6.2940738438837
  endloop
endfacet
facet normal -1.0 1.93126351826949e-015 -1.40218393262356e-015
  outer loop
    vertex 501.467267310072 -443.52212200975 6.2940738438837
    vertex 501.467267310072 -438.136817241866 10.0000000064466
    vertex 501.467267310072 -442.949317241868 6.05681034043574
  endloop
endfacet
facet normal -1.0 1.93126351826949e-015 -1.40218393262356e-015
  outer loop
    vertex 501.467267310072 -442.949317241868 6.05681034043574
    vertex 501.467267310072 -438.136817241866 10.0000000064466
    vertex 501.467267310072 -442.45743863655 5.67937861176621
  endloop
endfacet
facet normal -1.0 1.93126351826949e-015 -1.40218393262356e-015
  outer loop
    vertex 501.467267310072 -442.45743863655 5.67937861176621
    vertex 501.467267310072 -438.136817241866 10.0000000064466
    vertex 501.467267310072 -442.08000690788 5.18750000644851
  endloop
endfacet
facet normal -1.0 1.93126351826949e-015 -1.40218393262356e-015
  outer loop
    vertex 501.467267310072 -442.08000690788 5.18750000644851
    vertex 501.467267310072 -438.136817241866 10.0000000064466
    vertex 501.467267310072 -441.842743404431 4.61469523856722
  endloop
endfacet
facet normal -1.0 1.93126351826949e-015 -1.40218393262356e-015
  outer loop
    vertex 501.467267310072 -441.842743404431 4.61469523856722
    vertex 501.467267310072 -438.136817241866 10.0000000064466
    vertex 501.467267310072 -441.761817241866 4.0000000064488
  endloop
endfacet
facet normal -1.0 1.93126351826949e-015 -1.40218393262356e-015
  outer loop
    vertex 501.467267310072 -449.886817241873 -1.99999999355341
    vertex 501.467267310072 -445.324317241864 1.94318967245744
    vertex 501.467267310072 -438.136817241866 -1.99999999355341
  endloop
endfacet
facet normal -1.0 1.93126351826949e-015 -1.40218393262356e-015
  outer loop
    vertex 501.467267310072 -445.324317241864 1.94318967245744
    vertex 501.467267310072 -449.886817241873 -1.99999999355341
    vertex 501.467267310072 -445.816195847183 2.32062140112697
  endloop
endfacet
facet normal -1.0 1.93126351826949e-015 -1.40218393262356e-015
  outer loop
    vertex 501.467267310072 -445.816195847183 2.32062140112697
    vertex 501.467267310072 -449.886817241873 -1.99999999355341
    vertex 501.467267310072 -446.193627575853 2.81250000644467
  endloop
endfacet
facet normal -1.0 1.93126351826949e-015 -1.40218393262356e-015
  outer loop
    vertex 501.467267310072 -446.193627575853 2.81250000644467
    vertex 501.467267310072 -449.886817241873 -1.99999999355341
    vertex 501.467267310072 -446.430891079302 3.38530477432596
  endloop
endfacet
facet normal -1.0 1.93126351826949e-015 -1.40218393262356e-015
  outer loop
    vertex 501.467267310072 -446.430891079302 3.38530477432596
    vertex 501.467267310072 -449.886817241873 -1.99999999355341
    vertex 501.467267310072 -446.511817241866 4.00000000644437
  endloop
endfacet
facet normal -1.0 1.93126351826949e-015 -1.40218393262356e-015
  outer loop
    vertex 501.467267310072 -438.136817241866 -1.99999999355341
    vertex 501.467267310072 -445.324317241864 1.94318967245744
    vertex 501.467267310072 -444.751512473983 1.70592616900948
  endloop
endfacet
facet normal -1.0 1.93126351826949e-015 -1.40218393262356e-015
  outer loop
    vertex 501.467267310072 -438.136817241866 -1.99999999355341
    vertex 501.467267310072 -444.751512473983 1.70592616900948
    vertex 501.467267310072 -444.136817241864 1.62500000644659
  endloop
endfacet
facet normal -1.0 1.93126351826949e-015 -1.40218393262356e-015
  outer loop
    vertex 501.467267310072 -438.136817241866 -1.99999999355341
    vertex 501.467267310072 -444.136817241864 1.62500000644659
    vertex 501.467267310072 -443.522122009746 1.70592616901063
  endloop
endfacet
facet normal -1.0 1.93126351826949e-015 -1.40218393262356e-015
  outer loop
    vertex 501.467267310072 -438.136817241866 -1.99999999355341
    vertex 501.467267310072 -443.522122009746 1.70592616901063
    vertex 501.467267310072 -442.949317241864 1.94318967245965
  endloop
endfacet
facet normal -1.0 1.93126351826949e-015 -1.40218393262356e-015
  outer loop
    vertex 501.467267310072 -438.136817241866 -1.99999999355341
    vertex 501.467267310072 -442.949317241864 1.94318967245965
    vertex 501.467267310072 -442.457438636547 2.32062140113011
  endloop
endfacet
facet normal -1.0 1.93126351826949e-015 -1.40218393262356e-015
  outer loop
    vertex 501.467267310072 -438.136817241866 -1.99999999355341
    vertex 501.467267310072 -442.457438636547 2.32062140113011
    vertex 501.467267310072 -442.080006907877 2.81250000644851
  endloop
endfacet
facet normal -1.0 1.93126351826949e-015 -1.40218393262356e-015
  outer loop
    vertex 501.467267310072 -438.136817241866 -1.99999999355341
    vertex 501.467267310072 -442.080006907877 2.81250000644851
    vertex 501.467267310072 -441.842743404429 3.38530477433024
  endloop
endfacet
facet normal -1.0 1.93126351826949e-015 -1.40218393262356e-015
  outer loop
    vertex 501.467267310072 -438.136817241866 -1.99999999355341
    vertex 501.467267310072 -441.842743404429 3.38530477433024
    vertex 501.467267310072 -441.761817241866 4.0000000064488
  endloop
endfacet
facet normal -1.0 1.93126351826949e-015 -1.40218393262356e-015
  outer loop
    vertex 501.467267310072 -438.136817241866 -1.99999999355341
    vertex 501.467267310072 -441.761817241866 4.0000000064488
    vertex 501.467267310072 -438.136817241866 10.0000000064466
  endloop
endfacet
facet normal -1.0 1.93126351826949e-015 -1.40218393262356e-015
  outer loop
    vertex 501.467267310072 -450.136817234811 16.0000000020048
    vertex 501.467267310072 -457.122032815642 15.8877427125435
    vertex 501.467267310072 -458.136817234811 16.0000000020048
  endloop
endfacet
facet normal -1.0 1.93126351826949e-015 -1.40218393262356e-015
  outer loop
    vertex 501.467267310072 -457.122032815642 15.8877427125435
    vertex 501.467267310072 -450.136817234811 16.0000000020048
    vertex 501.467267310072 -456.156320312657 15.5563992683606
  endloop
endfacet
facet normal -1.0 1.93126351826949e-015 -1.40218393262356e-015
  outer loop
    vertex 501.467267310072 -456.156320312657 15.5563992683606
    vertex 501.467267310072 -450.136817234811 16.0000000020048
    vertex 501.467267310072 -455.286378672063 15.0219924398234
  endloop
endfacet
facet normal -1.0 1.93126351826949e-015 -1.40218393262356e-015
  outer loop
    vertex 501.467267310072 -455.286378672063 15.0219924398234
    vertex 501.467267310072 -450.136817234811 16.0000000020048
    vertex 501.467267310072 -454.554275649797 14.3103645305805
  endloop
endfacet
facet normal -1.0 1.93126351826949e-015 -1.40218393262356e-015
  outer loop
    vertex 501.467267310072 -454.554275649797 14.3103645305805
    vertex 501.467267310072 -450.136817234811 16.0000000020048
    vertex 501.467267310072 -453.995413541623 13.4559277216396
  endloop
endfacet
facet normal -1.0 1.93126351826949e-015 -1.40218393262356e-015
  outer loop
    vertex 501.467267310072 -453.995413541623 13.4559277216396
    vertex 501.467267310072 -450.136817234811 16.0000000020048
    vertex 501.467267310072 -453.886817234811 13.1664372334238
  endloop
endfacet
facet normal -0.707106781186536 2.87134093252579e-018 -0.707106781186559
  outer loop
    vertex 501.467267310072 -453.886817238277 8.00000000200498
    vertex 500.467267310072 -462.386817234811 9.00000000200495
    vertex 500.467267310072 -453.886817238277 9.00000000200495
  endloop
endfacet
facet normal -0.707106781186536 2.87134093252579e-018 -0.707106781186559
  outer loop
    vertex 500.467267310072 -462.386817234811 9.00000000200495
    vertex 501.467267310072 -453.886817238277 8.00000000200498
    vertex 501.467267310072 -462.386817234811 8.00000000200498
  endloop
endfacet
endsolid GovernorG4
