solid GovernorG4
facet normal 0.0 1.0 0.0
  outer loop
    vertex 677.967267296202 -474.636817221536 38.5000000064578
    vertex 679.467267296203 -474.636817221536 35.5000000064578
    vertex 677.967267296202 -474.636817221536 35.5000000064578
  endloop
endfacet
facet normal 0.0 1.0 0.0
  outer loop
    vertex 679.467267296203 -474.636817221536 35.5000000064578
    vertex 677.967267296202 -474.636817221536 38.5000000064578
    vertex 679.467267296203 -474.636817221536 37.5000000064578
  endloop
endfacet
facet normal 0.0 1.0 0.0
  outer loop
    vertex 679.467267296203 -474.636817221536 37.5000000064578
    vertex 677.967267296202 -474.636817221536 38.5000000064578
    vertex 679.467267296203 -474.636817221536 38.5000000064578
  endloop
endfacet
facet normal -1.0 0.0 0.0
  outer loop
    vertex 679.467267296203 -441.636817221535 37.5000000064578
    vertex 679.467267296203 -474.636817221536 35.5000000064578
    vertex 679.467267296203 -474.636817221536 37.5000000064578
  endloop
endfacet
facet normal -1.0 0.0 0.0
  outer loop
    vertex 679.467267296203 -474.636817221536 35.5000000064578
    vertex 679.467267296203 -441.636817221535 37.5000000064578
    vertex 679.467267296203 -441.636817221535 35.5000000064578
  endloop
endfacet
facet normal -0.0 -1.0 -0.0
  outer loop
    vertex 684.967267296203 -441.636817221535 38.5000000064578
    vertex 683.467267296203 -441.636817221535 35.5000000064578
    vertex 684.967267296203 -441.636817221535 35.5000000064578
  endloop
endfacet
facet normal -0.0 -1.0 -0.0
  outer loop
    vertex 683.467267296203 -441.636817221535 35.5000000064578
    vertex 684.967267296203 -441.636817221535 38.5000000064578
    vertex 683.467267296203 -441.636817221535 37.5000000064578
  endloop
endfacet
facet normal -0.0 -1.0 -0.0
  outer loop
    vertex 683.467267296203 -441.636817221535 37.5000000064578
    vertex 684.967267296203 -441.636817221535 38.5000000064578
    vertex 683.467267296203 -441.636817221535 38.5000000064578
  endloop
endfacet
facet normal 1.0 0.0 0.0
  outer loop
    vertex 684.967267296203 -474.636817221536 35.5000000064578
    vertex 684.967267296203 -477.636817221536 38.5000000064578
    vertex 684.967267296203 -477.636817221536 35.5000000064578
  endloop
endfacet
facet normal 1.0 0.0 0.0
  outer loop
    vertex 684.967267296203 -477.636817221536 38.5000000064578
    vertex 684.967267296203 -474.636817221536 35.5000000064578
    vertex 684.967267296203 -474.636817221536 38.5000000064578
  endloop
endfacet
facet normal 1.0 0.0 0.0
  outer loop
    vertex 683.467267296203 -441.636817221535 35.5000000064578
    vertex 683.467267296203 -474.636817221536 37.5000000064578
    vertex 683.467267296203 -474.636817221536 35.5000000064578
  endloop
endfacet
facet normal 1.0 0.0 0.0
  outer loop
    vertex 683.467267296203 -474.636817221536 37.5000000064578
    vertex 683.467267296203 -441.636817221535 35.5000000064578
    vertex 683.467267296203 -441.636817221535 37.5000000064578
  endloop
endfacet
facet normal -0.793353340291161 0.608761429008817 0.0
  outer loop
    vertex 682.333292699987 -440.636817221535 38.5000000064578
    vertex 682.174374077389 -440.843924002722 35.5000000064578
    vertex 682.174374077389 -440.843924002722 38.5000000064578
  endloop
endfacet
facet normal -0.793353340291161 0.608761429008817 0.0
  outer loop
    vertex 682.174374077389 -440.843924002722 35.5000000064578
    vertex 682.333292699987 -440.636817221535 38.5000000064578
    vertex 682.333292699987 -440.636817221535 35.5000000064578
  endloop
endfacet
facet normal -0.923879532511245 0.382683432365191 0.0
  outer loop
    vertex 682.433193122492 -440.395636266638 38.5000000064578
    vertex 682.333292699987 -440.636817221535 35.5000000064578
    vertex 682.333292699987 -440.636817221535 38.5000000064578
  endloop
endfacet
facet normal -0.923879532511245 0.382683432365191 0.0
  outer loop
    vertex 682.333292699987 -440.636817221535 35.5000000064578
    vertex 682.433193122492 -440.395636266638 38.5000000064578
    vertex 682.433193122492 -440.395636266638 35.5000000064578
  endloop
endfacet
facet normal -0.991444861373833 0.130526192219876 0.0
  outer loop
    vertex 682.467267296203 -440.136817221535 38.5000000064578
    vertex 682.433193122492 -440.395636266638 35.5000000064578
    vertex 682.433193122492 -440.395636266638 38.5000000064578
  endloop
endfacet
facet normal -0.991444861373833 0.130526192219876 0.0
  outer loop
    vertex 682.433193122492 -440.395636266638 35.5000000064578
    vertex 682.467267296203 -440.136817221535 38.5000000064578
    vertex 682.467267296203 -440.136817221535 35.5000000064578
  endloop
endfacet
facet normal -0.991444861373833 -0.130526192219876 -0.0
  outer loop
    vertex 682.433193122492 -439.877998176433 38.5000000064578
    vertex 682.467267296203 -440.136817221535 35.5000000064578
    vertex 682.467267296203 -440.136817221535 38.5000000064578
  endloop
endfacet
facet normal -0.991444861373833 -0.130526192219876 -0.0
  outer loop
    vertex 682.467267296203 -440.136817221535 35.5000000064578
    vertex 682.433193122492 -439.877998176433 38.5000000064578
    vertex 682.433193122492 -439.877998176433 35.5000000064578
  endloop
endfacet
facet normal -0.608761429008732 0.793353340291227 0.0
  outer loop
    vertex 681.967267296202 -441.00284262532 38.5000000064578
    vertex 682.174374077389 -440.843924002722 35.5000000064578
    vertex 681.967267296202 -441.00284262532 35.5000000064578
  endloop
endfacet
facet normal -0.608761429008732 0.793353340291227 0.0
  outer loop
    vertex 682.174374077389 -440.843924002722 35.5000000064578
    vertex 681.967267296202 -441.00284262532 38.5000000064578
    vertex 682.174374077389 -440.843924002722 38.5000000064578
  endloop
endfacet
facet normal -0.608761429008903 -0.793353340291096 -0.0
  outer loop
    vertex 682.174374077389 -439.429710440349 38.5000000064578
    vertex 681.967267296203 -439.270791817751 35.5000000064578
    vertex 682.174374077389 -439.429710440349 35.5000000064578
  endloop
endfacet
facet normal -0.608761429008903 -0.793353340291096 -0.0
  outer loop
    vertex 681.967267296203 -439.270791817751 35.5000000064578
    vertex 682.174374077389 -439.429710440349 38.5000000064578
    vertex 681.967267296203 -439.270791817751 38.5000000064578
  endloop
endfacet
facet normal -0.923879532511245 -0.382683432365191 -0.0
  outer loop
    vertex 682.333292699987 -439.636817221535 38.5000000064578
    vertex 682.433193122492 -439.877998176433 35.5000000064578
    vertex 682.433193122492 -439.877998176433 38.5000000064578
  endloop
endfacet
facet normal -0.923879532511245 -0.382683432365191 -0.0
  outer loop
    vertex 682.433193122492 -439.877998176433 35.5000000064578
    vertex 682.333292699987 -439.636817221535 38.5000000064578
    vertex 682.333292699987 -439.636817221535 35.5000000064578
  endloop
endfacet
facet normal -0.382683432364914 -0.923879532511359 -0.0
  outer loop
    vertex 681.967267296203 -439.270791817751 38.5000000064578
    vertex 681.726086341305 -439.170891395246 35.5000000064578
    vertex 681.967267296203 -439.270791817751 35.5000000064578
  endloop
endfacet
facet normal -0.382683432364914 -0.923879532511359 -0.0
  outer loop
    vertex 681.726086341305 -439.170891395246 35.5000000064578
    vertex 681.967267296203 -439.270791817751 38.5000000064578
    vertex 681.726086341305 -439.170891395246 38.5000000064578
  endloop
endfacet
facet normal -0.793353340291161 -0.608761429008817 -0.0
  outer loop
    vertex 682.174374077389 -439.429710440349 38.5000000064578
    vertex 682.333292699987 -439.636817221535 35.5000000064578
    vertex 682.333292699987 -439.636817221535 38.5000000064578
  endloop
endfacet
facet normal -0.793353340291161 -0.608761429008817 -0.0
  outer loop
    vertex 682.333292699987 -439.636817221535 35.5000000064578
    vertex 682.174374077389 -439.429710440349 38.5000000064578
    vertex 682.174374077389 -439.429710440349 35.5000000064578
  endloop
endfacet
facet normal 0.130526192220073 0.991444861373808 0.0
  outer loop
    vertex 681.2084482511 -441.102743047825 38.5000000064578
    vertex 681.467267296203 -441.136817221536 35.5000000064578
    vertex 681.2084482511 -441.102743047825 35.5000000064578
  endloop
endfacet
facet normal 0.130526192220073 0.991444861373808 0.0
  outer loop
    vertex 681.467267296203 -441.136817221536 35.5000000064578
    vertex 681.2084482511 -441.102743047825 38.5000000064578
    vertex 681.467267296203 -441.136817221536 38.5000000064578
  endloop
endfacet
facet normal 0.0 0.0 -1.0
  outer loop
    vertex 677.967267296202 -438.636817221535 35.5000000064578
    vertex 680.760160515016 -439.429710440349 35.5000000064578
    vertex 677.967267296202 -441.636817221535 35.5000000064578
  endloop
endfacet
facet normal 0.0 0.0 -1.0
  outer loop
    vertex 680.760160515016 -439.429710440349 35.5000000064578
    vertex 677.967267296202 -438.636817221535 35.5000000064578
    vertex 680.967267296203 -439.270791817751 35.5000000064578
  endloop
endfacet
facet normal 0.0 0.0 -1.0
  outer loop
    vertex 680.967267296203 -439.270791817751 35.5000000064578
    vertex 677.967267296202 -438.636817221535 35.5000000064578
    vertex 681.2084482511 -439.170891395246 35.5000000064578
  endloop
endfacet
facet normal 0.0 0.0 -1.0
  outer loop
    vertex 681.2084482511 -439.170891395246 35.5000000064578
    vertex 677.967267296202 -438.636817221535 35.5000000064578
    vertex 684.967267296203 -438.636817221535 35.5000000064578
  endloop
endfacet
facet normal 0.0 0.0 -1.0
  outer loop
    vertex 677.967267296202 -441.636817221535 35.5000000064578
    vertex 680.760160515016 -439.429710440349 35.5000000064578
    vertex 680.601241892418 -439.636817221535 35.5000000064578
  endloop
endfacet
facet normal 0.0 0.0 -1.0
  outer loop
    vertex 677.967267296202 -441.636817221535 35.5000000064578
    vertex 680.601241892418 -439.636817221535 35.5000000064578
    vertex 679.467267296203 -441.636817221535 35.5000000064578
  endloop
endfacet
facet normal 0.0 0.0 -1.0
  outer loop
    vertex 679.467267296203 -441.636817221535 35.5000000064578
    vertex 680.601241892418 -439.636817221535 35.5000000064578
    vertex 680.501341469913 -439.877998176433 35.5000000064578
  endloop
endfacet
facet normal 0.0 0.0 -1.0
  outer loop
    vertex 679.467267296203 -441.636817221535 35.5000000064578
    vertex 680.501341469913 -439.877998176433 35.5000000064578
    vertex 680.467267296203 -440.136817221535 35.5000000064578
  endloop
endfacet
facet normal 0.0 0.0 -1.0
  outer loop
    vertex 679.467267296203 -441.636817221535 35.5000000064578
    vertex 680.467267296203 -440.136817221535 35.5000000064578
    vertex 679.467267296203 -474.636817221536 35.5000000064578
  endloop
endfacet
facet normal 0.0 0.0 -1.0
  outer loop
    vertex 681.2084482511 -439.170891395246 35.5000000064578
    vertex 684.967267296203 -438.636817221535 35.5000000064578
    vertex 681.467267296203 -439.136817221536 35.5000000064578
  endloop
endfacet
facet normal 0.0 0.0 -1.0
  outer loop
    vertex 681.467267296203 -439.136817221536 35.5000000064578
    vertex 684.967267296203 -438.636817221535 35.5000000064578
    vertex 681.726086341305 -439.170891395246 35.5000000064578
  endloop
endfacet
facet normal 0.0 0.0 -1.0
  outer loop
    vertex 681.726086341305 -439.170891395246 35.5000000064578
    vertex 684.967267296203 -438.636817221535 35.5000000064578
    vertex 681.967267296203 -439.270791817751 35.5000000064578
  endloop
endfacet
facet normal 0.0 0.0 -1.0
  outer loop
    vertex 681.967267296203 -439.270791817751 35.5000000064578
    vertex 684.967267296203 -438.636817221535 35.5000000064578
    vertex 682.174374077389 -439.429710440349 35.5000000064578
  endloop
endfacet
facet normal 0.0 0.0 -1.0
  outer loop
    vertex 682.174374077389 -439.429710440349 35.5000000064578
    vertex 684.967267296203 -438.636817221535 35.5000000064578
    vertex 682.333292699987 -439.636817221535 35.5000000064578
  endloop
endfacet
facet normal 0.0 0.0 -1.0
  outer loop
    vertex 682.333292699987 -439.636817221535 35.5000000064578
    vertex 684.967267296203 -438.636817221535 35.5000000064578
    vertex 682.433193122492 -439.877998176433 35.5000000064578
  endloop
endfacet
facet normal 0.0 0.0 -1.0
  outer loop
    vertex 682.433193122492 -439.877998176433 35.5000000064578
    vertex 684.967267296203 -438.636817221535 35.5000000064578
    vertex 682.467267296203 -440.136817221535 35.5000000064578
  endloop
endfacet
facet normal 0.0 0.0 -1.0
  outer loop
    vertex 682.467267296203 -440.136817221535 35.5000000064578
    vertex 684.967267296203 -438.636817221535 35.5000000064578
    vertex 683.467267296203 -441.636817221535 35.5000000064578
  endloop
endfacet
facet normal 0.0 0.0 -1.0
  outer loop
    vertex 682.467267296203 -440.136817221535 35.5000000064578
    vertex 683.467267296203 -441.636817221535 35.5000000064578
    vertex 682.467267296203 -476.136817221536 35.5000000064578
  endloop
endfacet
facet normal 0.0 0.0 -1.0
  outer loop
    vertex 683.467267296203 -441.636817221535 35.5000000064578
    vertex 684.967267296203 -438.636817221535 35.5000000064578
    vertex 684.967267296203 -441.636817221535 35.5000000064578
  endloop
endfacet
facet normal 0.0 0.0 -1.0
  outer loop
    vertex 679.467267296203 -474.636817221536 35.5000000064578
    vertex 677.967267296202 -477.636817221536 35.5000000064578
    vertex 677.967267296202 -474.636817221536 35.5000000064578
  endloop
endfacet
facet normal 0.0 0.0 -1.0
  outer loop
    vertex 677.967267296202 -477.636817221536 35.5000000064578
    vertex 679.467267296203 -474.636817221536 35.5000000064578
    vertex 680.601241892418 -476.636817221536 35.5000000064578
  endloop
endfacet
facet normal 0.0 0.0 -1.0
  outer loop
    vertex 677.967267296202 -477.636817221536 35.5000000064578
    vertex 680.601241892418 -476.636817221536 35.5000000064578
    vertex 680.760160515016 -476.843924002722 35.5000000064578
  endloop
endfacet
facet normal 0.0 0.0 -1.0
  outer loop
    vertex 677.967267296202 -477.636817221536 35.5000000064578
    vertex 680.760160515016 -476.843924002722 35.5000000064578
    vertex 680.967267296202 -477.00284262532 35.5000000064578
  endloop
endfacet
facet normal 0.0 0.0 -1.0
  outer loop
    vertex 677.967267296202 -477.636817221536 35.5000000064578
    vertex 680.967267296202 -477.00284262532 35.5000000064578
    vertex 681.2084482511 -477.102743047825 35.5000000064578
  endloop
endfacet
facet normal 0.0 0.0 -1.0
  outer loop
    vertex 677.967267296202 -477.636817221536 35.5000000064578
    vertex 681.2084482511 -477.102743047825 35.5000000064578
    vertex 684.967267296203 -477.636817221536 35.5000000064578
  endloop
endfacet
facet normal 0.0 0.0 -1.0
  outer loop
    vertex 680.601241892418 -476.636817221536 35.5000000064578
    vertex 679.467267296203 -474.636817221536 35.5000000064578
    vertex 680.501341469913 -476.395636266638 35.5000000064578
  endloop
endfacet
facet normal 0.0 0.0 -1.0
  outer loop
    vertex 680.501341469913 -476.395636266638 35.5000000064578
    vertex 679.467267296203 -474.636817221536 35.5000000064578
    vertex 680.467267296203 -476.136817221536 35.5000000064578
  endloop
endfacet
facet normal 0.0 0.0 -1.0
  outer loop
    vertex 680.467267296203 -476.136817221536 35.5000000064578
    vertex 679.467267296203 -474.636817221536 35.5000000064578
    vertex 680.467267296203 -440.136817221535 35.5000000064578
  endloop
endfacet
facet normal 0.0 0.0 -1.0
  outer loop
    vertex 684.967267296203 -477.636817221536 35.5000000064578
    vertex 681.2084482511 -477.102743047825 35.5000000064578
    vertex 681.467267296203 -477.136817221535 35.5000000064578
  endloop
endfacet
facet normal 0.0 0.0 -1.0
  outer loop
    vertex 684.967267296203 -477.636817221536 35.5000000064578
    vertex 681.467267296203 -477.136817221535 35.5000000064578
    vertex 681.726086341305 -477.102743047825 35.5000000064578
  endloop
endfacet
facet normal 0.0 0.0 -1.0
  outer loop
    vertex 684.967267296203 -477.636817221536 35.5000000064578
    vertex 681.726086341305 -477.102743047825 35.5000000064578
    vertex 681.967267296202 -477.00284262532 35.5000000064578
  endloop
endfacet
facet normal 0.0 0.0 -1.0
  outer loop
    vertex 684.967267296203 -477.636817221536 35.5000000064578
    vertex 681.967267296202 -477.00284262532 35.5000000064578
    vertex 682.174374077389 -476.843924002722 35.5000000064578
  endloop
endfacet
facet normal 0.0 0.0 -1.0
  outer loop
    vertex 684.967267296203 -477.636817221536 35.5000000064578
    vertex 682.174374077389 -476.843924002722 35.5000000064578
    vertex 682.333292699987 -476.636817221536 35.5000000064578
  endloop
endfacet
facet normal 0.0 0.0 -1.0
  outer loop
    vertex 684.967267296203 -477.636817221536 35.5000000064578
    vertex 682.333292699987 -476.636817221536 35.5000000064578
    vertex 682.433193122492 -476.395636266638 35.5000000064578
  endloop
endfacet
facet normal 0.0 0.0 -1.0
  outer loop
    vertex 684.967267296203 -477.636817221536 35.5000000064578
    vertex 682.433193122492 -476.395636266638 35.5000000064578
    vertex 682.467267296203 -476.136817221536 35.5000000064578
  endloop
endfacet
facet normal 0.0 0.0 -1.0
  outer loop
    vertex 684.967267296203 -477.636817221536 35.5000000064578
    vertex 682.467267296203 -476.136817221536 35.5000000064578
    vertex 683.467267296203 -474.636817221536 35.5000000064578
  endloop
endfacet
facet normal 0.0 0.0 -1.0
  outer loop
    vertex 683.467267296203 -474.636817221536 35.5000000064578
    vertex 682.467267296203 -476.136817221536 35.5000000064578
    vertex 683.467267296203 -441.636817221535 35.5000000064578
  endloop
endfacet
facet normal 0.0 0.0 -1.0
  outer loop
    vertex 684.967267296203 -477.636817221536 35.5000000064578
    vertex 683.467267296203 -474.636817221536 35.5000000064578
    vertex 684.967267296203 -474.636817221536 35.5000000064578
  endloop
endfacet
facet normal 0.0 0.0 -1.0
  outer loop
    vertex 680.501341469913 -440.395636266638 35.5000000064578
    vertex 680.467267296203 -476.136817221536 35.5000000064578
    vertex 680.467267296203 -440.136817221535 35.5000000064578
  endloop
endfacet
facet normal 0.0 0.0 -1.0
  outer loop
    vertex 680.467267296203 -476.136817221536 35.5000000064578
    vertex 680.501341469913 -440.395636266638 35.5000000064578
    vertex 680.501341469913 -475.877998176433 35.5000000064578
  endloop
endfacet
facet normal 0.0 0.0 -1.0
  outer loop
    vertex 680.501341469913 -475.877998176433 35.5000000064578
    vertex 680.501341469913 -440.395636266638 35.5000000064578
    vertex 680.601241892418 -440.636817221535 35.5000000064578
  endloop
endfacet
facet normal 0.0 0.0 -1.0
  outer loop
    vertex 680.501341469913 -475.877998176433 35.5000000064578
    vertex 680.601241892418 -440.636817221535 35.5000000064578
    vertex 680.601241892418 -475.636817221536 35.5000000064578
  endloop
endfacet
facet normal 0.0 0.0 -1.0
  outer loop
    vertex 680.601241892418 -475.636817221536 35.5000000064578
    vertex 680.601241892418 -440.636817221535 35.5000000064578
    vertex 680.760160515016 -440.843924002722 35.5000000064578
  endloop
endfacet
facet normal 0.0 0.0 -1.0
  outer loop
    vertex 680.601241892418 -475.636817221536 35.5000000064578
    vertex 680.760160515016 -440.843924002722 35.5000000064578
    vertex 680.760160515016 -475.429710440349 35.5000000064578
  endloop
endfacet
facet normal 0.0 0.0 -1.0
  outer loop
    vertex 680.760160515016 -475.429710440349 35.5000000064578
    vertex 680.760160515016 -440.843924002722 35.5000000064578
    vertex 680.967267296202 -441.00284262532 35.5000000064578
  endloop
endfacet
facet normal 0.0 0.0 -1.0
  outer loop
    vertex 680.760160515016 -475.429710440349 35.5000000064578
    vertex 680.967267296202 -441.00284262532 35.5000000064578
    vertex 680.967267296203 -475.270791817751 35.5000000064578
  endloop
endfacet
facet normal 0.0 0.0 -1.0
  outer loop
    vertex 680.967267296203 -475.270791817751 35.5000000064578
    vertex 680.967267296202 -441.00284262532 35.5000000064578
    vertex 681.2084482511 -441.102743047825 35.5000000064578
  endloop
endfacet
facet normal 0.0 0.0 -1.0
  outer loop
    vertex 680.967267296203 -475.270791817751 35.5000000064578
    vertex 681.2084482511 -441.102743047825 35.5000000064578
    vertex 681.2084482511 -475.170891395246 35.5000000064578
  endloop
endfacet
facet normal 0.0 0.0 -1.0
  outer loop
    vertex 681.2084482511 -475.170891395246 35.5000000064578
    vertex 681.2084482511 -441.102743047825 35.5000000064578
    vertex 681.467267296203 -441.136817221536 35.5000000064578
  endloop
endfacet
facet normal 0.0 0.0 -1.0
  outer loop
    vertex 681.2084482511 -475.170891395246 35.5000000064578
    vertex 681.467267296203 -441.136817221536 35.5000000064578
    vertex 681.467267296203 -475.136817221535 35.5000000064578
  endloop
endfacet
facet normal 0.0 0.0 -1.0
  outer loop
    vertex 681.467267296203 -475.136817221535 35.5000000064578
    vertex 681.467267296203 -441.136817221536 35.5000000064578
    vertex 681.726086341305 -441.102743047825 35.5000000064578
  endloop
endfacet
facet normal 0.0 0.0 -1.0
  outer loop
    vertex 681.467267296203 -475.136817221535 35.5000000064578
    vertex 681.726086341305 -441.102743047825 35.5000000064578
    vertex 681.726086341305 -475.170891395246 35.5000000064578
  endloop
endfacet
facet normal 0.0 0.0 -1.0
  outer loop
    vertex 681.726086341305 -475.170891395246 35.5000000064578
    vertex 681.726086341305 -441.102743047825 35.5000000064578
    vertex 681.967267296202 -441.00284262532 35.5000000064578
  endloop
endfacet
facet normal 0.0 0.0 -1.0
  outer loop
    vertex 681.726086341305 -475.170891395246 35.5000000064578
    vertex 681.967267296202 -441.00284262532 35.5000000064578
    vertex 681.967267296203 -475.270791817751 35.5000000064578
  endloop
endfacet
facet normal 0.0 0.0 -1.0
  outer loop
    vertex 681.967267296203 -475.270791817751 35.5000000064578
    vertex 681.967267296202 -441.00284262532 35.5000000064578
    vertex 682.174374077389 -440.843924002722 35.5000000064578
  endloop
endfacet
facet normal 0.0 0.0 -1.0
  outer loop
    vertex 681.967267296203 -475.270791817751 35.5000000064578
    vertex 682.174374077389 -440.843924002722 35.5000000064578
    vertex 682.174374077389 -475.429710440349 35.5000000064578
  endloop
endfacet
facet normal 0.0 0.0 -1.0
  outer loop
    vertex 682.174374077389 -475.429710440349 35.5000000064578
    vertex 682.174374077389 -440.843924002722 35.5000000064578
    vertex 682.333292699987 -440.636817221535 35.5000000064578
  endloop
endfacet
facet normal 0.0 0.0 -1.0
  outer loop
    vertex 682.174374077389 -475.429710440349 35.5000000064578
    vertex 682.333292699987 -440.636817221535 35.5000000064578
    vertex 682.333292699987 -475.636817221536 35.5000000064578
  endloop
endfacet
facet normal 0.0 0.0 -1.0
  outer loop
    vertex 682.333292699987 -475.636817221536 35.5000000064578
    vertex 682.333292699987 -440.636817221535 35.5000000064578
    vertex 682.433193122492 -440.395636266638 35.5000000064578
  endloop
endfacet
facet normal 0.0 0.0 -1.0
  outer loop
    vertex 682.333292699987 -475.636817221536 35.5000000064578
    vertex 682.433193122492 -440.395636266638 35.5000000064578
    vertex 682.433193122492 -475.877998176433 35.5000000064578
  endloop
endfacet
facet normal 0.0 0.0 -1.0
  outer loop
    vertex 682.433193122492 -475.877998176433 35.5000000064578
    vertex 682.433193122492 -440.395636266638 35.5000000064578
    vertex 682.467267296203 -440.136817221535 35.5000000064578
  endloop
endfacet
facet normal 0.0 0.0 -1.0
  outer loop
    vertex 682.433193122492 -475.877998176433 35.5000000064578
    vertex 682.467267296203 -440.136817221535 35.5000000064578
    vertex 682.467267296203 -476.136817221536 35.5000000064578
  endloop
endfacet
facet normal 1.0 0.0 0.0
  outer loop
    vertex 684.967267296203 -438.636817221535 35.5000000064578
    vertex 684.967267296203 -441.636817221535 38.5000000064578
    vertex 684.967267296203 -441.636817221535 35.5000000064578
  endloop
endfacet
facet normal 1.0 0.0 0.0
  outer loop
    vertex 684.967267296203 -441.636817221535 38.5000000064578
    vertex 684.967267296203 -438.636817221535 35.5000000064578
    vertex 684.967267296203 -438.636817221535 38.5000000064578
  endloop
endfacet
facet normal -0.0 -1.0 -0.0
  outer loop
    vertex 679.467267296203 -441.636817221535 37.5000000064578
    vertex 677.967267296202 -441.636817221535 35.5000000064578
    vertex 679.467267296203 -441.636817221535 35.5000000064578
  endloop
endfacet
facet normal -0.0 -1.0 -0.0
  outer loop
    vertex 677.967267296202 -441.636817221535 35.5000000064578
    vertex 679.467267296203 -441.636817221535 37.5000000064578
    vertex 677.967267296202 -441.636817221535 38.5000000064578
  endloop
endfacet
facet normal -0.0 -1.0 -0.0
  outer loop
    vertex 677.967267296202 -441.636817221535 38.5000000064578
    vertex 679.467267296203 -441.636817221535 37.5000000064578
    vertex 679.467267296203 -441.636817221535 38.5000000064578
  endloop
endfacet
facet normal -0.130526192220073 -0.991444861373808 -0.0
  outer loop
    vertex 681.726086341305 -439.170891395246 38.5000000064578
    vertex 681.467267296203 -439.136817221536 35.5000000064578
    vertex 681.726086341305 -439.170891395246 35.5000000064578
  endloop
endfacet
facet normal -0.130526192220073 -0.991444861373808 -0.0
  outer loop
    vertex 681.467267296203 -439.136817221536 35.5000000064578
    vertex 681.726086341305 -439.170891395246 38.5000000064578
    vertex 681.467267296203 -439.136817221536 38.5000000064578
  endloop
endfacet
facet normal -1.0 0.0 0.0
  outer loop
    vertex 677.967267296202 -438.636817221535 38.5000000064578
    vertex 677.967267296202 -441.636817221535 35.5000000064578
    vertex 677.967267296202 -441.636817221535 38.5000000064578
  endloop
endfacet
facet normal -1.0 0.0 0.0
  outer loop
    vertex 677.967267296202 -441.636817221535 35.5000000064578
    vertex 677.967267296202 -438.636817221535 38.5000000064578
    vertex 677.967267296202 -438.636817221535 35.5000000064578
  endloop
endfacet
facet normal 0.0 1.0 0.0
  outer loop
    vertex 677.967267296202 -438.636817221535 38.5000000064578
    vertex 684.967267296203 -438.636817221535 35.5000000064578
    vertex 677.967267296202 -438.636817221535 35.5000000064578
  endloop
endfacet
facet normal 0.0 1.0 0.0
  outer loop
    vertex 684.967267296203 -438.636817221535 35.5000000064578
    vertex 677.967267296202 -438.636817221535 38.5000000064578
    vertex 684.967267296203 -438.636817221535 38.5000000064578
  endloop
endfacet
facet normal 0.0 -1.0 0.0
  outer loop
    vertex 684.967267296203 -477.636817221536 38.5000000064578
    vertex 677.967267296202 -477.636817221536 35.5000000064578
    vertex 684.967267296203 -477.636817221536 35.5000000064578
  endloop
endfacet
facet normal 0.0 -1.0 0.0
  outer loop
    vertex 677.967267296202 -477.636817221536 35.5000000064578
    vertex 684.967267296203 -477.636817221536 38.5000000064578
    vertex 677.967267296202 -477.636817221536 38.5000000064578
  endloop
endfacet
facet normal -0.38268343236504 0.923879532511308 0.0
  outer loop
    vertex 681.726086341305 -441.102743047825 38.5000000064578
    vertex 681.967267296202 -441.00284262532 35.5000000064578
    vertex 681.726086341305 -441.102743047825 35.5000000064578
  endloop
endfacet
facet normal -0.38268343236504 0.923879532511308 0.0
  outer loop
    vertex 681.967267296202 -441.00284262532 35.5000000064578
    vertex 681.726086341305 -441.102743047825 38.5000000064578
    vertex 681.967267296202 -441.00284262532 38.5000000064578
  endloop
endfacet
facet normal -0.130526192220073 0.991444861373808 0.0
  outer loop
    vertex 681.467267296203 -441.136817221536 38.5000000064578
    vertex 681.726086341305 -441.102743047825 35.5000000064578
    vertex 681.467267296203 -441.136817221536 35.5000000064578
  endloop
endfacet
facet normal -0.130526192220073 0.991444861373808 0.0
  outer loop
    vertex 681.726086341305 -441.102743047825 35.5000000064578
    vertex 681.467267296203 -441.136817221536 38.5000000064578
    vertex 681.726086341305 -441.102743047825 38.5000000064578
  endloop
endfacet
facet normal 0.0 1.0 0.0
  outer loop
    vertex 683.467267296203 -474.636817221536 37.5000000064578
    vertex 684.967267296203 -474.636817221536 35.5000000064578
    vertex 683.467267296203 -474.636817221536 35.5000000064578
  endloop
endfacet
facet normal 0.0 1.0 0.0
  outer loop
    vertex 684.967267296203 -474.636817221536 35.5000000064578
    vertex 683.467267296203 -474.636817221536 37.5000000064578
    vertex 684.967267296203 -474.636817221536 38.5000000064578
  endloop
endfacet
facet normal 0.0 1.0 0.0
  outer loop
    vertex 684.967267296203 -474.636817221536 38.5000000064578
    vertex 683.467267296203 -474.636817221536 37.5000000064578
    vertex 683.467267296203 -474.636817221536 38.5000000064578
  endloop
endfacet
facet normal -1.0 0.0 0.0
  outer loop
    vertex 677.967267296202 -474.636817221536 38.5000000064578
    vertex 677.967267296202 -477.636817221536 35.5000000064578
    vertex 677.967267296202 -477.636817221536 38.5000000064578
  endloop
endfacet
facet normal -1.0 0.0 0.0
  outer loop
    vertex 677.967267296202 -477.636817221536 35.5000000064578
    vertex 677.967267296202 -474.636817221536 38.5000000064578
    vertex 677.967267296202 -474.636817221536 35.5000000064578
  endloop
endfacet
facet normal 0.793353340291161 0.608761429008817 0.0
  outer loop
    vertex 680.601241892418 -476.636817221536 35.5000000064578
    vertex 680.760160515016 -476.843924002722 38.5000000064578
    vertex 680.760160515016 -476.843924002722 35.5000000064578
  endloop
endfacet
facet normal 0.793353340291161 0.608761429008817 0.0
  outer loop
    vertex 680.760160515016 -476.843924002722 38.5000000064578
    vertex 680.601241892418 -476.636817221536 35.5000000064578
    vertex 680.601241892418 -476.636817221536 38.5000000064578
  endloop
endfacet
facet normal -0.608761429008732 0.793353340291227 0.0
  outer loop
    vertex 681.967267296202 -477.00284262532 38.5000000064578
    vertex 682.174374077389 -476.843924002722 35.5000000064578
    vertex 681.967267296202 -477.00284262532 35.5000000064578
  endloop
endfacet
facet normal -0.608761429008732 0.793353340291227 0.0
  outer loop
    vertex 682.174374077389 -476.843924002722 35.5000000064578
    vertex 681.967267296202 -477.00284262532 38.5000000064578
    vertex 682.174374077389 -476.843924002722 38.5000000064578
  endloop
endfacet
facet normal 0.130526192220073 -0.991444861373808 0.0
  outer loop
    vertex 681.467267296203 -439.136817221536 38.5000000064578
    vertex 681.2084482511 -439.170891395246 35.5000000064578
    vertex 681.467267296203 -439.136817221536 35.5000000064578
  endloop
endfacet
facet normal 0.130526192220073 -0.991444861373808 0.0
  outer loop
    vertex 681.2084482511 -439.170891395246 35.5000000064578
    vertex 681.467267296203 -439.136817221536 38.5000000064578
    vertex 681.2084482511 -439.170891395246 38.5000000064578
  endloop
endfacet
facet normal 0.923879532511245 0.382683432365191 0.0
  outer loop
    vertex 680.501341469913 -476.395636266638 35.5000000064578
    vertex 680.601241892418 -476.636817221536 38.5000000064578
    vertex 680.601241892418 -476.636817221536 35.5000000064578
  endloop
endfacet
facet normal 0.923879532511245 0.382683432365191 0.0
  outer loop
    vertex 680.601241892418 -476.636817221536 38.5000000064578
    vertex 680.501341469913 -476.395636266638 35.5000000064578
    vertex 680.501341469913 -476.395636266638 38.5000000064578
  endloop
endfacet
facet normal 0.130526192220073 0.991444861373808 0.0
  outer loop
    vertex 681.2084482511 -477.102743047825 38.5000000064578
    vertex 681.467267296203 -477.136817221535 35.5000000064578
    vertex 681.2084482511 -477.102743047825 35.5000000064578
  endloop
endfacet
facet normal 0.130526192220073 0.991444861373808 0.0
  outer loop
    vertex 681.467267296203 -477.136817221535 35.5000000064578
    vertex 681.2084482511 -477.102743047825 38.5000000064578
    vertex 681.467267296203 -477.136817221535 38.5000000064578
  endloop
endfacet
facet normal -0.793353340291161 0.608761429008817 0.0
  outer loop
    vertex 682.333292699987 -476.636817221536 38.5000000064578
    vertex 682.174374077389 -476.843924002722 35.5000000064578
    vertex 682.174374077389 -476.843924002722 38.5000000064578
  endloop
endfacet
facet normal -0.793353340291161 0.608761429008817 0.0
  outer loop
    vertex 682.174374077389 -476.843924002722 35.5000000064578
    vertex 682.333292699987 -476.636817221536 38.5000000064578
    vertex 682.333292699987 -476.636817221536 35.5000000064578
  endloop
endfacet
facet normal 0.130526192220073 -0.991444861373808 0.0
  outer loop
    vertex 681.467267296203 -475.136817221535 38.5000000064578
    vertex 681.2084482511 -475.170891395246 35.5000000064578
    vertex 681.467267296203 -475.136817221535 35.5000000064578
  endloop
endfacet
facet normal 0.130526192220073 -0.991444861373808 0.0
  outer loop
    vertex 681.2084482511 -475.170891395246 35.5000000064578
    vertex 681.467267296203 -475.136817221535 38.5000000064578
    vertex 681.2084482511 -475.170891395246 38.5000000064578
  endloop
endfacet
facet normal -0.130526192220073 -0.991444861373808 -0.0
  outer loop
    vertex 681.726086341305 -475.170891395246 38.5000000064578
    vertex 681.467267296203 -475.136817221535 35.5000000064578
    vertex 681.726086341305 -475.170891395246 35.5000000064578
  endloop
endfacet
facet normal -0.130526192220073 -0.991444861373808 -0.0
  outer loop
    vertex 681.467267296203 -475.136817221535 35.5000000064578
    vertex 681.726086341305 -475.170891395246 38.5000000064578
    vertex 681.467267296203 -475.136817221535 38.5000000064578
  endloop
endfacet
facet normal 0.38268343236504 -0.923879532511308 0.0
  outer loop
    vertex 681.2084482511 -475.170891395246 38.5000000064578
    vertex 680.967267296203 -475.270791817751 35.5000000064578
    vertex 681.2084482511 -475.170891395246 35.5000000064578
  endloop
endfacet
facet normal 0.38268343236504 -0.923879532511308 0.0
  outer loop
    vertex 680.967267296203 -475.270791817751 35.5000000064578
    vertex 681.2084482511 -475.170891395246 38.5000000064578
    vertex 680.967267296203 -475.270791817751 38.5000000064578
  endloop
endfacet
facet normal 0.991444861373833 0.130526192219876 0.0
  outer loop
    vertex 680.467267296203 -476.136817221536 35.5000000064578
    vertex 680.501341469913 -476.395636266638 38.5000000064578
    vertex 680.501341469913 -476.395636266638 35.5000000064578
  endloop
endfacet
facet normal 0.991444861373833 0.130526192219876 0.0
  outer loop
    vertex 680.501341469913 -476.395636266638 38.5000000064578
    vertex 680.467267296203 -476.136817221536 35.5000000064578
    vertex 680.467267296203 -476.136817221536 38.5000000064578
  endloop
endfacet
facet normal 0.991444861373833 0.130526192219876 0.0
  outer loop
    vertex 680.467267296203 -440.136817221535 35.5000000064578
    vertex 680.501341469913 -440.395636266638 38.5000000064578
    vertex 680.501341469913 -440.395636266638 35.5000000064578
  endloop
endfacet
facet normal 0.991444861373833 0.130526192219876 0.0
  outer loop
    vertex 680.501341469913 -440.395636266638 38.5000000064578
    vertex 680.467267296203 -440.136817221535 35.5000000064578
    vertex 680.467267296203 -440.136817221535 38.5000000064578
  endloop
endfacet
facet normal -0.923879532511245 0.382683432365191 0.0
  outer loop
    vertex 682.433193122492 -476.395636266638 38.5000000064578
    vertex 682.333292699987 -476.636817221536 35.5000000064578
    vertex 682.333292699987 -476.636817221536 38.5000000064578
  endloop
endfacet
facet normal -0.923879532511245 0.382683432365191 0.0
  outer loop
    vertex 682.333292699987 -476.636817221536 35.5000000064578
    vertex 682.433193122492 -476.395636266638 38.5000000064578
    vertex 682.433193122492 -476.395636266638 35.5000000064578
  endloop
endfacet
facet normal 0.608761429008732 -0.793353340291227 0.0
  outer loop
    vertex 680.967267296203 -439.270791817751 38.5000000064578
    vertex 680.760160515016 -439.429710440349 35.5000000064578
    vertex 680.967267296203 -439.270791817751 35.5000000064578
  endloop
endfacet
facet normal 0.608761429008732 -0.793353340291227 0.0
  outer loop
    vertex 680.760160515016 -439.429710440349 35.5000000064578
    vertex 680.967267296203 -439.270791817751 38.5000000064578
    vertex 680.760160515016 -439.429710440349 38.5000000064578
  endloop
endfacet
facet normal 0.793353340291161 -0.608761429008817 0.0
  outer loop
    vertex 680.760160515016 -439.429710440349 35.5000000064578
    vertex 680.601241892418 -439.636817221535 38.5000000064578
    vertex 680.601241892418 -439.636817221535 35.5000000064578
  endloop
endfacet
facet normal 0.793353340291161 -0.608761429008817 0.0
  outer loop
    vertex 680.601241892418 -439.636817221535 38.5000000064578
    vertex 680.760160515016 -439.429710440349 35.5000000064578
    vertex 680.760160515016 -439.429710440349 38.5000000064578
  endloop
endfacet
facet normal 0.923879532511245 -0.382683432365191 0.0
  outer loop
    vertex 680.601241892418 -439.636817221535 35.5000000064578
    vertex 680.501341469913 -439.877998176433 38.5000000064578
    vertex 680.501341469913 -439.877998176433 35.5000000064578
  endloop
endfacet
facet normal 0.923879532511245 -0.382683432365191 0.0
  outer loop
    vertex 680.501341469913 -439.877998176433 38.5000000064578
    vertex 680.601241892418 -439.636817221535 35.5000000064578
    vertex 680.601241892418 -439.636817221535 38.5000000064578
  endloop
endfacet
facet normal 0.608761429008732 -0.793353340291227 0.0
  outer loop
    vertex 680.967267296203 -475.270791817751 38.5000000064578
    vertex 680.760160515016 -475.429710440349 35.5000000064578
    vertex 680.967267296203 -475.270791817751 35.5000000064578
  endloop
endfacet
facet normal 0.608761429008732 -0.793353340291227 0.0
  outer loop
    vertex 680.760160515016 -475.429710440349 35.5000000064578
    vertex 680.967267296203 -475.270791817751 38.5000000064578
    vertex 680.760160515016 -475.429710440349 38.5000000064578
  endloop
endfacet
facet normal 0.991444861373833 -0.130526192219876 0.0
  outer loop
    vertex 680.501341469913 -439.877998176433 35.5000000064578
    vertex 680.467267296203 -440.136817221535 38.5000000064578
    vertex 680.467267296203 -440.136817221535 35.5000000064578
  endloop
endfacet
facet normal 0.991444861373833 -0.130526192219876 0.0
  outer loop
    vertex 680.467267296203 -440.136817221535 38.5000000064578
    vertex 680.501341469913 -439.877998176433 35.5000000064578
    vertex 680.501341469913 -439.877998176433 38.5000000064578
  endloop
endfacet
facet normal 0.793353340291161 0.608761429008817 0.0
  outer loop
    vertex 680.601241892418 -440.636817221535 35.5000000064578
    vertex 680.760160515016 -440.843924002722 38.5000000064578
    vertex 680.760160515016 -440.843924002722 35.5000000064578
  endloop
endfacet
facet normal 0.793353340291161 0.608761429008817 0.0
  outer loop
    vertex 680.760160515016 -440.843924002722 38.5000000064578
    vertex 680.601241892418 -440.636817221535 35.5000000064578
    vertex 680.601241892418 -440.636817221535 38.5000000064578
  endloop
endfacet
facet normal 0.923879532511245 0.382683432365191 0.0
  outer loop
    vertex 680.501341469913 -440.395636266638 35.5000000064578
    vertex 680.601241892418 -440.636817221535 38.5000000064578
    vertex 680.601241892418 -440.636817221535 35.5000000064578
  endloop
endfacet
facet normal 0.923879532511245 0.382683432365191 0.0
  outer loop
    vertex 680.601241892418 -440.636817221535 38.5000000064578
    vertex 680.501341469913 -440.395636266638 35.5000000064578
    vertex 680.501341469913 -440.395636266638 38.5000000064578
  endloop
endfacet
facet normal 0.793353340291161 -0.608761429008817 0.0
  outer loop
    vertex 680.760160515016 -475.429710440349 35.5000000064578
    vertex 680.601241892418 -475.636817221536 38.5000000064578
    vertex 680.601241892418 -475.636817221536 35.5000000064578
  endloop
endfacet
facet normal 0.793353340291161 -0.608761429008817 0.0
  outer loop
    vertex 680.601241892418 -475.636817221536 38.5000000064578
    vertex 680.760160515016 -475.429710440349 35.5000000064578
    vertex 680.760160515016 -475.429710440349 38.5000000064578
  endloop
endfacet
facet normal 0.38268343236504 -0.923879532511308 0.0
  outer loop
    vertex 681.2084482511 -439.170891395246 38.5000000064578
    vertex 680.967267296203 -439.270791817751 35.5000000064578
    vertex 681.2084482511 -439.170891395246 35.5000000064578
  endloop
endfacet
facet normal 0.38268343236504 -0.923879532511308 0.0
  outer loop
    vertex 680.967267296203 -439.270791817751 35.5000000064578
    vertex 681.2084482511 -439.170891395246 38.5000000064578
    vertex 680.967267296203 -439.270791817751 38.5000000064578
  endloop
endfacet
facet normal 0.608761429008903 0.793353340291096 0.0
  outer loop
    vertex 680.760160515016 -440.843924002722 38.5000000064578
    vertex 680.967267296202 -441.00284262532 35.5000000064578
    vertex 680.760160515016 -440.843924002722 35.5000000064578
  endloop
endfacet
facet normal 0.608761429008903 0.793353340291096 0.0
  outer loop
    vertex 680.967267296202 -441.00284262532 35.5000000064578
    vertex 680.760160515016 -440.843924002722 38.5000000064578
    vertex 680.967267296202 -441.00284262532 38.5000000064578
  endloop
endfacet
facet normal 0.991444861373833 -0.130526192219876 0.0
  outer loop
    vertex 680.501341469913 -475.877998176433 35.5000000064578
    vertex 680.467267296203 -476.136817221536 38.5000000064578
    vertex 680.467267296203 -476.136817221536 35.5000000064578
  endloop
endfacet
facet normal 0.991444861373833 -0.130526192219876 0.0
  outer loop
    vertex 680.467267296203 -476.136817221536 38.5000000064578
    vertex 680.501341469913 -475.877998176433 35.5000000064578
    vertex 680.501341469913 -475.877998176433 38.5000000064578
  endloop
endfacet
facet normal 0.382683432364914 0.923879532511359 0.0
  outer loop
    vertex 680.967267296202 -477.00284262532 38.5000000064578
    vertex 681.2084482511 -477.102743047825 35.5000000064578
    vertex 680.967267296202 -477.00284262532 35.5000000064578
  endloop
endfacet
facet normal 0.382683432364914 0.923879532511359 0.0
  outer loop
    vertex 681.2084482511 -477.102743047825 35.5000000064578
    vertex 680.967267296202 -477.00284262532 38.5000000064578
    vertex 681.2084482511 -477.102743047825 38.5000000064578
  endloop
endfacet
facet normal 0.382683432364914 0.923879532511359 0.0
  outer loop
    vertex 680.967267296202 -441.00284262532 38.5000000064578
    vertex 681.2084482511 -441.102743047825 35.5000000064578
    vertex 680.967267296202 -441.00284262532 35.5000000064578
  endloop
endfacet
facet normal 0.382683432364914 0.923879532511359 0.0
  outer loop
    vertex 681.2084482511 -441.102743047825 35.5000000064578
    vertex 680.967267296202 -441.00284262532 38.5000000064578
    vertex 681.2084482511 -441.102743047825 38.5000000064578
  endloop
endfacet
facet normal -0.130526192220073 0.991444861373808 0.0
  outer loop
    vertex 681.467267296203 -477.136817221535 38.5000000064578
    vertex 681.726086341305 -477.102743047825 35.5000000064578
    vertex 681.467267296203 -477.136817221535 35.5000000064578
  endloop
endfacet
facet normal -0.130526192220073 0.991444861373808 0.0
  outer loop
    vertex 681.726086341305 -477.102743047825 35.5000000064578
    vertex 681.467267296203 -477.136817221535 38.5000000064578
    vertex 681.726086341305 -477.102743047825 38.5000000064578
  endloop
endfacet
facet normal -0.38268343236504 0.923879532511308 0.0
  outer loop
    vertex 681.726086341305 -477.102743047825 38.5000000064578
    vertex 681.967267296202 -477.00284262532 35.5000000064578
    vertex 681.726086341305 -477.102743047825 35.5000000064578
  endloop
endfacet
facet normal -0.38268343236504 0.923879532511308 0.0
  outer loop
    vertex 681.967267296202 -477.00284262532 35.5000000064578
    vertex 681.726086341305 -477.102743047825 38.5000000064578
    vertex 681.967267296202 -477.00284262532 38.5000000064578
  endloop
endfacet
facet normal 0.923879532511245 -0.382683432365191 0.0
  outer loop
    vertex 680.601241892418 -475.636817221536 35.5000000064578
    vertex 680.501341469913 -475.877998176433 38.5000000064578
    vertex 680.501341469913 -475.877998176433 35.5000000064578
  endloop
endfacet
facet normal 0.923879532511245 -0.382683432365191 0.0
  outer loop
    vertex 680.501341469913 -475.877998176433 38.5000000064578
    vertex 680.601241892418 -475.636817221536 35.5000000064578
    vertex 680.601241892418 -475.636817221536 38.5000000064578
  endloop
endfacet
facet normal 0.608761429008903 0.793353340291096 0.0
  outer loop
    vertex 680.760160515016 -476.843924002722 38.5000000064578
    vertex 680.967267296202 -477.00284262532 35.5000000064578
    vertex 680.760160515016 -476.843924002722 35.5000000064578
  endloop
endfacet
facet normal 0.608761429008903 0.793353340291096 0.0
  outer loop
    vertex 680.967267296202 -477.00284262532 35.5000000064578
    vertex 680.760160515016 -476.843924002722 38.5000000064578
    vertex 680.967267296202 -477.00284262532 38.5000000064578
  endloop
endfacet
facet normal -0.991444861373833 0.130526192219876 0.0
  outer loop
    vertex 682.467267296203 -476.136817221536 38.5000000064578
    vertex 682.433193122492 -476.395636266638 35.5000000064578
    vertex 682.433193122492 -476.395636266638 38.5000000064578
  endloop
endfacet
facet normal -0.991444861373833 0.130526192219876 0.0
  outer loop
    vertex 682.433193122492 -476.395636266638 35.5000000064578
    vertex 682.467267296203 -476.136817221536 38.5000000064578
    vertex 682.467267296203 -476.136817221536 35.5000000064578
  endloop
endfacet
facet normal -0.923879532511245 -0.382683432365191 -0.0
  outer loop
    vertex 682.333292699987 -475.636817221536 38.5000000064578
    vertex 682.433193122492 -475.877998176433 35.5000000064578
    vertex 682.433193122492 -475.877998176433 38.5000000064578
  endloop
endfacet
facet normal -0.923879532511245 -0.382683432365191 -0.0
  outer loop
    vertex 682.433193122492 -475.877998176433 35.5000000064578
    vertex 682.333292699987 -475.636817221536 38.5000000064578
    vertex 682.333292699987 -475.636817221536 35.5000000064578
  endloop
endfacet
facet normal -0.608761429008903 -0.793353340291096 -0.0
  outer loop
    vertex 682.174374077389 -475.429710440349 38.5000000064578
    vertex 681.967267296203 -475.270791817751 35.5000000064578
    vertex 682.174374077389 -475.429710440349 35.5000000064578
  endloop
endfacet
facet normal -0.608761429008903 -0.793353340291096 -0.0
  outer loop
    vertex 681.967267296203 -475.270791817751 35.5000000064578
    vertex 682.174374077389 -475.429710440349 38.5000000064578
    vertex 681.967267296203 -475.270791817751 38.5000000064578
  endloop
endfacet
facet normal -0.793353340291161 -0.608761429008817 -0.0
  outer loop
    vertex 682.174374077389 -475.429710440349 38.5000000064578
    vertex 682.333292699987 -475.636817221536 35.5000000064578
    vertex 682.333292699987 -475.636817221536 38.5000000064578
  endloop
endfacet
facet normal -0.793353340291161 -0.608761429008817 -0.0
  outer loop
    vertex 682.333292699987 -475.636817221536 35.5000000064578
    vertex 682.174374077389 -475.429710440349 38.5000000064578
    vertex 682.174374077389 -475.429710440349 35.5000000064578
  endloop
endfacet
facet normal -0.382683432364914 -0.923879532511359 -0.0
  outer loop
    vertex 681.967267296203 -475.270791817751 38.5000000064578
    vertex 681.726086341305 -475.170891395246 35.5000000064578
    vertex 681.967267296203 -475.270791817751 35.5000000064578
  endloop
endfacet
facet normal -0.382683432364914 -0.923879532511359 -0.0
  outer loop
    vertex 681.726086341305 -475.170891395246 35.5000000064578
    vertex 681.967267296203 -475.270791817751 38.5000000064578
    vertex 681.726086341305 -475.170891395246 38.5000000064578
  endloop
endfacet
facet normal -0.991444861373833 -0.130526192219876 -0.0
  outer loop
    vertex 682.433193122492 -475.877998176433 38.5000000064578
    vertex 682.467267296203 -476.136817221536 35.5000000064578
    vertex 682.467267296203 -476.136817221536 38.5000000064578
  endloop
endfacet
facet normal -0.991444861373833 -0.130526192219876 -0.0
  outer loop
    vertex 682.467267296203 -476.136817221536 35.5000000064578
    vertex 682.433193122492 -475.877998176433 38.5000000064578
    vertex 682.433193122492 -475.877998176433 35.5000000064578
  endloop
endfacet
facet normal 0.0 0.0 1.0
  outer loop
    vertex 683.467267296203 -474.636817221536 37.5000000064578
    vertex 679.467267296203 -441.636817221535 37.5000000064578
    vertex 679.467267296203 -474.636817221536 37.5000000064578
  endloop
endfacet
facet normal 0.0 0.0 1.0
  outer loop
    vertex 679.467267296203 -441.636817221535 37.5000000064578
    vertex 683.467267296203 -474.636817221536 37.5000000064578
    vertex 683.467267296203 -441.636817221535 37.5000000064578
  endloop
endfacet
facet normal 0.0 0.0 1.0
  outer loop
    vertex 677.967267296202 -477.636817221536 38.5000000064578
    vertex 680.760160515016 -476.843924002722 38.5000000064578
    vertex 677.967267296202 -474.636817221536 38.5000000064578
  endloop
endfacet
facet normal 0.0 0.0 1.0
  outer loop
    vertex 680.760160515016 -476.843924002722 38.5000000064578
    vertex 677.967267296202 -477.636817221536 38.5000000064578
    vertex 680.967267296202 -477.00284262532 38.5000000064578
  endloop
endfacet
facet normal 0.0 0.0 1.0
  outer loop
    vertex 680.967267296202 -477.00284262532 38.5000000064578
    vertex 677.967267296202 -477.636817221536 38.5000000064578
    vertex 681.2084482511 -477.102743047825 38.5000000064578
  endloop
endfacet
facet normal 0.0 0.0 1.0
  outer loop
    vertex 681.2084482511 -477.102743047825 38.5000000064578
    vertex 677.967267296202 -477.636817221536 38.5000000064578
    vertex 684.967267296203 -477.636817221536 38.5000000064578
  endloop
endfacet
facet normal 0.0 0.0 1.0
  outer loop
    vertex 677.967267296202 -474.636817221536 38.5000000064578
    vertex 680.760160515016 -476.843924002722 38.5000000064578
    vertex 680.601241892418 -476.636817221536 38.5000000064578
  endloop
endfacet
facet normal 0.0 0.0 1.0
  outer loop
    vertex 677.967267296202 -474.636817221536 38.5000000064578
    vertex 680.601241892418 -476.636817221536 38.5000000064578
    vertex 679.467267296203 -474.636817221536 38.5000000064578
  endloop
endfacet
facet normal 0.0 0.0 1.0
  outer loop
    vertex 679.467267296203 -474.636817221536 38.5000000064578
    vertex 680.601241892418 -476.636817221536 38.5000000064578
    vertex 680.501341469913 -476.395636266638 38.5000000064578
  endloop
endfacet
facet normal 0.0 0.0 1.0
  outer loop
    vertex 679.467267296203 -474.636817221536 38.5000000064578
    vertex 680.501341469913 -476.395636266638 38.5000000064578
    vertex 680.467267296203 -476.136817221536 38.5000000064578
  endloop
endfacet
facet normal 0.0 0.0 1.0
  outer loop
    vertex 681.2084482511 -477.102743047825 38.5000000064578
    vertex 684.967267296203 -477.636817221536 38.5000000064578
    vertex 681.467267296203 -477.136817221535 38.5000000064578
  endloop
endfacet
facet normal 0.0 0.0 1.0
  outer loop
    vertex 681.467267296203 -477.136817221535 38.5000000064578
    vertex 684.967267296203 -477.636817221536 38.5000000064578
    vertex 681.726086341305 -477.102743047825 38.5000000064578
  endloop
endfacet
facet normal 0.0 0.0 1.0
  outer loop
    vertex 681.726086341305 -477.102743047825 38.5000000064578
    vertex 684.967267296203 -477.636817221536 38.5000000064578
    vertex 681.967267296202 -477.00284262532 38.5000000064578
  endloop
endfacet
facet normal 0.0 0.0 1.0
  outer loop
    vertex 681.967267296202 -477.00284262532 38.5000000064578
    vertex 684.967267296203 -477.636817221536 38.5000000064578
    vertex 682.174374077389 -476.843924002722 38.5000000064578
  endloop
endfacet
facet normal 0.0 0.0 1.0
  outer loop
    vertex 682.174374077389 -476.843924002722 38.5000000064578
    vertex 684.967267296203 -477.636817221536 38.5000000064578
    vertex 682.333292699987 -476.636817221536 38.5000000064578
  endloop
endfacet
facet normal 0.0 0.0 1.0
  outer loop
    vertex 682.333292699987 -476.636817221536 38.5000000064578
    vertex 684.967267296203 -477.636817221536 38.5000000064578
    vertex 682.433193122492 -476.395636266638 38.5000000064578
  endloop
endfacet
facet normal 0.0 0.0 1.0
  outer loop
    vertex 682.433193122492 -476.395636266638 38.5000000064578
    vertex 684.967267296203 -477.636817221536 38.5000000064578
    vertex 682.467267296203 -476.136817221536 38.5000000064578
  endloop
endfacet
facet normal 0.0 0.0 1.0
  outer loop
    vertex 682.467267296203 -476.136817221536 38.5000000064578
    vertex 684.967267296203 -477.636817221536 38.5000000064578
    vertex 683.467267296203 -474.636817221536 38.5000000064578
  endloop
endfacet
facet normal 0.0 0.0 1.0
  outer loop
    vertex 683.467267296203 -474.636817221536 38.5000000064578
    vertex 684.967267296203 -477.636817221536 38.5000000064578
    vertex 684.967267296203 -474.636817221536 38.5000000064578
  endloop
endfacet
facet normal 0.0 0.0 1.0
  outer loop
    vertex 679.467267296203 -474.636817221536 38.5000000064578
    vertex 681.2084482511 -475.170891395246 38.5000000064578
    vertex 683.467267296203 -474.636817221536 38.5000000064578
  endloop
endfacet
facet normal 0.0 0.0 1.0
  outer loop
    vertex 681.2084482511 -475.170891395246 38.5000000064578
    vertex 679.467267296203 -474.636817221536 38.5000000064578
    vertex 680.967267296203 -475.270791817751 38.5000000064578
  endloop
endfacet
facet normal 0.0 0.0 1.0
  outer loop
    vertex 680.967267296203 -475.270791817751 38.5000000064578
    vertex 679.467267296203 -474.636817221536 38.5000000064578
    vertex 680.760160515016 -475.429710440349 38.5000000064578
  endloop
endfacet
facet normal 0.0 0.0 1.0
  outer loop
    vertex 680.760160515016 -475.429710440349 38.5000000064578
    vertex 679.467267296203 -474.636817221536 38.5000000064578
    vertex 680.601241892418 -475.636817221536 38.5000000064578
  endloop
endfacet
facet normal 0.0 0.0 1.0
  outer loop
    vertex 680.601241892418 -475.636817221536 38.5000000064578
    vertex 679.467267296203 -474.636817221536 38.5000000064578
    vertex 680.501341469913 -475.877998176433 38.5000000064578
  endloop
endfacet
facet normal 0.0 0.0 1.0
  outer loop
    vertex 680.501341469913 -475.877998176433 38.5000000064578
    vertex 679.467267296203 -474.636817221536 38.5000000064578
    vertex 680.467267296203 -476.136817221536 38.5000000064578
  endloop
endfacet
facet normal 0.0 0.0 1.0
  outer loop
    vertex 683.467267296203 -474.636817221536 38.5000000064578
    vertex 681.2084482511 -475.170891395246 38.5000000064578
    vertex 681.467267296203 -475.136817221535 38.5000000064578
  endloop
endfacet
facet normal 0.0 0.0 1.0
  outer loop
    vertex 683.467267296203 -474.636817221536 38.5000000064578
    vertex 681.467267296203 -475.136817221535 38.5000000064578
    vertex 681.726086341305 -475.170891395246 38.5000000064578
  endloop
endfacet
facet normal 0.0 0.0 1.0
  outer loop
    vertex 683.467267296203 -474.636817221536 38.5000000064578
    vertex 681.726086341305 -475.170891395246 38.5000000064578
    vertex 681.967267296203 -475.270791817751 38.5000000064578
  endloop
endfacet
facet normal 0.0 0.0 1.0
  outer loop
    vertex 683.467267296203 -474.636817221536 38.5000000064578
    vertex 681.967267296203 -475.270791817751 38.5000000064578
    vertex 682.174374077389 -475.429710440349 38.5000000064578
  endloop
endfacet
facet normal 0.0 0.0 1.0
  outer loop
    vertex 683.467267296203 -474.636817221536 38.5000000064578
    vertex 682.174374077389 -475.429710440349 38.5000000064578
    vertex 682.333292699987 -475.636817221536 38.5000000064578
  endloop
endfacet
facet normal 0.0 0.0 1.0
  outer loop
    vertex 683.467267296203 -474.636817221536 38.5000000064578
    vertex 682.333292699987 -475.636817221536 38.5000000064578
    vertex 682.433193122492 -475.877998176433 38.5000000064578
  endloop
endfacet
facet normal 0.0 0.0 1.0
  outer loop
    vertex 683.467267296203 -474.636817221536 38.5000000064578
    vertex 682.433193122492 -475.877998176433 38.5000000064578
    vertex 682.467267296203 -476.136817221536 38.5000000064578
  endloop
endfacet
facet normal 0.0 1.0 0.0
  outer loop
    vertex 679.467267296203 -474.636817221536 38.5000000064578
    vertex 683.467267296203 -474.636817221536 37.5000000064578
    vertex 679.467267296203 -474.636817221536 37.5000000064578
  endloop
endfacet
facet normal 0.0 1.0 0.0
  outer loop
    vertex 683.467267296203 -474.636817221536 37.5000000064578
    vertex 679.467267296203 -474.636817221536 38.5000000064578
    vertex 683.467267296203 -474.636817221536 38.5000000064578
  endloop
endfacet
facet normal 0.0 0.0 1.0
  outer loop
    vertex 679.467267296203 -441.636817221535 38.5000000064578
    vertex 680.501341469913 -440.395636266638 38.5000000064578
    vertex 680.467267296203 -440.136817221535 38.5000000064578
  endloop
endfacet
facet normal 0.0 0.0 1.0
  outer loop
    vertex 680.501341469913 -440.395636266638 38.5000000064578
    vertex 679.467267296203 -441.636817221535 38.5000000064578
    vertex 680.601241892418 -440.636817221535 38.5000000064578
  endloop
endfacet
facet normal 0.0 0.0 1.0
  outer loop
    vertex 680.601241892418 -440.636817221535 38.5000000064578
    vertex 679.467267296203 -441.636817221535 38.5000000064578
    vertex 680.760160515016 -440.843924002722 38.5000000064578
  endloop
endfacet
facet normal 0.0 0.0 1.0
  outer loop
    vertex 680.760160515016 -440.843924002722 38.5000000064578
    vertex 679.467267296203 -441.636817221535 38.5000000064578
    vertex 680.967267296202 -441.00284262532 38.5000000064578
  endloop
endfacet
facet normal 0.0 0.0 1.0
  outer loop
    vertex 680.967267296202 -441.00284262532 38.5000000064578
    vertex 679.467267296203 -441.636817221535 38.5000000064578
    vertex 681.2084482511 -441.102743047825 38.5000000064578
  endloop
endfacet
facet normal 0.0 0.0 1.0
  outer loop
    vertex 681.2084482511 -441.102743047825 38.5000000064578
    vertex 679.467267296203 -441.636817221535 38.5000000064578
    vertex 683.467267296203 -441.636817221535 38.5000000064578
  endloop
endfacet
facet normal 0.0 0.0 1.0
  outer loop
    vertex 681.2084482511 -441.102743047825 38.5000000064578
    vertex 683.467267296203 -441.636817221535 38.5000000064578
    vertex 681.467267296203 -441.136817221536 38.5000000064578
  endloop
endfacet
facet normal 0.0 0.0 1.0
  outer loop
    vertex 681.467267296203 -441.136817221536 38.5000000064578
    vertex 683.467267296203 -441.636817221535 38.5000000064578
    vertex 681.726086341305 -441.102743047825 38.5000000064578
  endloop
endfacet
facet normal 0.0 0.0 1.0
  outer loop
    vertex 681.726086341305 -441.102743047825 38.5000000064578
    vertex 683.467267296203 -441.636817221535 38.5000000064578
    vertex 681.967267296202 -441.00284262532 38.5000000064578
  endloop
endfacet
facet normal 0.0 0.0 1.0
  outer loop
    vertex 681.967267296202 -441.00284262532 38.5000000064578
    vertex 683.467267296203 -441.636817221535 38.5000000064578
    vertex 682.174374077389 -440.843924002722 38.5000000064578
  endloop
endfacet
facet normal 0.0 0.0 1.0
  outer loop
    vertex 682.174374077389 -440.843924002722 38.5000000064578
    vertex 683.467267296203 -441.636817221535 38.5000000064578
    vertex 682.333292699987 -440.636817221535 38.5000000064578
  endloop
endfacet
facet normal 0.0 0.0 1.0
  outer loop
    vertex 682.333292699987 -440.636817221535 38.5000000064578
    vertex 683.467267296203 -441.636817221535 38.5000000064578
    vertex 682.433193122492 -440.395636266638 38.5000000064578
  endloop
endfacet
facet normal 0.0 0.0 1.0
  outer loop
    vertex 682.433193122492 -440.395636266638 38.5000000064578
    vertex 683.467267296203 -441.636817221535 38.5000000064578
    vertex 682.467267296203 -440.136817221535 38.5000000064578
  endloop
endfacet
facet normal 0.0 0.0 1.0
  outer loop
    vertex 679.467267296203 -441.636817221535 38.5000000064578
    vertex 677.967267296202 -438.636817221535 38.5000000064578
    vertex 677.967267296202 -441.636817221535 38.5000000064578
  endloop
endfacet
facet normal 0.0 0.0 1.0
  outer loop
    vertex 677.967267296202 -438.636817221535 38.5000000064578
    vertex 679.467267296203 -441.636817221535 38.5000000064578
    vertex 680.601241892418 -439.636817221535 38.5000000064578
  endloop
endfacet
facet normal 0.0 0.0 1.0
  outer loop
    vertex 677.967267296202 -438.636817221535 38.5000000064578
    vertex 680.601241892418 -439.636817221535 38.5000000064578
    vertex 680.760160515016 -439.429710440349 38.5000000064578
  endloop
endfacet
facet normal 0.0 0.0 1.0
  outer loop
    vertex 677.967267296202 -438.636817221535 38.5000000064578
    vertex 680.760160515016 -439.429710440349 38.5000000064578
    vertex 680.967267296203 -439.270791817751 38.5000000064578
  endloop
endfacet
facet normal 0.0 0.0 1.0
  outer loop
    vertex 677.967267296202 -438.636817221535 38.5000000064578
    vertex 680.967267296203 -439.270791817751 38.5000000064578
    vertex 681.2084482511 -439.170891395246 38.5000000064578
  endloop
endfacet
facet normal 0.0 0.0 1.0
  outer loop
    vertex 677.967267296202 -438.636817221535 38.5000000064578
    vertex 681.2084482511 -439.170891395246 38.5000000064578
    vertex 684.967267296203 -438.636817221535 38.5000000064578
  endloop
endfacet
facet normal 0.0 0.0 1.0
  outer loop
    vertex 680.601241892418 -439.636817221535 38.5000000064578
    vertex 679.467267296203 -441.636817221535 38.5000000064578
    vertex 680.501341469913 -439.877998176433 38.5000000064578
  endloop
endfacet
facet normal 0.0 0.0 1.0
  outer loop
    vertex 680.501341469913 -439.877998176433 38.5000000064578
    vertex 679.467267296203 -441.636817221535 38.5000000064578
    vertex 680.467267296203 -440.136817221535 38.5000000064578
  endloop
endfacet
facet normal 0.0 0.0 1.0
  outer loop
    vertex 684.967267296203 -438.636817221535 38.5000000064578
    vertex 681.2084482511 -439.170891395246 38.5000000064578
    vertex 681.467267296203 -439.136817221536 38.5000000064578
  endloop
endfacet
facet normal 0.0 0.0 1.0
  outer loop
    vertex 684.967267296203 -438.636817221535 38.5000000064578
    vertex 681.467267296203 -439.136817221536 38.5000000064578
    vertex 681.726086341305 -439.170891395246 38.5000000064578
  endloop
endfacet
facet normal 0.0 0.0 1.0
  outer loop
    vertex 684.967267296203 -438.636817221535 38.5000000064578
    vertex 681.726086341305 -439.170891395246 38.5000000064578
    vertex 681.967267296203 -439.270791817751 38.5000000064578
  endloop
endfacet
facet normal 0.0 0.0 1.0
  outer loop
    vertex 684.967267296203 -438.636817221535 38.5000000064578
    vertex 681.967267296203 -439.270791817751 38.5000000064578
    vertex 682.174374077389 -439.429710440349 38.5000000064578
  endloop
endfacet
facet normal 0.0 0.0 1.0
  outer loop
    vertex 684.967267296203 -438.636817221535 38.5000000064578
    vertex 682.174374077389 -439.429710440349 38.5000000064578
    vertex 682.333292699987 -439.636817221535 38.5000000064578
  endloop
endfacet
facet normal 0.0 0.0 1.0
  outer loop
    vertex 684.967267296203 -438.636817221535 38.5000000064578
    vertex 682.333292699987 -439.636817221535 38.5000000064578
    vertex 682.433193122492 -439.877998176433 38.5000000064578
  endloop
endfacet
facet normal 0.0 0.0 1.0
  outer loop
    vertex 684.967267296203 -438.636817221535 38.5000000064578
    vertex 682.433193122492 -439.877998176433 38.5000000064578
    vertex 682.467267296203 -440.136817221535 38.5000000064578
  endloop
endfacet
facet normal 0.0 0.0 1.0
  outer loop
    vertex 684.967267296203 -438.636817221535 38.5000000064578
    vertex 682.467267296203 -440.136817221535 38.5000000064578
    vertex 683.467267296203 -441.636817221535 38.5000000064578
  endloop
endfacet
facet normal 0.0 0.0 1.0
  outer loop
    vertex 684.967267296203 -438.636817221535 38.5000000064578
    vertex 683.467267296203 -441.636817221535 38.5000000064578
    vertex 684.967267296203 -441.636817221535 38.5000000064578
  endloop
endfacet
facet normal 0.0 -1.0 0.0
  outer loop
    vertex 683.467267296203 -441.636817221535 38.5000000064578
    vertex 679.467267296203 -441.636817221535 37.5000000064578
    vertex 683.467267296203 -441.636817221535 37.5000000064578
  endloop
endfacet
facet normal 0.0 -1.0 0.0
  outer loop
    vertex 679.467267296203 -441.636817221535 37.5000000064578
    vertex 683.467267296203 -441.636817221535 38.5000000064578
    vertex 679.467267296203 -441.636817221535 38.5000000064578
  endloop
endfacet
endsolid GovernorG4
