M48
METRIC,LZ,000.000
;FILE_FORMAT=3:3
;TYPE=PLATED
;Layer: PTH_Through
;EasyEDA v6.5.34, 2023-10-05 20:18:03
;10
;Gerber Generator version 0.2
;Holesize 1 = 0.310 mm
T01C0.310
;Holesize 2 = 0.501 mm
T02C0.501
;Holesize 3 = 1.200 mm
T03C1.200
;Holesize 4 = 1.501 mm
T04C1.501
%
G05
G90
T01
X024511Y131150
X031369Y128016
X035052Y131699
X038227Y134620
X028067Y130048
X026035Y126746
X026289Y120396
X018161Y116332
X025400Y123571
X023114Y133477
X031496Y133858
X022606Y128143
X025273Y125476
X034163Y124460
X028956Y117729
X022860Y117856
T02
X026416Y115316
X023876Y115316
T03
X012700Y116327
X010160Y116337
X015240Y116327
T04
X013271Y126936
X013398Y136969
X034798Y116459
X034798Y121539
M30
