G04 Layer: TopSilkscreenLayer*
G04 EasyEDA v6.5.34, 2023-10-05 20:18:03*
G04 Gerber Generator version 0.2*
G04 Scale: 100 percent, Rotated: No, Reflected: No *
G04 Dimensions in millimeters *
G04 leading zeros omitted , absolute positions ,4 integer and 5 decimal *
%FSLAX45Y45*%
%MOMM*%

%ADD10C,0.2032*%
%ADD11C,0.2030*%
%ADD12C,0.2540*%
%ADD13C,0.1524*%
%ADD14C,0.4000*%
%ADD15C,0.0199*%

%LPD*%
D10*
X839215Y12966700D02*
G01*
X982471Y12966700D01*
X839215Y12966700D02*
G01*
X839215Y13028168D01*
X846073Y13048487D01*
X852931Y13055345D01*
X866394Y13062204D01*
X880110Y13062204D01*
X893826Y13055345D01*
X900684Y13048487D01*
X907542Y13028168D01*
X907542Y12966700D02*
G01*
X907542Y13028168D01*
X914145Y13048487D01*
X921004Y13055345D01*
X934720Y13062204D01*
X955039Y13062204D01*
X968755Y13055345D01*
X975613Y13048487D01*
X982471Y13028168D01*
X982471Y12966700D01*
X839215Y13161771D02*
G01*
X982471Y13107162D01*
X839215Y13161771D02*
G01*
X982471Y13216128D01*
X934720Y13127481D02*
G01*
X934720Y13195807D01*
X839215Y13309092D02*
G01*
X982471Y13309092D01*
X839215Y13261339D02*
G01*
X839215Y13356589D01*
X839215Y13449300D02*
G01*
X982471Y13449300D01*
X839215Y13401802D02*
G01*
X839215Y13497052D01*
X3582161Y13576300D02*
G01*
X3677665Y13576300D01*
X3582161Y13576300D02*
G01*
X3677665Y13640054D01*
X3582161Y13640054D02*
G01*
X3677665Y13640054D01*
X3636518Y13670026D02*
G01*
X3636518Y13751813D01*
X3582161Y13781786D02*
G01*
X3677665Y13781786D01*
X3582161Y13781786D02*
G01*
X3582161Y13840968D01*
X3627627Y13781786D02*
G01*
X3627627Y13818107D01*
X3582161Y13870939D02*
G01*
X3677665Y13870939D01*
X3582161Y13870939D02*
G01*
X3582161Y13929868D01*
X3627627Y13870939D02*
G01*
X3627627Y13907262D01*
X3677665Y13870939D02*
G01*
X3677665Y13929868D01*
X3582161Y13991844D02*
G01*
X3677665Y13991844D01*
X3582161Y13959839D02*
G01*
X3582161Y14023594D01*
X1880362Y13538200D02*
G01*
X1975865Y13538200D01*
X1880362Y13538200D02*
G01*
X1975865Y13601954D01*
X1880362Y13601954D02*
G01*
X1975865Y13601954D01*
X1934718Y13631926D02*
G01*
X1934718Y13713713D01*
X1880362Y13743686D02*
G01*
X1975865Y13743686D01*
X1880362Y13743686D02*
G01*
X1880362Y13802868D01*
X1925828Y13743686D02*
G01*
X1925828Y13780007D01*
X1880362Y13832839D02*
G01*
X1975865Y13832839D01*
X1880362Y13832839D02*
G01*
X1880362Y13891768D01*
X1925828Y13832839D02*
G01*
X1925828Y13869162D01*
X1975865Y13832839D02*
G01*
X1975865Y13891768D01*
X1880362Y13953744D02*
G01*
X1975865Y13953744D01*
X1880362Y13921739D02*
G01*
X1880362Y13985494D01*
X2171954Y12573000D02*
G01*
X2219706Y12573000D01*
X2171954Y12573000D02*
G01*
X2171954Y12589002D01*
X2174240Y12595605D01*
X2178811Y12600178D01*
X2183384Y12602463D01*
X2190241Y12604750D01*
X2201672Y12604750D01*
X2208529Y12602463D01*
X2212847Y12600178D01*
X2217420Y12595605D01*
X2219706Y12589002D01*
X2219706Y12573000D01*
X2171954Y12619736D02*
G01*
X2174240Y12622021D01*
X2171954Y12624308D01*
X2169668Y12622021D01*
X2171954Y12619736D01*
X2187956Y12622021D02*
G01*
X2219706Y12622021D01*
X2187956Y12650724D02*
G01*
X2190241Y12646152D01*
X2194813Y12641579D01*
X2201672Y12639294D01*
X2206243Y12639294D01*
X2212847Y12641579D01*
X2217420Y12646152D01*
X2219706Y12650724D01*
X2219706Y12657581D01*
X2217420Y12662154D01*
X2212847Y12666726D01*
X2206243Y12669012D01*
X2201672Y12669012D01*
X2194813Y12666726D01*
X2190241Y12662154D01*
X2187956Y12657581D01*
X2187956Y12650724D01*
X2171954Y12711176D02*
G01*
X2219706Y12711176D01*
X2194813Y12711176D02*
G01*
X2190241Y12706604D01*
X2187956Y12702031D01*
X2187956Y12695174D01*
X2190241Y12690602D01*
X2194813Y12686284D01*
X2201672Y12683997D01*
X2206243Y12683997D01*
X2212847Y12686284D01*
X2217420Y12690602D01*
X2219706Y12695174D01*
X2219706Y12702031D01*
X2217420Y12706604D01*
X2212847Y12711176D01*
X2201672Y12726162D02*
G01*
X2201672Y12753339D01*
X2197100Y12753339D01*
X2192527Y12751308D01*
X2190241Y12749021D01*
X2187956Y12744450D01*
X2187956Y12737592D01*
X2190241Y12733020D01*
X2194813Y12728447D01*
X2201672Y12726162D01*
X2206243Y12726162D01*
X2212847Y12728447D01*
X2217420Y12733020D01*
X2219706Y12737592D01*
X2219706Y12744450D01*
X2217420Y12749021D01*
X2212847Y12753339D01*
X2854197Y12534900D02*
G01*
X2851911Y12539471D01*
X2845054Y12546329D01*
X2892806Y12546329D01*
X2845054Y12574778D02*
G01*
X2847340Y12568174D01*
X2854197Y12563602D01*
X2865627Y12561315D01*
X2872486Y12561315D01*
X2883661Y12563602D01*
X2890520Y12568174D01*
X2892806Y12574778D01*
X2892806Y12579350D01*
X2890520Y12586208D01*
X2883661Y12590779D01*
X2872486Y12593065D01*
X2865627Y12593065D01*
X2854197Y12590779D01*
X2847340Y12586208D01*
X2845054Y12579350D01*
X2845054Y12574778D01*
X2845054Y12608052D02*
G01*
X2892806Y12608052D01*
X2845054Y12639802D02*
G01*
X2877058Y12608052D01*
X2865627Y12619481D02*
G01*
X2892806Y12639802D01*
X2845054Y12689839D02*
G01*
X2892806Y12689839D01*
X2845054Y12689839D02*
G01*
X2845054Y12710413D01*
X2847340Y12717271D01*
X2849625Y12719558D01*
X2854197Y12721844D01*
X2858770Y12721844D01*
X2863341Y12719558D01*
X2865627Y12717271D01*
X2867913Y12710413D01*
X2867913Y12689839D01*
X2867913Y12705842D02*
G01*
X2892806Y12721844D01*
X2845054Y12736829D02*
G01*
X2892806Y12736829D01*
X2845054Y12736829D02*
G01*
X2845054Y12766294D01*
X2867913Y12736829D02*
G01*
X2867913Y12754863D01*
X2892806Y12736829D02*
G01*
X2892806Y12766294D01*
X2851911Y12813029D02*
G01*
X2847340Y12808458D01*
X2845054Y12801600D01*
X2845054Y12792710D01*
X2847340Y12785852D01*
X2851911Y12781279D01*
X2856484Y12781279D01*
X2861056Y12783565D01*
X2863341Y12785852D01*
X2865627Y12790424D01*
X2870200Y12803886D01*
X2872486Y12808458D01*
X2874772Y12810744D01*
X2879343Y12813029D01*
X2885947Y12813029D01*
X2890520Y12808458D01*
X2892806Y12801600D01*
X2892806Y12792710D01*
X2890520Y12785852D01*
X2885947Y12781279D01*
X3670300Y13173202D02*
G01*
X3674872Y13175487D01*
X3681729Y13182345D01*
X3681729Y13134594D01*
X3710177Y13182345D02*
G01*
X3703574Y13180060D01*
X3699002Y13173202D01*
X3696715Y13161771D01*
X3696715Y13154913D01*
X3699002Y13143737D01*
X3703574Y13136879D01*
X3710177Y13134594D01*
X3714750Y13134594D01*
X3721608Y13136879D01*
X3726179Y13143737D01*
X3728465Y13154913D01*
X3728465Y13161771D01*
X3726179Y13173202D01*
X3721608Y13180060D01*
X3714750Y13182345D01*
X3710177Y13182345D01*
X3743452Y13182345D02*
G01*
X3743452Y13134594D01*
X3775202Y13182345D02*
G01*
X3743452Y13150342D01*
X3754881Y13161771D02*
G01*
X3775202Y13134594D01*
X3825240Y13182345D02*
G01*
X3825240Y13134594D01*
X3825240Y13182345D02*
G01*
X3845813Y13182345D01*
X3852672Y13180060D01*
X3854958Y13177774D01*
X3857243Y13173202D01*
X3857243Y13168629D01*
X3854958Y13164057D01*
X3852672Y13161771D01*
X3845813Y13159486D01*
X3825240Y13159486D01*
X3841241Y13159486D02*
G01*
X3857243Y13134594D01*
X3872229Y13182345D02*
G01*
X3872229Y13134594D01*
X3872229Y13182345D02*
G01*
X3901693Y13182345D01*
X3872229Y13159486D02*
G01*
X3890263Y13159486D01*
X3872229Y13134594D02*
G01*
X3901693Y13134594D01*
X3948429Y13175487D02*
G01*
X3943858Y13180060D01*
X3937000Y13182345D01*
X3928109Y13182345D01*
X3921252Y13180060D01*
X3916679Y13175487D01*
X3916679Y13170916D01*
X3918965Y13166344D01*
X3921252Y13164057D01*
X3925824Y13161771D01*
X3939286Y13157200D01*
X3943858Y13154913D01*
X3946143Y13152628D01*
X3948429Y13148055D01*
X3948429Y13141452D01*
X3943858Y13136879D01*
X3937000Y13134594D01*
X3928109Y13134594D01*
X3921252Y13136879D01*
X3916679Y13141452D01*
X2219197Y12179300D02*
G01*
X2216911Y12183871D01*
X2210054Y12190729D01*
X2257806Y12190729D01*
X2210054Y12219178D02*
G01*
X2212340Y12212574D01*
X2219197Y12208002D01*
X2230627Y12205715D01*
X2237486Y12205715D01*
X2248661Y12208002D01*
X2255520Y12212574D01*
X2257806Y12219178D01*
X2257806Y12223750D01*
X2255520Y12230608D01*
X2248661Y12235179D01*
X2237486Y12237465D01*
X2230627Y12237465D01*
X2219197Y12235179D01*
X2212340Y12230608D01*
X2210054Y12223750D01*
X2210054Y12219178D01*
X2210054Y12252452D02*
G01*
X2257806Y12252452D01*
X2210054Y12284202D02*
G01*
X2242058Y12252452D01*
X2230627Y12263881D02*
G01*
X2257806Y12284202D01*
X2210054Y12334239D02*
G01*
X2257806Y12334239D01*
X2210054Y12334239D02*
G01*
X2210054Y12354813D01*
X2212340Y12361671D01*
X2214625Y12363958D01*
X2219197Y12366244D01*
X2223770Y12366244D01*
X2228341Y12363958D01*
X2230627Y12361671D01*
X2232913Y12354813D01*
X2232913Y12334239D01*
X2232913Y12350242D02*
G01*
X2257806Y12366244D01*
X2210054Y12381229D02*
G01*
X2257806Y12381229D01*
X2210054Y12381229D02*
G01*
X2210054Y12410694D01*
X2232913Y12381229D02*
G01*
X2232913Y12399263D01*
X2257806Y12381229D02*
G01*
X2257806Y12410694D01*
X2216911Y12457429D02*
G01*
X2212340Y12452858D01*
X2210054Y12446000D01*
X2210054Y12437110D01*
X2212340Y12430252D01*
X2216911Y12425679D01*
X2221484Y12425679D01*
X2226056Y12427965D01*
X2228341Y12430252D01*
X2230627Y12434824D01*
X2235200Y12448286D01*
X2237486Y12452858D01*
X2239772Y12455144D01*
X2244343Y12457429D01*
X2250947Y12457429D01*
X2255520Y12452858D01*
X2257806Y12446000D01*
X2257806Y12437110D01*
X2255520Y12430252D01*
X2250947Y12425679D01*
X2854197Y12153900D02*
G01*
X2851911Y12158471D01*
X2845054Y12165329D01*
X2892806Y12165329D01*
X2845054Y12193778D02*
G01*
X2847340Y12187174D01*
X2854197Y12182602D01*
X2865627Y12180315D01*
X2872486Y12180315D01*
X2883661Y12182602D01*
X2890520Y12187174D01*
X2892806Y12193778D01*
X2892806Y12198350D01*
X2890520Y12205208D01*
X2883661Y12209779D01*
X2872486Y12212065D01*
X2865627Y12212065D01*
X2854197Y12209779D01*
X2847340Y12205208D01*
X2845054Y12198350D01*
X2845054Y12193778D01*
X2845054Y12240768D02*
G01*
X2847340Y12233910D01*
X2854197Y12229337D01*
X2865627Y12227052D01*
X2872486Y12227052D01*
X2883661Y12229337D01*
X2890520Y12233910D01*
X2892806Y12240768D01*
X2892806Y12245339D01*
X2890520Y12252197D01*
X2883661Y12256515D01*
X2872486Y12258802D01*
X2865627Y12258802D01*
X2854197Y12256515D01*
X2847340Y12252197D01*
X2845054Y12245339D01*
X2845054Y12240768D01*
X2845054Y12308839D02*
G01*
X2892806Y12308839D01*
X2845054Y12308839D02*
G01*
X2845054Y12329413D01*
X2847340Y12336271D01*
X2849625Y12338558D01*
X2854197Y12340844D01*
X2858770Y12340844D01*
X2863341Y12338558D01*
X2865627Y12336271D01*
X2867913Y12329413D01*
X2867913Y12308839D01*
X2867913Y12324842D02*
G01*
X2892806Y12340844D01*
X2845054Y12355829D02*
G01*
X2892806Y12355829D01*
X2845054Y12355829D02*
G01*
X2845054Y12385294D01*
X2867913Y12355829D02*
G01*
X2867913Y12373863D01*
X2892806Y12355829D02*
G01*
X2892806Y12385294D01*
X2851911Y12432029D02*
G01*
X2847340Y12427458D01*
X2845054Y12420600D01*
X2845054Y12411710D01*
X2847340Y12404852D01*
X2851911Y12400279D01*
X2856484Y12400279D01*
X2861056Y12402565D01*
X2863341Y12404852D01*
X2865627Y12409424D01*
X2870200Y12422886D01*
X2872486Y12427458D01*
X2874772Y12429744D01*
X2879343Y12432029D01*
X2885947Y12432029D01*
X2890520Y12427458D01*
X2892806Y12420600D01*
X2892806Y12411710D01*
X2890520Y12404852D01*
X2885947Y12400279D01*
X3552697Y12547600D02*
G01*
X3550411Y12552171D01*
X3543554Y12559029D01*
X3591306Y12559029D01*
X3543554Y12587478D02*
G01*
X3545840Y12580874D01*
X3552697Y12576302D01*
X3564127Y12574015D01*
X3570986Y12574015D01*
X3582161Y12576302D01*
X3589020Y12580874D01*
X3591306Y12587478D01*
X3591306Y12592050D01*
X3589020Y12598908D01*
X3582161Y12603479D01*
X3570986Y12605765D01*
X3564127Y12605765D01*
X3552697Y12603479D01*
X3545840Y12598908D01*
X3543554Y12592050D01*
X3543554Y12587478D01*
X3543554Y12634468D02*
G01*
X3545840Y12627610D01*
X3552697Y12623037D01*
X3564127Y12620752D01*
X3570986Y12620752D01*
X3582161Y12623037D01*
X3589020Y12627610D01*
X3591306Y12634468D01*
X3591306Y12639039D01*
X3589020Y12645897D01*
X3582161Y12650215D01*
X3570986Y12652502D01*
X3564127Y12652502D01*
X3552697Y12650215D01*
X3545840Y12645897D01*
X3543554Y12639039D01*
X3543554Y12634468D01*
X3543554Y12702539D02*
G01*
X3591306Y12702539D01*
X3543554Y12702539D02*
G01*
X3543554Y12723113D01*
X3545840Y12729971D01*
X3548125Y12732258D01*
X3552697Y12734544D01*
X3557270Y12734544D01*
X3561841Y12732258D01*
X3564127Y12729971D01*
X3566413Y12723113D01*
X3566413Y12702539D01*
X3566413Y12718542D02*
G01*
X3591306Y12734544D01*
X3543554Y12749529D02*
G01*
X3591306Y12749529D01*
X3543554Y12749529D02*
G01*
X3543554Y12778994D01*
X3566413Y12749529D02*
G01*
X3566413Y12767563D01*
X3591306Y12749529D02*
G01*
X3591306Y12778994D01*
X3550411Y12825729D02*
G01*
X3545840Y12821158D01*
X3543554Y12814300D01*
X3543554Y12805410D01*
X3545840Y12798552D01*
X3550411Y12793979D01*
X3554984Y12793979D01*
X3559556Y12796265D01*
X3561841Y12798552D01*
X3564127Y12803124D01*
X3568700Y12816586D01*
X3570986Y12821158D01*
X3573272Y12823444D01*
X3577843Y12825729D01*
X3584447Y12825729D01*
X3589020Y12821158D01*
X3591306Y12814300D01*
X3591306Y12805410D01*
X3589020Y12798552D01*
X3584447Y12793979D01*
X2025650Y11537187D02*
G01*
X2021077Y11541760D01*
X2014474Y11544045D01*
X2005329Y11544045D01*
X1998472Y11541760D01*
X1993900Y11537187D01*
X1993900Y11532615D01*
X1996186Y11528044D01*
X1998472Y11525758D01*
X2003043Y11523471D01*
X2016506Y11518900D01*
X2021077Y11516613D01*
X2023363Y11514328D01*
X2025650Y11509755D01*
X2025650Y11503152D01*
X2021077Y11498579D01*
X2014474Y11496294D01*
X2005329Y11496294D01*
X1998472Y11498579D01*
X1993900Y11503152D01*
X2040636Y11544045D02*
G01*
X2042922Y11541760D01*
X2045208Y11544045D01*
X2042922Y11546331D01*
X2040636Y11544045D01*
X2042922Y11528044D02*
G01*
X2042922Y11496294D01*
X2087625Y11528044D02*
G01*
X2087625Y11491721D01*
X2085340Y11484863D01*
X2083054Y11482578D01*
X2078481Y11480292D01*
X2071624Y11480292D01*
X2067052Y11482578D01*
X2087625Y11521186D02*
G01*
X2083054Y11525758D01*
X2078481Y11528044D01*
X2071624Y11528044D01*
X2067052Y11525758D01*
X2062479Y11521186D01*
X2060193Y11514328D01*
X2060193Y11509755D01*
X2062479Y11503152D01*
X2067052Y11498579D01*
X2071624Y11496294D01*
X2078481Y11496294D01*
X2083054Y11498579D01*
X2087625Y11503152D01*
X2102611Y11528044D02*
G01*
X2102611Y11496294D01*
X2102611Y11518900D02*
G01*
X2109470Y11525758D01*
X2113788Y11528044D01*
X2120645Y11528044D01*
X2125218Y11525758D01*
X2127504Y11518900D01*
X2127504Y11496294D01*
X2169922Y11528044D02*
G01*
X2169922Y11496294D01*
X2169922Y11521186D02*
G01*
X2165350Y11525758D01*
X2160777Y11528044D01*
X2153920Y11528044D01*
X2149347Y11525758D01*
X2144775Y11521186D01*
X2142490Y11514328D01*
X2142490Y11509755D01*
X2144775Y11503152D01*
X2149347Y11498579D01*
X2153920Y11496294D01*
X2160777Y11496294D01*
X2165350Y11498579D01*
X2169922Y11503152D01*
X2184908Y11544045D02*
G01*
X2184908Y11496294D01*
X2222754Y11887200D02*
G01*
X2270506Y11887200D01*
X2222754Y11887200D02*
G01*
X2222754Y11903202D01*
X2225040Y11909805D01*
X2229611Y11914378D01*
X2234184Y11916663D01*
X2241041Y11918950D01*
X2252472Y11918950D01*
X2259329Y11916663D01*
X2263647Y11914378D01*
X2268220Y11909805D01*
X2270506Y11903202D01*
X2270506Y11887200D01*
X2222754Y11933936D02*
G01*
X2225040Y11936221D01*
X2222754Y11938508D01*
X2220468Y11936221D01*
X2222754Y11933936D01*
X2238756Y11936221D02*
G01*
X2270506Y11936221D01*
X2238756Y11964924D02*
G01*
X2241041Y11960352D01*
X2245613Y11955779D01*
X2252472Y11953494D01*
X2257043Y11953494D01*
X2263647Y11955779D01*
X2268220Y11960352D01*
X2270506Y11964924D01*
X2270506Y11971781D01*
X2268220Y11976354D01*
X2263647Y11980926D01*
X2257043Y11983212D01*
X2252472Y11983212D01*
X2245613Y11980926D01*
X2241041Y11976354D01*
X2238756Y11971781D01*
X2238756Y11964924D01*
X2222754Y12025376D02*
G01*
X2270506Y12025376D01*
X2245613Y12025376D02*
G01*
X2241041Y12020804D01*
X2238756Y12016231D01*
X2238756Y12009374D01*
X2241041Y12004802D01*
X2245613Y12000484D01*
X2252472Y11998197D01*
X2257043Y11998197D01*
X2263647Y12000484D01*
X2268220Y12004802D01*
X2270506Y12009374D01*
X2270506Y12016231D01*
X2268220Y12020804D01*
X2263647Y12025376D01*
X2252472Y12040362D02*
G01*
X2252472Y12067539D01*
X2247900Y12067539D01*
X2243327Y12065508D01*
X2241041Y12063221D01*
X2238756Y12058650D01*
X2238756Y12051792D01*
X2241041Y12047220D01*
X2245613Y12042647D01*
X2252472Y12040362D01*
X2257043Y12040362D01*
X2263647Y12042647D01*
X2268220Y12047220D01*
X2270506Y12051792D01*
X2270506Y12058650D01*
X2268220Y12063221D01*
X2263647Y12067539D01*
X800100Y14134337D02*
G01*
X800100Y14038834D01*
X800100Y14134337D02*
G01*
X840994Y14134337D01*
X854710Y14129766D01*
X859281Y14125194D01*
X863854Y14116304D01*
X863854Y14107160D01*
X859281Y14098016D01*
X854710Y14093444D01*
X840994Y14088871D01*
X800100Y14088871D01*
X831850Y14088871D02*
G01*
X863854Y14038834D01*
X948181Y14102587D02*
G01*
X948181Y14038834D01*
X948181Y14088871D02*
G01*
X939292Y14098016D01*
X930147Y14102587D01*
X916431Y14102587D01*
X907287Y14098016D01*
X898397Y14088871D01*
X893826Y14075410D01*
X893826Y14066266D01*
X898397Y14052550D01*
X907287Y14043405D01*
X916431Y14038834D01*
X930147Y14038834D01*
X939292Y14043405D01*
X948181Y14052550D01*
X978407Y14102587D02*
G01*
X978407Y14007084D01*
X978407Y14088871D02*
G01*
X987297Y14098016D01*
X996442Y14102587D01*
X1010157Y14102587D01*
X1019302Y14098016D01*
X1028192Y14088871D01*
X1032763Y14075410D01*
X1032763Y14066266D01*
X1028192Y14052550D01*
X1019302Y14043405D01*
X1010157Y14038834D01*
X996442Y14038834D01*
X987297Y14043405D01*
X978407Y14052550D01*
X1062736Y14134337D02*
G01*
X1067307Y14129766D01*
X1071879Y14134337D01*
X1067307Y14138910D01*
X1062736Y14134337D01*
X1067307Y14102587D02*
G01*
X1067307Y14038834D01*
X1156462Y14134337D02*
G01*
X1156462Y14038834D01*
X1156462Y14088871D02*
G01*
X1147318Y14098016D01*
X1138173Y14102587D01*
X1124712Y14102587D01*
X1115568Y14098016D01*
X1106423Y14088871D01*
X1101852Y14075410D01*
X1101852Y14066266D01*
X1106423Y14052550D01*
X1115568Y14043405D01*
X1124712Y14038834D01*
X1138173Y14038834D01*
X1147318Y14043405D01*
X1156462Y14052550D01*
X1256537Y14134337D02*
G01*
X1256537Y14038834D01*
X1256537Y14134337D02*
G01*
X1288287Y14134337D01*
X1302004Y14129766D01*
X1310894Y14120876D01*
X1315465Y14111731D01*
X1320037Y14098016D01*
X1320037Y14075410D01*
X1315465Y14061694D01*
X1310894Y14052550D01*
X1302004Y14043405D01*
X1288287Y14038834D01*
X1256537Y14038834D01*
X1350010Y14075410D02*
G01*
X1404620Y14075410D01*
X1404620Y14084300D01*
X1400047Y14093444D01*
X1395476Y14098016D01*
X1386586Y14102587D01*
X1372870Y14102587D01*
X1363726Y14098016D01*
X1354581Y14088871D01*
X1350010Y14075410D01*
X1350010Y14066266D01*
X1354581Y14052550D01*
X1363726Y14043405D01*
X1372870Y14038834D01*
X1386586Y14038834D01*
X1395476Y14043405D01*
X1404620Y14052550D01*
X1489202Y14088871D02*
G01*
X1480057Y14098016D01*
X1470913Y14102587D01*
X1457452Y14102587D01*
X1448307Y14098016D01*
X1439163Y14088871D01*
X1434592Y14075410D01*
X1434592Y14066266D01*
X1439163Y14052550D01*
X1448307Y14043405D01*
X1457452Y14038834D01*
X1470913Y14038834D01*
X1480057Y14043405D01*
X1489202Y14052550D01*
X1573784Y14102587D02*
G01*
X1573784Y14038834D01*
X1573784Y14088871D02*
G01*
X1564639Y14098016D01*
X1555495Y14102587D01*
X1542034Y14102587D01*
X1532889Y14098016D01*
X1523745Y14088871D01*
X1519173Y14075410D01*
X1519173Y14066266D01*
X1523745Y14052550D01*
X1532889Y14043405D01*
X1542034Y14038834D01*
X1555495Y14038834D01*
X1564639Y14043405D01*
X1573784Y14052550D01*
X1608328Y14102587D02*
G01*
X1635505Y14038834D01*
X1662937Y14102587D02*
G01*
X1635505Y14038834D01*
X1626362Y14020800D01*
X1617471Y14011655D01*
X1608328Y14007084D01*
X1603755Y14007084D01*
X1762760Y14134337D02*
G01*
X1799081Y14038834D01*
X1835657Y14134337D02*
G01*
X1799081Y14038834D01*
X1865629Y14116304D02*
G01*
X1874520Y14120876D01*
X1888236Y14134337D01*
X1888236Y14038834D01*
X1922779Y14061694D02*
G01*
X1918207Y14057121D01*
X1922779Y14052550D01*
X1927352Y14057121D01*
X1922779Y14061694D01*
X1957324Y14116304D02*
G01*
X1966468Y14120876D01*
X1980184Y14134337D01*
X1980184Y14038834D01*
D11*
X3848861Y13836650D02*
G01*
X3944365Y13836650D01*
X3848861Y13804900D02*
G01*
X3848861Y13868654D01*
X3848861Y13898626D02*
G01*
X3944365Y13898626D01*
X3944365Y13898626D02*
G01*
X3944365Y13952981D01*
X3848861Y13983207D02*
G01*
X3944365Y13983207D01*
X3848861Y14046707D02*
G01*
X3912361Y13983207D01*
X3889756Y14005813D02*
G01*
X3944365Y14046707D01*
X3848861Y14076679D02*
G01*
X3944365Y14076679D01*
X3848861Y14140434D02*
G01*
X3944365Y14140434D01*
X3894327Y14076679D02*
G01*
X3894327Y14140434D01*
D10*
X2878836Y11519915D02*
G01*
X2876550Y11524487D01*
X2871977Y11529060D01*
X2867406Y11531345D01*
X2858515Y11531345D01*
X2853943Y11529060D01*
X2849372Y11524487D01*
X2847086Y11519915D01*
X2844800Y11513058D01*
X2844800Y11501628D01*
X2847086Y11494770D01*
X2849372Y11490452D01*
X2853943Y11485879D01*
X2858515Y11483594D01*
X2867406Y11483594D01*
X2871977Y11485879D01*
X2876550Y11490452D01*
X2878836Y11494770D01*
X2878836Y11501628D01*
X2867406Y11501628D02*
G01*
X2878836Y11501628D01*
X2928874Y11531345D02*
G01*
X2928874Y11483594D01*
X2928874Y11531345D02*
G01*
X2960624Y11483594D01*
X2960624Y11531345D02*
G01*
X2960624Y11483594D01*
X3010661Y11531345D02*
G01*
X3010661Y11483594D01*
X3010661Y11531345D02*
G01*
X3026663Y11531345D01*
X3033522Y11529060D01*
X3038093Y11524487D01*
X3040379Y11519915D01*
X3042411Y11513058D01*
X3042411Y11501628D01*
X3040379Y11494770D01*
X3038093Y11490452D01*
X3033522Y11485879D01*
X3026663Y11483594D01*
X3010661Y11483594D01*
X787400Y11937237D02*
G01*
X787400Y11841734D01*
X787400Y11937237D02*
G01*
X828294Y11937237D01*
X842010Y11932665D01*
X846581Y11928094D01*
X851154Y11919204D01*
X851154Y11905487D01*
X846581Y11896344D01*
X842010Y11891771D01*
X828294Y11887200D01*
X787400Y11887200D01*
X881126Y11882881D02*
G01*
X962913Y11882881D01*
X992886Y11937237D02*
G01*
X992886Y11841734D01*
X992886Y11937237D02*
G01*
X1052068Y11937237D01*
X992886Y11891771D02*
G01*
X1029207Y11891771D01*
X1082039Y11937237D02*
G01*
X1082039Y11841734D01*
X1082039Y11937237D02*
G01*
X1140968Y11937237D01*
X1082039Y11891771D02*
G01*
X1118362Y11891771D01*
X1082039Y11841734D02*
G01*
X1140968Y11841734D01*
X1202944Y11937237D02*
G01*
X1202944Y11841734D01*
X1170939Y11937237D02*
G01*
X1234694Y11937237D01*
D11*
X953488Y13633427D02*
G01*
X953488Y13799797D01*
X857730Y12700485D02*
G01*
X1023846Y12700485D01*
X940788Y12617427D02*
G01*
X940788Y12783797D01*
D10*
X3742682Y11563581D02*
G01*
X3728966Y11549865D01*
X3722108Y11529545D01*
X3722108Y11502113D01*
X3728966Y11481793D01*
X3742682Y11468077D01*
X3756144Y11468077D01*
X3769860Y11474935D01*
X3776718Y11481793D01*
X3783576Y11495255D01*
X3797038Y11536149D01*
X3803896Y11549865D01*
X3810754Y11556723D01*
X3824470Y11563581D01*
X3844790Y11563581D01*
X3858506Y11549865D01*
X3865364Y11529545D01*
X3865364Y11502113D01*
X3858506Y11481793D01*
X3844790Y11468077D01*
X3769860Y11642575D02*
G01*
X3776718Y11628859D01*
X3790434Y11615397D01*
X3810754Y11608539D01*
X3824470Y11608539D01*
X3844790Y11615397D01*
X3858506Y11628859D01*
X3865364Y11642575D01*
X3865364Y11663149D01*
X3858506Y11676611D01*
X3844790Y11690327D01*
X3824470Y11697185D01*
X3810754Y11697185D01*
X3790434Y11690327D01*
X3776718Y11676611D01*
X3769860Y11663149D01*
X3769860Y11642575D01*
X3722108Y11742143D02*
G01*
X3865364Y11742143D01*
X3810754Y11787101D02*
G01*
X3810754Y11868889D01*
X3797038Y11868889D01*
X3783576Y11862285D01*
X3776718Y11855427D01*
X3769860Y11841711D01*
X3769860Y11821137D01*
X3776718Y11807675D01*
X3790434Y11793959D01*
X3810754Y11787101D01*
X3824470Y11787101D01*
X3844790Y11793959D01*
X3858506Y11807675D01*
X3865364Y11821137D01*
X3865364Y11841711D01*
X3858506Y11855427D01*
X3844790Y11868889D01*
X3769860Y11914101D02*
G01*
X3865364Y11914101D01*
X3797038Y11914101D02*
G01*
X3776718Y11934421D01*
X3769860Y11948137D01*
X3769860Y11968457D01*
X3776718Y11982173D01*
X3797038Y11989031D01*
X3865364Y11989031D01*
X3769860Y12068025D02*
G01*
X3776718Y12054563D01*
X3790434Y12040847D01*
X3810754Y12033989D01*
X3824470Y12033989D01*
X3844790Y12040847D01*
X3858506Y12054563D01*
X3865364Y12068025D01*
X3865364Y12088599D01*
X3858506Y12102061D01*
X3844790Y12115777D01*
X3824470Y12122635D01*
X3810754Y12122635D01*
X3790434Y12115777D01*
X3776718Y12102061D01*
X3769860Y12088599D01*
X3769860Y12068025D01*
X3722108Y12167593D02*
G01*
X3728966Y12174451D01*
X3722108Y12181309D01*
X3715250Y12174451D01*
X3722108Y12167593D01*
X3769860Y12174451D02*
G01*
X3865364Y12174451D01*
X3722108Y12308055D02*
G01*
X3865364Y12308055D01*
X3790434Y12308055D02*
G01*
X3776718Y12294339D01*
X3769860Y12280877D01*
X3769860Y12260303D01*
X3776718Y12246587D01*
X3790434Y12233125D01*
X3810754Y12226267D01*
X3824470Y12226267D01*
X3844790Y12233125D01*
X3858506Y12246587D01*
X3865364Y12260303D01*
X3865364Y12280877D01*
X3858506Y12294339D01*
X3844790Y12308055D01*
G36*
X1950161Y12113615D02*
G01*
X1949805Y12073432D01*
X1995779Y12072975D01*
X1995881Y12113615D01*
G37*
G36*
X1951024Y11853824D02*
G01*
X1950618Y11813590D01*
X1996592Y11813133D01*
X1996744Y11853824D01*
G37*
G36*
X1899361Y12812115D02*
G01*
X1899005Y12771932D01*
X1944979Y12771475D01*
X1945081Y12812115D01*
G37*
G36*
X1900224Y12552324D02*
G01*
X1899818Y12512090D01*
X1945792Y12511633D01*
X1945944Y12552324D01*
G37*
D12*
X1800110Y11323774D02*
G01*
X739909Y11323774D01*
X739909Y11803583D01*
X1800110Y11803583D01*
X1800110Y11324282D01*
X1800110Y11323774D01*
X740013Y11383690D02*
G01*
X1800006Y11383690D01*
X2181331Y13335000D02*
G01*
X2181331Y13288162D01*
X2120900Y13288162D01*
X2120900Y13335000D01*
X2645458Y13335000D02*
G01*
X2645458Y13288162D01*
X2565400Y13288162D01*
X2565400Y13335000D01*
X2705100Y13931900D02*
G01*
X2705100Y13335000D01*
X2044700Y13335000D01*
X2044700Y13931900D01*
X2968731Y13335000D02*
G01*
X2968731Y13288162D01*
X2908300Y13288162D01*
X2908300Y13335000D01*
X3432858Y13335000D02*
G01*
X3432858Y13288162D01*
X3352800Y13288162D01*
X3352800Y13335000D01*
X3492500Y13931900D02*
G01*
X3492500Y13335000D01*
X2832100Y13335000D01*
X2832100Y13931900D01*
X730247Y12172924D02*
G01*
X730247Y14172920D01*
X1730245Y14172920D01*
X1730245Y12172924D01*
X730247Y12172924D01*
D13*
X2775079Y12782509D02*
G01*
X2639087Y12782509D01*
X2639087Y12566690D01*
X2775079Y12566690D01*
X2965320Y12782509D02*
G01*
X3101312Y12782509D01*
X3101312Y12566690D01*
X2965320Y12566690D01*
X2775079Y12376109D02*
G01*
X2639087Y12376109D01*
X2639087Y12160290D01*
X2775079Y12160290D01*
X2965320Y12376109D02*
G01*
X3101312Y12376109D01*
X3101312Y12160290D01*
X2965320Y12160290D01*
X3473571Y12782483D02*
G01*
X3337580Y12782483D01*
X3337580Y12566665D01*
X3473571Y12566665D01*
X3663812Y12782483D02*
G01*
X3799804Y12782483D01*
X3799804Y12566665D01*
X3663812Y12566665D01*
X3714790Y13074779D02*
G01*
X3714790Y12938787D01*
X3930609Y12938787D01*
X3930609Y13074779D01*
X3714790Y13265020D02*
G01*
X3714790Y13401012D01*
X3930609Y13401012D01*
X3930609Y13265020D01*
X2140079Y12414209D02*
G01*
X2004087Y12414209D01*
X2004087Y12198390D01*
X2140079Y12198390D01*
X2330320Y12414209D02*
G01*
X2466312Y12414209D01*
X2466312Y12198390D01*
X2330320Y12198390D01*
X2159508Y12106020D02*
G01*
X2159508Y11820779D01*
X1988281Y12106020D02*
G01*
X2507518Y12106020D01*
X2507228Y11845838D02*
G01*
X2507896Y11821916D01*
X2507518Y12106020D02*
G01*
X2508186Y12082099D01*
X1988281Y11820779D02*
G01*
X2507518Y11820779D01*
X2108708Y12804520D02*
G01*
X2108708Y12519279D01*
X1937481Y12804520D02*
G01*
X2456718Y12804520D01*
X2456428Y12544338D02*
G01*
X2457096Y12520416D01*
X2456718Y12804520D02*
G01*
X2457386Y12780599D01*
X1937481Y12519279D02*
G01*
X2456718Y12519279D01*
D12*
X2802610Y11391595D02*
G01*
X2226614Y11391595D01*
X2226614Y11670588D01*
X2802610Y11670588D01*
X2802610Y11391595D01*
X3225792Y11391877D02*
G01*
X3225792Y12391875D01*
X3925790Y12391875D01*
X3925790Y11391877D01*
X3225792Y11391877D01*
X3327392Y12001477D02*
G01*
X3327392Y12306277D01*
X3632192Y12306277D01*
X3632192Y12001477D01*
X3327392Y12001477D01*
X3327392Y11493477D02*
G01*
X3327392Y11798277D01*
X3632192Y11798277D01*
X3632192Y11493477D01*
X3327392Y11493477D01*
D14*
G75*
G01*
X1547007Y11866182D02*
G03*
X1546753Y11866182I-127J19999D01*
G75*
G01*
X2022894Y13188627D02*
G03*
X2022894Y13188373I-19999J-127D01*
G75*
G01*
X2810294Y13188627D02*
G03*
X2810294Y13188373I-19999J-127D01*
M02*
