G04 Layer: BottomLayer*
G04 EasyEDA v6.5.34, 2023-10-05 20:18:03*
G04 Gerber Generator version 0.2*
G04 Scale: 100 percent, Rotated: No, Reflected: No *
G04 Dimensions in millimeters *
G04 leading zeros omitted , absolute positions ,4 integer and 5 decimal *
%FSLAX45Y45*%
%MOMM*%

%ADD10C,1.5000*%
%ADD11C,0.5000*%
%ADD12O,1.7999964X2.5999948*%
%ADD13R,1.8000X2.6000*%
%ADD14R,5.0000X5.0000*%
%ADD15R,2.0000X2.0000*%
%ADD16C,2.0000*%
%ADD17R,4.0000X4.0000*%
%ADD18C,0.6200*%

%LPD*%
D10*
X2527300Y12547600D02*
G01*
X3416300Y12547600D01*
X3416300Y12446000D01*
D11*
X2806700Y13004800D02*
G01*
X2603500Y12801600D01*
X2603500Y12674600D01*
D10*
X1816100Y11633200D02*
G01*
X2540000Y12357100D01*
X2311400Y13347700D02*
G01*
X1943100Y13347700D01*
X1841500Y13246100D01*
X1841500Y12865100D01*
X2349500Y12357100D01*
X2540000Y12357100D01*
X3149600Y13385800D02*
G01*
X2984500Y13385800D01*
X2489200Y12890500D01*
X2413000Y12814300D01*
X2260600Y12814300D01*
X2895600Y11772900D02*
G01*
X2882900Y11785600D01*
X2286000Y11785600D01*
D12*
G01*
X1270000Y11632692D03*
G01*
X1015974Y11633682D03*
D13*
G01*
X1524000Y11632692D03*
D14*
G01*
X1327150Y12693624D03*
G01*
X1339850Y13696924D03*
D15*
G01*
X2641600Y11531600D03*
D16*
G01*
X2387600Y11531600D03*
D17*
G01*
X3479800Y11645874D03*
G01*
X3479800Y12153874D03*
D18*
G01*
X2451100Y13115036D03*
G01*
X3136900Y12801600D03*
G01*
X3505200Y13169900D03*
G01*
X3822700Y13462000D03*
G01*
X2806700Y13004800D03*
G01*
X2603500Y12674600D03*
G01*
X2628900Y12039600D03*
G01*
X1816100Y11633200D03*
G01*
X2540000Y12357100D03*
G01*
X2311400Y13347700D03*
G01*
X3149600Y13385800D03*
G01*
X2260600Y12814300D03*
G01*
X2527300Y12547600D03*
G01*
X3416300Y12446000D03*
G01*
X2895600Y11772900D03*
G01*
X2286000Y11785600D03*
M02*
