G04 Layer: TopLayer*
G04 EasyEDA v6.5.34, 2023-10-05 20:18:03*
G04 Gerber Generator version 0.2*
G04 Scale: 100 percent, Rotated: No, Reflected: No *
G04 Dimensions in millimeters *
G04 leading zeros omitted , absolute positions ,4 integer and 5 decimal *
%FSLAX45Y45*%
%MOMM*%

%AMMACRO1*21,1,$1,$2,0,0,$3*%
%ADD10C,1.5000*%
%ADD11C,0.5000*%
%ADD12R,1.2000X3.0000*%
%ADD13R,6.0000X6.5000*%
%ADD14MACRO1,1.701X1.2075X-90.0000*%
%ADD15MACRO1,1.701X1.2075X0.0000*%
%ADD16R,1.7010X1.2075*%
%ADD17R,2.0000X2.0000*%
%ADD18O,1.7999964X2.5999948*%
%ADD19R,1.8000X2.6000*%
%ADD20R,5.0000X5.0000*%
%ADD21C,2.0000*%
%ADD22R,4.0000X4.0000*%
%ADD23C,0.6200*%

%LPD*%
D10*
X1327150Y12693624D02*
G01*
X1015987Y12382461D01*
X1015987Y11633695D01*
X1327150Y12693624D02*
G01*
X1358874Y12661900D01*
X1977090Y12661900D01*
X1977090Y12661900D02*
G01*
X2087326Y12551663D01*
X2087326Y12306300D01*
X2027890Y11963400D02*
G01*
X1460500Y11963400D01*
X1270012Y11772912D01*
X1270012Y11632704D01*
X2603398Y13115048D02*
G01*
X2451100Y13115048D01*
X3018083Y12674600D02*
G01*
X3018083Y12682783D01*
X3136900Y12801600D01*
X3390798Y13115048D02*
G01*
X3450348Y13115048D01*
X3505200Y13169900D01*
X3822700Y13317771D02*
G01*
X3822700Y13462000D01*
D11*
X3018083Y12268200D02*
G01*
X3018083Y12009683D01*
X2946400Y11938000D01*
X2806700Y11938000D01*
X2628900Y11760200D01*
X2540000Y11760200D01*
X2387605Y11607805D01*
X2387605Y11531597D01*
X3420872Y12674600D02*
G01*
X3236213Y12490195D01*
X3018027Y12271755D01*
X3018027Y12268200D01*
X3822700Y13022013D02*
G01*
X3716578Y12915892D01*
X3716578Y12674574D01*
X3716578Y12674574D02*
G01*
X3500653Y12890500D01*
X3289300Y12890500D01*
X3200400Y12979400D01*
X3098800Y12979400D01*
X2984500Y12865100D01*
X2396350Y12865100D01*
X2146401Y13115048D01*
X2933801Y13115048D02*
G01*
X2823552Y13004800D01*
X2806700Y13004800D01*
X2603500Y12674600D02*
G01*
X2722326Y12674600D01*
X2722326Y12674600D02*
G01*
X2722326Y12268200D01*
D10*
X2467894Y11963400D02*
G01*
X2544094Y12039600D01*
X2628900Y12039600D01*
X1524012Y11632704D02*
G01*
X1524507Y11633200D01*
X1816100Y11633200D01*
X2540000Y12357100D02*
G01*
X2489200Y12306300D01*
X2383083Y12306300D01*
X2311400Y13347700D02*
G01*
X2374900Y13411200D01*
X2374900Y13783551D01*
X3162300Y13783551D02*
G01*
X3149600Y13770851D01*
X3149600Y13385800D01*
X2260600Y12814300D02*
G01*
X2413000Y12661900D01*
X2417094Y12661900D01*
X2417094Y12661900D02*
G01*
X2527300Y12551694D01*
X2527300Y12547600D01*
X3416300Y12446000D02*
G01*
X3479800Y12382500D01*
X3479800Y12153874D01*
X3479800Y11645874D02*
G01*
X3352774Y11772900D01*
X2895600Y11772900D01*
X2286000Y11785600D02*
G01*
X2108200Y11963400D01*
X2027890Y11963400D01*
D12*
G01*
X2603398Y13115061D03*
G01*
X2146401Y13115061D03*
D13*
G01*
X2374900Y13783538D03*
D12*
G01*
X3390798Y13115061D03*
G01*
X2933801Y13115061D03*
D13*
G01*
X3162300Y13783538D03*
D14*
G01*
X2722323Y12674600D03*
G01*
X3018076Y12674600D03*
G01*
X2722323Y12268200D03*
G01*
X3018076Y12268200D03*
G01*
X3420816Y12674574D03*
G01*
X3716568Y12674574D03*
D15*
G01*
X3822700Y13022023D03*
D16*
G01*
X3822700Y13317778D03*
D14*
G01*
X2087323Y12306300D03*
G01*
X2383076Y12306300D03*
D17*
G01*
X2467889Y11963400D03*
G01*
X2027910Y11963400D03*
G01*
X2417089Y12661900D03*
G01*
X1977110Y12661900D03*
D18*
G01*
X1270000Y11632692D03*
G01*
X1015974Y11633682D03*
D19*
G01*
X1524000Y11632692D03*
D20*
G01*
X1327150Y12693624D03*
G01*
X1339850Y13696924D03*
D17*
G01*
X2641600Y11531600D03*
D21*
G01*
X2387600Y11531600D03*
D22*
G01*
X3479800Y11645874D03*
G01*
X3479800Y12153874D03*
D23*
G01*
X2451100Y13115036D03*
G01*
X3136900Y12801600D03*
G01*
X3505200Y13169900D03*
G01*
X3822700Y13462000D03*
G01*
X2806700Y13004800D03*
G01*
X2603500Y12674600D03*
G01*
X2628900Y12039600D03*
G01*
X1816100Y11633200D03*
G01*
X2540000Y12357100D03*
G01*
X2311400Y13347700D03*
G01*
X3149600Y13385800D03*
G01*
X2260600Y12814300D03*
G01*
X2527300Y12547600D03*
G01*
X3416300Y12446000D03*
G01*
X2895600Y11772900D03*
G01*
X2286000Y11785600D03*
M02*
