%TF.GenerationSoftware,KiCad,Pcbnew,(6.0.8)*%
%TF.CreationDate,2023-06-19T19:37:07-04:00*%
%TF.ProjectId,G4_Controller_Board,47345f43-6f6e-4747-926f-6c6c65725f42,1.0*%
%TF.SameCoordinates,Original*%
%TF.FileFunction,Copper,L2,Bot*%
%TF.FilePolarity,Positive*%
%FSLAX46Y46*%
G04 Gerber Fmt 4.6, Leading zero omitted, Abs format (unit mm)*
G04 Created by KiCad (PCBNEW (6.0.8)) date 2023-06-19 19:37:07*
%MOMM*%
%LPD*%
G01*
G04 APERTURE LIST*
%TA.AperFunction,NonConductor*%
%ADD10C,0.200000*%
%TD*%
%TA.AperFunction,ComponentPad*%
%ADD11O,1.700000X1.700000*%
%TD*%
%TA.AperFunction,ComponentPad*%
%ADD12R,1.700000X1.700000*%
%TD*%
%TA.AperFunction,ComponentPad*%
%ADD13R,2.400000X2.400000*%
%TD*%
%TA.AperFunction,ComponentPad*%
%ADD14C,2.400000*%
%TD*%
%TA.AperFunction,ComponentPad*%
%ADD15O,1.500000X2.000000*%
%TD*%
%TA.AperFunction,ComponentPad*%
%ADD16C,1.600000*%
%TD*%
%TA.AperFunction,ComponentPad*%
%ADD17O,1.600000X1.600000*%
%TD*%
%TA.AperFunction,SMDPad,CuDef*%
%ADD18R,1.500000X1.000000*%
%TD*%
%TA.AperFunction,ComponentPad*%
%ADD19R,2.200000X2.200000*%
%TD*%
%TA.AperFunction,ComponentPad*%
%ADD20O,2.200000X2.200000*%
%TD*%
%TA.AperFunction,ComponentPad*%
%ADD21R,1.905000X2.000000*%
%TD*%
%TA.AperFunction,ComponentPad*%
%ADD22O,1.905000X2.000000*%
%TD*%
%TA.AperFunction,ComponentPad*%
%ADD23C,1.524000*%
%TD*%
%TA.AperFunction,ComponentPad*%
%ADD24R,2.000000X2.000000*%
%TD*%
%TA.AperFunction,ComponentPad*%
%ADD25C,2.000000*%
%TD*%
%TA.AperFunction,ViaPad*%
%ADD26C,2.000000*%
%TD*%
%TA.AperFunction,Conductor*%
%ADD27C,1.000000*%
%TD*%
%TA.AperFunction,Conductor*%
%ADD28C,0.750000*%
%TD*%
G04 APERTURE END LIST*
D10*
X162560000Y-62230000D02*
X102870000Y-62230000D01*
X102870000Y-62230000D02*
X102870000Y-102870000D01*
X102870000Y-102870000D02*
X162560000Y-102870000D01*
X162560000Y-102870000D02*
X162560000Y-62230000D01*
D11*
%TO.P,J10,3,Pin_3*%
%TO.N,unconnected-(J10-Pad3)*%
X154925000Y-66040000D03*
%TO.P,J10,2,Pin_2*%
%TO.N,GND*%
X157465000Y-66040000D03*
D12*
%TO.P,J10,1,Pin_1*%
%TO.N,+12V*%
X160005000Y-66040000D03*
%TD*%
D13*
%TO.P,J2,1,Pin_1*%
%TO.N,+12V*%
X158750000Y-86360000D03*
D14*
%TO.P,J2,2,Pin_2*%
%TO.N,Net-(D1-Pad1)*%
X158750000Y-82860000D03*
%TD*%
D15*
%TO.P,U2,5,VP*%
%TO.N,unconnected-(U2-Pad5)*%
X121920000Y-99060000D03*
%TO.P,U2,8,VN*%
%TO.N,unconnected-(U2-Pad8)*%
X124460000Y-99060000D03*
%TO.P,U2,9,EN*%
%TO.N,unconnected-(U2-Pad9)*%
X127000000Y-99060000D03*
%TO.P,U2,10,D34*%
%TO.N,/Battery Reader*%
X129540000Y-99060000D03*
%TO.P,U2,11,D35*%
%TO.N,/IR Reciever*%
X132080000Y-99060000D03*
%TO.P,U2,12,D32*%
%TO.N,/IR Rec. Supply*%
X134620000Y-99060000D03*
%TO.P,U2,13,D33*%
%TO.N,/IR Emitter*%
X137160000Y-99060000D03*
%TO.P,U2,14,D25*%
%TO.N,/PUSHER PIN*%
X139700000Y-99060000D03*
%TO.P,U2,15,D26*%
%TO.N,/Preset C*%
X142240000Y-99060000D03*
%TO.P,U2,16,D27*%
%TO.N,/Preset B*%
X144780000Y-99060000D03*
%TO.P,U2,17,D14*%
%TO.N,/Preset A*%
X147320000Y-99060000D03*
%TO.P,U2,18,D12*%
%TO.N,unconnected-(U2-Pad18)*%
X149860000Y-99060000D03*
%TO.P,U2,19,GND*%
%TO.N,GND*%
X152400000Y-99060000D03*
%TO.P,U2,20,D13*%
%TO.N,/Encoder Switch*%
X152400000Y-76200000D03*
%TO.P,U2,21,D15*%
%TO.N,/Encoder B*%
X149860000Y-76200000D03*
%TO.P,U2,22,D2*%
%TO.N,/Encoder A*%
X147320000Y-76200000D03*
%TO.P,U2,23,D0*%
%TO.N,unconnected-(U2-Pad23)*%
X144780000Y-76200000D03*
%TO.P,U2,24,D4*%
%TO.N,/Buzzer*%
X142240000Y-76200000D03*
%TO.P,U2,25,RX2*%
%TO.N,/RevTrg*%
X139700000Y-76200000D03*
%TO.P,U2,27,TX2*%
%TO.N,/MagTrg*%
X137160000Y-76200000D03*
%TO.P,U2,34,D5*%
%TO.N,/FireTrg*%
X134620000Y-76200000D03*
%TO.P,U2,35,D18*%
%TO.N,/ESC Left*%
X132080000Y-76200000D03*
%TO.P,U2,36,D23*%
%TO.N,/ESC Right*%
X129540000Y-76200000D03*
%TO.P,U2,38,D19*%
%TO.N,/SDA{slash}SDI (Data)*%
X127000000Y-76200000D03*
%TO.P,U2,39,D22*%
%TO.N,/SCL{slash}SCK (Clock)*%
X124460000Y-76200000D03*
%TO.P,U2,40,3V3*%
%TO.N,+3V3*%
X121920000Y-76200000D03*
%TD*%
D12*
%TO.P,J12,1,Pin_1*%
%TO.N,+12V*%
X160020000Y-72390000D03*
D11*
%TO.P,J12,2,Pin_2*%
%TO.N,GND*%
X157480000Y-72390000D03*
%TO.P,J12,3,Pin_3*%
%TO.N,unconnected-(J12-Pad3)*%
X154940000Y-72390000D03*
%TD*%
D16*
%TO.P,R3,1*%
%TO.N,GND*%
X158750000Y-95250000D03*
D17*
%TO.P,R3,2*%
%TO.N,/Battery Reader*%
X151130000Y-95250000D03*
%TD*%
%TO.P,R2,2*%
%TO.N,+12V*%
X158750000Y-92710000D03*
D16*
%TO.P,R2,1*%
%TO.N,/Battery Reader*%
X151130000Y-92710000D03*
%TD*%
D18*
%TO.P,JP1,1,A*%
%TO.N,Net-(J25-Pad2)*%
X109235000Y-87585000D03*
%TO.P,JP1,2,C*%
%TO.N,/IR Reciever*%
X109235000Y-88885000D03*
%TO.P,JP1,3,B*%
%TO.N,Net-(J25-Pad3)*%
X109235000Y-90185000D03*
%TD*%
D12*
%TO.P,J21,1,Pin_1*%
%TO.N,/ESC Right*%
X129550000Y-71105000D03*
D11*
%TO.P,J21,2,Pin_2*%
%TO.N,unconnected-(J21-Pad2)*%
X129550000Y-68565000D03*
%TO.P,J21,3,Pin_3*%
%TO.N,GND*%
X129550000Y-66025000D03*
%TD*%
D12*
%TO.P,J19,1,Pin_1*%
%TO.N,/Encoder Switch*%
X152370000Y-66040000D03*
D11*
%TO.P,J19,2,Pin_2*%
%TO.N,GND*%
X149830000Y-66040000D03*
%TO.P,J19,3,Pin_3*%
%TO.N,/Encoder B*%
X147290000Y-66040000D03*
%TO.P,J19,4,Pin_4*%
%TO.N,/Encoder A*%
X144750000Y-66040000D03*
%TO.P,J19,5,Pin_5*%
%TO.N,GND*%
X142210000Y-66040000D03*
%TD*%
D12*
%TO.P,J18,1,Pin_1*%
%TO.N,GND*%
X137160000Y-66040000D03*
D11*
%TO.P,J18,2,Pin_2*%
%TO.N,/MagTrg*%
X137160000Y-68580000D03*
%TD*%
D16*
%TO.P,R5,1*%
%TO.N,+3V3*%
X119370000Y-73685000D03*
D17*
%TO.P,R5,2*%
%TO.N,/SDA{slash}SDI (Data)*%
X126990000Y-73685000D03*
%TD*%
D19*
%TO.P,D1,1,K*%
%TO.N,Net-(D1-Pad1)*%
X106680000Y-72390000D03*
D20*
%TO.P,D1,2,A*%
%TO.N,+12V*%
X114300000Y-72390000D03*
%TD*%
D12*
%TO.P,J26,1,Pin_1*%
%TO.N,Net-(J26-Pad1)*%
X104155000Y-80010000D03*
D11*
%TO.P,J26,2,Pin_2*%
%TO.N,/IR Emitter*%
X104155000Y-82550000D03*
%TD*%
D12*
%TO.P,J11,1,Pin_1*%
%TO.N,GND*%
X104140000Y-95250000D03*
D11*
%TO.P,J11,2,Pin_2*%
%TO.N,/Preset A*%
X106680000Y-95250000D03*
%TD*%
D12*
%TO.P,J17,1,Pin_1*%
%TO.N,GND*%
X134620000Y-66040000D03*
D11*
%TO.P,J17,2,Pin_2*%
%TO.N,/FireTrg*%
X134620000Y-68580000D03*
%TD*%
D16*
%TO.P,R6,1*%
%TO.N,GND*%
X114315000Y-88885000D03*
D17*
%TO.P,R6,2*%
%TO.N,Net-(J25-Pad2)*%
X106695000Y-88885000D03*
%TD*%
D21*
%TO.P,Q1,1,G*%
%TO.N,Net-(Q1-Pad1)*%
X106680000Y-65715000D03*
D22*
%TO.P,Q1,2,D*%
%TO.N,Net-(D1-Pad1)*%
X109220000Y-65715000D03*
%TO.P,Q1,3,S*%
%TO.N,GND*%
X111760000Y-65715000D03*
%TD*%
D12*
%TO.P,J16,1,Pin_1*%
%TO.N,GND*%
X139700000Y-66040000D03*
D11*
%TO.P,J16,2,Pin_2*%
%TO.N,/RevTrg*%
X139700000Y-68580000D03*
%TD*%
D23*
%TO.P,U1,1,GND*%
%TO.N,GND*%
X124460000Y-80518000D03*
%TO.P,U1,2,IN*%
%TO.N,+12V*%
X124460000Y-89662000D03*
%TO.P,U1,3,GND*%
%TO.N,GND*%
X139700000Y-80518000D03*
%TO.P,U1,4,OUT*%
%TO.N,+3V3*%
X139700000Y-89662000D03*
%TD*%
D16*
%TO.P,R4,1*%
%TO.N,+3V3*%
X116830000Y-71145000D03*
D17*
%TO.P,R4,2*%
%TO.N,/SCL{slash}SCK (Clock)*%
X124450000Y-71145000D03*
%TD*%
D12*
%TO.P,J6,1,Pin_1*%
%TO.N,+12V*%
X109220000Y-74930000D03*
D11*
%TO.P,J6,2,Pin_2*%
%TO.N,Net-(D1-Pad1)*%
X106680000Y-74930000D03*
%TD*%
D16*
%TO.P,R1,1*%
%TO.N,/PUSHER PIN*%
X111760000Y-69850000D03*
D17*
%TO.P,R1,2*%
%TO.N,Net-(Q1-Pad1)*%
X104140000Y-69850000D03*
%TD*%
D12*
%TO.P,J13,1,Pin_1*%
%TO.N,GND*%
X104140000Y-97790000D03*
D11*
%TO.P,J13,2,Pin_2*%
%TO.N,/Preset B*%
X106680000Y-97790000D03*
%TD*%
D12*
%TO.P,J22,1,Pin_1*%
%TO.N,/ESC Left*%
X132080000Y-71105000D03*
D11*
%TO.P,J22,2,Pin_2*%
%TO.N,unconnected-(J22-Pad2)*%
X132080000Y-68565000D03*
%TO.P,J22,3,Pin_3*%
%TO.N,GND*%
X132080000Y-66025000D03*
%TD*%
D12*
%TO.P,J25,1,Pin_1*%
%TO.N,/IR Rec. Supply*%
X104155000Y-86360000D03*
D11*
%TO.P,J25,2,Pin_2*%
%TO.N,Net-(J25-Pad2)*%
X104155000Y-88900000D03*
%TO.P,J25,3,Pin_3*%
%TO.N,Net-(J25-Pad3)*%
X104155000Y-91440000D03*
%TD*%
D12*
%TO.P,J14,1,Pin_1*%
%TO.N,GND*%
X104140000Y-100330000D03*
D11*
%TO.P,J14,2,Pin_2*%
%TO.N,/Preset C*%
X106680000Y-100330000D03*
%TD*%
D12*
%TO.P,J20,1,Pin_1*%
%TO.N,/SDA{slash}SDI (Data)*%
X127000000Y-66040000D03*
D11*
%TO.P,J20,2,Pin_2*%
%TO.N,/SCL{slash}SCK (Clock)*%
X124460000Y-66040000D03*
%TO.P,J20,3,Pin_3*%
%TO.N,+3V3*%
X121920000Y-66040000D03*
%TO.P,J20,4,Pin_4*%
%TO.N,GND*%
X119380000Y-66040000D03*
%TD*%
D12*
%TO.P,J15,1,Pin_1*%
%TO.N,/Preset C*%
X111735000Y-100330000D03*
D11*
%TO.P,J15,2,Pin_2*%
%TO.N,/Preset B*%
X111735000Y-97790000D03*
%TO.P,J15,3,Pin_3*%
%TO.N,/Preset A*%
X111735000Y-95250000D03*
%TO.P,J15,4,Pin_4*%
%TO.N,GND*%
X111735000Y-92710000D03*
%TD*%
D16*
%TO.P,R7,1*%
%TO.N,GND*%
X114300000Y-80010000D03*
D17*
%TO.P,R7,2*%
%TO.N,Net-(J26-Pad1)*%
X106680000Y-80010000D03*
%TD*%
D24*
%TO.P,BZ1,1,-*%
%TO.N,/Buzzer*%
X148590000Y-81280000D03*
D25*
%TO.P,BZ1,2,+*%
%TO.N,GND*%
X148590000Y-88880000D03*
%TD*%
D26*
%TO.N,Net-(D1-Pad1)*%
X107983960Y-77436040D03*
X158750000Y-78740000D03*
%TO.N,/Battery Reader*%
X147320000Y-92710000D03*
X129540000Y-96520000D03*
%TO.N,GND*%
X116205000Y-90775000D03*
X116840000Y-80010000D03*
%TO.N,/Preset A*%
X129537910Y-91442090D03*
X142240000Y-91440000D03*
%TO.N,/Preset B*%
X129540000Y-93980000D03*
X142240000Y-93980000D03*
%TO.N,/Preset C*%
X127000000Y-96520000D03*
X142240000Y-96520000D03*
%TO.N,/PUSHER PIN*%
X115570000Y-76200000D03*
X114300000Y-69850000D03*
%TO.N,+12V*%
X119380000Y-89535000D03*
X121920000Y-89535000D03*
X118745000Y-81915000D03*
X142240000Y-87630000D03*
%TD*%
D27*
%TO.N,+12V*%
X158750000Y-76200000D02*
X156210000Y-76200000D01*
X160005000Y-74945000D02*
X158750000Y-76200000D01*
X156210000Y-76200000D02*
X152400000Y-80010000D01*
X160005000Y-66040000D02*
X160005000Y-74945000D01*
X152400000Y-80010000D02*
X152400000Y-83820000D01*
%TO.N,Net-(D1-Pad1)*%
X106680000Y-76132080D02*
X106680000Y-74930000D01*
X107983960Y-77436040D02*
X106680000Y-76132080D01*
D28*
%TO.N,+12V*%
X152400000Y-86360000D02*
X151130000Y-85090000D01*
D27*
X151130000Y-85090000D02*
X152400000Y-83820000D01*
X152400000Y-83820000D02*
X152400000Y-85090000D01*
X151130000Y-85090000D02*
X144780000Y-85090000D01*
X152400000Y-85090000D02*
X151130000Y-85090000D01*
%TO.N,/Encoder Switch*%
X152370000Y-76170000D02*
X152400000Y-76200000D01*
X152370000Y-66040000D02*
X152370000Y-76170000D01*
%TO.N,/Encoder B*%
X149860000Y-72390000D02*
X149860000Y-76200000D01*
X147290000Y-69820000D02*
X149860000Y-72390000D01*
X147290000Y-66040000D02*
X147290000Y-69820000D01*
%TO.N,/Encoder A*%
X147320000Y-72390000D02*
X144750000Y-69820000D01*
X147320000Y-76200000D02*
X147320000Y-72390000D01*
X144750000Y-69820000D02*
X144750000Y-66040000D01*
%TO.N,/RevTrg*%
X139700000Y-68580000D02*
X139700000Y-76200000D01*
D28*
%TO.N,+12V*%
X152400000Y-86360000D02*
X153670000Y-86360000D01*
X152400000Y-86360000D02*
X152400000Y-85090000D01*
X152400000Y-88900000D02*
X152400000Y-86360000D01*
D27*
X153670000Y-86360000D02*
X152400000Y-85090000D01*
X158750000Y-86360000D02*
X153670000Y-86360000D01*
%TO.N,Net-(D1-Pad1)*%
X158750000Y-82860000D02*
X158750000Y-78740000D01*
D28*
%TO.N,+12V*%
X156210000Y-92710000D02*
X152400000Y-88900000D01*
X158750000Y-92710000D02*
X156210000Y-92710000D01*
%TO.N,/Battery Reader*%
X151130000Y-92710000D02*
X147320000Y-92710000D01*
X151130000Y-95250000D02*
X151130000Y-92710000D01*
D27*
X129540000Y-99060000D02*
X129540000Y-96520000D01*
D28*
%TO.N,/Preset C*%
X120650000Y-96520000D02*
X127000000Y-96520000D01*
X116850000Y-100320000D02*
X120650000Y-96520000D01*
X106630000Y-100320000D02*
X116850000Y-100320000D01*
D27*
%TO.N,+3V3*%
X121920000Y-68580000D02*
X121920000Y-66040000D01*
X120642500Y-69857500D02*
X121920000Y-68580000D01*
X118117500Y-69857500D02*
X120642500Y-69857500D01*
X118117500Y-69857500D02*
X116830000Y-71145000D01*
X118100000Y-69875000D02*
X118117500Y-69857500D01*
%TO.N,/SCL{slash}SCK (Clock)*%
X124450000Y-66050000D02*
X124460000Y-66040000D01*
X124450000Y-71145000D02*
X124450000Y-66050000D01*
%TO.N,/SDA{slash}SDI (Data)*%
X126990000Y-66050000D02*
X127000000Y-66040000D01*
X126990000Y-73685000D02*
X126990000Y-66050000D01*
%TO.N,/MagTrg*%
X137160000Y-76200000D02*
X137160000Y-68580000D01*
%TO.N,/FireTrg*%
X134620000Y-68580000D02*
X134620000Y-76200000D01*
%TO.N,/ESC Left*%
X132080000Y-76200000D02*
X132080000Y-71105000D01*
%TO.N,/ESC Right*%
X129540000Y-71115000D02*
X129550000Y-71105000D01*
X129540000Y-76200000D02*
X129540000Y-71115000D01*
%TO.N,+12V*%
X144780000Y-85090000D02*
X142240000Y-87630000D01*
%TO.N,/Buzzer*%
X142240000Y-78740000D02*
X142240000Y-76200000D01*
X144780000Y-81280000D02*
X142240000Y-78740000D01*
X148590000Y-81280000D02*
X144780000Y-81280000D01*
%TO.N,GND*%
X114300000Y-80010000D02*
X116840000Y-80010000D01*
X114315000Y-88885000D02*
X116205000Y-90775000D01*
%TO.N,Net-(D1-Pad1)*%
X109220000Y-69850000D02*
X109220000Y-65715000D01*
X106680000Y-72390000D02*
X106680000Y-74930000D01*
X106680000Y-72390000D02*
X109220000Y-69850000D01*
D28*
%TO.N,/Preset A*%
X110465000Y-95240000D02*
X116215000Y-95240000D01*
X119380000Y-92075000D02*
X126365000Y-92075000D01*
X147320000Y-95250000D02*
X143510000Y-91440000D01*
X147320000Y-99060000D02*
X147320000Y-95250000D01*
X129535820Y-91440000D02*
X129537910Y-91442090D01*
X126365000Y-92075000D02*
X127000000Y-91440000D01*
X106630000Y-95240000D02*
X110465000Y-95240000D01*
X143510000Y-91440000D02*
X142240000Y-91440000D01*
X127000000Y-91440000D02*
X129535820Y-91440000D01*
X116215000Y-95240000D02*
X119380000Y-92075000D01*
%TO.N,/Preset B*%
X144780000Y-99060000D02*
X144780000Y-95250000D01*
X116850000Y-97780000D02*
X120650000Y-93980000D01*
X120650000Y-93980000D02*
X129540000Y-93980000D01*
X144780000Y-95250000D02*
X143510000Y-93980000D01*
X110465000Y-97780000D02*
X116850000Y-97780000D01*
X106630000Y-97780000D02*
X110465000Y-97780000D01*
X143510000Y-93980000D02*
X142240000Y-93980000D01*
%TO.N,/Preset C*%
X142240000Y-99060000D02*
X142240000Y-96520000D01*
D27*
%TO.N,/FireTrg*%
X134610000Y-76190000D02*
X134620000Y-76200000D01*
%TO.N,/Encoder B*%
X149850000Y-76190000D02*
X149860000Y-76200000D01*
%TO.N,/SDA{slash}SDI (Data)*%
X127000000Y-76200000D02*
X127000000Y-73695000D01*
X127000000Y-73695000D02*
X126990000Y-73685000D01*
%TO.N,/SCL{slash}SCK (Clock)*%
X124460000Y-76200000D02*
X124460000Y-71155000D01*
X124460000Y-71155000D02*
X124450000Y-71145000D01*
%TO.N,+3V3*%
X122555000Y-78105000D02*
X121920000Y-77470000D01*
X119370000Y-73685000D02*
X118092500Y-72407500D01*
X139700000Y-89662000D02*
X139700000Y-85090000D01*
X139700000Y-85090000D02*
X132715000Y-78105000D01*
X118092500Y-72407500D02*
X118100000Y-72400000D01*
X132715000Y-78105000D02*
X122555000Y-78105000D01*
X121920000Y-76200000D02*
X121885000Y-76200000D01*
X121885000Y-76200000D02*
X119370000Y-73685000D01*
X118092500Y-72407500D02*
X116830000Y-71145000D01*
X121920000Y-77470000D02*
X121920000Y-76200000D01*
D28*
%TO.N,/IR Emitter*%
X109855000Y-83820000D02*
X108585000Y-82550000D01*
X108585000Y-82550000D02*
X104155000Y-82550000D01*
X137160000Y-92075000D02*
X137160000Y-99060000D01*
X128905000Y-83820000D02*
X109855000Y-83820000D01*
X128905000Y-83820000D02*
X137160000Y-92075000D01*
D27*
%TO.N,Net-(Q1-Pad1)*%
X105410000Y-69850000D02*
X104140000Y-69850000D01*
X106680000Y-65715000D02*
X106680000Y-68580000D01*
X106680000Y-68580000D02*
X105410000Y-69850000D01*
D28*
%TO.N,/PUSHER PIN*%
X123190000Y-82550000D02*
X130175000Y-82550000D01*
X116840000Y-76200000D02*
X115570000Y-76200000D01*
X114300000Y-69850000D02*
X114625000Y-69850000D01*
X139700000Y-92075000D02*
X139700000Y-99060000D01*
X130175000Y-82550000D02*
X139700000Y-92075000D01*
X120015000Y-79375000D02*
X116840000Y-76200000D01*
X120015000Y-79375000D02*
X123190000Y-82550000D01*
X111760000Y-69850000D02*
X114300000Y-69850000D01*
D27*
%TO.N,+12V*%
X111760000Y-74930000D02*
X113192500Y-73497500D01*
X122047000Y-89662000D02*
X121920000Y-89535000D01*
X121920000Y-89535000D02*
X119380000Y-89535000D01*
X124460000Y-89662000D02*
X122047000Y-89662000D01*
X111760000Y-81915000D02*
X111760000Y-74930000D01*
X109220000Y-74930000D02*
X111760000Y-74930000D01*
X118745000Y-81915000D02*
X118110000Y-82550000D01*
X118110000Y-82550000D02*
X112395000Y-82550000D01*
X112395000Y-82550000D02*
X111760000Y-81915000D01*
X113192500Y-73497500D02*
X114300000Y-72390000D01*
D28*
%TO.N,/IR Reciever*%
X111140000Y-88885000D02*
X113665000Y-86360000D01*
X109235000Y-88885000D02*
X111140000Y-88885000D01*
X113665000Y-86360000D02*
X126841250Y-86360000D01*
X126841250Y-86360000D02*
X132080000Y-91598750D01*
X132080000Y-91598750D02*
X132080000Y-99060000D01*
%TO.N,/IR Rec. Supply*%
X106045000Y-85090000D02*
X104775000Y-86360000D01*
D27*
X104775000Y-86360000D02*
X104155000Y-86360000D01*
D28*
X134620000Y-92075000D02*
X127635000Y-85090000D01*
X134620000Y-99060000D02*
X134620000Y-92075000D01*
X127635000Y-85090000D02*
X106045000Y-85090000D01*
D27*
%TO.N,Net-(J25-Pad2)*%
X107995000Y-87585000D02*
X109235000Y-87585000D01*
X104155000Y-88900000D02*
X106680000Y-88900000D01*
X106695000Y-88885000D02*
X107995000Y-87585000D01*
X106680000Y-88900000D02*
X106695000Y-88885000D01*
%TO.N,Net-(J25-Pad3)*%
X107980000Y-91440000D02*
X104155000Y-91440000D01*
X107980000Y-91440000D02*
X109235000Y-90185000D01*
%TO.N,Net-(J26-Pad1)*%
X104155000Y-80010000D02*
X106680000Y-80010000D01*
%TD*%
%TA.AperFunction,Conductor*%
%TO.N,GND*%
G36*
X161893621Y-62858502D02*
G01*
X161940114Y-62912158D01*
X161951500Y-62964500D01*
X161951500Y-102135500D01*
X161931498Y-102203621D01*
X161877842Y-102250114D01*
X161825500Y-102261500D01*
X103604500Y-102261500D01*
X103536379Y-102241498D01*
X103489886Y-102187842D01*
X103478500Y-102135500D01*
X103478500Y-101814000D01*
X103498502Y-101745879D01*
X103552158Y-101699386D01*
X103604500Y-101688000D01*
X103671885Y-101688000D01*
X103687124Y-101683525D01*
X103688329Y-101682135D01*
X103690000Y-101674452D01*
X103690000Y-93910116D01*
X103685525Y-93894877D01*
X103684135Y-93893672D01*
X103676452Y-93892001D01*
X103604500Y-93892001D01*
X103536379Y-93871999D01*
X103489886Y-93818343D01*
X103478500Y-93766001D01*
X103478500Y-92818914D01*
X103498502Y-92750793D01*
X103552158Y-92704300D01*
X103622432Y-92694196D01*
X103649447Y-92701204D01*
X103774692Y-92749030D01*
X103779760Y-92750061D01*
X103779763Y-92750062D01*
X103887017Y-92771883D01*
X103993597Y-92793567D01*
X103998772Y-92793757D01*
X103998774Y-92793757D01*
X104211673Y-92801564D01*
X104211677Y-92801564D01*
X104216837Y-92801753D01*
X104221957Y-92801097D01*
X104221959Y-92801097D01*
X104433288Y-92774025D01*
X104433289Y-92774025D01*
X104438416Y-92773368D01*
X104513662Y-92750793D01*
X104647429Y-92710661D01*
X104647434Y-92710659D01*
X104652384Y-92709174D01*
X104852994Y-92610896D01*
X105034860Y-92481173D01*
X105037886Y-92478157D01*
X105102588Y-92449570D01*
X105118976Y-92448500D01*
X107918157Y-92448500D01*
X107931764Y-92449237D01*
X107963262Y-92452659D01*
X107963267Y-92452659D01*
X107969388Y-92453324D01*
X107995638Y-92451027D01*
X108019388Y-92448950D01*
X108024214Y-92448621D01*
X108026686Y-92448500D01*
X108029769Y-92448500D01*
X108041738Y-92447326D01*
X108072506Y-92444310D01*
X108073819Y-92444188D01*
X108118084Y-92440315D01*
X108166413Y-92436087D01*
X108171532Y-92434600D01*
X108176833Y-92434080D01*
X108265834Y-92407209D01*
X108266967Y-92406874D01*
X108350414Y-92382630D01*
X108350418Y-92382628D01*
X108356336Y-92380909D01*
X108361068Y-92378456D01*
X108366169Y-92376916D01*
X108383561Y-92367669D01*
X108448260Y-92333269D01*
X108449426Y-92332657D01*
X108526453Y-92292729D01*
X108531926Y-92289892D01*
X108536089Y-92286569D01*
X108540796Y-92284066D01*
X108591155Y-92242994D01*
X110455316Y-92242994D01*
X110455522Y-92256643D01*
X110463176Y-92260000D01*
X111266885Y-92260000D01*
X111282124Y-92255525D01*
X111283329Y-92254135D01*
X111285000Y-92246452D01*
X111285000Y-92241885D01*
X112185000Y-92241885D01*
X112189475Y-92257124D01*
X112190865Y-92258329D01*
X112198548Y-92260000D01*
X113002117Y-92260000D01*
X113015648Y-92256027D01*
X113016358Y-92251090D01*
X112937972Y-92070814D01*
X112933105Y-92061739D01*
X112817426Y-91882926D01*
X112811136Y-91874757D01*
X112667806Y-91717240D01*
X112660273Y-91710215D01*
X112493139Y-91578222D01*
X112484552Y-91572517D01*
X112298114Y-91469597D01*
X112288705Y-91465369D01*
X112202076Y-91434692D01*
X112187996Y-91433920D01*
X112185000Y-91439632D01*
X112185000Y-92241885D01*
X111285000Y-92241885D01*
X111285000Y-91446424D01*
X111281027Y-91432893D01*
X111274045Y-91431889D01*
X111211873Y-91452210D01*
X111202356Y-91456211D01*
X111013463Y-91554542D01*
X111004738Y-91560036D01*
X110834433Y-91687905D01*
X110826726Y-91694748D01*
X110679590Y-91848717D01*
X110673104Y-91856727D01*
X110553098Y-92032649D01*
X110548000Y-92041623D01*
X110458333Y-92234794D01*
X110455316Y-92242994D01*
X108591155Y-92242994D01*
X108612918Y-92225245D01*
X108613774Y-92224554D01*
X108652973Y-92193262D01*
X108655477Y-92190758D01*
X108656195Y-92190116D01*
X108660528Y-92186415D01*
X108694062Y-92159065D01*
X108723291Y-92123733D01*
X108731272Y-92114963D01*
X109169524Y-91676711D01*
X109615829Y-91230405D01*
X109678142Y-91196380D01*
X109704925Y-91193500D01*
X110033134Y-91193500D01*
X110095316Y-91186745D01*
X110231705Y-91135615D01*
X110348261Y-91048261D01*
X110435615Y-90931705D01*
X110486745Y-90795316D01*
X110493500Y-90733134D01*
X110493500Y-90071205D01*
X113770811Y-90071205D01*
X113774553Y-90076204D01*
X113860947Y-90116490D01*
X113871239Y-90120236D01*
X114081688Y-90176625D01*
X114092481Y-90178528D01*
X114309525Y-90197517D01*
X114320475Y-90197517D01*
X114537519Y-90178528D01*
X114548312Y-90176625D01*
X114758761Y-90120236D01*
X114769053Y-90116490D01*
X114848823Y-90079293D01*
X114859406Y-90069975D01*
X114857598Y-90063994D01*
X114327812Y-89534208D01*
X114313868Y-89526594D01*
X114312035Y-89526725D01*
X114305420Y-89530976D01*
X113777571Y-90058825D01*
X113770811Y-90071205D01*
X110493500Y-90071205D01*
X110493500Y-89894500D01*
X110513502Y-89826379D01*
X110567158Y-89779886D01*
X110619500Y-89768500D01*
X111060543Y-89768500D01*
X111080255Y-89770051D01*
X111093507Y-89772150D01*
X111100094Y-89771805D01*
X111100098Y-89771805D01*
X111159850Y-89768673D01*
X111166445Y-89768500D01*
X111186306Y-89768500D01*
X111206069Y-89766423D01*
X111212628Y-89765907D01*
X111228427Y-89765079D01*
X111272377Y-89762776D01*
X111272381Y-89762775D01*
X111278971Y-89762430D01*
X111291929Y-89758958D01*
X111311372Y-89755355D01*
X111311795Y-89755311D01*
X111324702Y-89753954D01*
X111387894Y-89733422D01*
X111394196Y-89731556D01*
X111451985Y-89716071D01*
X111458363Y-89714362D01*
X111464242Y-89711366D01*
X111464251Y-89711363D01*
X111470317Y-89708272D01*
X111488579Y-89700708D01*
X111495043Y-89698608D01*
X111495051Y-89698605D01*
X111501331Y-89696564D01*
X111507050Y-89693262D01*
X111507055Y-89693260D01*
X111558867Y-89663346D01*
X111564637Y-89660213D01*
X111623839Y-89630047D01*
X111634259Y-89621609D01*
X111650552Y-89610411D01*
X111650903Y-89610209D01*
X111662169Y-89603704D01*
X111667075Y-89599287D01*
X111667080Y-89599283D01*
X111711538Y-89559253D01*
X111716554Y-89554969D01*
X111729409Y-89544559D01*
X111729412Y-89544556D01*
X111731986Y-89542472D01*
X111746031Y-89528427D01*
X111750816Y-89523886D01*
X111795274Y-89483856D01*
X111795275Y-89483855D01*
X111800185Y-89479434D01*
X111808075Y-89468574D01*
X111820912Y-89453546D01*
X112837498Y-88436960D01*
X112899810Y-88402934D01*
X112970625Y-88407999D01*
X113027461Y-88450546D01*
X113052272Y-88517066D01*
X113048300Y-88558666D01*
X113023375Y-88651688D01*
X113021472Y-88662481D01*
X113002483Y-88879525D01*
X113002483Y-88890475D01*
X113021472Y-89107519D01*
X113023375Y-89118312D01*
X113079764Y-89328761D01*
X113083510Y-89339053D01*
X113120707Y-89418823D01*
X113130025Y-89429406D01*
X113136006Y-89427598D01*
X113677472Y-88886132D01*
X114956594Y-88886132D01*
X114956725Y-88887965D01*
X114960976Y-88894580D01*
X115488825Y-89422429D01*
X115501205Y-89429189D01*
X115506204Y-89425447D01*
X115546490Y-89339053D01*
X115550236Y-89328761D01*
X115606625Y-89118312D01*
X115608528Y-89107519D01*
X115627517Y-88890475D01*
X115627517Y-88879525D01*
X115608528Y-88662481D01*
X115606625Y-88651688D01*
X115550236Y-88441239D01*
X115546490Y-88430947D01*
X115509293Y-88351177D01*
X115499975Y-88340594D01*
X115493994Y-88342402D01*
X114964208Y-88872188D01*
X114956594Y-88886132D01*
X113677472Y-88886132D01*
X114852429Y-87711175D01*
X114859189Y-87698795D01*
X114855447Y-87693796D01*
X114769053Y-87653510D01*
X114758761Y-87649764D01*
X114548312Y-87593375D01*
X114537519Y-87591472D01*
X114320475Y-87572483D01*
X114309525Y-87572483D01*
X114092481Y-87591472D01*
X114081688Y-87593375D01*
X113988666Y-87618300D01*
X113917690Y-87616610D01*
X113858894Y-87576816D01*
X113830946Y-87511552D01*
X113842719Y-87441538D01*
X113866960Y-87407498D01*
X113994053Y-87280405D01*
X114056365Y-87246379D01*
X114083148Y-87243500D01*
X126423102Y-87243500D01*
X126491223Y-87263502D01*
X126512197Y-87280405D01*
X129053267Y-89821475D01*
X129087293Y-89883787D01*
X129082228Y-89954602D01*
X129039681Y-90011438D01*
X129012393Y-90026977D01*
X128946746Y-90054169D01*
X128855521Y-90091955D01*
X128855517Y-90091957D01*
X128850947Y-90093850D01*
X128846727Y-90096436D01*
X128652708Y-90215331D01*
X128652702Y-90215335D01*
X128648494Y-90217914D01*
X128467941Y-90372121D01*
X128464733Y-90375877D01*
X128348190Y-90512331D01*
X128288739Y-90551140D01*
X128252379Y-90556500D01*
X127079457Y-90556500D01*
X127059745Y-90554949D01*
X127053008Y-90553882D01*
X127053009Y-90553882D01*
X127046493Y-90552850D01*
X127039906Y-90553195D01*
X127039902Y-90553195D01*
X126980150Y-90556327D01*
X126973555Y-90556500D01*
X126953694Y-90556500D01*
X126933931Y-90558577D01*
X126927372Y-90559093D01*
X126911573Y-90559921D01*
X126867623Y-90562224D01*
X126867619Y-90562225D01*
X126861029Y-90562570D01*
X126848071Y-90566042D01*
X126828628Y-90569645D01*
X126815298Y-90571046D01*
X126752106Y-90591578D01*
X126745804Y-90593444D01*
X126692328Y-90607773D01*
X126681637Y-90610638D01*
X126675758Y-90613634D01*
X126675749Y-90613637D01*
X126669683Y-90616728D01*
X126651421Y-90624292D01*
X126644958Y-90626392D01*
X126644953Y-90626394D01*
X126638669Y-90628436D01*
X126581119Y-90661663D01*
X126575366Y-90664786D01*
X126516161Y-90694952D01*
X126511027Y-90699109D01*
X126511026Y-90699110D01*
X126505737Y-90703393D01*
X126489449Y-90714588D01*
X126477831Y-90721296D01*
X126472925Y-90725713D01*
X126472920Y-90725717D01*
X126428462Y-90765747D01*
X126423447Y-90770031D01*
X126415369Y-90776573D01*
X126408015Y-90782528D01*
X126393979Y-90796564D01*
X126389194Y-90801105D01*
X126339815Y-90845566D01*
X126331930Y-90856419D01*
X126319088Y-90871455D01*
X126035946Y-91154596D01*
X125973634Y-91188621D01*
X125946851Y-91191500D01*
X122496202Y-91191500D01*
X122428081Y-91171498D01*
X122381588Y-91117842D01*
X122371484Y-91047568D01*
X122400978Y-90982988D01*
X122447984Y-90949091D01*
X122602389Y-90885135D01*
X122602393Y-90885133D01*
X122606963Y-90883240D01*
X122626196Y-90871454D01*
X122805202Y-90761759D01*
X122805208Y-90761755D01*
X122809416Y-90759176D01*
X122813171Y-90755969D01*
X122813175Y-90755966D01*
X122857633Y-90717995D01*
X122877896Y-90700689D01*
X122942685Y-90671658D01*
X122959726Y-90670500D01*
X123645510Y-90670500D01*
X123717781Y-90693287D01*
X123807295Y-90755965D01*
X123822323Y-90766488D01*
X123827305Y-90768811D01*
X123827310Y-90768814D01*
X124015181Y-90856419D01*
X124023804Y-90860440D01*
X124029112Y-90861862D01*
X124029114Y-90861863D01*
X124064908Y-90871454D01*
X124238537Y-90917978D01*
X124460000Y-90937353D01*
X124681463Y-90917978D01*
X124855092Y-90871454D01*
X124890886Y-90861863D01*
X124890888Y-90861862D01*
X124896196Y-90860440D01*
X124904819Y-90856419D01*
X125092690Y-90768814D01*
X125092695Y-90768811D01*
X125097677Y-90766488D01*
X125242911Y-90664794D01*
X125275270Y-90642136D01*
X125275273Y-90642134D01*
X125279781Y-90638977D01*
X125436977Y-90481781D01*
X125474513Y-90428175D01*
X125561331Y-90304185D01*
X125561332Y-90304183D01*
X125564488Y-90299676D01*
X125566811Y-90294694D01*
X125566814Y-90294689D01*
X125656117Y-90103178D01*
X125656118Y-90103177D01*
X125658440Y-90098196D01*
X125666288Y-90068909D01*
X125699710Y-89944175D01*
X125715978Y-89883463D01*
X125735353Y-89662000D01*
X125715978Y-89440537D01*
X125658440Y-89225804D01*
X125651996Y-89211985D01*
X125566814Y-89029311D01*
X125566811Y-89029306D01*
X125564488Y-89024324D01*
X125528294Y-88972633D01*
X125440136Y-88846730D01*
X125440134Y-88846727D01*
X125436977Y-88842219D01*
X125279781Y-88685023D01*
X125275273Y-88681866D01*
X125275270Y-88681864D01*
X125116864Y-88570947D01*
X125097677Y-88557512D01*
X125092695Y-88555189D01*
X125092690Y-88555186D01*
X124901178Y-88465883D01*
X124901177Y-88465882D01*
X124896196Y-88463560D01*
X124890888Y-88462138D01*
X124890886Y-88462137D01*
X124825051Y-88444497D01*
X124681463Y-88406022D01*
X124460000Y-88386647D01*
X124238537Y-88406022D01*
X124094949Y-88444497D01*
X124029114Y-88462137D01*
X124029112Y-88462138D01*
X124023804Y-88463560D01*
X124018823Y-88465882D01*
X124018822Y-88465883D01*
X123827311Y-88555186D01*
X123827306Y-88555189D01*
X123822324Y-88557512D01*
X123817817Y-88560668D01*
X123817815Y-88560669D01*
X123717782Y-88630713D01*
X123645511Y-88653500D01*
X123209024Y-88653500D01*
X123140903Y-88633498D01*
X123113213Y-88609331D01*
X122993177Y-88468787D01*
X122989969Y-88465031D01*
X122809416Y-88310824D01*
X122805208Y-88308245D01*
X122805202Y-88308241D01*
X122611183Y-88189346D01*
X122606963Y-88186760D01*
X122602393Y-88184867D01*
X122602389Y-88184865D01*
X122392167Y-88097789D01*
X122392165Y-88097788D01*
X122387594Y-88095895D01*
X122307391Y-88076640D01*
X122161524Y-88041620D01*
X122161518Y-88041619D01*
X122156711Y-88040465D01*
X121920000Y-88021835D01*
X121683289Y-88040465D01*
X121678482Y-88041619D01*
X121678476Y-88041620D01*
X121532609Y-88076640D01*
X121452406Y-88095895D01*
X121447835Y-88097788D01*
X121447833Y-88097789D01*
X121237611Y-88184865D01*
X121237607Y-88184867D01*
X121233037Y-88186760D01*
X121228817Y-88189346D01*
X121034798Y-88308241D01*
X121034792Y-88308245D01*
X121030584Y-88310824D01*
X120850031Y-88465031D01*
X120846823Y-88468787D01*
X120846822Y-88468788D01*
X120835254Y-88482332D01*
X120775803Y-88521140D01*
X120739444Y-88526500D01*
X120560556Y-88526500D01*
X120492435Y-88506498D01*
X120464746Y-88482332D01*
X120453178Y-88468788D01*
X120453177Y-88468787D01*
X120449969Y-88465031D01*
X120269416Y-88310824D01*
X120265208Y-88308245D01*
X120265202Y-88308241D01*
X120071183Y-88189346D01*
X120066963Y-88186760D01*
X120062393Y-88184867D01*
X120062389Y-88184865D01*
X119852167Y-88097789D01*
X119852165Y-88097788D01*
X119847594Y-88095895D01*
X119767391Y-88076640D01*
X119621524Y-88041620D01*
X119621518Y-88041619D01*
X119616711Y-88040465D01*
X119380000Y-88021835D01*
X119143289Y-88040465D01*
X119138482Y-88041619D01*
X119138476Y-88041620D01*
X118992609Y-88076640D01*
X118912406Y-88095895D01*
X118907835Y-88097788D01*
X118907833Y-88097789D01*
X118697611Y-88184865D01*
X118697607Y-88184867D01*
X118693037Y-88186760D01*
X118688817Y-88189346D01*
X118494798Y-88308241D01*
X118494792Y-88308245D01*
X118490584Y-88310824D01*
X118310031Y-88465031D01*
X118155824Y-88645584D01*
X118153245Y-88649792D01*
X118153241Y-88649798D01*
X118048608Y-88820543D01*
X118031760Y-88848037D01*
X118029867Y-88852607D01*
X118029865Y-88852611D01*
X117958740Y-89024324D01*
X117940895Y-89067406D01*
X117936743Y-89084702D01*
X117892964Y-89267055D01*
X117885465Y-89298289D01*
X117866835Y-89535000D01*
X117885465Y-89771711D01*
X117886619Y-89776518D01*
X117886620Y-89776524D01*
X117910979Y-89877984D01*
X117940895Y-90002594D01*
X117942788Y-90007165D01*
X117942789Y-90007167D01*
X118025083Y-90205842D01*
X118031760Y-90221963D01*
X118034346Y-90226183D01*
X118153241Y-90420202D01*
X118153245Y-90420208D01*
X118155824Y-90424416D01*
X118310031Y-90604969D01*
X118313787Y-90608177D01*
X118320180Y-90613637D01*
X118490584Y-90759176D01*
X118494792Y-90761755D01*
X118494798Y-90761759D01*
X118673804Y-90871454D01*
X118693037Y-90883240D01*
X118697607Y-90885133D01*
X118697611Y-90885135D01*
X118907833Y-90972211D01*
X118912406Y-90974105D01*
X118969378Y-90987783D01*
X119046015Y-91006182D01*
X119107584Y-91041534D01*
X119140267Y-91104561D01*
X119133686Y-91175252D01*
X119089932Y-91231163D01*
X119064438Y-91244887D01*
X119061637Y-91245638D01*
X119055751Y-91248637D01*
X119055746Y-91248639D01*
X119049683Y-91251728D01*
X119031421Y-91259292D01*
X119024957Y-91261392D01*
X119024949Y-91261395D01*
X119018669Y-91263436D01*
X119012950Y-91266738D01*
X119012945Y-91266740D01*
X118961133Y-91296654D01*
X118955363Y-91299787D01*
X118896161Y-91329953D01*
X118891029Y-91334109D01*
X118885741Y-91338391D01*
X118869448Y-91349589D01*
X118857831Y-91356296D01*
X118852925Y-91360713D01*
X118852920Y-91360717D01*
X118808462Y-91400747D01*
X118803446Y-91405031D01*
X118791364Y-91414815D01*
X118788014Y-91417528D01*
X118773969Y-91431573D01*
X118769184Y-91436114D01*
X118719815Y-91480566D01*
X118711925Y-91491426D01*
X118699088Y-91506454D01*
X115885947Y-94319595D01*
X115823635Y-94353621D01*
X115796852Y-94356500D01*
X112814505Y-94356500D01*
X112746384Y-94336498D01*
X112721311Y-94315299D01*
X112668148Y-94256873D01*
X112668146Y-94256871D01*
X112664670Y-94253051D01*
X112544756Y-94158348D01*
X112493414Y-94117800D01*
X112493410Y-94117798D01*
X112489359Y-94114598D01*
X112447569Y-94091529D01*
X112397598Y-94041097D01*
X112382826Y-93971654D01*
X112407942Y-93905248D01*
X112435294Y-93878641D01*
X112610328Y-93753792D01*
X112618200Y-93747139D01*
X112769052Y-93596812D01*
X112775730Y-93588965D01*
X112900003Y-93416020D01*
X112905313Y-93407183D01*
X112999670Y-93216268D01*
X113003468Y-93206675D01*
X113012383Y-93177331D01*
X113012515Y-93163233D01*
X113005609Y-93160000D01*
X110470078Y-93160000D01*
X110456547Y-93163973D01*
X110455770Y-93169377D01*
X110516770Y-93319603D01*
X110521413Y-93328794D01*
X110632694Y-93510388D01*
X110638777Y-93518699D01*
X110778213Y-93679667D01*
X110785580Y-93686883D01*
X110949434Y-93822916D01*
X110957881Y-93828831D01*
X111026969Y-93869203D01*
X111075693Y-93920842D01*
X111088764Y-93990625D01*
X111062033Y-94056396D01*
X111021584Y-94089752D01*
X111008607Y-94096507D01*
X111004474Y-94099610D01*
X111004471Y-94099612D01*
X110848510Y-94216711D01*
X110829965Y-94230635D01*
X110756369Y-94307649D01*
X110746906Y-94317551D01*
X110685381Y-94352981D01*
X110655812Y-94356500D01*
X107759505Y-94356500D01*
X107691384Y-94336498D01*
X107666311Y-94315299D01*
X107613148Y-94256873D01*
X107613146Y-94256871D01*
X107609670Y-94253051D01*
X107489756Y-94158348D01*
X107438414Y-94117800D01*
X107438410Y-94117798D01*
X107434359Y-94114598D01*
X107238789Y-94006638D01*
X107233920Y-94004914D01*
X107233916Y-94004912D01*
X107033087Y-93933795D01*
X107033083Y-93933794D01*
X107028212Y-93932069D01*
X107023119Y-93931162D01*
X107023116Y-93931161D01*
X106813373Y-93893800D01*
X106813367Y-93893799D01*
X106808284Y-93892894D01*
X106734452Y-93891992D01*
X106590081Y-93890228D01*
X106590079Y-93890228D01*
X106584911Y-93890165D01*
X106364091Y-93923955D01*
X106151756Y-93993357D01*
X106080169Y-94030623D01*
X105963170Y-94091529D01*
X105953607Y-94096507D01*
X105949474Y-94099610D01*
X105949471Y-94099612D01*
X105793510Y-94216711D01*
X105774965Y-94230635D01*
X105771393Y-94234373D01*
X105693898Y-94315466D01*
X105632374Y-94350895D01*
X105561462Y-94347438D01*
X105503676Y-94306192D01*
X105484823Y-94272644D01*
X105443324Y-94161946D01*
X105434786Y-94146351D01*
X105358285Y-94044276D01*
X105345724Y-94031715D01*
X105243649Y-93955214D01*
X105228054Y-93946676D01*
X105107606Y-93901522D01*
X105092351Y-93897895D01*
X105041486Y-93892369D01*
X105034672Y-93892000D01*
X104608115Y-93892000D01*
X104592876Y-93896475D01*
X104591671Y-93897865D01*
X104590000Y-93905548D01*
X104590000Y-101669884D01*
X104594475Y-101685123D01*
X104595865Y-101686328D01*
X104603548Y-101687999D01*
X105034669Y-101687999D01*
X105041490Y-101687629D01*
X105092352Y-101682105D01*
X105107604Y-101678479D01*
X105228054Y-101633324D01*
X105243649Y-101624786D01*
X105345724Y-101548285D01*
X105358285Y-101535724D01*
X105434786Y-101433649D01*
X105443324Y-101418054D01*
X105484225Y-101308952D01*
X105526867Y-101252188D01*
X105593428Y-101227488D01*
X105662777Y-101242696D01*
X105697444Y-101270684D01*
X105722865Y-101300031D01*
X105722869Y-101300035D01*
X105726250Y-101303938D01*
X105898126Y-101446632D01*
X106091000Y-101559338D01*
X106299692Y-101639030D01*
X106304760Y-101640061D01*
X106304763Y-101640062D01*
X106412017Y-101661883D01*
X106518597Y-101683567D01*
X106523772Y-101683757D01*
X106523774Y-101683757D01*
X106736673Y-101691564D01*
X106736677Y-101691564D01*
X106741837Y-101691753D01*
X106746957Y-101691097D01*
X106746959Y-101691097D01*
X106958288Y-101664025D01*
X106958289Y-101664025D01*
X106963416Y-101663368D01*
X106968366Y-101661883D01*
X107172429Y-101600661D01*
X107172434Y-101600659D01*
X107177384Y-101599174D01*
X107377994Y-101500896D01*
X107559860Y-101371173D01*
X107691243Y-101240249D01*
X107753614Y-101206333D01*
X107780182Y-101203500D01*
X110264073Y-101203500D01*
X110332194Y-101223502D01*
X110378687Y-101277158D01*
X110383213Y-101290332D01*
X110383255Y-101290316D01*
X110434385Y-101426705D01*
X110521739Y-101543261D01*
X110638295Y-101630615D01*
X110774684Y-101681745D01*
X110836866Y-101688500D01*
X112633134Y-101688500D01*
X112695316Y-101681745D01*
X112831705Y-101630615D01*
X112948261Y-101543261D01*
X113035615Y-101426705D01*
X113086745Y-101290316D01*
X113088667Y-101291036D01*
X113118565Y-101238704D01*
X113181522Y-101205886D01*
X113205927Y-101203500D01*
X116770543Y-101203500D01*
X116790255Y-101205051D01*
X116803507Y-101207150D01*
X116810094Y-101206805D01*
X116810098Y-101206805D01*
X116869850Y-101203673D01*
X116876445Y-101203500D01*
X116896306Y-101203500D01*
X116916069Y-101201423D01*
X116922628Y-101200907D01*
X116938427Y-101200079D01*
X116982377Y-101197776D01*
X116982381Y-101197775D01*
X116988971Y-101197430D01*
X117001929Y-101193958D01*
X117021372Y-101190355D01*
X117021795Y-101190311D01*
X117034702Y-101188954D01*
X117097894Y-101168422D01*
X117104196Y-101166556D01*
X117161985Y-101151071D01*
X117168363Y-101149362D01*
X117174242Y-101146366D01*
X117174251Y-101146363D01*
X117180317Y-101143272D01*
X117198579Y-101135708D01*
X117205043Y-101133608D01*
X117205051Y-101133605D01*
X117211331Y-101131564D01*
X117217050Y-101128262D01*
X117217055Y-101128260D01*
X117268867Y-101098346D01*
X117274637Y-101095213D01*
X117333839Y-101065047D01*
X117344259Y-101056609D01*
X117360552Y-101045411D01*
X117360903Y-101045209D01*
X117372169Y-101038704D01*
X117377075Y-101034287D01*
X117377080Y-101034283D01*
X117421538Y-100994253D01*
X117426554Y-100989969D01*
X117439409Y-100979559D01*
X117439412Y-100979556D01*
X117441986Y-100977472D01*
X117456031Y-100963427D01*
X117460816Y-100958886D01*
X117505274Y-100918856D01*
X117505275Y-100918855D01*
X117510185Y-100914434D01*
X117518075Y-100903574D01*
X117530912Y-100888546D01*
X120979052Y-97440405D01*
X121041364Y-97406379D01*
X121068147Y-97403500D01*
X121382094Y-97403500D01*
X121450215Y-97423502D01*
X121496708Y-97477158D01*
X121506812Y-97547432D01*
X121477318Y-97612012D01*
X121439885Y-97641465D01*
X121242936Y-97743118D01*
X121064708Y-97879877D01*
X120913515Y-98046036D01*
X120910537Y-98050783D01*
X120910535Y-98050786D01*
X120840628Y-98162229D01*
X120794136Y-98236344D01*
X120710344Y-98444783D01*
X120664787Y-98664767D01*
X120661500Y-98721775D01*
X120661500Y-99366999D01*
X120661749Y-99369786D01*
X120661749Y-99369792D01*
X120664287Y-99398225D01*
X120676383Y-99533762D01*
X120735663Y-99750451D01*
X120738075Y-99755509D01*
X120738077Y-99755513D01*
X120763292Y-99808376D01*
X120832378Y-99953218D01*
X120963471Y-100135654D01*
X120967503Y-100139561D01*
X121120362Y-100287692D01*
X121124799Y-100291992D01*
X121311262Y-100417290D01*
X121516967Y-100507588D01*
X121522418Y-100508897D01*
X121522422Y-100508898D01*
X121729954Y-100558722D01*
X121735411Y-100560032D01*
X121819475Y-100564879D01*
X121954083Y-100572640D01*
X121954086Y-100572640D01*
X121959690Y-100572963D01*
X122182715Y-100545975D01*
X122397435Y-100479918D01*
X122402415Y-100477348D01*
X122402419Y-100477346D01*
X122592081Y-100379454D01*
X122592082Y-100379454D01*
X122597064Y-100376882D01*
X122775292Y-100240123D01*
X122926485Y-100073964D01*
X123045864Y-99883656D01*
X123072961Y-99816250D01*
X123116925Y-99760510D01*
X123184050Y-99737384D01*
X123253021Y-99754221D01*
X123303592Y-99809005D01*
X123372378Y-99953218D01*
X123503471Y-100135654D01*
X123507503Y-100139561D01*
X123660362Y-100287692D01*
X123664799Y-100291992D01*
X123851262Y-100417290D01*
X124056967Y-100507588D01*
X124062418Y-100508897D01*
X124062422Y-100508898D01*
X124269954Y-100558722D01*
X124275411Y-100560032D01*
X124359475Y-100564879D01*
X124494083Y-100572640D01*
X124494086Y-100572640D01*
X124499690Y-100572963D01*
X124722715Y-100545975D01*
X124937435Y-100479918D01*
X124942415Y-100477348D01*
X124942419Y-100477346D01*
X125132081Y-100379454D01*
X125132082Y-100379454D01*
X125137064Y-100376882D01*
X125315292Y-100240123D01*
X125466485Y-100073964D01*
X125585864Y-99883656D01*
X125612961Y-99816250D01*
X125656925Y-99760510D01*
X125724050Y-99737384D01*
X125793021Y-99754221D01*
X125843592Y-99809005D01*
X125912378Y-99953218D01*
X126043471Y-100135654D01*
X126047503Y-100139561D01*
X126200362Y-100287692D01*
X126204799Y-100291992D01*
X126391262Y-100417290D01*
X126596967Y-100507588D01*
X126602418Y-100508897D01*
X126602422Y-100508898D01*
X126809954Y-100558722D01*
X126815411Y-100560032D01*
X126899475Y-100564879D01*
X127034083Y-100572640D01*
X127034086Y-100572640D01*
X127039690Y-100572963D01*
X127262715Y-100545975D01*
X127477435Y-100479918D01*
X127482415Y-100477348D01*
X127482419Y-100477346D01*
X127672081Y-100379454D01*
X127672082Y-100379454D01*
X127677064Y-100376882D01*
X127855292Y-100240123D01*
X128006485Y-100073964D01*
X128125864Y-99883656D01*
X128152961Y-99816250D01*
X128196925Y-99760510D01*
X128264050Y-99737384D01*
X128333021Y-99754221D01*
X128383592Y-99809005D01*
X128452378Y-99953218D01*
X128583471Y-100135654D01*
X128587503Y-100139561D01*
X128740362Y-100287692D01*
X128744799Y-100291992D01*
X128931262Y-100417290D01*
X129136967Y-100507588D01*
X129142418Y-100508897D01*
X129142422Y-100508898D01*
X129349954Y-100558722D01*
X129355411Y-100560032D01*
X129439475Y-100564879D01*
X129574083Y-100572640D01*
X129574086Y-100572640D01*
X129579690Y-100572963D01*
X129802715Y-100545975D01*
X130017435Y-100479918D01*
X130022415Y-100477348D01*
X130022419Y-100477346D01*
X130212081Y-100379454D01*
X130212082Y-100379454D01*
X130217064Y-100376882D01*
X130395292Y-100240123D01*
X130546485Y-100073964D01*
X130665864Y-99883656D01*
X130692961Y-99816250D01*
X130736925Y-99760510D01*
X130804050Y-99737384D01*
X130873021Y-99754221D01*
X130923592Y-99809005D01*
X130992378Y-99953218D01*
X131123471Y-100135654D01*
X131127503Y-100139561D01*
X131280362Y-100287692D01*
X131284799Y-100291992D01*
X131471262Y-100417290D01*
X131676967Y-100507588D01*
X131682418Y-100508897D01*
X131682422Y-100508898D01*
X131889954Y-100558722D01*
X131895411Y-100560032D01*
X131979475Y-100564879D01*
X132114083Y-100572640D01*
X132114086Y-100572640D01*
X132119690Y-100572963D01*
X132342715Y-100545975D01*
X132557435Y-100479918D01*
X132562415Y-100477348D01*
X132562419Y-100477346D01*
X132752081Y-100379454D01*
X132752082Y-100379454D01*
X132757064Y-100376882D01*
X132935292Y-100240123D01*
X133086485Y-100073964D01*
X133205864Y-99883656D01*
X133232961Y-99816250D01*
X133276925Y-99760510D01*
X133344050Y-99737384D01*
X133413021Y-99754221D01*
X133463592Y-99809005D01*
X133532378Y-99953218D01*
X133663471Y-100135654D01*
X133667503Y-100139561D01*
X133820362Y-100287692D01*
X133824799Y-100291992D01*
X134011262Y-100417290D01*
X134216967Y-100507588D01*
X134222418Y-100508897D01*
X134222422Y-100508898D01*
X134429954Y-100558722D01*
X134435411Y-100560032D01*
X134519475Y-100564879D01*
X134654083Y-100572640D01*
X134654086Y-100572640D01*
X134659690Y-100572963D01*
X134882715Y-100545975D01*
X135097435Y-100479918D01*
X135102415Y-100477348D01*
X135102419Y-100477346D01*
X135292081Y-100379454D01*
X135292082Y-100379454D01*
X135297064Y-100376882D01*
X135475292Y-100240123D01*
X135626485Y-100073964D01*
X135745864Y-99883656D01*
X135772961Y-99816250D01*
X135816925Y-99760510D01*
X135884050Y-99737384D01*
X135953021Y-99754221D01*
X136003592Y-99809005D01*
X136072378Y-99953218D01*
X136203471Y-100135654D01*
X136207503Y-100139561D01*
X136360362Y-100287692D01*
X136364799Y-100291992D01*
X136551262Y-100417290D01*
X136756967Y-100507588D01*
X136762418Y-100508897D01*
X136762422Y-100508898D01*
X136969954Y-100558722D01*
X136975411Y-100560032D01*
X137059475Y-100564879D01*
X137194083Y-100572640D01*
X137194086Y-100572640D01*
X137199690Y-100572963D01*
X137422715Y-100545975D01*
X137637435Y-100479918D01*
X137642415Y-100477348D01*
X137642419Y-100477346D01*
X137832081Y-100379454D01*
X137832082Y-100379454D01*
X137837064Y-100376882D01*
X138015292Y-100240123D01*
X138166485Y-100073964D01*
X138285864Y-99883656D01*
X138312961Y-99816250D01*
X138356925Y-99760510D01*
X138424050Y-99737384D01*
X138493021Y-99754221D01*
X138543592Y-99809005D01*
X138612378Y-99953218D01*
X138743471Y-100135654D01*
X138747503Y-100139561D01*
X138900362Y-100287692D01*
X138904799Y-100291992D01*
X139091262Y-100417290D01*
X139296967Y-100507588D01*
X139302418Y-100508897D01*
X139302422Y-100508898D01*
X139509954Y-100558722D01*
X139515411Y-100560032D01*
X139599475Y-100564879D01*
X139734083Y-100572640D01*
X139734086Y-100572640D01*
X139739690Y-100572963D01*
X139962715Y-100545975D01*
X140177435Y-100479918D01*
X140182415Y-100477348D01*
X140182419Y-100477346D01*
X140372081Y-100379454D01*
X140372082Y-100379454D01*
X140377064Y-100376882D01*
X140555292Y-100240123D01*
X140706485Y-100073964D01*
X140825864Y-99883656D01*
X140852961Y-99816250D01*
X140896925Y-99760510D01*
X140964050Y-99737384D01*
X141033021Y-99754221D01*
X141083592Y-99809005D01*
X141152378Y-99953218D01*
X141283471Y-100135654D01*
X141287503Y-100139561D01*
X141440362Y-100287692D01*
X141444799Y-100291992D01*
X141631262Y-100417290D01*
X141836967Y-100507588D01*
X141842418Y-100508897D01*
X141842422Y-100508898D01*
X142049954Y-100558722D01*
X142055411Y-100560032D01*
X142139475Y-100564879D01*
X142274083Y-100572640D01*
X142274086Y-100572640D01*
X142279690Y-100572963D01*
X142502715Y-100545975D01*
X142717435Y-100479918D01*
X142722415Y-100477348D01*
X142722419Y-100477346D01*
X142912081Y-100379454D01*
X142912082Y-100379454D01*
X142917064Y-100376882D01*
X143095292Y-100240123D01*
X143246485Y-100073964D01*
X143365864Y-99883656D01*
X143392961Y-99816250D01*
X143436925Y-99760510D01*
X143504050Y-99737384D01*
X143573021Y-99754221D01*
X143623592Y-99809005D01*
X143692378Y-99953218D01*
X143823471Y-100135654D01*
X143827503Y-100139561D01*
X143980362Y-100287692D01*
X143984799Y-100291992D01*
X144171262Y-100417290D01*
X144376967Y-100507588D01*
X144382418Y-100508897D01*
X144382422Y-100508898D01*
X144589954Y-100558722D01*
X144595411Y-100560032D01*
X144679475Y-100564879D01*
X144814083Y-100572640D01*
X144814086Y-100572640D01*
X144819690Y-100572963D01*
X145042715Y-100545975D01*
X145257435Y-100479918D01*
X145262415Y-100477348D01*
X145262419Y-100477346D01*
X145452081Y-100379454D01*
X145452082Y-100379454D01*
X145457064Y-100376882D01*
X145635292Y-100240123D01*
X145786485Y-100073964D01*
X145905864Y-99883656D01*
X145932961Y-99816250D01*
X145976925Y-99760510D01*
X146044050Y-99737384D01*
X146113021Y-99754221D01*
X146163592Y-99809005D01*
X146232378Y-99953218D01*
X146363471Y-100135654D01*
X146367503Y-100139561D01*
X146520362Y-100287692D01*
X146524799Y-100291992D01*
X146711262Y-100417290D01*
X146916967Y-100507588D01*
X146922418Y-100508897D01*
X146922422Y-100508898D01*
X147129954Y-100558722D01*
X147135411Y-100560032D01*
X147219475Y-100564879D01*
X147354083Y-100572640D01*
X147354086Y-100572640D01*
X147359690Y-100572963D01*
X147582715Y-100545975D01*
X147797435Y-100479918D01*
X147802415Y-100477348D01*
X147802419Y-100477346D01*
X147992081Y-100379454D01*
X147992082Y-100379454D01*
X147997064Y-100376882D01*
X148175292Y-100240123D01*
X148326485Y-100073964D01*
X148445864Y-99883656D01*
X148472961Y-99816250D01*
X148516925Y-99760510D01*
X148584050Y-99737384D01*
X148653021Y-99754221D01*
X148703592Y-99809005D01*
X148772378Y-99953218D01*
X148903471Y-100135654D01*
X148907503Y-100139561D01*
X149060362Y-100287692D01*
X149064799Y-100291992D01*
X149251262Y-100417290D01*
X149456967Y-100507588D01*
X149462418Y-100508897D01*
X149462422Y-100508898D01*
X149669954Y-100558722D01*
X149675411Y-100560032D01*
X149759475Y-100564879D01*
X149894083Y-100572640D01*
X149894086Y-100572640D01*
X149899690Y-100572963D01*
X150122715Y-100545975D01*
X150337435Y-100479918D01*
X150342415Y-100477348D01*
X150342419Y-100477346D01*
X150532081Y-100379454D01*
X150532082Y-100379454D01*
X150537064Y-100376882D01*
X150715292Y-100240123D01*
X150866485Y-100073964D01*
X150985864Y-99883656D01*
X151013214Y-99815622D01*
X151057178Y-99759880D01*
X151124303Y-99736755D01*
X151193274Y-99753592D01*
X151243845Y-99808376D01*
X151310397Y-99947903D01*
X151316082Y-99957516D01*
X151440575Y-100130767D01*
X151447883Y-100139233D01*
X151601082Y-100287692D01*
X151609779Y-100294735D01*
X151786844Y-100413718D01*
X151796647Y-100419107D01*
X151933412Y-100479143D01*
X151947399Y-100480944D01*
X151950000Y-100476762D01*
X151950000Y-100469720D01*
X152850000Y-100469720D01*
X152853973Y-100483251D01*
X152861420Y-100484321D01*
X152871881Y-100481103D01*
X152882228Y-100476881D01*
X153071814Y-100379029D01*
X153081245Y-100373043D01*
X153250501Y-100243168D01*
X153258724Y-100235607D01*
X153402312Y-100077806D01*
X153409067Y-100068906D01*
X153522434Y-99888185D01*
X153527511Y-99878219D01*
X153607080Y-99680286D01*
X153610315Y-99669571D01*
X153639686Y-99527741D01*
X153638539Y-99513684D01*
X153628352Y-99510000D01*
X152868115Y-99510000D01*
X152852876Y-99514475D01*
X152851671Y-99515865D01*
X152850000Y-99523548D01*
X152850000Y-100469720D01*
X151950000Y-100469720D01*
X151950000Y-98591885D01*
X152850000Y-98591885D01*
X152854475Y-98607124D01*
X152855865Y-98608329D01*
X152863548Y-98610000D01*
X153627121Y-98610000D01*
X153641716Y-98605714D01*
X153643779Y-98593676D01*
X153643622Y-98591912D01*
X153641643Y-98580917D01*
X153585349Y-98375140D01*
X153581451Y-98364659D01*
X153489603Y-98172097D01*
X153483918Y-98162484D01*
X153359425Y-97989233D01*
X153352117Y-97980767D01*
X153198918Y-97832308D01*
X153190221Y-97825265D01*
X153013156Y-97706282D01*
X153003353Y-97700893D01*
X152866588Y-97640857D01*
X152852601Y-97639056D01*
X152850000Y-97643238D01*
X152850000Y-98591885D01*
X151950000Y-98591885D01*
X151950000Y-97650280D01*
X151946027Y-97636749D01*
X151938580Y-97635679D01*
X151928119Y-97638897D01*
X151917772Y-97643119D01*
X151728186Y-97740971D01*
X151718755Y-97746957D01*
X151549499Y-97876832D01*
X151541276Y-97884393D01*
X151397688Y-98042194D01*
X151390933Y-98051094D01*
X151277566Y-98231815D01*
X151272489Y-98241781D01*
X151247333Y-98304358D01*
X151203367Y-98360103D01*
X151136242Y-98383228D01*
X151067271Y-98366391D01*
X151016700Y-98311607D01*
X151013242Y-98304358D01*
X150947622Y-98166782D01*
X150816529Y-97984346D01*
X150708726Y-97879877D01*
X150659229Y-97831911D01*
X150659226Y-97831909D01*
X150655201Y-97828008D01*
X150468738Y-97702710D01*
X150263033Y-97612412D01*
X150257582Y-97611103D01*
X150257578Y-97611102D01*
X150050046Y-97561278D01*
X150050045Y-97561278D01*
X150044589Y-97559968D01*
X149960525Y-97555121D01*
X149825917Y-97547360D01*
X149825914Y-97547360D01*
X149820310Y-97547037D01*
X149597285Y-97574025D01*
X149382565Y-97640082D01*
X149377585Y-97642652D01*
X149377581Y-97642654D01*
X149244185Y-97711505D01*
X149182936Y-97743118D01*
X149004708Y-97879877D01*
X148853515Y-98046036D01*
X148850537Y-98050783D01*
X148850535Y-98050786D01*
X148780628Y-98162229D01*
X148734136Y-98236344D01*
X148707039Y-98303750D01*
X148663075Y-98359490D01*
X148595950Y-98382616D01*
X148526979Y-98365779D01*
X148476408Y-98310995D01*
X148473242Y-98304358D01*
X148407622Y-98166782D01*
X148276529Y-97984346D01*
X148241815Y-97950706D01*
X148206815Y-97888936D01*
X148203500Y-97860222D01*
X148203500Y-95329457D01*
X148205051Y-95309745D01*
X148206118Y-95303008D01*
X148207150Y-95296493D01*
X148206529Y-95284634D01*
X148203673Y-95230150D01*
X148203500Y-95223555D01*
X148203500Y-95203694D01*
X148201423Y-95183929D01*
X148200907Y-95177367D01*
X148197776Y-95117623D01*
X148197775Y-95117619D01*
X148197430Y-95111029D01*
X148193958Y-95098071D01*
X148190355Y-95078628D01*
X148190311Y-95078205D01*
X148188954Y-95065298D01*
X148168422Y-95002106D01*
X148166556Y-94995804D01*
X148151071Y-94938015D01*
X148149362Y-94931637D01*
X148146366Y-94925758D01*
X148146363Y-94925749D01*
X148143272Y-94919683D01*
X148135708Y-94901421D01*
X148133608Y-94894958D01*
X148133606Y-94894953D01*
X148131564Y-94888669D01*
X148124728Y-94876828D01*
X148098353Y-94831146D01*
X148095205Y-94825348D01*
X148068048Y-94772048D01*
X148068046Y-94772045D01*
X148065048Y-94766161D01*
X148056607Y-94755737D01*
X148045412Y-94739449D01*
X148042005Y-94733548D01*
X148042004Y-94733547D01*
X148038704Y-94727831D01*
X148034287Y-94722925D01*
X148034283Y-94722920D01*
X147994253Y-94678462D01*
X147989969Y-94673447D01*
X147979548Y-94660579D01*
X147977472Y-94658015D01*
X147963436Y-94643979D01*
X147958895Y-94639194D01*
X147918856Y-94594726D01*
X147918855Y-94594725D01*
X147914434Y-94589815D01*
X147909094Y-94585935D01*
X147909086Y-94585928D01*
X147903578Y-94581927D01*
X147888543Y-94569086D01*
X147689418Y-94369961D01*
X147655392Y-94307649D01*
X147660457Y-94236834D01*
X147703004Y-94179998D01*
X147749098Y-94158348D01*
X147782773Y-94150263D01*
X147782780Y-94150261D01*
X147787594Y-94149105D01*
X147794243Y-94146351D01*
X148002389Y-94060135D01*
X148002393Y-94060133D01*
X148006963Y-94058240D01*
X148052077Y-94030594D01*
X148205202Y-93936759D01*
X148205208Y-93936755D01*
X148209416Y-93934176D01*
X148389969Y-93779969D01*
X148412326Y-93753792D01*
X148511505Y-93637669D01*
X148570956Y-93598860D01*
X148607316Y-93593500D01*
X150110812Y-93593500D01*
X150178933Y-93613502D01*
X150199907Y-93630405D01*
X150209595Y-93640093D01*
X150243621Y-93702405D01*
X150246500Y-93729188D01*
X150246500Y-94230812D01*
X150226498Y-94298933D01*
X150209595Y-94319907D01*
X150123802Y-94405700D01*
X149992477Y-94593251D01*
X149990154Y-94598233D01*
X149990151Y-94598238D01*
X149927056Y-94733548D01*
X149895716Y-94800757D01*
X149894294Y-94806065D01*
X149894293Y-94806067D01*
X149843453Y-94995804D01*
X149836457Y-95021913D01*
X149816502Y-95250000D01*
X149836457Y-95478087D01*
X149837881Y-95483400D01*
X149837881Y-95483402D01*
X149882802Y-95651046D01*
X149895716Y-95699243D01*
X149898039Y-95704224D01*
X149898039Y-95704225D01*
X149988961Y-95899208D01*
X149992477Y-95906749D01*
X150031167Y-95962004D01*
X150118380Y-96086556D01*
X150123802Y-96094300D01*
X150285700Y-96256198D01*
X150290208Y-96259355D01*
X150290211Y-96259357D01*
X150324390Y-96283289D01*
X150473251Y-96387523D01*
X150478233Y-96389846D01*
X150478238Y-96389849D01*
X150631068Y-96461114D01*
X150680757Y-96484284D01*
X150686065Y-96485706D01*
X150686067Y-96485707D01*
X150896598Y-96542119D01*
X150896600Y-96542119D01*
X150901913Y-96543543D01*
X151130000Y-96563498D01*
X151358087Y-96543543D01*
X151363400Y-96542119D01*
X151363402Y-96542119D01*
X151573933Y-96485707D01*
X151573935Y-96485706D01*
X151579243Y-96484284D01*
X151628932Y-96461114D01*
X151682350Y-96436205D01*
X158205811Y-96436205D01*
X158209553Y-96441204D01*
X158295947Y-96481490D01*
X158306239Y-96485236D01*
X158516688Y-96541625D01*
X158527481Y-96543528D01*
X158744525Y-96562517D01*
X158755475Y-96562517D01*
X158972519Y-96543528D01*
X158983312Y-96541625D01*
X159193761Y-96485236D01*
X159204053Y-96481490D01*
X159283823Y-96444293D01*
X159294406Y-96434975D01*
X159292598Y-96428994D01*
X158762812Y-95899208D01*
X158748868Y-95891594D01*
X158747035Y-95891725D01*
X158740420Y-95895976D01*
X158212571Y-96423825D01*
X158205811Y-96436205D01*
X151682350Y-96436205D01*
X151781762Y-96389849D01*
X151781767Y-96389846D01*
X151786749Y-96387523D01*
X151935610Y-96283289D01*
X151969789Y-96259357D01*
X151969792Y-96259355D01*
X151974300Y-96256198D01*
X152136198Y-96094300D01*
X152141621Y-96086556D01*
X152228833Y-95962004D01*
X152267523Y-95906749D01*
X152271040Y-95899208D01*
X152361961Y-95704225D01*
X152361961Y-95704224D01*
X152364284Y-95699243D01*
X152377199Y-95651046D01*
X152422119Y-95483402D01*
X152422119Y-95483400D01*
X152423543Y-95478087D01*
X152443019Y-95255475D01*
X157437483Y-95255475D01*
X157456472Y-95472519D01*
X157458375Y-95483312D01*
X157514764Y-95693761D01*
X157518510Y-95704053D01*
X157555707Y-95783823D01*
X157565025Y-95794406D01*
X157571006Y-95792598D01*
X158100792Y-95262812D01*
X158107170Y-95251132D01*
X159391594Y-95251132D01*
X159391725Y-95252965D01*
X159395976Y-95259580D01*
X159923825Y-95787429D01*
X159936205Y-95794189D01*
X159941204Y-95790447D01*
X159981490Y-95704053D01*
X159985236Y-95693761D01*
X160041625Y-95483312D01*
X160043528Y-95472519D01*
X160062517Y-95255475D01*
X160062517Y-95244525D01*
X160043528Y-95027481D01*
X160041625Y-95016688D01*
X159985236Y-94806239D01*
X159981490Y-94795947D01*
X159944293Y-94716177D01*
X159934975Y-94705594D01*
X159928994Y-94707402D01*
X159399208Y-95237188D01*
X159391594Y-95251132D01*
X158107170Y-95251132D01*
X158108406Y-95248868D01*
X158108275Y-95247035D01*
X158104024Y-95240420D01*
X157576175Y-94712571D01*
X157563795Y-94705811D01*
X157558796Y-94709553D01*
X157518510Y-94795947D01*
X157514764Y-94806239D01*
X157458375Y-95016688D01*
X157456472Y-95027481D01*
X157437483Y-95244525D01*
X157437483Y-95255475D01*
X152443019Y-95255475D01*
X152443498Y-95250000D01*
X152423543Y-95021913D01*
X152416547Y-94995804D01*
X152365707Y-94806067D01*
X152365706Y-94806065D01*
X152364284Y-94800757D01*
X152332944Y-94733548D01*
X152269849Y-94598238D01*
X152269846Y-94598233D01*
X152267523Y-94593251D01*
X152136198Y-94405700D01*
X152050405Y-94319907D01*
X152016379Y-94257595D01*
X152013500Y-94230812D01*
X152013500Y-93729188D01*
X152033502Y-93661067D01*
X152050405Y-93640093D01*
X152136198Y-93554300D01*
X152156219Y-93525708D01*
X152215975Y-93440367D01*
X152267523Y-93366749D01*
X152269846Y-93361767D01*
X152269849Y-93361762D01*
X152361961Y-93164225D01*
X152361961Y-93164224D01*
X152364284Y-93159243D01*
X152371426Y-93132591D01*
X152422119Y-92943402D01*
X152422119Y-92943400D01*
X152423543Y-92938087D01*
X152443498Y-92710000D01*
X152423543Y-92481913D01*
X152415739Y-92452787D01*
X152365707Y-92266067D01*
X152365706Y-92266065D01*
X152364284Y-92260757D01*
X152359776Y-92251090D01*
X152269849Y-92058238D01*
X152269846Y-92058233D01*
X152267523Y-92053251D01*
X152136198Y-91865700D01*
X151974300Y-91703802D01*
X151969792Y-91700645D01*
X151969789Y-91700643D01*
X151873823Y-91633447D01*
X151786749Y-91572477D01*
X151781767Y-91570154D01*
X151781762Y-91570151D01*
X151584225Y-91478039D01*
X151584224Y-91478039D01*
X151579243Y-91475716D01*
X151573935Y-91474294D01*
X151573933Y-91474293D01*
X151363402Y-91417881D01*
X151363400Y-91417881D01*
X151358087Y-91416457D01*
X151130000Y-91396502D01*
X150901913Y-91416457D01*
X150896600Y-91417881D01*
X150896598Y-91417881D01*
X150686067Y-91474293D01*
X150686065Y-91474294D01*
X150680757Y-91475716D01*
X150675776Y-91478039D01*
X150675775Y-91478039D01*
X150478238Y-91570151D01*
X150478233Y-91570154D01*
X150473251Y-91572477D01*
X150386177Y-91633447D01*
X150290211Y-91700643D01*
X150290208Y-91700645D01*
X150285700Y-91703802D01*
X150199907Y-91789595D01*
X150137595Y-91823621D01*
X150110812Y-91826500D01*
X148607316Y-91826500D01*
X148539195Y-91806498D01*
X148511505Y-91782331D01*
X148393177Y-91643787D01*
X148389969Y-91640031D01*
X148209416Y-91485824D01*
X148205208Y-91483245D01*
X148205202Y-91483241D01*
X148011183Y-91364346D01*
X148006963Y-91361760D01*
X148002393Y-91359867D01*
X148002389Y-91359865D01*
X147792167Y-91272789D01*
X147792165Y-91272788D01*
X147787594Y-91270895D01*
X147682391Y-91245638D01*
X147561524Y-91216620D01*
X147561518Y-91216619D01*
X147556711Y-91215465D01*
X147320000Y-91196835D01*
X147083289Y-91215465D01*
X147078482Y-91216619D01*
X147078476Y-91216620D01*
X146957609Y-91245638D01*
X146852406Y-91270895D01*
X146847835Y-91272788D01*
X146847833Y-91272789D01*
X146637611Y-91359865D01*
X146637607Y-91359867D01*
X146633037Y-91361760D01*
X146628817Y-91364346D01*
X146434798Y-91483241D01*
X146434792Y-91483245D01*
X146430584Y-91485824D01*
X146250031Y-91640031D01*
X146095824Y-91820584D01*
X146093245Y-91824792D01*
X146093241Y-91824798D01*
X145991935Y-91990115D01*
X145971760Y-92023037D01*
X145969867Y-92027607D01*
X145969865Y-92027611D01*
X145888326Y-92224465D01*
X145880895Y-92242406D01*
X145879738Y-92247224D01*
X145879737Y-92247228D01*
X145871652Y-92280901D01*
X145836300Y-92342470D01*
X145773273Y-92375152D01*
X145702582Y-92368571D01*
X145660039Y-92340581D01*
X144190912Y-90871454D01*
X144178075Y-90856426D01*
X144170185Y-90845566D01*
X144120816Y-90801114D01*
X144116031Y-90796573D01*
X144101986Y-90782528D01*
X144099409Y-90780441D01*
X144086554Y-90770031D01*
X144081538Y-90765747D01*
X144037080Y-90725717D01*
X144037075Y-90725713D01*
X144032169Y-90721296D01*
X144020552Y-90714589D01*
X144004259Y-90703391D01*
X143998971Y-90699109D01*
X143993839Y-90694953D01*
X143934637Y-90664787D01*
X143928867Y-90661654D01*
X143877055Y-90631740D01*
X143877050Y-90631738D01*
X143871331Y-90628436D01*
X143865051Y-90626395D01*
X143865043Y-90626392D01*
X143858579Y-90624292D01*
X143840317Y-90616728D01*
X143834251Y-90613637D01*
X143834242Y-90613634D01*
X143828363Y-90610638D01*
X143817672Y-90607773D01*
X143764196Y-90593444D01*
X143757894Y-90591578D01*
X143694702Y-90571046D01*
X143681372Y-90569645D01*
X143661929Y-90566042D01*
X143648971Y-90562570D01*
X143642381Y-90562225D01*
X143642377Y-90562224D01*
X143598427Y-90559921D01*
X143582628Y-90559093D01*
X143576069Y-90558577D01*
X143556306Y-90556500D01*
X143536445Y-90556500D01*
X143529852Y-90556327D01*
X143520292Y-90555826D01*
X143453312Y-90532285D01*
X143431077Y-90511830D01*
X143313177Y-90373787D01*
X143309969Y-90370031D01*
X143131952Y-90217990D01*
X147894026Y-90217990D01*
X147899665Y-90225523D01*
X147907836Y-90229686D01*
X148117988Y-90316734D01*
X148127373Y-90319783D01*
X148348554Y-90372885D01*
X148358301Y-90374428D01*
X148585070Y-90392275D01*
X148594930Y-90392275D01*
X148821699Y-90374428D01*
X148831446Y-90372885D01*
X149052627Y-90319783D01*
X149062012Y-90316734D01*
X149272164Y-90229686D01*
X149277339Y-90227050D01*
X149286040Y-90217431D01*
X149282256Y-90208652D01*
X148602812Y-89529208D01*
X148588868Y-89521594D01*
X148587035Y-89521725D01*
X148580420Y-89525976D01*
X147900786Y-90205610D01*
X147894026Y-90217990D01*
X143131952Y-90217990D01*
X143129416Y-90215824D01*
X143125208Y-90213245D01*
X143125202Y-90213241D01*
X142931183Y-90094346D01*
X142926963Y-90091760D01*
X142922393Y-90089867D01*
X142922389Y-90089865D01*
X142712167Y-90002789D01*
X142712165Y-90002788D01*
X142707594Y-90000895D01*
X142627391Y-89981640D01*
X142481524Y-89946620D01*
X142481518Y-89946619D01*
X142476711Y-89945465D01*
X142240000Y-89926835D01*
X142003289Y-89945465D01*
X141998482Y-89946619D01*
X141998476Y-89946620D01*
X141852609Y-89981640D01*
X141772406Y-90000895D01*
X141767835Y-90002788D01*
X141767833Y-90002789D01*
X141557611Y-90089865D01*
X141557607Y-90089867D01*
X141553037Y-90091760D01*
X141548817Y-90094346D01*
X141354798Y-90213241D01*
X141354792Y-90213245D01*
X141350584Y-90215824D01*
X141170031Y-90370031D01*
X141015824Y-90550584D01*
X141013245Y-90554792D01*
X141013241Y-90554798D01*
X140903957Y-90733134D01*
X140891760Y-90753037D01*
X140889867Y-90757607D01*
X140889865Y-90757611D01*
X140823241Y-90918457D01*
X140800895Y-90972406D01*
X140792786Y-91006182D01*
X140747124Y-91196380D01*
X140745465Y-91203289D01*
X140726835Y-91440000D01*
X140727223Y-91444930D01*
X140742060Y-91633447D01*
X140727464Y-91702927D01*
X140677622Y-91753486D01*
X140608357Y-91769073D01*
X140541661Y-91744738D01*
X140507329Y-91706333D01*
X140478346Y-91656133D01*
X140475213Y-91650363D01*
X140445047Y-91591161D01*
X140436609Y-91580741D01*
X140425411Y-91564448D01*
X140425209Y-91564097D01*
X140418704Y-91552831D01*
X140414287Y-91547925D01*
X140414283Y-91547920D01*
X140374253Y-91503462D01*
X140369969Y-91498446D01*
X140359559Y-91485591D01*
X140359556Y-91485588D01*
X140357472Y-91483014D01*
X140343427Y-91468969D01*
X140338886Y-91464184D01*
X140298856Y-91419726D01*
X140298855Y-91419725D01*
X140294434Y-91414815D01*
X140283574Y-91406925D01*
X140268546Y-91394088D01*
X139974020Y-91099562D01*
X139939994Y-91037250D01*
X139945059Y-90966435D01*
X139987606Y-90909599D01*
X140030503Y-90888761D01*
X140095092Y-90871454D01*
X140130886Y-90861863D01*
X140130888Y-90861862D01*
X140136196Y-90860440D01*
X140144819Y-90856419D01*
X140332690Y-90768814D01*
X140332695Y-90768811D01*
X140337677Y-90766488D01*
X140482911Y-90664794D01*
X140515270Y-90642136D01*
X140515273Y-90642134D01*
X140519781Y-90638977D01*
X140676977Y-90481781D01*
X140714513Y-90428175D01*
X140801331Y-90304185D01*
X140801332Y-90304183D01*
X140804488Y-90299676D01*
X140806811Y-90294694D01*
X140806814Y-90294689D01*
X140896117Y-90103178D01*
X140896118Y-90103177D01*
X140898440Y-90098196D01*
X140906288Y-90068909D01*
X140939710Y-89944175D01*
X140955978Y-89883463D01*
X140975353Y-89662000D01*
X140955978Y-89440537D01*
X140898440Y-89225804D01*
X140891996Y-89211985D01*
X140806814Y-89029311D01*
X140806811Y-89029306D01*
X140804488Y-89024324D01*
X140763691Y-88966059D01*
X140731287Y-88919782D01*
X140708500Y-88847511D01*
X140708500Y-88464672D01*
X140728502Y-88396551D01*
X140782158Y-88350058D01*
X140852432Y-88339954D01*
X140917012Y-88369448D01*
X140941932Y-88398836D01*
X141015824Y-88519416D01*
X141170031Y-88699969D01*
X141350584Y-88854176D01*
X141354792Y-88856755D01*
X141354798Y-88856759D01*
X141538505Y-88969335D01*
X141553037Y-88978240D01*
X141557607Y-88980133D01*
X141557611Y-88980135D01*
X141767833Y-89067211D01*
X141772406Y-89069105D01*
X141852609Y-89088360D01*
X141998476Y-89123380D01*
X141998482Y-89123381D01*
X142003289Y-89124535D01*
X142240000Y-89143165D01*
X142476711Y-89124535D01*
X142481518Y-89123381D01*
X142481524Y-89123380D01*
X142627391Y-89088360D01*
X142707594Y-89069105D01*
X142712167Y-89067211D01*
X142922389Y-88980135D01*
X142922393Y-88980133D01*
X142926963Y-88978240D01*
X142941495Y-88969335D01*
X143079231Y-88884930D01*
X147077725Y-88884930D01*
X147095572Y-89111699D01*
X147097115Y-89121446D01*
X147150217Y-89342627D01*
X147153266Y-89352012D01*
X147240314Y-89562164D01*
X147242950Y-89567339D01*
X147252569Y-89576040D01*
X147261348Y-89572256D01*
X147940792Y-88892812D01*
X147947170Y-88881132D01*
X149231594Y-88881132D01*
X149231725Y-88882965D01*
X149235976Y-88889580D01*
X149915610Y-89569214D01*
X149927990Y-89575974D01*
X149935523Y-89570335D01*
X149939686Y-89562164D01*
X150026734Y-89352012D01*
X150029783Y-89342627D01*
X150082885Y-89121446D01*
X150084428Y-89111699D01*
X150102275Y-88884930D01*
X150102275Y-88875070D01*
X150084428Y-88648301D01*
X150082885Y-88638554D01*
X150029783Y-88417373D01*
X150026734Y-88407988D01*
X149939686Y-88197836D01*
X149937050Y-88192661D01*
X149927431Y-88183960D01*
X149918652Y-88187744D01*
X149239208Y-88867188D01*
X149231594Y-88881132D01*
X147947170Y-88881132D01*
X147948406Y-88878868D01*
X147948275Y-88877035D01*
X147944024Y-88870420D01*
X147264390Y-88190786D01*
X147252010Y-88184026D01*
X147244477Y-88189665D01*
X147240314Y-88197836D01*
X147153266Y-88407988D01*
X147150217Y-88417373D01*
X147097115Y-88638554D01*
X147095572Y-88648301D01*
X147077725Y-88875070D01*
X147077725Y-88884930D01*
X143079231Y-88884930D01*
X143125202Y-88856759D01*
X143125208Y-88856755D01*
X143129416Y-88854176D01*
X143309969Y-88699969D01*
X143464176Y-88519416D01*
X143466755Y-88515208D01*
X143466759Y-88515202D01*
X143585654Y-88321183D01*
X143588240Y-88316963D01*
X143620834Y-88238275D01*
X143677211Y-88102167D01*
X143677212Y-88102165D01*
X143679105Y-88097594D01*
X143720959Y-87923261D01*
X143733380Y-87871524D01*
X143733381Y-87871518D01*
X143734535Y-87866711D01*
X143753165Y-87630000D01*
X143752111Y-87616610D01*
X143751380Y-87607319D01*
X143764982Y-87542569D01*
X147893960Y-87542569D01*
X147897744Y-87551348D01*
X148577188Y-88230792D01*
X148591132Y-88238406D01*
X148592965Y-88238275D01*
X148599580Y-88234024D01*
X149279214Y-87554390D01*
X149285974Y-87542010D01*
X149280335Y-87534477D01*
X149272164Y-87530314D01*
X149062012Y-87443266D01*
X149052627Y-87440217D01*
X148831446Y-87387115D01*
X148821699Y-87385572D01*
X148594930Y-87367725D01*
X148585070Y-87367725D01*
X148358301Y-87385572D01*
X148348554Y-87387115D01*
X148127373Y-87440217D01*
X148117988Y-87443266D01*
X147907836Y-87530314D01*
X147902661Y-87532950D01*
X147893960Y-87542569D01*
X143764982Y-87542569D01*
X143765976Y-87537839D01*
X143787897Y-87508338D01*
X145160830Y-86135405D01*
X145223142Y-86101379D01*
X145249925Y-86098500D01*
X150836852Y-86098500D01*
X150904973Y-86118502D01*
X150925947Y-86135405D01*
X151479595Y-86689053D01*
X151513621Y-86751365D01*
X151516500Y-86778148D01*
X151516500Y-88820543D01*
X151514949Y-88840255D01*
X151512850Y-88853507D01*
X151513195Y-88860094D01*
X151513195Y-88860098D01*
X151516327Y-88919850D01*
X151516500Y-88926445D01*
X151516500Y-88946306D01*
X151516844Y-88949577D01*
X151518576Y-88966059D01*
X151519093Y-88972633D01*
X151522064Y-89029311D01*
X151522570Y-89038971D01*
X151526042Y-89051929D01*
X151529645Y-89071372D01*
X151531046Y-89084702D01*
X151551578Y-89147894D01*
X151553444Y-89154196D01*
X151570638Y-89218363D01*
X151573634Y-89224242D01*
X151573637Y-89224251D01*
X151576728Y-89230317D01*
X151584292Y-89248579D01*
X151586392Y-89255043D01*
X151586395Y-89255051D01*
X151588436Y-89261331D01*
X151591738Y-89267050D01*
X151591740Y-89267055D01*
X151621654Y-89318867D01*
X151624787Y-89324637D01*
X151654953Y-89383839D01*
X151659109Y-89388971D01*
X151663391Y-89394259D01*
X151674589Y-89410552D01*
X151681296Y-89422169D01*
X151685713Y-89427075D01*
X151685717Y-89427080D01*
X151725747Y-89471538D01*
X151730031Y-89476554D01*
X151740441Y-89489409D01*
X151742528Y-89491986D01*
X151756573Y-89506031D01*
X151761114Y-89510816D01*
X151775439Y-89526725D01*
X151805566Y-89560185D01*
X151816426Y-89568075D01*
X151831454Y-89580912D01*
X155529085Y-93278542D01*
X155541926Y-93293577D01*
X155545927Y-93299084D01*
X155545932Y-93299090D01*
X155549815Y-93304434D01*
X155554725Y-93308855D01*
X155554726Y-93308856D01*
X155599194Y-93348895D01*
X155603979Y-93353436D01*
X155618015Y-93367472D01*
X155620579Y-93369548D01*
X155633447Y-93379969D01*
X155638462Y-93384253D01*
X155682920Y-93424283D01*
X155682925Y-93424287D01*
X155687831Y-93428704D01*
X155693547Y-93432004D01*
X155693548Y-93432005D01*
X155699449Y-93435412D01*
X155715737Y-93446607D01*
X155726161Y-93455048D01*
X155785366Y-93485214D01*
X155791119Y-93488337D01*
X155848669Y-93521564D01*
X155854953Y-93523606D01*
X155854958Y-93523608D01*
X155861421Y-93525708D01*
X155879683Y-93533272D01*
X155885749Y-93536363D01*
X155885758Y-93536366D01*
X155891637Y-93539362D01*
X155898015Y-93541071D01*
X155955804Y-93556556D01*
X155962106Y-93558422D01*
X156025298Y-93578954D01*
X156038205Y-93580311D01*
X156038628Y-93580355D01*
X156058071Y-93583958D01*
X156071029Y-93587430D01*
X156077619Y-93587775D01*
X156077623Y-93587776D01*
X156121573Y-93590079D01*
X156137372Y-93590907D01*
X156143931Y-93591423D01*
X156163694Y-93593500D01*
X156183555Y-93593500D01*
X156190150Y-93593673D01*
X156249902Y-93596805D01*
X156249906Y-93596805D01*
X156256493Y-93597150D01*
X156269747Y-93595051D01*
X156289456Y-93593500D01*
X157730812Y-93593500D01*
X157798933Y-93613502D01*
X157819907Y-93630405D01*
X157905700Y-93716198D01*
X157910208Y-93719355D01*
X157910211Y-93719357D01*
X157976826Y-93766001D01*
X158093251Y-93847523D01*
X158098236Y-93849847D01*
X158098242Y-93849851D01*
X158153563Y-93875647D01*
X158206849Y-93922564D01*
X158226310Y-93990841D01*
X158214295Y-94030594D01*
X158214398Y-94030623D01*
X158205078Y-94063320D01*
X158207402Y-94071006D01*
X158737188Y-94600792D01*
X158751132Y-94608406D01*
X158752965Y-94608275D01*
X158759580Y-94604024D01*
X159287429Y-94076175D01*
X159294804Y-94062670D01*
X159271439Y-94000031D01*
X159286530Y-93930656D01*
X159336731Y-93880453D01*
X159343868Y-93876845D01*
X159401762Y-93849849D01*
X159401767Y-93849846D01*
X159406749Y-93847523D01*
X159523174Y-93766001D01*
X159589789Y-93719357D01*
X159589792Y-93719355D01*
X159594300Y-93716198D01*
X159756198Y-93554300D01*
X159776219Y-93525708D01*
X159835975Y-93440367D01*
X159887523Y-93366749D01*
X159889846Y-93361767D01*
X159889849Y-93361762D01*
X159981961Y-93164225D01*
X159981961Y-93164224D01*
X159984284Y-93159243D01*
X159991426Y-93132591D01*
X160042119Y-92943402D01*
X160042119Y-92943400D01*
X160043543Y-92938087D01*
X160063498Y-92710000D01*
X160043543Y-92481913D01*
X160035739Y-92452787D01*
X159985707Y-92266067D01*
X159985706Y-92266065D01*
X159984284Y-92260757D01*
X159979776Y-92251090D01*
X159889849Y-92058238D01*
X159889846Y-92058233D01*
X159887523Y-92053251D01*
X159756198Y-91865700D01*
X159594300Y-91703802D01*
X159589792Y-91700645D01*
X159589789Y-91700643D01*
X159493823Y-91633447D01*
X159406749Y-91572477D01*
X159401767Y-91570154D01*
X159401762Y-91570151D01*
X159204225Y-91478039D01*
X159204224Y-91478039D01*
X159199243Y-91475716D01*
X159193935Y-91474294D01*
X159193933Y-91474293D01*
X158983402Y-91417881D01*
X158983400Y-91417881D01*
X158978087Y-91416457D01*
X158750000Y-91396502D01*
X158521913Y-91416457D01*
X158516600Y-91417881D01*
X158516598Y-91417881D01*
X158306067Y-91474293D01*
X158306065Y-91474294D01*
X158300757Y-91475716D01*
X158295776Y-91478039D01*
X158295775Y-91478039D01*
X158098238Y-91570151D01*
X158098233Y-91570154D01*
X158093251Y-91572477D01*
X158006177Y-91633447D01*
X157910211Y-91700643D01*
X157910208Y-91700645D01*
X157905700Y-91703802D01*
X157819907Y-91789595D01*
X157757595Y-91823621D01*
X157730812Y-91826500D01*
X156628147Y-91826500D01*
X156560026Y-91806498D01*
X156539052Y-91789595D01*
X153320405Y-88570947D01*
X153286379Y-88508635D01*
X153283500Y-88481852D01*
X153283500Y-87467623D01*
X153303502Y-87399502D01*
X153357158Y-87353009D01*
X153427432Y-87342905D01*
X153447600Y-87347522D01*
X153459306Y-87351235D01*
X153464602Y-87351829D01*
X153469698Y-87353387D01*
X153562257Y-87362790D01*
X153563393Y-87362911D01*
X153597008Y-87366681D01*
X153609730Y-87368108D01*
X153609734Y-87368108D01*
X153613227Y-87368500D01*
X153616754Y-87368500D01*
X153617739Y-87368555D01*
X153623419Y-87369002D01*
X153652825Y-87371989D01*
X153660337Y-87372752D01*
X153660339Y-87372752D01*
X153666462Y-87373374D01*
X153712108Y-87369059D01*
X153723967Y-87368500D01*
X156915500Y-87368500D01*
X156983621Y-87388502D01*
X157030114Y-87442158D01*
X157041500Y-87494500D01*
X157041500Y-87608134D01*
X157048255Y-87670316D01*
X157099385Y-87806705D01*
X157186739Y-87923261D01*
X157303295Y-88010615D01*
X157439684Y-88061745D01*
X157501866Y-88068500D01*
X159998134Y-88068500D01*
X160060316Y-88061745D01*
X160196705Y-88010615D01*
X160313261Y-87923261D01*
X160400615Y-87806705D01*
X160451745Y-87670316D01*
X160458500Y-87608134D01*
X160458500Y-85111866D01*
X160451745Y-85049684D01*
X160400615Y-84913295D01*
X160313261Y-84796739D01*
X160196705Y-84709385D01*
X160060316Y-84658255D01*
X159998134Y-84651500D01*
X159520964Y-84651500D01*
X159452843Y-84631498D01*
X159406350Y-84577842D01*
X159396246Y-84507568D01*
X159425740Y-84442988D01*
X159471225Y-84409733D01*
X159541110Y-84379708D01*
X159545090Y-84377245D01*
X159545094Y-84377243D01*
X159753064Y-84248547D01*
X159753066Y-84248545D01*
X159757047Y-84246082D01*
X159761171Y-84242591D01*
X159947289Y-84085031D01*
X159947291Y-84085029D01*
X159950862Y-84082006D01*
X160118295Y-83891084D01*
X160122836Y-83884025D01*
X160253141Y-83681442D01*
X160255669Y-83677512D01*
X160359967Y-83445980D01*
X160428896Y-83201575D01*
X160460943Y-82949667D01*
X160463291Y-82860000D01*
X160448895Y-82666274D01*
X160444818Y-82611411D01*
X160444817Y-82611407D01*
X160444472Y-82606759D01*
X160441063Y-82591690D01*
X160389459Y-82363639D01*
X160388428Y-82359082D01*
X160363923Y-82296068D01*
X160298084Y-82126762D01*
X160298083Y-82126760D01*
X160296391Y-82122409D01*
X160290553Y-82112194D01*
X160172702Y-81905997D01*
X160172700Y-81905995D01*
X160170383Y-81901940D01*
X160013171Y-81702517D01*
X159828209Y-81528523D01*
X159812680Y-81517750D01*
X159768110Y-81462487D01*
X159758500Y-81414223D01*
X159758500Y-79920556D01*
X159778502Y-79852435D01*
X159802668Y-79824746D01*
X159816212Y-79813178D01*
X159816213Y-79813177D01*
X159819969Y-79809969D01*
X159974176Y-79629416D01*
X159976755Y-79625208D01*
X159976759Y-79625202D01*
X160095654Y-79431183D01*
X160098240Y-79426963D01*
X160100897Y-79420550D01*
X160187211Y-79212167D01*
X160187212Y-79212165D01*
X160189105Y-79207594D01*
X160213067Y-79107786D01*
X160243380Y-78981524D01*
X160243381Y-78981518D01*
X160244535Y-78976711D01*
X160263165Y-78740000D01*
X160244535Y-78503289D01*
X160189105Y-78272406D01*
X160136827Y-78146195D01*
X160100135Y-78057611D01*
X160100133Y-78057607D01*
X160098240Y-78053037D01*
X160028253Y-77938829D01*
X159976759Y-77854798D01*
X159976755Y-77854792D01*
X159974176Y-77850584D01*
X159834162Y-77686649D01*
X159823177Y-77673787D01*
X159819969Y-77670031D01*
X159639416Y-77515824D01*
X159635203Y-77513242D01*
X159635202Y-77513241D01*
X159441183Y-77394346D01*
X159436963Y-77391760D01*
X159432393Y-77389867D01*
X159432389Y-77389865D01*
X159245525Y-77312464D01*
X159190244Y-77267916D01*
X159167823Y-77200552D01*
X159185381Y-77131761D01*
X159235754Y-77084193D01*
X159301926Y-77049892D01*
X159306089Y-77046569D01*
X159310796Y-77044066D01*
X159382918Y-76985245D01*
X159383774Y-76984554D01*
X159422973Y-76953262D01*
X159425477Y-76950758D01*
X159426195Y-76950116D01*
X159430528Y-76946415D01*
X159464062Y-76919065D01*
X159493288Y-76883737D01*
X159501277Y-76874958D01*
X160087735Y-76288500D01*
X160674379Y-75701855D01*
X160684522Y-75692753D01*
X160709218Y-75672897D01*
X160714025Y-75669032D01*
X160746292Y-75630578D01*
X160749472Y-75626931D01*
X160751115Y-75625119D01*
X160753309Y-75622925D01*
X160780642Y-75589651D01*
X160781348Y-75588800D01*
X160804580Y-75561114D01*
X160841154Y-75517526D01*
X160843722Y-75512856D01*
X160847103Y-75508739D01*
X160890977Y-75426914D01*
X160891606Y-75425755D01*
X160933462Y-75349619D01*
X160933465Y-75349611D01*
X160936433Y-75344213D01*
X160938045Y-75339131D01*
X160940562Y-75334437D01*
X160967762Y-75245469D01*
X160968108Y-75244358D01*
X160971672Y-75233126D01*
X160996235Y-75155694D01*
X160996829Y-75150398D01*
X160998387Y-75145302D01*
X161007790Y-75052743D01*
X161007911Y-75051607D01*
X161013500Y-75001773D01*
X161013500Y-74998246D01*
X161013555Y-74997261D01*
X161014002Y-74991581D01*
X161018374Y-74948538D01*
X161014059Y-74902891D01*
X161013500Y-74891033D01*
X161013500Y-73816633D01*
X161033502Y-73748512D01*
X161087158Y-73702019D01*
X161095269Y-73698652D01*
X161108293Y-73693769D01*
X161108296Y-73693768D01*
X161116705Y-73690615D01*
X161233261Y-73603261D01*
X161320615Y-73486705D01*
X161371745Y-73350316D01*
X161378500Y-73288134D01*
X161378500Y-71491866D01*
X161371745Y-71429684D01*
X161320615Y-71293295D01*
X161233261Y-71176739D01*
X161116705Y-71089385D01*
X161108296Y-71086232D01*
X161108293Y-71086231D01*
X161095269Y-71081348D01*
X161038505Y-71038706D01*
X161013806Y-70972144D01*
X161013500Y-70963367D01*
X161013500Y-67461009D01*
X161033502Y-67392888D01*
X161087158Y-67346395D01*
X161092694Y-67344097D01*
X161093296Y-67343768D01*
X161101705Y-67340615D01*
X161218261Y-67253261D01*
X161305615Y-67136705D01*
X161356745Y-67000316D01*
X161363500Y-66938134D01*
X161363500Y-65141866D01*
X161356745Y-65079684D01*
X161305615Y-64943295D01*
X161218261Y-64826739D01*
X161101705Y-64739385D01*
X160965316Y-64688255D01*
X160903134Y-64681500D01*
X159106866Y-64681500D01*
X159044684Y-64688255D01*
X158908295Y-64739385D01*
X158791739Y-64826739D01*
X158704385Y-64943295D01*
X158701233Y-64951703D01*
X158701232Y-64951705D01*
X158659722Y-65062433D01*
X158617081Y-65119198D01*
X158550519Y-65143898D01*
X158481170Y-65128691D01*
X158448546Y-65103004D01*
X158397799Y-65047234D01*
X158390273Y-65040215D01*
X158223139Y-64908222D01*
X158214552Y-64902517D01*
X158028114Y-64799597D01*
X158018705Y-64795369D01*
X157932076Y-64764692D01*
X157917996Y-64763920D01*
X157915000Y-64769632D01*
X157915000Y-67304753D01*
X157918973Y-67318284D01*
X157926617Y-67319383D01*
X157957250Y-67310192D01*
X157966845Y-67306432D01*
X158158095Y-67212739D01*
X158166945Y-67207464D01*
X158340328Y-67083792D01*
X158348193Y-67077145D01*
X158452897Y-66972805D01*
X158515268Y-66938889D01*
X158586075Y-66944077D01*
X158642837Y-66986723D01*
X158659819Y-67017826D01*
X158684549Y-67083792D01*
X158704385Y-67136705D01*
X158791739Y-67253261D01*
X158908295Y-67340615D01*
X158916704Y-67343767D01*
X158924575Y-67348077D01*
X158923664Y-67349741D01*
X158971490Y-67385663D01*
X158996193Y-67452224D01*
X158996500Y-67461009D01*
X158996500Y-70976093D01*
X158976498Y-71044214D01*
X158931222Y-71086413D01*
X158923295Y-71089385D01*
X158806739Y-71176739D01*
X158719385Y-71293295D01*
X158716233Y-71301703D01*
X158716232Y-71301705D01*
X158674722Y-71412433D01*
X158632081Y-71469198D01*
X158565519Y-71493898D01*
X158496170Y-71478691D01*
X158463546Y-71453004D01*
X158412799Y-71397234D01*
X158405273Y-71390215D01*
X158238139Y-71258222D01*
X158229552Y-71252517D01*
X158043114Y-71149597D01*
X158033705Y-71145369D01*
X157947076Y-71114692D01*
X157932996Y-71113920D01*
X157930000Y-71119632D01*
X157930000Y-73654753D01*
X157933973Y-73668284D01*
X157941617Y-73669383D01*
X157972250Y-73660192D01*
X157981845Y-73656432D01*
X158173095Y-73562739D01*
X158181945Y-73557464D01*
X158355328Y-73433792D01*
X158363193Y-73427145D01*
X158467897Y-73322805D01*
X158530268Y-73288889D01*
X158601075Y-73294077D01*
X158657837Y-73336723D01*
X158674819Y-73367826D01*
X158719385Y-73486705D01*
X158806739Y-73603261D01*
X158841596Y-73629385D01*
X158884290Y-73661382D01*
X158923295Y-73690615D01*
X158931198Y-73693578D01*
X158981154Y-73743644D01*
X158996500Y-73803907D01*
X158996500Y-74475074D01*
X158976498Y-74543195D01*
X158959596Y-74564169D01*
X158369171Y-75154595D01*
X158306858Y-75188620D01*
X158280075Y-75191500D01*
X156271850Y-75191500D01*
X156258242Y-75190763D01*
X156257662Y-75190700D01*
X156220612Y-75186675D01*
X156170570Y-75191053D01*
X156165788Y-75191379D01*
X156163310Y-75191500D01*
X156160231Y-75191500D01*
X156157177Y-75191799D01*
X156157166Y-75191800D01*
X156117529Y-75195687D01*
X156116215Y-75195809D01*
X156080688Y-75198917D01*
X156023587Y-75203913D01*
X156018468Y-75205400D01*
X156013167Y-75205920D01*
X155924166Y-75232791D01*
X155923033Y-75233126D01*
X155839586Y-75257370D01*
X155839582Y-75257372D01*
X155833664Y-75259091D01*
X155828932Y-75261544D01*
X155823831Y-75263084D01*
X155818388Y-75265978D01*
X155741740Y-75306731D01*
X155740574Y-75307343D01*
X155679250Y-75339131D01*
X155658074Y-75350108D01*
X155653911Y-75353431D01*
X155649204Y-75355934D01*
X155644429Y-75359828D01*
X155644428Y-75359829D01*
X155577102Y-75414739D01*
X155576075Y-75415567D01*
X155539792Y-75444531D01*
X155539787Y-75444536D01*
X155537028Y-75446738D01*
X155534527Y-75449239D01*
X155533809Y-75449881D01*
X155529461Y-75453594D01*
X155495938Y-75480935D01*
X155492015Y-75485677D01*
X155492013Y-75485679D01*
X155466703Y-75516273D01*
X155458713Y-75525053D01*
X153516713Y-77467053D01*
X153454401Y-77501079D01*
X153427539Y-77499158D01*
X153429811Y-77509035D01*
X153405794Y-77575845D01*
X153393129Y-77590637D01*
X151730621Y-79253145D01*
X151720478Y-79262247D01*
X151690975Y-79285968D01*
X151673513Y-79306778D01*
X151658709Y-79324421D01*
X151655528Y-79328069D01*
X151653885Y-79329881D01*
X151651691Y-79332075D01*
X151624358Y-79365349D01*
X151623696Y-79366147D01*
X151563846Y-79437474D01*
X151561278Y-79442144D01*
X151557897Y-79446261D01*
X151538044Y-79483287D01*
X151514023Y-79528086D01*
X151513394Y-79529245D01*
X151471538Y-79605381D01*
X151471535Y-79605389D01*
X151468567Y-79610787D01*
X151466955Y-79615869D01*
X151464438Y-79620563D01*
X151437238Y-79709531D01*
X151436918Y-79710559D01*
X151408765Y-79799306D01*
X151408171Y-79804602D01*
X151406613Y-79809698D01*
X151401253Y-79862469D01*
X151397218Y-79902187D01*
X151397089Y-79903393D01*
X151391500Y-79953227D01*
X151391500Y-79956754D01*
X151391445Y-79957739D01*
X151390998Y-79963419D01*
X151386626Y-80006462D01*
X151389163Y-80033295D01*
X151390941Y-80052109D01*
X151391500Y-80063967D01*
X151391500Y-83350074D01*
X151371498Y-83418195D01*
X151354596Y-83439169D01*
X150749171Y-84044595D01*
X150686858Y-84078620D01*
X150660075Y-84081500D01*
X144841840Y-84081500D01*
X144828232Y-84080763D01*
X144796736Y-84077341D01*
X144796732Y-84077341D01*
X144790611Y-84076676D01*
X144772611Y-84078251D01*
X144740609Y-84081050D01*
X144735784Y-84081379D01*
X144733313Y-84081500D01*
X144730231Y-84081500D01*
X144707763Y-84083703D01*
X144687489Y-84085691D01*
X144686174Y-84085813D01*
X144653913Y-84088636D01*
X144593587Y-84093913D01*
X144588468Y-84095400D01*
X144583167Y-84095920D01*
X144494133Y-84122801D01*
X144493000Y-84123136D01*
X144409578Y-84147373D01*
X144409574Y-84147375D01*
X144403663Y-84149092D01*
X144398934Y-84151543D01*
X144393831Y-84153084D01*
X144311669Y-84196770D01*
X144310627Y-84197317D01*
X144266180Y-84220356D01*
X144228074Y-84240108D01*
X144223911Y-84243431D01*
X144219204Y-84245934D01*
X144214430Y-84249828D01*
X144214428Y-84249829D01*
X144147105Y-84304737D01*
X144146160Y-84305500D01*
X144107027Y-84336739D01*
X144104536Y-84339230D01*
X144103809Y-84339880D01*
X144099463Y-84343592D01*
X144095649Y-84346703D01*
X144065938Y-84370935D01*
X144062015Y-84375677D01*
X144062013Y-84375679D01*
X144036703Y-84406273D01*
X144028713Y-84415053D01*
X142361663Y-86082103D01*
X142299351Y-86116129D01*
X142262682Y-86118620D01*
X142244931Y-86117223D01*
X142244930Y-86117223D01*
X142240000Y-86116835D01*
X142003289Y-86135465D01*
X141998482Y-86136619D01*
X141998476Y-86136620D01*
X141852609Y-86171640D01*
X141772406Y-86190895D01*
X141767835Y-86192788D01*
X141767833Y-86192789D01*
X141557611Y-86279865D01*
X141557607Y-86279867D01*
X141553037Y-86281760D01*
X141548817Y-86284346D01*
X141354798Y-86403241D01*
X141354792Y-86403245D01*
X141350584Y-86405824D01*
X141170031Y-86560031D01*
X141015824Y-86740584D01*
X140955763Y-86838594D01*
X140941933Y-86861163D01*
X140889285Y-86908794D01*
X140819244Y-86920401D01*
X140754046Y-86892298D01*
X140714392Y-86833407D01*
X140708500Y-86795328D01*
X140708500Y-85151850D01*
X140709237Y-85138242D01*
X140712659Y-85106739D01*
X140713325Y-85100612D01*
X140708947Y-85050570D01*
X140708621Y-85045788D01*
X140708500Y-85043310D01*
X140708500Y-85040231D01*
X140708201Y-85037177D01*
X140708200Y-85037166D01*
X140704313Y-84997529D01*
X140704191Y-84996215D01*
X140696623Y-84909718D01*
X140696087Y-84903587D01*
X140694600Y-84898468D01*
X140694080Y-84893167D01*
X140667209Y-84804166D01*
X140666874Y-84803033D01*
X140642630Y-84719586D01*
X140642628Y-84719582D01*
X140640909Y-84713664D01*
X140638456Y-84708932D01*
X140636916Y-84703831D01*
X140620133Y-84672266D01*
X140593269Y-84621740D01*
X140592657Y-84620574D01*
X140552729Y-84543547D01*
X140549892Y-84538074D01*
X140546569Y-84533911D01*
X140544066Y-84529204D01*
X140520988Y-84500907D01*
X140485261Y-84457102D01*
X140484433Y-84456075D01*
X140455469Y-84419792D01*
X140455464Y-84419787D01*
X140453262Y-84417028D01*
X140450761Y-84414527D01*
X140450119Y-84413809D01*
X140446406Y-84409461D01*
X140423645Y-84381554D01*
X140419065Y-84375938D01*
X140414323Y-84372015D01*
X140414321Y-84372013D01*
X140383727Y-84346703D01*
X140374947Y-84338713D01*
X137711844Y-81675610D01*
X139184406Y-81675610D01*
X139188148Y-81680609D01*
X139258993Y-81713645D01*
X139269285Y-81717391D01*
X139473309Y-81772059D01*
X139484104Y-81773962D01*
X139694525Y-81792372D01*
X139705475Y-81792372D01*
X139915896Y-81773962D01*
X139926691Y-81772059D01*
X140130715Y-81717391D01*
X140141007Y-81713645D01*
X140205228Y-81683698D01*
X140215811Y-81674379D01*
X140214004Y-81668400D01*
X139712812Y-81167208D01*
X139698868Y-81159594D01*
X139697035Y-81159725D01*
X139690420Y-81163976D01*
X139191166Y-81663230D01*
X139184406Y-81675610D01*
X137711844Y-81675610D01*
X136559709Y-80523475D01*
X138425628Y-80523475D01*
X138444038Y-80733896D01*
X138445941Y-80744691D01*
X138500609Y-80948715D01*
X138504355Y-80959007D01*
X138534302Y-81023228D01*
X138543621Y-81033811D01*
X138549600Y-81032004D01*
X139050792Y-80530812D01*
X139057170Y-80519132D01*
X140341594Y-80519132D01*
X140341725Y-80520965D01*
X140345976Y-80527580D01*
X140845230Y-81026834D01*
X140857610Y-81033594D01*
X140862609Y-81029852D01*
X140895645Y-80959007D01*
X140899391Y-80948715D01*
X140954059Y-80744691D01*
X140955962Y-80733896D01*
X140974372Y-80523475D01*
X140974372Y-80512525D01*
X140955962Y-80302104D01*
X140954059Y-80291309D01*
X140899391Y-80087285D01*
X140895645Y-80076993D01*
X140865698Y-80012772D01*
X140856379Y-80002189D01*
X140850400Y-80003996D01*
X140349208Y-80505188D01*
X140341594Y-80519132D01*
X139057170Y-80519132D01*
X139058406Y-80516868D01*
X139058275Y-80515035D01*
X139054024Y-80508420D01*
X138554770Y-80009166D01*
X138542390Y-80002406D01*
X138537391Y-80006148D01*
X138504355Y-80076993D01*
X138500609Y-80087285D01*
X138445941Y-80291309D01*
X138444038Y-80302104D01*
X138425628Y-80512525D01*
X138425628Y-80523475D01*
X136559709Y-80523475D01*
X135397855Y-79361621D01*
X139184189Y-79361621D01*
X139185996Y-79367600D01*
X139687188Y-79868792D01*
X139701132Y-79876406D01*
X139702965Y-79876275D01*
X139709580Y-79872024D01*
X140208834Y-79372770D01*
X140215594Y-79360390D01*
X140211852Y-79355391D01*
X140141007Y-79322355D01*
X140130715Y-79318609D01*
X139926691Y-79263941D01*
X139915896Y-79262038D01*
X139705475Y-79243628D01*
X139694525Y-79243628D01*
X139484104Y-79262038D01*
X139473309Y-79263941D01*
X139269285Y-79318609D01*
X139258993Y-79322355D01*
X139194772Y-79352302D01*
X139184189Y-79361621D01*
X135397855Y-79361621D01*
X133641100Y-77604866D01*
X133607074Y-77542554D01*
X133612139Y-77471739D01*
X133654686Y-77414903D01*
X133721206Y-77390092D01*
X133790580Y-77405183D01*
X133817880Y-77425287D01*
X133818513Y-77425900D01*
X133824799Y-77431992D01*
X134011262Y-77557290D01*
X134216967Y-77647588D01*
X134222418Y-77648897D01*
X134222422Y-77648898D01*
X134429954Y-77698722D01*
X134435411Y-77700032D01*
X134519475Y-77704879D01*
X134654083Y-77712640D01*
X134654086Y-77712640D01*
X134659690Y-77712963D01*
X134882715Y-77685975D01*
X135097435Y-77619918D01*
X135102415Y-77617348D01*
X135102419Y-77617346D01*
X135292081Y-77519454D01*
X135292082Y-77519454D01*
X135297064Y-77516882D01*
X135475292Y-77380123D01*
X135496614Y-77356691D01*
X135536857Y-77312464D01*
X135626485Y-77213964D01*
X135632571Y-77204263D01*
X135742885Y-77028405D01*
X135745864Y-77023656D01*
X135772961Y-76956250D01*
X135816925Y-76900510D01*
X135884050Y-76877384D01*
X135953021Y-76894221D01*
X136003592Y-76949005D01*
X136072378Y-77093218D01*
X136203471Y-77275654D01*
X136265898Y-77336150D01*
X136358513Y-77425900D01*
X136364799Y-77431992D01*
X136551262Y-77557290D01*
X136756967Y-77647588D01*
X136762418Y-77648897D01*
X136762422Y-77648898D01*
X136969954Y-77698722D01*
X136975411Y-77700032D01*
X137059475Y-77704879D01*
X137194083Y-77712640D01*
X137194086Y-77712640D01*
X137199690Y-77712963D01*
X137422715Y-77685975D01*
X137637435Y-77619918D01*
X137642415Y-77617348D01*
X137642419Y-77617346D01*
X137832081Y-77519454D01*
X137832082Y-77519454D01*
X137837064Y-77516882D01*
X138015292Y-77380123D01*
X138036614Y-77356691D01*
X138076857Y-77312464D01*
X138166485Y-77213964D01*
X138172571Y-77204263D01*
X138282885Y-77028405D01*
X138285864Y-77023656D01*
X138312961Y-76956250D01*
X138356925Y-76900510D01*
X138424050Y-76877384D01*
X138493021Y-76894221D01*
X138543592Y-76949005D01*
X138612378Y-77093218D01*
X138743471Y-77275654D01*
X138805898Y-77336150D01*
X138898513Y-77425900D01*
X138904799Y-77431992D01*
X139091262Y-77557290D01*
X139296967Y-77647588D01*
X139302418Y-77648897D01*
X139302422Y-77648898D01*
X139509954Y-77698722D01*
X139515411Y-77700032D01*
X139599475Y-77704879D01*
X139734083Y-77712640D01*
X139734086Y-77712640D01*
X139739690Y-77712963D01*
X139962715Y-77685975D01*
X140177435Y-77619918D01*
X140182415Y-77617348D01*
X140182419Y-77617346D01*
X140372081Y-77519454D01*
X140372082Y-77519454D01*
X140377064Y-77516882D01*
X140555292Y-77380123D01*
X140576614Y-77356691D01*
X140616857Y-77312464D01*
X140706485Y-77213964D01*
X140712571Y-77204263D01*
X140822885Y-77028405D01*
X140825864Y-77023656D01*
X140852961Y-76956250D01*
X140896925Y-76900510D01*
X140964050Y-76877384D01*
X141033021Y-76894221D01*
X141083592Y-76949005D01*
X141152378Y-77093218D01*
X141202149Y-77162482D01*
X141207823Y-77170378D01*
X141231500Y-77243904D01*
X141231500Y-78678157D01*
X141230763Y-78691764D01*
X141228081Y-78716457D01*
X141226676Y-78729388D01*
X141228036Y-78744930D01*
X141231050Y-78779388D01*
X141231379Y-78784214D01*
X141231500Y-78786686D01*
X141231500Y-78789769D01*
X141232674Y-78801738D01*
X141235690Y-78832506D01*
X141235812Y-78833819D01*
X141237517Y-78853309D01*
X141243913Y-78926413D01*
X141245400Y-78931532D01*
X141245920Y-78936833D01*
X141272791Y-79025834D01*
X141273126Y-79026967D01*
X141296648Y-79107926D01*
X141299091Y-79116336D01*
X141301544Y-79121068D01*
X141303084Y-79126169D01*
X141305978Y-79131612D01*
X141346731Y-79208260D01*
X141347343Y-79209426D01*
X141375602Y-79263941D01*
X141390108Y-79291926D01*
X141393431Y-79296089D01*
X141395934Y-79300796D01*
X141454755Y-79372918D01*
X141455446Y-79373774D01*
X141486738Y-79412973D01*
X141489242Y-79415477D01*
X141489884Y-79416195D01*
X141493585Y-79420528D01*
X141520935Y-79454062D01*
X141525682Y-79457989D01*
X141525684Y-79457991D01*
X141556262Y-79483287D01*
X141565042Y-79491277D01*
X144023149Y-81949384D01*
X144032251Y-81959527D01*
X144055968Y-81989025D01*
X144094446Y-82021312D01*
X144098062Y-82024467D01*
X144099888Y-82026123D01*
X144102074Y-82028309D01*
X144104454Y-82030264D01*
X144104464Y-82030273D01*
X144135268Y-82055576D01*
X144136283Y-82056418D01*
X144166988Y-82082182D01*
X144207474Y-82116154D01*
X144212148Y-82118723D01*
X144216261Y-82122102D01*
X144221698Y-82125017D01*
X144221699Y-82125018D01*
X144298047Y-82165955D01*
X144299177Y-82166568D01*
X144380787Y-82211433D01*
X144385869Y-82213045D01*
X144390563Y-82215562D01*
X144479531Y-82242762D01*
X144480559Y-82243082D01*
X144569306Y-82271235D01*
X144574602Y-82271829D01*
X144579698Y-82273387D01*
X144672257Y-82282790D01*
X144673393Y-82282911D01*
X144707008Y-82286681D01*
X144719730Y-82288108D01*
X144719734Y-82288108D01*
X144723227Y-82288500D01*
X144726754Y-82288500D01*
X144727739Y-82288555D01*
X144733419Y-82289002D01*
X144762825Y-82291989D01*
X144770337Y-82292752D01*
X144770339Y-82292752D01*
X144776462Y-82293374D01*
X144822108Y-82289059D01*
X144833967Y-82288500D01*
X146965507Y-82288500D01*
X147033628Y-82308502D01*
X147080121Y-82362158D01*
X147087543Y-82383763D01*
X147088255Y-82390316D01*
X147091027Y-82397711D01*
X147091028Y-82397714D01*
X147120300Y-82475796D01*
X147139385Y-82526705D01*
X147226739Y-82643261D01*
X147343295Y-82730615D01*
X147479684Y-82781745D01*
X147541866Y-82788500D01*
X149638134Y-82788500D01*
X149700316Y-82781745D01*
X149836705Y-82730615D01*
X149953261Y-82643261D01*
X150040615Y-82526705D01*
X150091745Y-82390316D01*
X150098500Y-82328134D01*
X150098500Y-80231866D01*
X150091745Y-80169684D01*
X150040615Y-80033295D01*
X149953261Y-79916739D01*
X149836705Y-79829385D01*
X149700316Y-79778255D01*
X149638134Y-79771500D01*
X147541866Y-79771500D01*
X147479684Y-79778255D01*
X147343295Y-79829385D01*
X147226739Y-79916739D01*
X147139385Y-80033295D01*
X147136233Y-80041703D01*
X147091029Y-80162285D01*
X147088255Y-80169684D01*
X147087628Y-80175453D01*
X147052874Y-80236291D01*
X146989919Y-80269113D01*
X146965507Y-80271500D01*
X145249924Y-80271500D01*
X145181803Y-80251498D01*
X145160829Y-80234595D01*
X143285405Y-78359171D01*
X143251379Y-78296859D01*
X143248500Y-78270076D01*
X143248500Y-77247001D01*
X143267762Y-77180045D01*
X143362885Y-77028405D01*
X143365864Y-77023656D01*
X143392961Y-76956250D01*
X143436925Y-76900510D01*
X143504050Y-76877384D01*
X143573021Y-76894221D01*
X143623592Y-76949005D01*
X143692378Y-77093218D01*
X143823471Y-77275654D01*
X143885898Y-77336150D01*
X143978513Y-77425900D01*
X143984799Y-77431992D01*
X144171262Y-77557290D01*
X144376967Y-77647588D01*
X144382418Y-77648897D01*
X144382422Y-77648898D01*
X144589954Y-77698722D01*
X144595411Y-77700032D01*
X144679475Y-77704879D01*
X144814083Y-77712640D01*
X144814086Y-77712640D01*
X144819690Y-77712963D01*
X145042715Y-77685975D01*
X145257435Y-77619918D01*
X145262415Y-77617348D01*
X145262419Y-77617346D01*
X145452081Y-77519454D01*
X145452082Y-77519454D01*
X145457064Y-77516882D01*
X145635292Y-77380123D01*
X145656614Y-77356691D01*
X145696857Y-77312464D01*
X145786485Y-77213964D01*
X145792571Y-77204263D01*
X145902885Y-77028405D01*
X145905864Y-77023656D01*
X145932961Y-76956250D01*
X145976925Y-76900510D01*
X146044050Y-76877384D01*
X146113021Y-76894221D01*
X146163592Y-76949005D01*
X146232378Y-77093218D01*
X146363471Y-77275654D01*
X146425898Y-77336150D01*
X146518513Y-77425900D01*
X146524799Y-77431992D01*
X146711262Y-77557290D01*
X146916967Y-77647588D01*
X146922418Y-77648897D01*
X146922422Y-77648898D01*
X147129954Y-77698722D01*
X147135411Y-77700032D01*
X147219475Y-77704879D01*
X147354083Y-77712640D01*
X147354086Y-77712640D01*
X147359690Y-77712963D01*
X147582715Y-77685975D01*
X147797435Y-77619918D01*
X147802415Y-77617348D01*
X147802419Y-77617346D01*
X147992081Y-77519454D01*
X147992082Y-77519454D01*
X147997064Y-77516882D01*
X148175292Y-77380123D01*
X148196614Y-77356691D01*
X148236857Y-77312464D01*
X148326485Y-77213964D01*
X148332571Y-77204263D01*
X148442885Y-77028405D01*
X148445864Y-77023656D01*
X148472961Y-76956250D01*
X148516925Y-76900510D01*
X148584050Y-76877384D01*
X148653021Y-76894221D01*
X148703592Y-76949005D01*
X148772378Y-77093218D01*
X148903471Y-77275654D01*
X148965898Y-77336150D01*
X149058513Y-77425900D01*
X149064799Y-77431992D01*
X149251262Y-77557290D01*
X149456967Y-77647588D01*
X149462418Y-77648897D01*
X149462422Y-77648898D01*
X149669954Y-77698722D01*
X149675411Y-77700032D01*
X149759475Y-77704879D01*
X149894083Y-77712640D01*
X149894086Y-77712640D01*
X149899690Y-77712963D01*
X150122715Y-77685975D01*
X150337435Y-77619918D01*
X150342415Y-77617348D01*
X150342419Y-77617346D01*
X150532081Y-77519454D01*
X150532082Y-77519454D01*
X150537064Y-77516882D01*
X150715292Y-77380123D01*
X150736614Y-77356691D01*
X150776857Y-77312464D01*
X150866485Y-77213964D01*
X150872571Y-77204263D01*
X150982885Y-77028405D01*
X150985864Y-77023656D01*
X151012961Y-76956250D01*
X151056925Y-76900510D01*
X151124050Y-76877384D01*
X151193021Y-76894221D01*
X151243592Y-76949005D01*
X151312378Y-77093218D01*
X151443471Y-77275654D01*
X151505898Y-77336150D01*
X151598513Y-77425900D01*
X151604799Y-77431992D01*
X151791262Y-77557290D01*
X151996967Y-77647588D01*
X152002418Y-77648897D01*
X152002422Y-77648898D01*
X152209954Y-77698722D01*
X152215411Y-77700032D01*
X152299475Y-77704879D01*
X152434083Y-77712640D01*
X152434086Y-77712640D01*
X152439690Y-77712963D01*
X152662715Y-77685975D01*
X152877435Y-77619918D01*
X152882415Y-77617348D01*
X152882419Y-77617346D01*
X153072081Y-77519454D01*
X153072082Y-77519454D01*
X153077064Y-77516882D01*
X153087291Y-77509035D01*
X153227330Y-77401579D01*
X153293550Y-77375979D01*
X153303865Y-77378095D01*
X153317030Y-77317573D01*
X153334424Y-77293158D01*
X153364608Y-77259986D01*
X153406485Y-77213964D01*
X153412571Y-77204263D01*
X153522885Y-77028405D01*
X153525864Y-77023656D01*
X153609656Y-76815217D01*
X153655213Y-76595233D01*
X153658500Y-76538225D01*
X153658500Y-75893001D01*
X153658029Y-75887717D01*
X153644116Y-75731833D01*
X153643617Y-75726238D01*
X153636947Y-75701855D01*
X153588578Y-75525053D01*
X153584337Y-75509549D01*
X153579540Y-75499490D01*
X153523131Y-75381228D01*
X153487622Y-75306782D01*
X153413979Y-75204297D01*
X153402177Y-75187872D01*
X153378500Y-75114346D01*
X153378500Y-72772958D01*
X153398502Y-72704837D01*
X153452158Y-72658344D01*
X153522432Y-72648240D01*
X153587012Y-72677734D01*
X153625396Y-72737460D01*
X153627417Y-72745257D01*
X153639222Y-72797639D01*
X153723266Y-73004616D01*
X153839987Y-73195088D01*
X153986250Y-73363938D01*
X154158126Y-73506632D01*
X154351000Y-73619338D01*
X154559692Y-73699030D01*
X154564760Y-73700061D01*
X154564763Y-73700062D01*
X154646734Y-73716739D01*
X154778597Y-73743567D01*
X154783772Y-73743757D01*
X154783774Y-73743757D01*
X154996673Y-73751564D01*
X154996677Y-73751564D01*
X155001837Y-73751753D01*
X155006957Y-73751097D01*
X155006959Y-73751097D01*
X155218288Y-73724025D01*
X155218289Y-73724025D01*
X155223416Y-73723368D01*
X155241115Y-73718058D01*
X155432429Y-73660661D01*
X155432434Y-73660659D01*
X155437384Y-73659174D01*
X155637994Y-73560896D01*
X155819860Y-73431173D01*
X155978096Y-73273489D01*
X156001394Y-73241067D01*
X156108453Y-73092077D01*
X156109640Y-73092930D01*
X156156960Y-73049362D01*
X156226897Y-73037145D01*
X156292338Y-73064678D01*
X156320166Y-73096511D01*
X156377694Y-73190388D01*
X156383777Y-73198699D01*
X156523213Y-73359667D01*
X156530580Y-73366883D01*
X156694434Y-73502916D01*
X156702881Y-73508831D01*
X156886756Y-73616279D01*
X156896043Y-73620729D01*
X157013078Y-73665420D01*
X157027134Y-73666535D01*
X157030000Y-73661382D01*
X157030000Y-71126424D01*
X157026027Y-71112893D01*
X157019045Y-71111889D01*
X156956873Y-71132210D01*
X156947356Y-71136211D01*
X156758463Y-71234542D01*
X156749738Y-71240036D01*
X156579433Y-71367905D01*
X156571726Y-71374748D01*
X156424590Y-71528717D01*
X156418109Y-71536722D01*
X156313498Y-71690074D01*
X156258587Y-71735076D01*
X156188062Y-71743247D01*
X156124315Y-71711993D01*
X156103618Y-71687509D01*
X156022822Y-71562617D01*
X156022820Y-71562614D01*
X156020014Y-71558277D01*
X155869670Y-71393051D01*
X155865619Y-71389852D01*
X155865615Y-71389848D01*
X155698414Y-71257800D01*
X155698410Y-71257798D01*
X155694359Y-71254598D01*
X155658028Y-71234542D01*
X155572883Y-71187540D01*
X155498789Y-71146638D01*
X155493920Y-71144914D01*
X155493916Y-71144912D01*
X155293087Y-71073795D01*
X155293083Y-71073794D01*
X155288212Y-71072069D01*
X155283119Y-71071162D01*
X155283116Y-71071161D01*
X155073373Y-71033800D01*
X155073367Y-71033799D01*
X155068284Y-71032894D01*
X154994452Y-71031992D01*
X154850081Y-71030228D01*
X154850079Y-71030228D01*
X154844911Y-71030165D01*
X154624091Y-71063955D01*
X154411756Y-71133357D01*
X154213607Y-71236507D01*
X154209474Y-71239610D01*
X154209471Y-71239612D01*
X154049654Y-71359606D01*
X154034965Y-71370635D01*
X153880629Y-71532138D01*
X153877715Y-71536410D01*
X153877714Y-71536411D01*
X153802471Y-71646713D01*
X153754743Y-71716680D01*
X153714484Y-71803412D01*
X153675760Y-71886836D01*
X153660688Y-71919305D01*
X153635832Y-72008932D01*
X153625917Y-72044684D01*
X153588438Y-72104982D01*
X153524309Y-72135445D01*
X153453891Y-72126401D01*
X153399541Y-72080722D01*
X153378500Y-72011012D01*
X153378500Y-67461009D01*
X153398502Y-67392888D01*
X153452158Y-67346395D01*
X153457694Y-67344097D01*
X153458296Y-67343768D01*
X153466705Y-67340615D01*
X153583261Y-67253261D01*
X153670615Y-67136705D01*
X153674598Y-67126082D01*
X153719128Y-67007297D01*
X153761769Y-66950532D01*
X153828331Y-66925832D01*
X153897680Y-66941039D01*
X153932347Y-66969028D01*
X153967865Y-67010031D01*
X153967869Y-67010035D01*
X153971250Y-67013938D01*
X154143126Y-67156632D01*
X154336000Y-67269338D01*
X154544692Y-67349030D01*
X154549760Y-67350061D01*
X154549763Y-67350062D01*
X154647433Y-67369933D01*
X154763597Y-67393567D01*
X154768772Y-67393757D01*
X154768774Y-67393757D01*
X154981673Y-67401564D01*
X154981677Y-67401564D01*
X154986837Y-67401753D01*
X154991957Y-67401097D01*
X154991959Y-67401097D01*
X155203288Y-67374025D01*
X155203289Y-67374025D01*
X155208416Y-67373368D01*
X155214989Y-67371396D01*
X155417429Y-67310661D01*
X155417434Y-67310659D01*
X155422384Y-67309174D01*
X155622994Y-67210896D01*
X155804860Y-67081173D01*
X155814988Y-67071081D01*
X155913607Y-66972805D01*
X155963096Y-66923489D01*
X155966425Y-66918857D01*
X156093453Y-66742077D01*
X156094640Y-66742930D01*
X156141960Y-66699362D01*
X156211897Y-66687145D01*
X156277338Y-66714678D01*
X156305166Y-66746511D01*
X156362694Y-66840388D01*
X156368777Y-66848699D01*
X156508213Y-67009667D01*
X156515580Y-67016883D01*
X156679434Y-67152916D01*
X156687881Y-67158831D01*
X156871756Y-67266279D01*
X156881043Y-67270729D01*
X156998078Y-67315420D01*
X157012134Y-67316535D01*
X157015000Y-67311382D01*
X157015000Y-64776424D01*
X157011027Y-64762893D01*
X157004045Y-64761889D01*
X156941873Y-64782210D01*
X156932356Y-64786211D01*
X156743463Y-64884542D01*
X156734738Y-64890036D01*
X156564433Y-65017905D01*
X156556726Y-65024748D01*
X156409590Y-65178717D01*
X156403109Y-65186722D01*
X156298498Y-65340074D01*
X156243587Y-65385076D01*
X156173062Y-65393247D01*
X156109315Y-65361993D01*
X156088618Y-65337509D01*
X156007822Y-65212617D01*
X156007820Y-65212614D01*
X156005014Y-65208277D01*
X155854670Y-65043051D01*
X155850619Y-65039852D01*
X155850615Y-65039848D01*
X155683414Y-64907800D01*
X155683410Y-64907798D01*
X155679359Y-64904598D01*
X155658752Y-64893222D01*
X155558901Y-64838102D01*
X155483789Y-64796638D01*
X155478920Y-64794914D01*
X155478916Y-64794912D01*
X155278087Y-64723795D01*
X155278083Y-64723794D01*
X155273212Y-64722069D01*
X155268119Y-64721162D01*
X155268116Y-64721161D01*
X155058373Y-64683800D01*
X155058367Y-64683799D01*
X155053284Y-64682894D01*
X154979452Y-64681992D01*
X154835081Y-64680228D01*
X154835079Y-64680228D01*
X154829911Y-64680165D01*
X154609091Y-64713955D01*
X154396756Y-64783357D01*
X154366443Y-64799137D01*
X154220643Y-64875036D01*
X154198607Y-64886507D01*
X154194474Y-64889610D01*
X154194471Y-64889612D01*
X154043579Y-65002905D01*
X154019965Y-65020635D01*
X153935531Y-65108990D01*
X153928509Y-65116338D01*
X153866984Y-65151768D01*
X153796072Y-65148311D01*
X153738286Y-65107065D01*
X153719433Y-65073516D01*
X153673768Y-64951705D01*
X153673767Y-64951703D01*
X153670615Y-64943295D01*
X153583261Y-64826739D01*
X153466705Y-64739385D01*
X153330316Y-64688255D01*
X153268134Y-64681500D01*
X151471866Y-64681500D01*
X151409684Y-64688255D01*
X151273295Y-64739385D01*
X151156739Y-64826739D01*
X151069385Y-64943295D01*
X151066233Y-64951703D01*
X151066232Y-64951705D01*
X151024722Y-65062433D01*
X150982081Y-65119198D01*
X150915519Y-65143898D01*
X150846170Y-65128691D01*
X150813546Y-65103004D01*
X150762799Y-65047234D01*
X150755273Y-65040215D01*
X150588139Y-64908222D01*
X150579552Y-64902517D01*
X150393114Y-64799597D01*
X150383705Y-64795369D01*
X150297076Y-64764692D01*
X150282996Y-64763920D01*
X150280000Y-64769632D01*
X150280000Y-67304753D01*
X150283973Y-67318284D01*
X150291617Y-67319383D01*
X150322250Y-67310192D01*
X150331845Y-67306432D01*
X150523095Y-67212739D01*
X150531945Y-67207464D01*
X150705328Y-67083792D01*
X150713193Y-67077145D01*
X150817897Y-66972805D01*
X150880268Y-66938889D01*
X150951075Y-66944077D01*
X151007837Y-66986723D01*
X151024819Y-67017826D01*
X151049549Y-67083792D01*
X151069385Y-67136705D01*
X151156739Y-67253261D01*
X151273295Y-67340615D01*
X151281704Y-67343767D01*
X151289575Y-67348077D01*
X151288664Y-67349741D01*
X151336490Y-67385663D01*
X151361193Y-67452224D01*
X151361500Y-67461009D01*
X151361500Y-75200823D01*
X151342238Y-75267779D01*
X151297064Y-75339794D01*
X151274136Y-75376344D01*
X151247039Y-75443750D01*
X151203075Y-75499490D01*
X151135950Y-75522616D01*
X151066979Y-75505779D01*
X151016408Y-75450995D01*
X151013325Y-75444531D01*
X150947622Y-75306782D01*
X150892177Y-75229622D01*
X150868500Y-75156096D01*
X150868500Y-72451843D01*
X150869237Y-72438236D01*
X150872659Y-72406738D01*
X150872659Y-72406733D01*
X150873324Y-72400612D01*
X150868950Y-72350612D01*
X150868621Y-72345786D01*
X150868500Y-72343314D01*
X150868500Y-72340231D01*
X150866346Y-72318261D01*
X150864310Y-72297494D01*
X150864188Y-72296181D01*
X150859009Y-72236984D01*
X150856087Y-72203587D01*
X150854600Y-72198468D01*
X150854080Y-72193167D01*
X150827209Y-72104166D01*
X150826874Y-72103033D01*
X150802630Y-72019586D01*
X150802628Y-72019582D01*
X150800909Y-72013664D01*
X150798456Y-72008932D01*
X150796916Y-72003831D01*
X150779849Y-71971731D01*
X150753269Y-71921740D01*
X150752657Y-71920574D01*
X150712729Y-71843547D01*
X150709892Y-71838074D01*
X150706569Y-71833911D01*
X150704066Y-71829204D01*
X150645245Y-71757082D01*
X150644554Y-71756226D01*
X150613262Y-71717027D01*
X150610758Y-71714523D01*
X150610116Y-71713805D01*
X150606415Y-71709472D01*
X150579065Y-71675938D01*
X150543737Y-71646712D01*
X150534958Y-71638723D01*
X149437473Y-70541238D01*
X148335405Y-69439171D01*
X148301380Y-69376859D01*
X148298500Y-69350076D01*
X148298500Y-67003970D01*
X148318502Y-66935849D01*
X148326460Y-66925120D01*
X148328096Y-66923489D01*
X148458453Y-66742077D01*
X148459640Y-66742930D01*
X148506960Y-66699362D01*
X148576897Y-66687145D01*
X148642338Y-66714678D01*
X148670166Y-66746511D01*
X148727694Y-66840388D01*
X148733777Y-66848699D01*
X148873213Y-67009667D01*
X148880580Y-67016883D01*
X149044434Y-67152916D01*
X149052881Y-67158831D01*
X149236756Y-67266279D01*
X149246043Y-67270729D01*
X149363078Y-67315420D01*
X149377134Y-67316535D01*
X149380000Y-67311382D01*
X149380000Y-64776424D01*
X149376027Y-64762893D01*
X149369045Y-64761889D01*
X149306873Y-64782210D01*
X149297356Y-64786211D01*
X149108463Y-64884542D01*
X149099738Y-64890036D01*
X148929433Y-65017905D01*
X148921726Y-65024748D01*
X148774590Y-65178717D01*
X148768109Y-65186722D01*
X148663498Y-65340074D01*
X148608587Y-65385076D01*
X148538062Y-65393247D01*
X148474315Y-65361993D01*
X148453618Y-65337509D01*
X148372822Y-65212617D01*
X148372820Y-65212614D01*
X148370014Y-65208277D01*
X148219670Y-65043051D01*
X148215619Y-65039852D01*
X148215615Y-65039848D01*
X148048414Y-64907800D01*
X148048410Y-64907798D01*
X148044359Y-64904598D01*
X148023752Y-64893222D01*
X147923901Y-64838102D01*
X147848789Y-64796638D01*
X147843920Y-64794914D01*
X147843916Y-64794912D01*
X147643087Y-64723795D01*
X147643083Y-64723794D01*
X147638212Y-64722069D01*
X147633119Y-64721162D01*
X147633116Y-64721161D01*
X147423373Y-64683800D01*
X147423367Y-64683799D01*
X147418284Y-64682894D01*
X147344452Y-64681992D01*
X147200081Y-64680228D01*
X147200079Y-64680228D01*
X147194911Y-64680165D01*
X146974091Y-64713955D01*
X146761756Y-64783357D01*
X146731443Y-64799137D01*
X146585643Y-64875036D01*
X146563607Y-64886507D01*
X146559474Y-64889610D01*
X146559471Y-64889612D01*
X146408579Y-65002905D01*
X146384965Y-65020635D01*
X146359546Y-65047234D01*
X146248233Y-65163717D01*
X146230629Y-65182138D01*
X146123201Y-65339621D01*
X146068293Y-65384621D01*
X145997768Y-65392792D01*
X145934021Y-65361538D01*
X145913324Y-65337054D01*
X145832822Y-65212617D01*
X145832820Y-65212614D01*
X145830014Y-65208277D01*
X145679670Y-65043051D01*
X145675619Y-65039852D01*
X145675615Y-65039848D01*
X145508414Y-64907800D01*
X145508410Y-64907798D01*
X145504359Y-64904598D01*
X145483752Y-64893222D01*
X145383901Y-64838102D01*
X145308789Y-64796638D01*
X145303920Y-64794914D01*
X145303916Y-64794912D01*
X145103087Y-64723795D01*
X145103083Y-64723794D01*
X145098212Y-64722069D01*
X145093119Y-64721162D01*
X145093116Y-64721161D01*
X144883373Y-64683800D01*
X144883367Y-64683799D01*
X144878284Y-64682894D01*
X144804452Y-64681992D01*
X144660081Y-64680228D01*
X144660079Y-64680228D01*
X144654911Y-64680165D01*
X144434091Y-64713955D01*
X144221756Y-64783357D01*
X144191443Y-64799137D01*
X144045643Y-64875036D01*
X144023607Y-64886507D01*
X144019474Y-64889610D01*
X144019471Y-64889612D01*
X143868579Y-65002905D01*
X143844965Y-65020635D01*
X143819546Y-65047234D01*
X143708233Y-65163717D01*
X143690629Y-65182138D01*
X143687720Y-65186403D01*
X143687714Y-65186411D01*
X143685432Y-65189757D01*
X143583000Y-65339917D01*
X143582898Y-65340066D01*
X143527987Y-65385069D01*
X143457462Y-65393240D01*
X143393715Y-65361986D01*
X143373018Y-65337502D01*
X143292426Y-65212926D01*
X143286136Y-65204757D01*
X143142806Y-65047240D01*
X143135273Y-65040215D01*
X142968139Y-64908222D01*
X142959552Y-64902517D01*
X142773114Y-64799597D01*
X142763705Y-64795369D01*
X142677076Y-64764692D01*
X142662996Y-64763920D01*
X142660000Y-64769632D01*
X142660000Y-67304753D01*
X142663973Y-67318284D01*
X142671617Y-67319383D01*
X142702250Y-67310192D01*
X142711845Y-67306432D01*
X142903095Y-67212739D01*
X142911945Y-67207464D01*
X143085328Y-67083792D01*
X143093200Y-67077139D01*
X143244052Y-66926812D01*
X143250730Y-66918965D01*
X143378022Y-66741819D01*
X143379279Y-66742722D01*
X143426373Y-66699362D01*
X143496311Y-66687145D01*
X143561751Y-66714678D01*
X143589579Y-66746511D01*
X143649987Y-66845088D01*
X143707786Y-66911812D01*
X143710737Y-66915219D01*
X143740220Y-66979804D01*
X143741500Y-66997717D01*
X143741500Y-69758157D01*
X143740763Y-69771764D01*
X143737481Y-69801978D01*
X143736676Y-69809388D01*
X143737213Y-69815523D01*
X143741050Y-69859388D01*
X143741379Y-69864214D01*
X143741500Y-69866686D01*
X143741500Y-69869769D01*
X143741801Y-69872837D01*
X143745690Y-69912506D01*
X143745812Y-69913819D01*
X143749604Y-69957157D01*
X143753913Y-70006413D01*
X143755400Y-70011532D01*
X143755920Y-70016833D01*
X143782791Y-70105834D01*
X143783126Y-70106967D01*
X143796487Y-70152953D01*
X143809091Y-70196336D01*
X143811544Y-70201068D01*
X143813084Y-70206169D01*
X143815978Y-70211612D01*
X143856731Y-70288260D01*
X143857343Y-70289426D01*
X143881761Y-70336531D01*
X143900108Y-70371926D01*
X143903431Y-70376089D01*
X143905934Y-70380796D01*
X143964755Y-70452918D01*
X143965446Y-70453774D01*
X143996738Y-70492973D01*
X143999242Y-70495477D01*
X143999884Y-70496195D01*
X144003585Y-70500528D01*
X144030935Y-70534062D01*
X144035682Y-70537989D01*
X144035684Y-70537991D01*
X144066262Y-70563287D01*
X144075042Y-70571277D01*
X145188277Y-71684511D01*
X146274595Y-72770829D01*
X146308620Y-72833141D01*
X146311500Y-72859924D01*
X146311500Y-75152999D01*
X146292238Y-75219954D01*
X146194136Y-75376344D01*
X146167039Y-75443750D01*
X146123075Y-75499490D01*
X146055950Y-75522616D01*
X145986979Y-75505779D01*
X145936408Y-75450995D01*
X145933325Y-75444531D01*
X145867622Y-75306782D01*
X145736529Y-75124346D01*
X145618074Y-75009555D01*
X145579229Y-74971911D01*
X145579226Y-74971909D01*
X145575201Y-74968008D01*
X145388738Y-74842710D01*
X145183033Y-74752412D01*
X145177582Y-74751103D01*
X145177578Y-74751102D01*
X144970046Y-74701278D01*
X144970045Y-74701278D01*
X144964589Y-74699968D01*
X144880525Y-74695121D01*
X144745917Y-74687360D01*
X144745914Y-74687360D01*
X144740310Y-74687037D01*
X144517285Y-74714025D01*
X144302565Y-74780082D01*
X144297585Y-74782652D01*
X144297581Y-74782654D01*
X144107919Y-74880546D01*
X144102936Y-74883118D01*
X143924708Y-75019877D01*
X143773515Y-75186036D01*
X143770537Y-75190783D01*
X143770535Y-75190786D01*
X143691784Y-75316327D01*
X143654136Y-75376344D01*
X143627039Y-75443750D01*
X143583075Y-75499490D01*
X143515950Y-75522616D01*
X143446979Y-75505779D01*
X143396408Y-75450995D01*
X143393325Y-75444531D01*
X143327622Y-75306782D01*
X143196529Y-75124346D01*
X143078074Y-75009555D01*
X143039229Y-74971911D01*
X143039226Y-74971909D01*
X143035201Y-74968008D01*
X142848738Y-74842710D01*
X142643033Y-74752412D01*
X142637582Y-74751103D01*
X142637578Y-74751102D01*
X142430046Y-74701278D01*
X142430045Y-74701278D01*
X142424589Y-74699968D01*
X142340525Y-74695121D01*
X142205917Y-74687360D01*
X142205914Y-74687360D01*
X142200310Y-74687037D01*
X141977285Y-74714025D01*
X141762565Y-74780082D01*
X141757585Y-74782652D01*
X141757581Y-74782654D01*
X141567919Y-74880546D01*
X141562936Y-74883118D01*
X141384708Y-75019877D01*
X141233515Y-75186036D01*
X141230537Y-75190783D01*
X141230535Y-75190786D01*
X141151784Y-75316327D01*
X141114136Y-75376344D01*
X141087039Y-75443750D01*
X141043075Y-75499490D01*
X140975950Y-75522616D01*
X140906979Y-75505779D01*
X140856408Y-75450995D01*
X140853325Y-75444531D01*
X140787622Y-75306782D01*
X140732177Y-75229622D01*
X140708500Y-75156096D01*
X140708500Y-69543970D01*
X140728502Y-69475849D01*
X140736460Y-69465120D01*
X140738096Y-69463489D01*
X140868453Y-69282077D01*
X140875867Y-69267077D01*
X140965136Y-69086453D01*
X140965137Y-69086451D01*
X140967430Y-69081811D01*
X141015884Y-68922331D01*
X141030865Y-68873023D01*
X141030865Y-68873021D01*
X141032370Y-68868069D01*
X141061529Y-68646590D01*
X141061647Y-68641768D01*
X141063074Y-68583365D01*
X141063074Y-68583361D01*
X141063156Y-68580000D01*
X141044852Y-68357361D01*
X140990431Y-68140702D01*
X140901354Y-67935840D01*
X140780014Y-67748277D01*
X140776540Y-67744459D01*
X140776533Y-67744450D01*
X140632435Y-67586088D01*
X140601383Y-67522242D01*
X140609779Y-67451744D01*
X140654956Y-67396976D01*
X140681400Y-67383307D01*
X140788052Y-67343325D01*
X140803649Y-67334786D01*
X140905724Y-67258285D01*
X140918285Y-67245724D01*
X140994786Y-67143649D01*
X141003324Y-67128054D01*
X141035364Y-67042589D01*
X141078006Y-66985824D01*
X141144568Y-66961125D01*
X141213916Y-66976333D01*
X141248587Y-67004326D01*
X141253218Y-67009673D01*
X141260580Y-67016883D01*
X141424434Y-67152916D01*
X141432881Y-67158831D01*
X141616756Y-67266279D01*
X141626043Y-67270729D01*
X141743078Y-67315420D01*
X141757134Y-67316535D01*
X141760000Y-67311382D01*
X141760000Y-66508115D01*
X141755525Y-66492876D01*
X141754135Y-66491671D01*
X141746452Y-66490000D01*
X133278513Y-66490000D01*
X133248090Y-66481067D01*
X133247559Y-66483507D01*
X133208452Y-66475000D01*
X129226000Y-66475000D01*
X129157879Y-66454998D01*
X129111386Y-66401342D01*
X129100000Y-66349000D01*
X129100000Y-65556885D01*
X130000000Y-65556885D01*
X130004475Y-65572124D01*
X130005865Y-65573329D01*
X130013548Y-65575000D01*
X131611885Y-65575000D01*
X131627124Y-65570525D01*
X131628329Y-65569135D01*
X131630000Y-65561452D01*
X131630000Y-65556885D01*
X132530000Y-65556885D01*
X132534475Y-65572124D01*
X132535865Y-65573329D01*
X132543548Y-65575000D01*
X133421487Y-65575000D01*
X133451910Y-65583933D01*
X133452441Y-65581493D01*
X133491548Y-65590000D01*
X134151885Y-65590000D01*
X134167124Y-65585525D01*
X134168329Y-65584135D01*
X134170000Y-65576452D01*
X134170000Y-65571885D01*
X135070000Y-65571885D01*
X135074475Y-65587124D01*
X135075865Y-65588329D01*
X135083548Y-65590000D01*
X136691885Y-65590000D01*
X136707124Y-65585525D01*
X136708329Y-65584135D01*
X136710000Y-65576452D01*
X136710000Y-65571885D01*
X137610000Y-65571885D01*
X137614475Y-65587124D01*
X137615865Y-65588329D01*
X137623548Y-65590000D01*
X139231885Y-65590000D01*
X139247124Y-65585525D01*
X139248329Y-65584135D01*
X139250000Y-65576452D01*
X139250000Y-65571885D01*
X140150000Y-65571885D01*
X140154475Y-65587124D01*
X140155865Y-65588329D01*
X140163548Y-65590000D01*
X141741885Y-65590000D01*
X141757124Y-65585525D01*
X141758329Y-65584135D01*
X141760000Y-65576452D01*
X141760000Y-64776424D01*
X141756027Y-64762893D01*
X141749045Y-64761889D01*
X141686873Y-64782210D01*
X141677356Y-64786211D01*
X141488463Y-64884542D01*
X141479738Y-64890036D01*
X141309433Y-65017905D01*
X141301732Y-65024742D01*
X141245641Y-65083438D01*
X141184116Y-65118867D01*
X141113204Y-65115410D01*
X141055418Y-65074164D01*
X141036565Y-65040616D01*
X141003324Y-64951946D01*
X140994786Y-64936351D01*
X140918285Y-64834276D01*
X140905724Y-64821715D01*
X140803649Y-64745214D01*
X140788054Y-64736676D01*
X140667606Y-64691522D01*
X140652351Y-64687895D01*
X140601486Y-64682369D01*
X140594672Y-64682000D01*
X140168115Y-64682000D01*
X140152876Y-64686475D01*
X140151671Y-64687865D01*
X140150000Y-64695548D01*
X140150000Y-65571885D01*
X139250000Y-65571885D01*
X139250000Y-64700116D01*
X139245525Y-64684877D01*
X139244135Y-64683672D01*
X139236452Y-64682001D01*
X138805331Y-64682001D01*
X138798510Y-64682371D01*
X138747648Y-64687895D01*
X138732396Y-64691521D01*
X138611946Y-64736676D01*
X138596356Y-64745211D01*
X138505565Y-64813255D01*
X138439058Y-64838102D01*
X138369676Y-64823049D01*
X138354435Y-64813255D01*
X138263644Y-64745211D01*
X138248054Y-64736676D01*
X138127606Y-64691522D01*
X138112351Y-64687895D01*
X138061486Y-64682369D01*
X138054672Y-64682000D01*
X137628115Y-64682000D01*
X137612876Y-64686475D01*
X137611671Y-64687865D01*
X137610000Y-64695548D01*
X137610000Y-65571885D01*
X136710000Y-65571885D01*
X136710000Y-64700116D01*
X136705525Y-64684877D01*
X136704135Y-64683672D01*
X136696452Y-64682001D01*
X136265331Y-64682001D01*
X136258510Y-64682371D01*
X136207648Y-64687895D01*
X136192396Y-64691521D01*
X136071946Y-64736676D01*
X136056356Y-64745211D01*
X135965565Y-64813255D01*
X135899058Y-64838102D01*
X135829676Y-64823049D01*
X135814435Y-64813255D01*
X135723644Y-64745211D01*
X135708054Y-64736676D01*
X135587606Y-64691522D01*
X135572351Y-64687895D01*
X135521486Y-64682369D01*
X135514672Y-64682000D01*
X135088115Y-64682000D01*
X135072876Y-64686475D01*
X135071671Y-64687865D01*
X135070000Y-64695548D01*
X135070000Y-65571885D01*
X134170000Y-65571885D01*
X134170000Y-64700116D01*
X134165525Y-64684877D01*
X134164135Y-64683672D01*
X134156452Y-64682001D01*
X133725331Y-64682001D01*
X133718510Y-64682371D01*
X133667648Y-64687895D01*
X133652396Y-64691521D01*
X133531946Y-64736676D01*
X133516351Y-64745214D01*
X133414276Y-64821715D01*
X133401715Y-64834276D01*
X133325214Y-64936351D01*
X133316675Y-64951948D01*
X133279083Y-65052225D01*
X133236442Y-65108990D01*
X133169880Y-65133690D01*
X133100531Y-65118483D01*
X133067908Y-65092796D01*
X133012806Y-65032240D01*
X133005273Y-65025215D01*
X132838139Y-64893222D01*
X132829552Y-64887517D01*
X132643114Y-64784597D01*
X132633705Y-64780369D01*
X132547076Y-64749692D01*
X132532996Y-64748920D01*
X132530000Y-64754632D01*
X132530000Y-65556885D01*
X131630000Y-65556885D01*
X131630000Y-64761424D01*
X131626027Y-64747893D01*
X131619045Y-64746889D01*
X131556873Y-64767210D01*
X131547356Y-64771211D01*
X131358463Y-64869542D01*
X131349738Y-64875036D01*
X131179433Y-65002905D01*
X131171726Y-65009748D01*
X131024590Y-65163717D01*
X131018109Y-65171722D01*
X130918325Y-65317998D01*
X130863414Y-65363000D01*
X130792889Y-65371171D01*
X130729142Y-65339917D01*
X130708445Y-65315433D01*
X130632426Y-65197926D01*
X130626136Y-65189757D01*
X130482806Y-65032240D01*
X130475273Y-65025215D01*
X130308139Y-64893222D01*
X130299552Y-64887517D01*
X130113114Y-64784597D01*
X130103705Y-64780369D01*
X130017076Y-64749692D01*
X130002996Y-64748920D01*
X130000000Y-64754632D01*
X130000000Y-65556885D01*
X129100000Y-65556885D01*
X129100000Y-64761424D01*
X129096027Y-64747893D01*
X129089045Y-64746889D01*
X129026873Y-64767210D01*
X129017356Y-64771211D01*
X128828463Y-64869542D01*
X128819738Y-64875036D01*
X128649433Y-65002905D01*
X128641726Y-65009748D01*
X128553256Y-65102326D01*
X128491731Y-65137756D01*
X128420819Y-65134299D01*
X128363033Y-65093053D01*
X128344180Y-65059504D01*
X128303768Y-64951705D01*
X128303767Y-64951703D01*
X128300615Y-64943295D01*
X128213261Y-64826739D01*
X128096705Y-64739385D01*
X127960316Y-64688255D01*
X127898134Y-64681500D01*
X126101866Y-64681500D01*
X126039684Y-64688255D01*
X125903295Y-64739385D01*
X125786739Y-64826739D01*
X125699385Y-64943295D01*
X125696233Y-64951703D01*
X125654919Y-65061907D01*
X125612277Y-65118671D01*
X125545716Y-65143371D01*
X125476367Y-65128163D01*
X125443743Y-65102476D01*
X125393151Y-65046875D01*
X125393142Y-65046866D01*
X125389670Y-65043051D01*
X125385619Y-65039852D01*
X125385615Y-65039848D01*
X125218414Y-64907800D01*
X125218410Y-64907798D01*
X125214359Y-64904598D01*
X125193752Y-64893222D01*
X125093901Y-64838102D01*
X125018789Y-64796638D01*
X125013920Y-64794914D01*
X125013916Y-64794912D01*
X124813087Y-64723795D01*
X124813083Y-64723794D01*
X124808212Y-64722069D01*
X124803119Y-64721162D01*
X124803116Y-64721161D01*
X124593373Y-64683800D01*
X124593367Y-64683799D01*
X124588284Y-64682894D01*
X124514452Y-64681992D01*
X124370081Y-64680228D01*
X124370079Y-64680228D01*
X124364911Y-64680165D01*
X124144091Y-64713955D01*
X123931756Y-64783357D01*
X123901443Y-64799137D01*
X123755643Y-64875036D01*
X123733607Y-64886507D01*
X123729474Y-64889610D01*
X123729471Y-64889612D01*
X123578579Y-65002905D01*
X123554965Y-65020635D01*
X123529546Y-65047234D01*
X123418233Y-65163717D01*
X123400629Y-65182138D01*
X123293201Y-65339621D01*
X123238293Y-65384621D01*
X123167768Y-65392792D01*
X123104021Y-65361538D01*
X123083324Y-65337054D01*
X123002822Y-65212617D01*
X123002820Y-65212614D01*
X123000014Y-65208277D01*
X122849670Y-65043051D01*
X122845619Y-65039852D01*
X122845615Y-65039848D01*
X122678414Y-64907800D01*
X122678410Y-64907798D01*
X122674359Y-64904598D01*
X122653752Y-64893222D01*
X122553901Y-64838102D01*
X122478789Y-64796638D01*
X122473920Y-64794914D01*
X122473916Y-64794912D01*
X122273087Y-64723795D01*
X122273083Y-64723794D01*
X122268212Y-64722069D01*
X122263119Y-64721162D01*
X122263116Y-64721161D01*
X122053373Y-64683800D01*
X122053367Y-64683799D01*
X122048284Y-64682894D01*
X121974452Y-64681992D01*
X121830081Y-64680228D01*
X121830079Y-64680228D01*
X121824911Y-64680165D01*
X121604091Y-64713955D01*
X121391756Y-64783357D01*
X121361443Y-64799137D01*
X121215643Y-64875036D01*
X121193607Y-64886507D01*
X121189474Y-64889610D01*
X121189471Y-64889612D01*
X121038579Y-65002905D01*
X121014965Y-65020635D01*
X120989546Y-65047234D01*
X120878233Y-65163717D01*
X120860629Y-65182138D01*
X120857720Y-65186403D01*
X120857714Y-65186411D01*
X120855432Y-65189757D01*
X120753000Y-65339917D01*
X120752898Y-65340066D01*
X120697987Y-65385069D01*
X120627462Y-65393240D01*
X120563715Y-65361986D01*
X120543018Y-65337502D01*
X120462426Y-65212926D01*
X120456136Y-65204757D01*
X120312806Y-65047240D01*
X120305273Y-65040215D01*
X120138139Y-64908222D01*
X120129552Y-64902517D01*
X119943114Y-64799597D01*
X119933705Y-64795369D01*
X119847076Y-64764692D01*
X119832996Y-64763920D01*
X119830000Y-64769632D01*
X119830000Y-67304753D01*
X119833973Y-67318284D01*
X119841617Y-67319383D01*
X119872250Y-67310192D01*
X119881845Y-67306432D01*
X120073095Y-67212739D01*
X120081945Y-67207464D01*
X120255328Y-67083792D01*
X120263200Y-67077139D01*
X120414052Y-66926812D01*
X120420730Y-66918965D01*
X120548022Y-66741819D01*
X120549279Y-66742722D01*
X120596373Y-66699362D01*
X120666311Y-66687145D01*
X120731751Y-66714678D01*
X120759579Y-66746511D01*
X120819987Y-66845088D01*
X120877786Y-66911812D01*
X120880737Y-66915219D01*
X120910220Y-66979804D01*
X120911500Y-66997717D01*
X120911500Y-68110076D01*
X120891498Y-68178197D01*
X120874595Y-68199171D01*
X120261671Y-68812095D01*
X120199359Y-68846121D01*
X120172576Y-68849000D01*
X118179350Y-68849000D01*
X118165742Y-68848263D01*
X118160550Y-68847699D01*
X118128112Y-68844175D01*
X118078070Y-68848553D01*
X118073288Y-68848879D01*
X118070810Y-68849000D01*
X118067731Y-68849000D01*
X118064677Y-68849299D01*
X118064666Y-68849300D01*
X118025029Y-68853187D01*
X118023715Y-68853309D01*
X117988188Y-68856417D01*
X117931087Y-68861413D01*
X117925968Y-68862900D01*
X117920667Y-68863420D01*
X117831666Y-68890291D01*
X117830533Y-68890626D01*
X117747086Y-68914870D01*
X117747082Y-68914872D01*
X117741164Y-68916591D01*
X117736432Y-68919044D01*
X117731331Y-68920584D01*
X117725888Y-68923478D01*
X117649240Y-68964231D01*
X117648074Y-68964843D01*
X117595046Y-68992331D01*
X117565574Y-69007608D01*
X117561411Y-69010931D01*
X117556704Y-69013434D01*
X117484582Y-69072255D01*
X117483726Y-69072946D01*
X117444527Y-69104238D01*
X117442023Y-69106742D01*
X117441305Y-69107384D01*
X117436972Y-69111085D01*
X117403438Y-69138435D01*
X117374209Y-69173767D01*
X117366228Y-69182537D01*
X116738884Y-69809882D01*
X116676571Y-69843907D01*
X116660771Y-69846308D01*
X116601913Y-69851457D01*
X116481667Y-69883677D01*
X116386067Y-69909293D01*
X116386065Y-69909294D01*
X116380757Y-69910716D01*
X116375776Y-69913039D01*
X116375775Y-69913039D01*
X116178238Y-70005151D01*
X116178233Y-70005154D01*
X116173251Y-70007477D01*
X116168743Y-70010633D01*
X116168737Y-70010637D01*
X115997890Y-70130265D01*
X115930616Y-70152953D01*
X115861756Y-70135668D01*
X115813172Y-70083898D01*
X115800008Y-70017166D01*
X115800035Y-70016833D01*
X115813165Y-69850000D01*
X115794535Y-69613289D01*
X115779996Y-69552727D01*
X115743873Y-69402266D01*
X115739105Y-69382406D01*
X115737211Y-69377833D01*
X115650135Y-69167611D01*
X115650133Y-69167607D01*
X115648240Y-69163037D01*
X115638631Y-69147356D01*
X115526759Y-68964798D01*
X115526755Y-68964792D01*
X115524176Y-68960584D01*
X115369969Y-68780031D01*
X115189416Y-68625824D01*
X115185208Y-68623245D01*
X115185202Y-68623241D01*
X114991183Y-68504346D01*
X114986963Y-68501760D01*
X114982393Y-68499867D01*
X114982389Y-68499865D01*
X114772167Y-68412789D01*
X114772165Y-68412788D01*
X114767594Y-68410895D01*
X114687391Y-68391640D01*
X114541524Y-68356620D01*
X114541518Y-68356619D01*
X114536711Y-68355465D01*
X114300000Y-68336835D01*
X114063289Y-68355465D01*
X114058482Y-68356619D01*
X114058476Y-68356620D01*
X113912609Y-68391640D01*
X113832406Y-68410895D01*
X113827835Y-68412788D01*
X113827833Y-68412789D01*
X113617611Y-68499865D01*
X113617607Y-68499867D01*
X113613037Y-68501760D01*
X113608817Y-68504346D01*
X113414798Y-68623241D01*
X113414792Y-68623245D01*
X113410584Y-68625824D01*
X113230031Y-68780031D01*
X113226823Y-68783787D01*
X113108495Y-68922331D01*
X113049044Y-68961140D01*
X113012684Y-68966500D01*
X112779188Y-68966500D01*
X112711067Y-68946498D01*
X112690093Y-68929595D01*
X112604300Y-68843802D01*
X112599792Y-68840645D01*
X112599789Y-68840643D01*
X112421500Y-68715804D01*
X112416749Y-68712477D01*
X112411767Y-68710154D01*
X112411762Y-68710151D01*
X112214225Y-68618039D01*
X112214224Y-68618039D01*
X112209243Y-68615716D01*
X112203935Y-68614294D01*
X112203933Y-68614293D01*
X111993402Y-68557881D01*
X111993400Y-68557881D01*
X111988087Y-68556457D01*
X111760000Y-68536502D01*
X111531913Y-68556457D01*
X111526600Y-68557881D01*
X111526598Y-68557881D01*
X111316067Y-68614293D01*
X111316065Y-68614294D01*
X111310757Y-68615716D01*
X111305776Y-68618039D01*
X111305775Y-68618039D01*
X111108238Y-68710151D01*
X111108233Y-68710154D01*
X111103251Y-68712477D01*
X111098500Y-68715804D01*
X110920211Y-68840643D01*
X110920208Y-68840645D01*
X110915700Y-68843802D01*
X110753802Y-69005700D01*
X110750645Y-69010208D01*
X110750643Y-69010211D01*
X110715252Y-69060755D01*
X110622477Y-69193251D01*
X110620154Y-69198233D01*
X110620151Y-69198238D01*
X110532029Y-69387218D01*
X110525716Y-69400757D01*
X110524294Y-69406065D01*
X110524293Y-69406067D01*
X110476207Y-69585526D01*
X110439255Y-69646149D01*
X110375394Y-69677170D01*
X110304900Y-69668742D01*
X110250153Y-69623539D01*
X110228500Y-69552915D01*
X110228500Y-66872487D01*
X110248502Y-66804366D01*
X110263406Y-66785436D01*
X110355730Y-66688825D01*
X110355731Y-66688824D01*
X110359301Y-66685088D01*
X110384840Y-66647649D01*
X110439751Y-66602648D01*
X110510275Y-66594477D01*
X110574022Y-66625731D01*
X110594716Y-66650210D01*
X110596085Y-66652326D01*
X110602378Y-66660498D01*
X110757050Y-66830480D01*
X110764583Y-66837506D01*
X110944944Y-66979945D01*
X110953531Y-66985650D01*
X111154725Y-67096716D01*
X111164134Y-67100944D01*
X111292924Y-67146551D01*
X111307004Y-67147323D01*
X111310000Y-67141612D01*
X111310000Y-67133918D01*
X112210000Y-67133918D01*
X112213973Y-67147449D01*
X112220954Y-67148453D01*
X112322993Y-67115101D01*
X112332495Y-67111106D01*
X112536344Y-67004989D01*
X112545069Y-66999495D01*
X112728852Y-66861507D01*
X112736559Y-66854664D01*
X112895339Y-66688509D01*
X112901826Y-66680499D01*
X113025379Y-66499377D01*
X118100770Y-66499377D01*
X118161770Y-66649603D01*
X118166413Y-66658794D01*
X118277694Y-66840388D01*
X118283777Y-66848699D01*
X118423213Y-67009667D01*
X118430580Y-67016883D01*
X118594434Y-67152916D01*
X118602881Y-67158831D01*
X118786756Y-67266279D01*
X118796043Y-67270729D01*
X118913078Y-67315420D01*
X118927134Y-67316535D01*
X118930000Y-67311382D01*
X118930000Y-66508115D01*
X118925525Y-66492876D01*
X118924135Y-66491671D01*
X118916452Y-66490000D01*
X118115078Y-66490000D01*
X118101547Y-66493973D01*
X118100770Y-66499377D01*
X113025379Y-66499377D01*
X113031330Y-66490653D01*
X113036429Y-66481679D01*
X113133187Y-66273231D01*
X113136750Y-66263544D01*
X113159237Y-66182460D01*
X113159024Y-66168356D01*
X113151373Y-66165000D01*
X112228115Y-66165000D01*
X112212876Y-66169475D01*
X112211671Y-66170865D01*
X112210000Y-66178548D01*
X112210000Y-67133918D01*
X111310000Y-67133918D01*
X111310000Y-65572994D01*
X118100316Y-65572994D01*
X118100522Y-65586643D01*
X118108176Y-65590000D01*
X118911885Y-65590000D01*
X118927124Y-65585525D01*
X118928329Y-65584135D01*
X118930000Y-65576452D01*
X118930000Y-64776424D01*
X118926027Y-64762893D01*
X118919045Y-64761889D01*
X118856873Y-64782210D01*
X118847356Y-64786211D01*
X118658463Y-64884542D01*
X118649738Y-64890036D01*
X118479433Y-65017905D01*
X118471726Y-65024748D01*
X118324590Y-65178717D01*
X118318104Y-65186727D01*
X118198098Y-65362649D01*
X118193000Y-65371623D01*
X118103333Y-65564794D01*
X118100316Y-65572994D01*
X111310000Y-65572994D01*
X111310000Y-65246885D01*
X112210000Y-65246885D01*
X112214475Y-65262124D01*
X112215865Y-65263329D01*
X112223548Y-65265000D01*
X113146732Y-65265000D01*
X113160263Y-65261027D01*
X113161568Y-65251947D01*
X113148578Y-65200229D01*
X113145259Y-65190481D01*
X113053615Y-64979711D01*
X113048749Y-64970636D01*
X112923915Y-64777673D01*
X112917622Y-64769502D01*
X112762950Y-64599520D01*
X112755417Y-64592494D01*
X112575056Y-64450055D01*
X112566469Y-64444350D01*
X112365275Y-64333284D01*
X112355866Y-64329056D01*
X112227076Y-64283449D01*
X112212996Y-64282677D01*
X112210000Y-64288388D01*
X112210000Y-65246885D01*
X111310000Y-65246885D01*
X111310000Y-64296082D01*
X111306027Y-64282551D01*
X111299046Y-64281547D01*
X111197007Y-64314899D01*
X111187505Y-64318894D01*
X110983656Y-64425011D01*
X110974931Y-64430505D01*
X110791148Y-64568493D01*
X110783441Y-64575336D01*
X110624661Y-64741491D01*
X110618177Y-64749498D01*
X110595763Y-64782356D01*
X110540852Y-64827359D01*
X110470328Y-64835532D01*
X110406580Y-64804278D01*
X110385884Y-64779796D01*
X110384311Y-64777365D01*
X110381502Y-64773023D01*
X110219814Y-64595330D01*
X110142983Y-64534653D01*
X110035330Y-64449633D01*
X110035325Y-64449630D01*
X110031276Y-64446432D01*
X110026760Y-64443939D01*
X110026757Y-64443937D01*
X109825474Y-64332823D01*
X109825470Y-64332821D01*
X109820950Y-64330326D01*
X109816081Y-64328602D01*
X109816077Y-64328600D01*
X109599360Y-64251856D01*
X109599356Y-64251855D01*
X109594485Y-64250130D01*
X109589392Y-64249223D01*
X109589389Y-64249222D01*
X109363052Y-64208905D01*
X109363046Y-64208904D01*
X109357963Y-64207999D01*
X109265474Y-64206869D01*
X109122907Y-64205127D01*
X109122905Y-64205127D01*
X109117737Y-64205064D01*
X108880256Y-64241404D01*
X108768003Y-64278094D01*
X108656817Y-64314434D01*
X108656811Y-64314437D01*
X108651899Y-64316042D01*
X108647313Y-64318429D01*
X108647309Y-64318431D01*
X108443393Y-64424584D01*
X108438800Y-64426975D01*
X108283717Y-64543415D01*
X108217235Y-64568320D01*
X108147839Y-64553328D01*
X108097565Y-64503198D01*
X108090085Y-64486885D01*
X108086269Y-64476707D01*
X108086267Y-64476703D01*
X108083115Y-64468295D01*
X107995761Y-64351739D01*
X107879205Y-64264385D01*
X107742816Y-64213255D01*
X107680634Y-64206500D01*
X105679366Y-64206500D01*
X105617184Y-64213255D01*
X105480795Y-64264385D01*
X105364239Y-64351739D01*
X105276885Y-64468295D01*
X105225755Y-64604684D01*
X105219000Y-64666866D01*
X105219000Y-66763134D01*
X105225755Y-66825316D01*
X105276885Y-66961705D01*
X105364239Y-67078261D01*
X105480795Y-67165615D01*
X105489203Y-67168767D01*
X105589730Y-67206453D01*
X105646494Y-67249095D01*
X105671194Y-67315656D01*
X105671500Y-67324435D01*
X105671500Y-68110074D01*
X105651498Y-68178195D01*
X105634596Y-68199169D01*
X105332006Y-68501760D01*
X105062392Y-68771374D01*
X105000079Y-68805399D01*
X104929264Y-68800335D01*
X104901025Y-68785492D01*
X104801500Y-68715804D01*
X104796749Y-68712477D01*
X104791767Y-68710154D01*
X104791762Y-68710151D01*
X104594225Y-68618039D01*
X104594224Y-68618039D01*
X104589243Y-68615716D01*
X104583935Y-68614294D01*
X104583933Y-68614293D01*
X104373402Y-68557881D01*
X104373400Y-68557881D01*
X104368087Y-68556457D01*
X104140000Y-68536502D01*
X103911913Y-68556457D01*
X103906600Y-68557881D01*
X103906598Y-68557881D01*
X103696067Y-68614293D01*
X103696065Y-68614294D01*
X103690757Y-68615716D01*
X103685775Y-68618039D01*
X103685770Y-68618041D01*
X103657749Y-68631107D01*
X103587557Y-68641768D01*
X103522745Y-68612787D01*
X103483889Y-68553367D01*
X103478500Y-68516912D01*
X103478500Y-62964500D01*
X103498502Y-62896379D01*
X103552158Y-62849886D01*
X103604500Y-62838500D01*
X161825500Y-62838500D01*
X161893621Y-62858502D01*
G37*
%TD.AperFunction*%
%TA.AperFunction,Conductor*%
G36*
X116108215Y-72236984D02*
G01*
X116173251Y-72282523D01*
X116178233Y-72284846D01*
X116178238Y-72284849D01*
X116319269Y-72350612D01*
X116380757Y-72379284D01*
X116386065Y-72380706D01*
X116386067Y-72380707D01*
X116439148Y-72394930D01*
X116601913Y-72438543D01*
X116660771Y-72443692D01*
X116726888Y-72469555D01*
X116738884Y-72480118D01*
X117337043Y-73078277D01*
X117345868Y-73088078D01*
X117367064Y-73114252D01*
X117370947Y-73119047D01*
X117375682Y-73122992D01*
X117407702Y-73149670D01*
X117416143Y-73157378D01*
X117737063Y-73478297D01*
X118034882Y-73776116D01*
X118068907Y-73838429D01*
X118071308Y-73854229D01*
X118076457Y-73913087D01*
X118135716Y-74134243D01*
X118138039Y-74139224D01*
X118138039Y-74139225D01*
X118230151Y-74336762D01*
X118230154Y-74336767D01*
X118232477Y-74341749D01*
X118363802Y-74529300D01*
X118525700Y-74691198D01*
X118530208Y-74694355D01*
X118530211Y-74694357D01*
X118608389Y-74749098D01*
X118713251Y-74822523D01*
X118718233Y-74824846D01*
X118718238Y-74824849D01*
X118915775Y-74916961D01*
X118920757Y-74919284D01*
X118926065Y-74920706D01*
X118926067Y-74920707D01*
X118994141Y-74938947D01*
X119141913Y-74978543D01*
X119200769Y-74983692D01*
X119266887Y-75009555D01*
X119278883Y-75020118D01*
X120624595Y-76365829D01*
X120658620Y-76428141D01*
X120661500Y-76454924D01*
X120661500Y-76506999D01*
X120661749Y-76509786D01*
X120661749Y-76509792D01*
X120664700Y-76542858D01*
X120676383Y-76673762D01*
X120677864Y-76679176D01*
X120677865Y-76679181D01*
X120696987Y-76749077D01*
X120735663Y-76890451D01*
X120738075Y-76895509D01*
X120738077Y-76895513D01*
X120772865Y-76968446D01*
X120832378Y-77093218D01*
X120882149Y-77162482D01*
X120887823Y-77170378D01*
X120911500Y-77243904D01*
X120911500Y-77408157D01*
X120910763Y-77421764D01*
X120908677Y-77440970D01*
X120906676Y-77459388D01*
X120907213Y-77465523D01*
X120911050Y-77509388D01*
X120911379Y-77514214D01*
X120911500Y-77516686D01*
X120911500Y-77519769D01*
X120911801Y-77522837D01*
X120915690Y-77562506D01*
X120915812Y-77563819D01*
X120919403Y-77604866D01*
X120923913Y-77656413D01*
X120925400Y-77661532D01*
X120925920Y-77666833D01*
X120952791Y-77755834D01*
X120953126Y-77756967D01*
X120979091Y-77846336D01*
X120981544Y-77851068D01*
X120983084Y-77856169D01*
X120985978Y-77861612D01*
X121026731Y-77938260D01*
X121027343Y-77939426D01*
X121070108Y-78021926D01*
X121073431Y-78026089D01*
X121075934Y-78030796D01*
X121134755Y-78102918D01*
X121135446Y-78103774D01*
X121166738Y-78142973D01*
X121169242Y-78145477D01*
X121169884Y-78146195D01*
X121173585Y-78150528D01*
X121200935Y-78184062D01*
X121235199Y-78212407D01*
X121236264Y-78213288D01*
X121245045Y-78221279D01*
X121798145Y-78774379D01*
X121807247Y-78784522D01*
X121830968Y-78814025D01*
X121857365Y-78836175D01*
X121869421Y-78846291D01*
X121873070Y-78849473D01*
X121874883Y-78851117D01*
X121877075Y-78853309D01*
X121910276Y-78880580D01*
X121911164Y-78881318D01*
X121946437Y-78910915D01*
X121977753Y-78937193D01*
X121977756Y-78937195D01*
X121982474Y-78941154D01*
X121987147Y-78943723D01*
X121991262Y-78947103D01*
X121996691Y-78950014D01*
X121996694Y-78950016D01*
X122073180Y-78991028D01*
X122074338Y-78991657D01*
X122138568Y-79026967D01*
X122155787Y-79036433D01*
X122160865Y-79038044D01*
X122165563Y-79040563D01*
X122254498Y-79067753D01*
X122255702Y-79068128D01*
X122344306Y-79096235D01*
X122349597Y-79096828D01*
X122354698Y-79098388D01*
X122447311Y-79107795D01*
X122448431Y-79107915D01*
X122498227Y-79113500D01*
X122501756Y-79113500D01*
X122502739Y-79113555D01*
X122508426Y-79114003D01*
X122528683Y-79116060D01*
X122545336Y-79117752D01*
X122545339Y-79117752D01*
X122551463Y-79118374D01*
X122597112Y-79114059D01*
X122608969Y-79113500D01*
X123898535Y-79113500D01*
X123966656Y-79133502D01*
X124013149Y-79187158D01*
X124023253Y-79257432D01*
X123993759Y-79322012D01*
X123961629Y-79346264D01*
X123944189Y-79361621D01*
X123945996Y-79367600D01*
X124447188Y-79868792D01*
X124461132Y-79876406D01*
X124462965Y-79876275D01*
X124469580Y-79872024D01*
X124968834Y-79372770D01*
X124975594Y-79360390D01*
X124971852Y-79355391D01*
X124968215Y-79353695D01*
X124914930Y-79306778D01*
X124895469Y-79238500D01*
X124916011Y-79170540D01*
X124970034Y-79124475D01*
X125021465Y-79113500D01*
X132245075Y-79113500D01*
X132313196Y-79133502D01*
X132334170Y-79150405D01*
X138654595Y-85470829D01*
X138688621Y-85533141D01*
X138691500Y-85559924D01*
X138691500Y-88847511D01*
X138668713Y-88919782D01*
X138636310Y-88966059D01*
X138595512Y-89024324D01*
X138593189Y-89029306D01*
X138593186Y-89029311D01*
X138508004Y-89211985D01*
X138501560Y-89225804D01*
X138475071Y-89324664D01*
X138473240Y-89331496D01*
X138436288Y-89392119D01*
X138372428Y-89423140D01*
X138301933Y-89414712D01*
X138262438Y-89387980D01*
X130855912Y-81981454D01*
X130843075Y-81966426D01*
X130835185Y-81955566D01*
X130785816Y-81911114D01*
X130781031Y-81906573D01*
X130766986Y-81892528D01*
X130764409Y-81890441D01*
X130751554Y-81880031D01*
X130746538Y-81875747D01*
X130702080Y-81835717D01*
X130702075Y-81835713D01*
X130697169Y-81831296D01*
X130685552Y-81824589D01*
X130669259Y-81813391D01*
X130663971Y-81809109D01*
X130658839Y-81804953D01*
X130599637Y-81774787D01*
X130593867Y-81771654D01*
X130542055Y-81741740D01*
X130542050Y-81741738D01*
X130536331Y-81738436D01*
X130530051Y-81736395D01*
X130530043Y-81736392D01*
X130523579Y-81734292D01*
X130505317Y-81726728D01*
X130499251Y-81723637D01*
X130499242Y-81723634D01*
X130493363Y-81720638D01*
X130439425Y-81706185D01*
X130429196Y-81703444D01*
X130422894Y-81701578D01*
X130359702Y-81681046D01*
X130346372Y-81679645D01*
X130326929Y-81676042D01*
X130313971Y-81672570D01*
X130307381Y-81672225D01*
X130307377Y-81672224D01*
X130263427Y-81669921D01*
X130247628Y-81669093D01*
X130241069Y-81668577D01*
X130221306Y-81666500D01*
X130201445Y-81666500D01*
X130194850Y-81666327D01*
X130135098Y-81663195D01*
X130135094Y-81663195D01*
X130128507Y-81662850D01*
X130115253Y-81664949D01*
X130095544Y-81666500D01*
X125024294Y-81666500D01*
X124956173Y-81646498D01*
X124935199Y-81629595D01*
X123824736Y-80519132D01*
X125101594Y-80519132D01*
X125101725Y-80520965D01*
X125105976Y-80527580D01*
X125605230Y-81026834D01*
X125617610Y-81033594D01*
X125622609Y-81029852D01*
X125655645Y-80959007D01*
X125659391Y-80948715D01*
X125714059Y-80744691D01*
X125715962Y-80733896D01*
X125734372Y-80523475D01*
X125734372Y-80512525D01*
X125715962Y-80302104D01*
X125714059Y-80291309D01*
X125659391Y-80087285D01*
X125655645Y-80076993D01*
X125625698Y-80012772D01*
X125616379Y-80002189D01*
X125610400Y-80003996D01*
X125109208Y-80505188D01*
X125101594Y-80519132D01*
X123824736Y-80519132D01*
X123314770Y-80009166D01*
X123302390Y-80002406D01*
X123297391Y-80006148D01*
X123264355Y-80076993D01*
X123260609Y-80087285D01*
X123205941Y-80291309D01*
X123204038Y-80302104D01*
X123185628Y-80512525D01*
X123185628Y-80523475D01*
X123204038Y-80733896D01*
X123205941Y-80744691D01*
X123260609Y-80948715D01*
X123264355Y-80959007D01*
X123325741Y-81090648D01*
X123336402Y-81160839D01*
X123307422Y-81225652D01*
X123248003Y-81264509D01*
X123177008Y-81265072D01*
X123122451Y-81232993D01*
X117520912Y-75631454D01*
X117508075Y-75616426D01*
X117500185Y-75605566D01*
X117481565Y-75588800D01*
X117450816Y-75561114D01*
X117446031Y-75556573D01*
X117431986Y-75542528D01*
X117428653Y-75539829D01*
X117416554Y-75530031D01*
X117411538Y-75525747D01*
X117367080Y-75485717D01*
X117367075Y-75485713D01*
X117362169Y-75481296D01*
X117350552Y-75474589D01*
X117334259Y-75463391D01*
X117328971Y-75459109D01*
X117323839Y-75454953D01*
X117264637Y-75424787D01*
X117258867Y-75421654D01*
X117207055Y-75391740D01*
X117207050Y-75391738D01*
X117201331Y-75388436D01*
X117195051Y-75386395D01*
X117195043Y-75386392D01*
X117188579Y-75384292D01*
X117170317Y-75376728D01*
X117164251Y-75373637D01*
X117164242Y-75373634D01*
X117158363Y-75370638D01*
X117118024Y-75359829D01*
X117094196Y-75353444D01*
X117087894Y-75351578D01*
X117024702Y-75331046D01*
X117011372Y-75329645D01*
X116991929Y-75326042D01*
X116978971Y-75322570D01*
X116972381Y-75322225D01*
X116972377Y-75322224D01*
X116928427Y-75319921D01*
X116912628Y-75319093D01*
X116906069Y-75318577D01*
X116886306Y-75316500D01*
X116866445Y-75316500D01*
X116859852Y-75316327D01*
X116850292Y-75315826D01*
X116783312Y-75292285D01*
X116761077Y-75271830D01*
X116643177Y-75133787D01*
X116639969Y-75130031D01*
X116459416Y-74975824D01*
X116455208Y-74973245D01*
X116455202Y-74973241D01*
X116261183Y-74854346D01*
X116256963Y-74851760D01*
X116252393Y-74849867D01*
X116252389Y-74849865D01*
X116042167Y-74762789D01*
X116042165Y-74762788D01*
X116037594Y-74760895D01*
X115957391Y-74741640D01*
X115811524Y-74706620D01*
X115811518Y-74706619D01*
X115806711Y-74705465D01*
X115570000Y-74686835D01*
X115333289Y-74705465D01*
X115328482Y-74706619D01*
X115328476Y-74706620D01*
X115182609Y-74741640D01*
X115102406Y-74760895D01*
X115097835Y-74762788D01*
X115097833Y-74762789D01*
X114887611Y-74849865D01*
X114887607Y-74849867D01*
X114883037Y-74851760D01*
X114878817Y-74854346D01*
X114684798Y-74973241D01*
X114684792Y-74973245D01*
X114680584Y-74975824D01*
X114500031Y-75130031D01*
X114345824Y-75310584D01*
X114343245Y-75314792D01*
X114343241Y-75314798D01*
X114259190Y-75451957D01*
X114221760Y-75513037D01*
X114219867Y-75517607D01*
X114219865Y-75517611D01*
X114135694Y-75720819D01*
X114130895Y-75732406D01*
X114121144Y-75773021D01*
X114092340Y-75893001D01*
X114075465Y-75963289D01*
X114056835Y-76200000D01*
X114075465Y-76436711D01*
X114076619Y-76441518D01*
X114076620Y-76441524D01*
X114101853Y-76546624D01*
X114130895Y-76667594D01*
X114132788Y-76672165D01*
X114132789Y-76672167D01*
X114218530Y-76879164D01*
X114221760Y-76886963D01*
X114224346Y-76891183D01*
X114343241Y-77085202D01*
X114343245Y-77085208D01*
X114345824Y-77089416D01*
X114500031Y-77269969D01*
X114680584Y-77424176D01*
X114684792Y-77426755D01*
X114684798Y-77426759D01*
X114836577Y-77519769D01*
X114883037Y-77548240D01*
X114887607Y-77550133D01*
X114887611Y-77550135D01*
X115056084Y-77619918D01*
X115102406Y-77639105D01*
X115182609Y-77658360D01*
X115328476Y-77693380D01*
X115328482Y-77693381D01*
X115333289Y-77694535D01*
X115570000Y-77713165D01*
X115806711Y-77694535D01*
X115811518Y-77693381D01*
X115811524Y-77693380D01*
X115957391Y-77658360D01*
X116037594Y-77639105D01*
X116083916Y-77619918D01*
X116252389Y-77550135D01*
X116252393Y-77550133D01*
X116256963Y-77548240D01*
X116303423Y-77519769D01*
X116455202Y-77426759D01*
X116455208Y-77426755D01*
X116459416Y-77424176D01*
X116463178Y-77420963D01*
X116463182Y-77420960D01*
X116562483Y-77336150D01*
X116627273Y-77307119D01*
X116697473Y-77317724D01*
X116733408Y-77342866D01*
X122111947Y-82721405D01*
X122145973Y-82783717D01*
X122140908Y-82854532D01*
X122098361Y-82911368D01*
X122031841Y-82936179D01*
X122022852Y-82936500D01*
X120113225Y-82936500D01*
X120045104Y-82916498D01*
X119998611Y-82862842D01*
X119988507Y-82792568D01*
X120005792Y-82744665D01*
X120090654Y-82606183D01*
X120093240Y-82601963D01*
X120095897Y-82595550D01*
X120182211Y-82387167D01*
X120182212Y-82387165D01*
X120184105Y-82382594D01*
X120217593Y-82243108D01*
X120238380Y-82156524D01*
X120238381Y-82156518D01*
X120239535Y-82151711D01*
X120258165Y-81915000D01*
X120239535Y-81678289D01*
X120237509Y-81669848D01*
X120201893Y-81521498D01*
X120184105Y-81447406D01*
X120152264Y-81370534D01*
X120095135Y-81232611D01*
X120095133Y-81232607D01*
X120093240Y-81228037D01*
X120073733Y-81196205D01*
X119971759Y-81029798D01*
X119971755Y-81029792D01*
X119969176Y-81025584D01*
X119826214Y-80858197D01*
X119818177Y-80848787D01*
X119814969Y-80845031D01*
X119634416Y-80690824D01*
X119630208Y-80688245D01*
X119630202Y-80688241D01*
X119436183Y-80569346D01*
X119431963Y-80566760D01*
X119427393Y-80564867D01*
X119427389Y-80564865D01*
X119217167Y-80477789D01*
X119217165Y-80477788D01*
X119212594Y-80475895D01*
X119120399Y-80453761D01*
X118986524Y-80421620D01*
X118986518Y-80421619D01*
X118981711Y-80420465D01*
X118745000Y-80401835D01*
X118508289Y-80420465D01*
X118503482Y-80421619D01*
X118503476Y-80421620D01*
X118369601Y-80453761D01*
X118277406Y-80475895D01*
X118272835Y-80477788D01*
X118272833Y-80477789D01*
X118062611Y-80564865D01*
X118062607Y-80564867D01*
X118058037Y-80566760D01*
X118053817Y-80569346D01*
X117859798Y-80688241D01*
X117859792Y-80688245D01*
X117855584Y-80690824D01*
X117675031Y-80845031D01*
X117671823Y-80848787D01*
X117663786Y-80858197D01*
X117520824Y-81025584D01*
X117518245Y-81029792D01*
X117518241Y-81029798D01*
X117416267Y-81196205D01*
X117396760Y-81228037D01*
X117394867Y-81232607D01*
X117394865Y-81232611D01*
X117307789Y-81442833D01*
X117305895Y-81447406D01*
X117304740Y-81452216D01*
X117304019Y-81454436D01*
X117263946Y-81513041D01*
X117198550Y-81540679D01*
X117184186Y-81541500D01*
X114595154Y-81541500D01*
X114527033Y-81521498D01*
X114480540Y-81467842D01*
X114470436Y-81397568D01*
X114499930Y-81332988D01*
X114562543Y-81293793D01*
X114743761Y-81245236D01*
X114754053Y-81241490D01*
X114833823Y-81204293D01*
X114844406Y-81194975D01*
X114842598Y-81188994D01*
X114312812Y-80659208D01*
X114298868Y-80651594D01*
X114297035Y-80651725D01*
X114290420Y-80655976D01*
X113762571Y-81183825D01*
X113755811Y-81196205D01*
X113759553Y-81201204D01*
X113845947Y-81241490D01*
X113856239Y-81245236D01*
X114037457Y-81293793D01*
X114098080Y-81330745D01*
X114129101Y-81394605D01*
X114120673Y-81465100D01*
X114075470Y-81519847D01*
X114004846Y-81541500D01*
X112894500Y-81541500D01*
X112826379Y-81521498D01*
X112779886Y-81467842D01*
X112768500Y-81415500D01*
X112768500Y-80305154D01*
X112788502Y-80237033D01*
X112842158Y-80190540D01*
X112912432Y-80180436D01*
X112977012Y-80209930D01*
X113016207Y-80272543D01*
X113064764Y-80453761D01*
X113068510Y-80464053D01*
X113105707Y-80543823D01*
X113115025Y-80554406D01*
X113121006Y-80552598D01*
X113650792Y-80022812D01*
X113657170Y-80011132D01*
X114941594Y-80011132D01*
X114941725Y-80012965D01*
X114945976Y-80019580D01*
X115473825Y-80547429D01*
X115486205Y-80554189D01*
X115491204Y-80550447D01*
X115531490Y-80464053D01*
X115535236Y-80453761D01*
X115591625Y-80243312D01*
X115593528Y-80232519D01*
X115612517Y-80015475D01*
X115612517Y-80004525D01*
X115593528Y-79787481D01*
X115591625Y-79776688D01*
X115535236Y-79566239D01*
X115531490Y-79555947D01*
X115494293Y-79476177D01*
X115484975Y-79465594D01*
X115478994Y-79467402D01*
X114949208Y-79997188D01*
X114941594Y-80011132D01*
X113657170Y-80011132D01*
X113658406Y-80008868D01*
X113658275Y-80007035D01*
X113654024Y-80000420D01*
X113126175Y-79472571D01*
X113113795Y-79465811D01*
X113108796Y-79469553D01*
X113068510Y-79555947D01*
X113064764Y-79566239D01*
X113016207Y-79747457D01*
X112979255Y-79808080D01*
X112915395Y-79839101D01*
X112844900Y-79830673D01*
X112790153Y-79785470D01*
X112768500Y-79714846D01*
X112768500Y-78825025D01*
X113755594Y-78825025D01*
X113757402Y-78831006D01*
X114287188Y-79360792D01*
X114301132Y-79368406D01*
X114302965Y-79368275D01*
X114309580Y-79364024D01*
X114837429Y-78836175D01*
X114844189Y-78823795D01*
X114840447Y-78818796D01*
X114754053Y-78778510D01*
X114743761Y-78774764D01*
X114533312Y-78718375D01*
X114522519Y-78716472D01*
X114305475Y-78697483D01*
X114294525Y-78697483D01*
X114077481Y-78716472D01*
X114066688Y-78718375D01*
X113856239Y-78774764D01*
X113845947Y-78778510D01*
X113766177Y-78815707D01*
X113755594Y-78825025D01*
X112768500Y-78825025D01*
X112768500Y-75399925D01*
X112788502Y-75331804D01*
X112805405Y-75310830D01*
X113865463Y-74250771D01*
X113865470Y-74250765D01*
X114085348Y-74030887D01*
X114147660Y-73996861D01*
X114184326Y-73994370D01*
X114300000Y-74003474D01*
X114552403Y-73983609D01*
X114557210Y-73982455D01*
X114557216Y-73982454D01*
X114731487Y-73940615D01*
X114798591Y-73924505D01*
X114826157Y-73913087D01*
X115027928Y-73829511D01*
X115027932Y-73829509D01*
X115032502Y-73827616D01*
X115248376Y-73695328D01*
X115440898Y-73530898D01*
X115605328Y-73338376D01*
X115737616Y-73122502D01*
X115741034Y-73114252D01*
X115832611Y-72893164D01*
X115832612Y-72893162D01*
X115834505Y-72888591D01*
X115868916Y-72745257D01*
X115892454Y-72647216D01*
X115892455Y-72647210D01*
X115893609Y-72642403D01*
X115913474Y-72390000D01*
X115913086Y-72385070D01*
X115913086Y-72385059D01*
X115910333Y-72350084D01*
X115924927Y-72280604D01*
X115974769Y-72230044D01*
X116044034Y-72214457D01*
X116108215Y-72236984D01*
G37*
%TD.AperFunction*%
%TD*%
M02*
