M48
; DRILL file {KiCad (6.0.8)} date Mon Jun 19 19:38:05 2023
; FORMAT={-:-/ absolute / metric / decimal}
; #@! TF.CreationDate,2023-06-19T19:38:05-04:00
; #@! TF.GenerationSoftware,Kicad,Pcbnew,(6.0.8)
; #@! TF.FileFunction,Plated,1,2,PTH
FMAT,2
METRIC
; #@! TA.AperFunction,Plated,PTH,ComponentDrill
T1C0.762
; #@! TA.AperFunction,Plated,PTH,ComponentDrill
T2C0.800
; #@! TA.AperFunction,Plated,PTH,ViaDrill
T3C1.000
; #@! TA.AperFunction,Plated,PTH,ComponentDrill
T4C1.000
; #@! TA.AperFunction,Plated,PTH,ComponentDrill
T5C1.020
; #@! TA.AperFunction,Plated,PTH,ComponentDrill
T6C1.100
; #@! TA.AperFunction,Plated,PTH,ComponentDrill
T7C1.200
%
G90
G05
T1
X124.46Y-80.518
X124.46Y-89.662
X139.7Y-80.518
X139.7Y-89.662
T2
X104.14Y-69.85
X106.68Y-80.01
X106.695Y-88.885
X111.76Y-69.85
X114.3Y-80.01
X114.315Y-88.885
X116.83Y-71.145
X119.37Y-73.685
X124.45Y-71.145
X126.99Y-73.685
X151.13Y-92.71
X151.13Y-95.25
X158.75Y-92.71
X158.75Y-95.25
T3
X107.984Y-77.436
X114.3Y-69.85
X115.57Y-76.2
X116.205Y-90.775
X116.84Y-80.01
X118.745Y-81.915
X119.38Y-89.535
X121.92Y-89.535
X127.0Y-96.52
X129.538Y-91.442
X129.54Y-93.98
X129.54Y-96.52
X142.24Y-87.63
X142.24Y-91.44
X142.24Y-93.98
X142.24Y-96.52
X147.32Y-92.71
X158.75Y-78.74
T4
X104.14Y-95.25
X104.14Y-97.79
X104.14Y-100.33
X104.155Y-80.01
X104.155Y-82.55
X104.155Y-86.36
X104.155Y-88.9
X104.155Y-91.44
X106.68Y-74.93
X106.68Y-95.25
X106.68Y-97.79
X106.68Y-100.33
X109.22Y-74.93
X111.735Y-92.71
X111.735Y-95.25
X111.735Y-97.79
X111.735Y-100.33
X119.38Y-66.04
X121.92Y-66.04
X124.46Y-66.04
X127.0Y-66.04
X129.55Y-66.025
X129.55Y-68.565
X129.55Y-71.105
X132.08Y-66.025
X132.08Y-68.565
X132.08Y-71.105
X134.62Y-66.04
X134.62Y-68.58
X137.16Y-66.04
X137.16Y-68.58
X139.7Y-66.04
X139.7Y-68.58
X142.21Y-66.04
X144.75Y-66.04
X147.29Y-66.04
X148.59Y-81.28
X148.59Y-88.88
X149.83Y-66.04
X152.37Y-66.04
X154.925Y-66.04
X154.94Y-72.39
X157.465Y-66.04
X157.48Y-72.39
X160.005Y-66.04
X160.02Y-72.39
T5
X121.92Y-76.2
X121.92Y-99.06
X124.46Y-76.2
X124.46Y-99.06
X127.0Y-76.2
X127.0Y-99.06
X129.54Y-76.2
X129.54Y-99.06
X132.08Y-76.2
X132.08Y-99.06
X134.62Y-76.2
X134.62Y-99.06
X137.16Y-76.2
X137.16Y-99.06
X139.7Y-76.2
X139.7Y-99.06
X142.24Y-76.2
X142.24Y-99.06
X144.78Y-76.2
X144.78Y-99.06
X147.32Y-76.2
X147.32Y-99.06
X149.86Y-76.2
X149.86Y-99.06
X152.4Y-76.2
X152.4Y-99.06
T6
X106.68Y-65.715
X106.68Y-72.39
X109.22Y-65.715
X111.76Y-65.715
X114.3Y-72.39
T7
X158.75Y-82.86
X158.75Y-86.36
T0
M30
